# Blender v3.3.1 OBJ File: 'Office Set.blend'
# www.blender.org
mtllib AlcoholDisp_1B.mtl
o AlcoholDisp_1B_Cube.096
v -14.533070 0.989653 5.389838
v -14.533070 1.007384 5.389838
v -14.532880 0.989653 5.613768
v -14.532880 1.007384 5.613768
v -14.557240 0.989653 5.634947
v -14.557240 1.007384 5.634947
v -14.716547 1.007384 5.389838
v -14.716547 0.989653 5.389838
v -14.692376 0.989653 5.634947
v -14.692376 1.007384 5.634947
v -14.716737 0.989653 5.613768
v -14.716737 1.007384 5.613768
v -14.555705 0.989653 5.642983
v -14.524575 0.989653 5.615486
v -14.725041 0.989653 5.615486
v -14.693912 0.989653 5.642983
v -14.524575 0.989653 5.389838
v -14.725041 0.989653 5.389838
v -14.555705 1.007384 5.642983
v -14.524575 1.007384 5.615486
v -14.725041 1.007384 5.615486
v -14.693912 1.007384 5.642983
v -14.524575 1.007384 5.389838
v -14.725041 1.007384 5.389838
v -14.546831 0.989653 5.631444
v -14.536469 0.989653 5.621997
v -14.536469 1.007384 5.621997
v -14.546831 1.007384 5.631444
v -14.702785 0.989653 5.631444
v -14.713147 0.989653 5.621997
v -14.702785 1.007384 5.631444
v -14.713147 1.007384 5.621997
v -14.540856 0.989653 5.637550
v -14.530492 0.989653 5.628102
v -14.719125 0.989653 5.628102
v -14.708760 0.989653 5.637550
v -14.530492 1.007384 5.628102
v -14.540856 1.007384 5.637550
v -14.708760 1.007384 5.637550
v -14.719125 1.007384 5.628102
vt 0.035599 0.974148
vt 0.037551 0.974043
vt 0.036738 0.974042
vt 0.036706 0.974063
vt 0.036740 0.974044
vt 0.036722 0.974044
vt 0.036734 0.974047
vt 0.036734 0.974047
vt 0.031514 0.950989
vt 0.038197 0.950932
vt 0.036766 0.967466
vt 0.032162 0.967466
vt 0.038372 0.974017
vt 0.037105 0.974047
vt 0.036423 0.974028
vt 0.035233 0.973982
vt 0.033110 0.967870
vt 0.035961 0.967867
vt 0.034832 0.967737
vt 0.034163 0.967738
vt 0.033314 0.967840
vt 0.036761 0.974046
vt 0.036765 0.974046
vt 0.036819 0.974047
vt 0.036764 0.974050
vt 0.036734 0.974047
vt 0.036367 0.967525
vt 0.033966 0.967592
vt 0.034631 0.967607
vt 0.034304 0.967607
vt 0.034978 0.967592
vt 0.032505 0.967525
vt 0.035664 0.967838
vt 0.036734 0.974047
vt 0.034581 0.967719
vt 0.036671 0.974041
vt 0.038372 0.950932
vt 0.034393 0.967719
vt 0.031566 0.950759
vt 0.036717 0.974044
vn 0.1295 0.6699 0.7311
vn 0.1295 -0.6699 0.7311
vn 0.3866 -0.6661 0.6378
vn 0.3866 0.6661 0.6378
vn 0.7322 -0.6613 0.1632
vn -0.6406 -0.7562 -0.1333
vn -0.7073 -0.7069 0.0006
vn 0.7071 -0.7071 0.0000
vn 0.7073 -0.7069 0.0006
vn 0.7073 0.7069 0.0006
vn 0.6406 0.7562 -0.1333
vn 0.6406 -0.7562 -0.1333
vn -0.1078 0.7454 -0.6579
vn -0.3317 0.7565 -0.5636
vn -0.3317 -0.7565 -0.5636
vn -0.1078 -0.7454 -0.6579
vn 0.1078 -0.7454 -0.6579
vn 0.1078 0.7454 -0.6579
vn 0.3317 0.7565 -0.5636
vn 0.3317 -0.7565 -0.5636
vn -0.1295 0.6699 0.7311
vn 0.7322 0.6613 0.1632
vn -0.6406 0.7562 -0.1333
vn -0.5311 0.7572 -0.3803
vn 0.6007 0.6657 0.4427
vn -0.7073 0.7069 0.0006
vn -0.7322 -0.6613 0.1632
vn 0.5311 -0.7572 -0.3803
vn -0.6007 -0.6657 0.4427
vn -0.6007 0.6657 0.4427
vn 0.5311 0.7572 -0.3803
vn -0.7322 0.6613 0.1632
vn -0.1295 -0.6699 0.7311
vn 0.7071 0.7071 0.0000
vn -0.3866 -0.6661 0.6378
vn -0.5311 -0.7572 -0.3803
vn -0.7071 -0.7071 0.0000
vn -0.3866 0.6661 0.6378
vn -0.7071 0.7071 0.0000
vn 0.6007 -0.6657 0.4427
usemtl Palette
s 1
f 19/1/1 13/2/2 33/3/3 38/4/4
f 14/5/5 3/6/6 1/7/7 17/8/8
f 8/9/9 7/10/10 12/11/11 11/12/12
f 6/13/13 28/14/14 25/15/15 5/16/16
f 9/17/17 10/18/18 6/13/13 5/16/16
f 31/19/19 10/18/18 9/17/17 29/20/20
f 19/1/1 6/13/13 10/18/18 22/21/21
f 20/22/22 4/23/23 27/24/24 37/25/25
f 3/6/6 4/23/23 2/26/26 1/7/7
f 15/27/27 11/12/12 30/28/28 35/29/29
f 40/30/30 32/31/31 12/11/11 21/32/32
f 13/2/2 5/16/16 25/15/15 33/3/3
f 16/33/33 9/17/17 5/16/16 13/2/2
f 23/34/34 2/26/26 4/23/23 20/22/22
f 12/11/11 32/31/31 30/28/28 11/12/12
f 36/35/35 29/20/20 9/17/17 16/33/33
f 27/24/24 4/23/23 3/6/6 26/36/36
f 38/4/4 28/14/14 6/13/13 19/1/1
f 18/37/37 8/9/9 11/12/12 15/27/27
f 22/21/21 10/18/18 31/19/19 39/38/38
f 21/32/32 12/11/11 7/10/10 24/39/39
f 18/37/37 15/27/27 21/32/32 24/39/39
f 14/5/5 17/8/8 23/34/34 20/22/22
f 39/38/38 36/35/35 16/33/33 22/21/21
f 37/25/25 34/40/40 14/5/5 20/22/22
f 21/32/32 15/27/27 35/29/29 40/30/30
f 16/33/33 13/2/2 19/1/1 22/21/21
f 36/35/35 35/29/29 30/28/28 29/20/20
f 26/36/36 25/15/15 28/14/14 27/24/24
f 29/20/20 30/28/28 32/31/31 31/19/19
f 38/4/4 37/25/25 27/24/24 28/14/14
f 40/30/30 39/38/38 31/19/19 32/31/31
f 34/40/40 33/3/3 25/15/15 26/36/36
f 35/29/29 36/35/35 39/38/38 40/30/30
f 33/3/3 34/40/40 37/25/25 38/4/4
f 34/40/40 26/36/36 3/6/6 14/5/5
