# Blender v3.3.1 OBJ File: 'Office Set.blend'
# www.blender.org
mtllib AlcoholDisp_2_B.mtl
o AlcoholDisp_2_B_Cube.101
v -14.610947 0.338345 5.508705
v -14.638668 0.338345 5.508705
v -14.638668 0.325006 5.508705
v -14.610947 0.325006 5.508705
v -14.610947 0.338345 5.611286
v -14.638668 0.338345 5.611286
v -14.638668 0.325006 5.611286
v -14.610947 0.325006 5.611286
v -14.616320 0.325031 5.609003
v -14.633295 0.325031 5.609003
v -14.633295 0.325031 5.594411
v -14.616320 0.325031 5.594411
v -14.616320 0.313642 5.609003
v -14.633295 0.313642 5.609003
v -14.633295 0.313642 5.594411
v -14.616320 0.313642 5.594411
v -14.616706 0.245497 5.480436
v -14.624810 0.245497 5.478824
v -14.609836 0.245497 5.485027
v -14.605245 0.245497 5.491897
v -14.603633 0.245497 5.500001
v -14.605245 0.245497 5.508105
v -14.609836 0.245497 5.514976
v -14.616706 0.245497 5.519566
v -14.624810 0.245497 5.521178
v -14.632914 0.245497 5.519566
v -14.639784 0.245497 5.514976
v -14.644375 0.245497 5.508105
v -14.645987 0.245497 5.500001
v -14.644375 0.245497 5.491897
v -14.639784 0.245497 5.485027
v -14.632914 0.245497 5.480436
v -14.616706 0.334944 5.480436
v -14.624810 0.334944 5.478824
v -14.609836 0.334944 5.485027
v -14.605245 0.334944 5.491897
v -14.603633 0.334944 5.500001
v -14.605245 0.334944 5.508105
v -14.609836 0.334944 5.514976
v -14.616706 0.334944 5.519566
v -14.624810 0.334944 5.521178
v -14.632914 0.334944 5.519566
v -14.639784 0.334944 5.514976
v -14.644375 0.334944 5.508105
v -14.645987 0.334944 5.500001
v -14.644375 0.334944 5.491897
v -14.639784 0.334944 5.485027
v -14.632914 0.334944 5.480436
v -14.613119 0.319264 5.471779
v -14.624809 0.319264 5.469454
v -14.603209 0.319264 5.478401
v -14.596588 0.319264 5.488311
v -14.594262 0.319264 5.500001
v -14.596588 0.319264 5.511691
v -14.603209 0.319264 5.521601
v -14.613119 0.319264 5.528223
v -14.624809 0.319264 5.530548
v -14.636499 0.319264 5.528223
v -14.646409 0.319264 5.521601
v -14.653030 0.319264 5.511691
v -14.655356 0.319264 5.500001
v -14.653030 0.319264 5.488311
v -14.646409 0.319264 5.478401
v -14.636499 0.319264 5.471779
v -14.613119 0.351414 5.471779
v -14.624809 0.351414 5.469454
v -14.603209 0.351414 5.478401
v -14.596588 0.351414 5.488311
v -14.594262 0.351414 5.500001
v -14.596588 0.351414 5.511691
v -14.603209 0.351414 5.521601
v -14.613119 0.351414 5.528223
v -14.624809 0.351414 5.530548
v -14.636499 0.351414 5.528223
v -14.646409 0.351414 5.521601
v -14.653030 0.351414 5.511691
v -14.655356 0.351414 5.500001
v -14.653030 0.351414 5.488311
v -14.646409 0.351414 5.478401
v -14.636499 0.351414 5.471779
vt 0.731702 0.790403
vt 0.731702 0.795332
vt 0.731702 0.795332
vt 0.731702 0.790403
vt 0.799286 0.708557
vt 0.799286 0.713485
vt 0.799286 0.713485
vt 0.799286 0.708557
vt 0.799286 0.708557
vt 0.799286 0.713485
vt 0.799286 0.708557
vt 0.799286 0.713485
vt 0.731702 0.790403
vt 0.731702 0.795332
vt 0.731702 0.790403
vt 0.731702 0.795332
vt 0.703887 0.800760
vt 0.702114 0.798107
vt 0.702114 0.798107
vt 0.703887 0.800760
vt 0.712799 0.787422
vt 0.715452 0.789195
vt 0.715452 0.789195
vt 0.712799 0.787422
vt 0.706540 0.802533
vt 0.706540 0.802533
vt 0.709670 0.786799
vt 0.709670 0.786799
vt 0.712799 0.802533
vt 0.709670 0.803155
vt 0.709670 0.803155
vt 0.712799 0.802533
vt 0.706540 0.787422
vt 0.706540 0.787422
vt 0.715452 0.800760
vt 0.715452 0.800760
vt 0.703887 0.789195
vt 0.703887 0.789195
vt 0.717225 0.798107
vt 0.717225 0.798107
vt 0.702114 0.791848
vt 0.702114 0.791848
vt 0.717847 0.794977
vt 0.717847 0.794977
vt 0.701492 0.794977
vt 0.701492 0.794977
vt 0.717225 0.791848
vt 0.717225 0.791848
vt 0.733096 0.820533
vt 0.701151 0.820533
vt 0.703281 0.820533
vt 0.705410 0.820533
vt 0.707540 0.820533
vt 0.709670 0.820533
vt 0.711799 0.820533
vt 0.713929 0.820533
vt 0.716058 0.820533
vt 0.718188 0.820533
vt 0.720318 0.820533
vt 0.722447 0.820533
vt 0.724577 0.820533
vt 0.726707 0.820533
vt 0.728836 0.820533
vt 0.730966 0.820533
vt 0.733096 0.820533
vt 0.730966 0.820533
vt 0.728836 0.820533
vt 0.726707 0.820533
vt 0.724577 0.820533
vt 0.722447 0.820533
vt 0.720318 0.820533
vt 0.718188 0.820533
vt 0.716058 0.820533
vt 0.713929 0.820533
vt 0.711799 0.820533
vt 0.709670 0.820533
vt 0.707540 0.820533
vt 0.705410 0.820533
vt 0.703281 0.820533
vt 0.701151 0.820533
vt 0.735225 0.820533
vt 0.735225 0.820533
vn 0.0000 -1.0000 0.0000
vn 0.0000 0.0000 1.0000
vn -1.0000 0.0000 0.0000
vn 1.0000 0.0000 0.0000
vn 0.0000 1.0000 0.0000
vn 0.0000 0.0000 -1.0000
vn -0.8314 0.0000 -0.5556
vn 0.5555 0.0000 0.8315
vn -0.5556 0.0000 -0.8315
vn 0.1951 0.0000 0.9808
vn 0.1951 0.0000 -0.9808
vn -0.1951 0.0000 -0.9808
vn -0.1951 0.0000 0.9808
vn 0.5556 0.0000 -0.8315
vn -0.5555 0.0000 0.8315
vn 0.8314 0.0000 -0.5556
vn -0.8314 0.0000 0.5556
vn 0.9808 0.0000 -0.1951
vn -0.9808 0.0000 0.1950
vn 0.9808 0.0000 0.1950
vn -0.9808 0.0000 -0.1951
vn 0.8314 0.0000 0.5556
vn -0.7462 -0.6657 -0.0000
vn -0.6894 -0.6657 0.2856
vn -0.6894 0.6657 0.2856
vn -0.7462 0.6657 -0.0000
vn 0.6894 -0.6657 0.2856
vn 0.7462 -0.6657 -0.0000
vn 0.7462 0.6657 -0.0000
vn 0.6894 0.6657 0.2856
vn -0.6894 -0.6657 -0.2856
vn -0.6894 0.6657 -0.2856
vn 0.5277 -0.6657 0.5276
vn 0.5277 0.6657 0.5276
vn -0.5277 -0.6657 -0.5276
vn -0.5277 0.6657 -0.5276
vn 0.2856 -0.6657 0.6894
vn 0.2856 0.6657 0.6894
vn -0.2856 -0.6657 -0.6894
vn -0.2856 0.6657 -0.6894
vn 0.0000 -0.6657 0.7462
vn 0.0000 0.6657 0.7462
vn 0.2856 -0.6657 -0.6894
vn 0.0000 -0.6657 -0.7462
vn 0.0000 0.6657 -0.7462
vn 0.2856 0.6657 -0.6894
vn -0.2856 -0.6657 0.6894
vn -0.2856 0.6657 0.6894
vn 0.5277 -0.6657 -0.5276
vn 0.5277 0.6657 -0.5276
vn -0.5277 -0.6657 0.5276
vn -0.5277 0.6657 0.5276
vn 0.6894 -0.6657 -0.2856
vn 0.6894 0.6657 -0.2856
usemtl Palette
s off
f 15/1/1 16/2/1 13/3/1 14/4/1
f 7/5/2 8/6/2 5/7/2 6/8/2
f 3/9/1 4/10/1 8/6/1 7/5/1
f 2/11/3 3/9/3 7/5/3 6/8/3
f 4/10/4 1/12/4 5/7/4 8/6/4
f 1/12/5 2/11/5 6/8/5 5/7/5
f 11/13/6 12/14/6 16/2/6 15/1/6
f 10/15/3 11/13/3 15/1/3 14/4/3
f 12/14/4 9/16/4 13/3/4 16/2/4
f 9/16/2 10/15/2 14/4/2 13/3/2
f 31/17/7 30/18/7 46/19/7 47/20/7
f 24/21/8 23/22/8 39/23/8 40/24/8
f 32/25/9 31/17/9 47/20/9 48/26/9
f 25/27/10 24/21/10 40/24/10 41/28/10
f 17/29/11 18/30/11 34/31/11 33/32/11
f 18/30/12 32/25/12 48/26/12 34/31/12
f 26/33/13 25/27/13 41/28/13 42/34/13
f 19/35/14 17/29/14 33/32/14 35/36/14
f 27/37/15 26/33/15 42/34/15 43/38/15
f 20/39/16 19/35/16 35/36/16 36/40/16
f 28/41/17 27/37/17 43/38/17 44/42/17
f 21/43/18 20/39/18 36/40/18 37/44/18
f 29/45/19 28/41/19 44/42/19 45/46/19
f 22/47/20 21/43/20 37/44/20 38/48/20
f 30/18/21 29/45/21 45/46/21 46/19/21
f 23/22/22 22/47/22 38/48/22 39/23/22
f 65/49/5 66/50/5 80/51/5 79/52/5 78/53/5 77/54/5 76/55/5 75/56/5 74/57/5 73/58/5 72/59/5 71/60/5 70/61/5 69/62/5 68/63/5 67/64/5
f 49/65/1 51/66/1 52/67/1 53/68/1 54/69/1 55/70/1 56/71/1 57/72/1 58/73/1 59/74/1 60/75/1 61/76/1 62/77/1 63/78/1 64/79/1 50/80/1
s 1
f 61/76/23 60/75/24 76/55/25 77/54/26
f 54/69/27 53/68/28 69/62/29 70/61/30
f 62/77/31 61/76/23 77/54/26 78/53/32
f 55/70/33 54/69/27 70/61/30 71/60/34
f 63/78/35 62/77/31 78/53/32 79/52/36
f 56/71/37 55/70/33 71/60/34 72/59/38
f 64/79/39 63/78/35 79/52/36 80/51/40
f 57/72/41 56/71/37 72/59/38 73/58/42
f 49/65/43 50/81/44 66/82/45 65/49/46
f 50/80/44 64/79/39 80/51/40 66/50/45
f 58/73/47 57/72/41 73/58/42 74/57/48
f 51/66/49 49/65/43 65/49/46 67/64/50
f 59/74/51 58/73/47 74/57/48 75/56/52
f 52/67/53 51/66/49 67/64/50 68/63/54
f 60/75/24 59/74/51 75/56/52 76/55/25
f 53/68/28 52/67/53 68/63/54 69/62/29
