# Blender v3.3.1 OBJ File: 'Office Set.blend'
# www.blender.org
mtllib AlcoholDisp_2_Base.mtl
o AlcoholDisp_2_Base_Cube.098
v -14.624809 -0.075534 5.400000
v -14.624809 0.165090 5.400000
v -14.586541 -0.075534 5.407612
v -14.586541 0.165090 5.407612
v -14.554098 -0.075534 5.429289
v -14.554098 0.165090 5.429289
v -14.532421 -0.075534 5.461731
v -14.532421 0.165090 5.461731
v -14.524809 -0.075534 5.500000
v -14.524809 0.165090 5.500000
v -14.532421 -0.075534 5.538269
v -14.532421 0.165090 5.538269
v -14.554098 -0.075534 5.570711
v -14.554098 0.165090 5.570711
v -14.586541 -0.075534 5.592388
v -14.586541 0.165090 5.592388
v -14.624809 -0.075534 5.600000
v -14.624809 0.165090 5.600000
v -14.663077 -0.075534 5.592388
v -14.663077 0.165090 5.592388
v -14.695520 -0.075534 5.570711
v -14.695520 0.165090 5.570711
v -14.717197 -0.075534 5.538269
v -14.717197 0.165090 5.538269
v -14.724810 -0.075534 5.500000
v -14.724810 0.165090 5.500000
v -14.717197 -0.075534 5.461731
v -14.717197 0.165090 5.461731
v -14.695520 -0.075534 5.429289
v -14.695520 0.165090 5.429289
v -14.663077 -0.075534 5.407612
v -14.663077 0.165090 5.407612
v -14.606583 0.218592 5.455998
v -14.624809 0.218592 5.452373
v -14.591131 0.218592 5.466322
v -14.580807 0.218592 5.481774
v -14.577181 0.218592 5.500001
v -14.580807 0.218592 5.518227
v -14.591131 0.218592 5.533679
v -14.606583 0.218592 5.544003
v -14.624809 0.218592 5.547629
v -14.643036 0.218592 5.544003
v -14.658487 0.218592 5.533679
v -14.668812 0.218592 5.518227
v -14.672438 0.218592 5.500001
v -14.668812 0.218592 5.481774
v -14.658487 0.218592 5.466322
v -14.643036 0.218592 5.455998
v -14.693180 0.203773 5.471681
v -14.709884 0.181465 5.464761
v -14.689922 0.181465 5.434887
v -14.677137 0.203773 5.447672
v -14.596489 0.203773 5.431630
v -14.589570 0.181465 5.414926
v -14.559696 0.181465 5.434887
v -14.572481 0.203773 5.447672
v -14.572481 0.203773 5.552329
v -14.559696 0.181465 5.565113
v -14.589570 0.181465 5.585074
v -14.596489 0.203773 5.568371
v -14.693179 0.203773 5.528320
v -14.709884 0.181465 5.535239
v -14.716893 0.181465 5.500000
v -14.698812 0.203773 5.500000
v -14.550806 0.203773 5.500000
v -14.532725 0.181465 5.500000
v -14.539735 0.181465 5.535239
v -14.556439 0.203773 5.528320
v -14.653130 0.203773 5.568371
v -14.660048 0.181465 5.585074
v -14.689922 0.181465 5.565113
v -14.677137 0.203773 5.552329
v -14.660048 0.181465 5.414926
v -14.653130 0.203773 5.431630
v -14.539735 0.181465 5.464761
v -14.556438 0.203773 5.471681
v -14.624809 0.181465 5.592084
v -14.624809 0.203773 5.574004
v -14.624809 0.203773 5.425997
v -14.624809 0.181465 5.407917
v -14.606583 0.249713 5.455998
v -14.624809 0.249713 5.452373
v -14.591131 0.249713 5.466322
v -14.580807 0.249713 5.481774
v -14.577181 0.249713 5.500001
v -14.580807 0.249713 5.518227
v -14.591131 0.249713 5.533679
v -14.606583 0.249713 5.544003
v -14.624809 0.249713 5.547629
v -14.643036 0.249713 5.544003
v -14.658487 0.249713 5.533679
v -14.668812 0.249713 5.518227
v -14.672438 0.249713 5.500001
v -14.668812 0.249713 5.481774
v -14.658487 0.249713 5.466322
v -14.643036 0.249713 5.455998
vt 0.726707 0.803155
vt 0.729836 0.802533
vt 0.732489 0.800760
vt 0.734262 0.798107
vt 0.734885 0.794977
vt 0.734262 0.791848
vt 0.732489 0.789195
vt 0.729836 0.787422
vt 0.726707 0.786799
vt 0.723577 0.787422
vt 0.720924 0.789195
vt 0.719151 0.791848
vt 0.718529 0.794977
vt 0.719151 0.798107
vt 0.720924 0.800760
vt 0.723577 0.802533
vt 0.794013 0.710464
vt 0.790883 0.711086
vt 0.787754 0.710464
vt 0.785101 0.708691
vt 0.783328 0.706038
vt 0.782705 0.702908
vt 0.783328 0.699779
vt 0.785101 0.697126
vt 0.787754 0.695353
vt 0.790883 0.694731
vt 0.794013 0.695353
vt 0.796666 0.697126
vt 0.798439 0.699779
vt 0.799061 0.702908
vt 0.798439 0.706038
vt 0.796666 0.708691
vt 0.735225 0.803496
vt 0.735225 0.820533
vt 0.733096 0.820533
vt 0.733096 0.803496
vt 0.730966 0.820533
vt 0.730966 0.803496
vt 0.728836 0.820533
vt 0.728836 0.803496
vt 0.726707 0.820533
vt 0.726707 0.803496
vt 0.724577 0.820533
vt 0.724577 0.803496
vt 0.722447 0.820533
vt 0.722447 0.803496
vt 0.720318 0.820533
vt 0.720318 0.803496
vt 0.718188 0.820533
vt 0.718188 0.803496
vt 0.716058 0.820533
vt 0.716058 0.803496
vt 0.713929 0.820533
vt 0.713929 0.803496
vt 0.711799 0.820533
vt 0.711799 0.803496
vt 0.709670 0.820533
vt 0.709670 0.803496
vt 0.707540 0.820533
vt 0.707540 0.803496
vt 0.705410 0.820533
vt 0.705410 0.803496
vt 0.709670 0.820533
vt 0.707540 0.820533
vt 0.703281 0.820533
vt 0.703281 0.803496
vt 0.701151 0.820533
vt 0.701151 0.803496
vt 0.777254 0.714834
vt 0.779383 0.714834
vt 0.779383 0.714834
vt 0.777254 0.714834
vt 0.735225 0.820533
vt 0.733096 0.820533
vt 0.724577 0.820533
vt 0.722447 0.820533
vt 0.713929 0.820533
vt 0.711799 0.820533
vt 0.728836 0.820533
vt 0.726707 0.820533
vt 0.718188 0.820533
vt 0.716058 0.820533
vt 0.733096 0.820533
vt 0.735225 0.820533
vt 0.735225 0.820533
vt 0.733096 0.820533
vt 0.722447 0.820533
vt 0.724577 0.820533
vt 0.724577 0.820533
vt 0.722447 0.820533
vt 0.711799 0.820533
vt 0.713929 0.820533
vt 0.713929 0.820533
vt 0.711799 0.820533
vt 0.730966 0.820533
vt 0.705410 0.820533
vt 0.720318 0.820533
vt 0.703281 0.820533
vt 0.701151 0.820533
vt 0.716058 0.820533
vt 0.718188 0.820533
vt 0.718188 0.820533
vt 0.716058 0.820533
vt 0.701151 0.820533
vt 0.703281 0.820533
vt 0.703281 0.820533
vt 0.701151 0.820533
vt 0.726707 0.820533
vt 0.728836 0.820533
vt 0.728836 0.820533
vt 0.726707 0.820533
vt 0.720318 0.820533
vt 0.720318 0.820533
vt 0.730966 0.820533
vt 0.730966 0.820533
vt 0.705410 0.820533
vt 0.705410 0.820533
vt 0.709670 0.820533
vt 0.709670 0.820533
vt 0.707540 0.820533
vt 0.707540 0.820533
vt 0.792161 0.714834
vt 0.794291 0.714834
vt 0.794291 0.714834
vt 0.792161 0.714834
vt 0.775124 0.714834
vt 0.775124 0.714834
vt 0.790031 0.714834
vt 0.790031 0.714834
vt 0.772994 0.714834
vt 0.772994 0.714834
vt 0.787902 0.714834
vt 0.787902 0.714834
vt 0.770865 0.714834
vt 0.770865 0.714834
vt 0.785772 0.714834
vt 0.785772 0.714834
vt 0.800680 0.714834
vt 0.802809 0.714834
vt 0.802809 0.714834
vt 0.800680 0.714834
vt 0.768735 0.714834
vt 0.768735 0.714834
vt 0.783642 0.714834
vt 0.783642 0.714834
vt 0.798550 0.714834
vt 0.798550 0.714834
vt 0.781513 0.714834
vt 0.781513 0.714834
vt 0.796420 0.714834
vt 0.796420 0.714834
vn 0.0000 -1.0000 0.0000
vn 0.0000 1.0000 0.0000
vn 0.0000 -0.6657 -0.7462
vn 0.0000 0.2175 -0.9761
vn 0.3735 0.2174 -0.9018
vn 0.2856 -0.6657 -0.6894
vn 0.6902 0.2175 -0.6902
vn 0.5276 -0.6657 -0.5276
vn 0.9018 0.2175 -0.3735
vn 0.6894 -0.6657 -0.2856
vn 0.9761 0.2175 0.0000
vn 0.7462 -0.6657 0.0000
vn 0.9018 0.2175 0.3735
vn 0.6894 -0.6657 0.2856
vn 0.6902 0.2174 0.6902
vn 0.5276 -0.6657 0.5276
vn 0.3735 0.2174 0.9018
vn 0.2856 -0.6657 0.6894
vn -0.0000 0.2174 0.9761
vn 0.0000 -0.6657 0.7462
vn -0.3735 0.2174 0.9018
vn -0.2856 -0.6657 0.6894
vn -0.6902 0.2174 0.6902
vn -0.5276 -0.6657 0.5276
vn -0.9018 0.2174 0.3735
vn -0.6894 -0.6657 0.2856
vn -0.9761 0.2174 0.0000
vn -0.7462 -0.6657 0.0000
vn -0.9018 0.2174 -0.3735
vn -0.6894 -0.6657 -0.2856
vn -0.6902 0.2174 -0.6902
vn -0.5276 -0.6657 -0.5276
vn -0.8482 0.5296 0.0000
vn -0.7837 0.5296 -0.3246
vn -0.3735 0.2174 -0.9018
vn -0.2856 -0.6657 -0.6894
vn -0.8452 0.5345 0.0000
vn -0.7809 0.5345 0.3234
vn -0.6894 0.6657 0.2856
vn -0.7462 0.6657 0.0000
vn 0.0000 0.5296 -0.8482
vn 0.3246 0.5296 -0.7837
vn 0.7836 0.5297 0.3246
vn 0.5998 0.5296 0.5998
vn -0.5998 0.5296 0.5998
vn -0.7837 0.5296 0.3246
vn 0.7836 0.5297 -0.3246
vn 0.8482 0.5297 0.0000
vn 0.0000 0.5296 0.8482
vn -0.3246 0.5296 0.7837
vn 0.2518 0.7529 -0.6080
vn 0.0000 0.7529 -0.6581
vn 0.0000 0.5345 -0.8452
vn 0.3234 0.5345 -0.7808
vn 0.4653 0.7529 0.4653
vn 0.6080 0.7529 0.2518
vn 0.7809 0.5345 0.3234
vn 0.5976 0.5345 0.5976
vn -0.6080 0.7529 0.2518
vn -0.4654 0.7529 0.4653
vn -0.5976 0.5345 0.5976
vn 0.5998 0.5296 -0.5998
vn -0.5998 0.5296 -0.5998
vn 0.3246 0.5296 0.7837
vn -0.3246 0.5296 -0.7837
vn -0.2519 0.7529 0.6080
vn 0.0000 0.7529 0.6581
vn -0.0000 0.5345 0.8452
vn -0.3234 0.5345 0.7808
vn -0.2518 0.7529 -0.6080
vn -0.3234 0.5345 -0.7808
vn 0.6581 0.7529 0.0000
vn 0.6080 0.7529 -0.2518
vn 0.7808 0.5345 -0.3234
vn 0.8452 0.5345 0.0000
vn 0.2518 0.7529 0.6080
vn 0.3234 0.5345 0.7808
vn 0.4653 0.7529 -0.4654
vn 0.5976 0.5345 -0.5976
vn -0.4653 0.7529 -0.4654
vn -0.5976 0.5345 -0.5976
vn -0.6581 0.7529 0.0000
vn -0.6080 0.7529 -0.2518
vn -0.7808 0.5345 -0.3234
vn 0.7462 0.6657 0.0000
vn 0.6894 0.6657 0.2856
vn -0.6894 0.6657 -0.2856
vn 0.5276 0.6657 0.5276
vn -0.5276 0.6657 -0.5276
vn 0.2856 0.6657 0.6894
vn -0.2856 0.6657 -0.6894
vn 0.0000 0.6657 0.7462
vn 0.0000 0.6657 -0.7462
vn 0.2856 0.6657 -0.6894
vn -0.2856 0.6657 0.6894
vn 0.5276 0.6657 -0.5276
vn -0.5276 0.6657 0.5276
vn 0.6894 0.6657 -0.2856
usemtl Palette
s off
f 1/1/1 3/2/1 5/3/1 7/4/1 9/5/1 11/6/1 13/7/1 15/8/1 17/9/1 19/10/1 21/11/1 23/12/1 25/13/1 27/14/1 29/15/1 31/16/1
f 81/17/2 82/18/2 96/19/2 95/20/2 94/21/2 93/22/2 92/23/2 91/24/2 90/25/2 89/26/2 88/27/2 87/28/2 86/29/2 85/30/2 84/31/2 83/32/2
s 1
f 1/33/3 2/34/4 4/35/5 3/36/6
f 3/36/6 4/35/5 6/37/7 5/38/8
f 5/38/8 6/37/7 8/39/9 7/40/10
f 7/40/10 8/39/9 10/41/11 9/42/12
f 9/42/12 10/41/11 12/43/13 11/44/14
f 11/44/14 12/43/13 14/45/15 13/46/16
f 13/46/16 14/45/15 16/47/17 15/48/18
f 15/48/18 16/47/17 18/49/19 17/50/20
f 17/50/20 18/49/19 20/51/21 19/52/22
f 19/52/22 20/51/21 22/53/23 21/54/24
f 21/54/24 22/53/23 24/55/25 23/56/26
f 23/56/26 24/55/25 26/57/27 25/58/28
f 25/58/28 26/57/27 28/59/29 27/60/30
f 27/60/30 28/59/29 30/61/31 29/62/32
f 28/59/29 26/57/27 63/63/33 50/64/34
f 29/62/32 30/61/31 32/65/35 31/66/36
f 31/66/36 32/65/35 2/67/4 1/68/3
f 45/69/37 44/70/38 92/71/39 93/72/40
f 4/35/5 2/34/4 80/73/41 54/74/42
f 14/45/15 12/43/13 67/75/43 58/76/44
f 24/55/25 22/53/23 71/77/45 62/78/46
f 10/41/11 8/39/9 75/79/47 66/80/48
f 20/51/21 18/49/19 77/81/49 70/82/50
f 53/83/51 79/84/52 34/85/53 33/86/54
f 57/87/55 68/88/56 38/89/57 39/90/58
f 61/91/59 72/92/60 43/93/61 44/94/38
f 6/37/7 4/35/5 54/74/42 55/95/62
f 30/61/31 28/59/29 50/64/34 51/96/63
f 16/47/17 14/45/15 58/76/44 59/97/64
f 26/57/27 24/55/25 62/78/46 63/63/33
f 12/43/13 10/41/11 66/80/48 67/75/43
f 22/53/23 20/51/21 70/82/50 71/77/45
f 2/67/4 32/65/35 73/98/65 80/99/41
f 69/100/66 78/101/67 41/102/68 42/103/69
f 79/104/52 74/105/70 48/106/71 34/107/53
f 65/108/72 76/109/73 36/110/74 37/111/75
f 18/49/19 16/47/17 59/97/64 77/81/49
f 32/65/35 30/61/31 51/96/63 73/98/65
f 8/39/9 6/37/7 55/95/62 75/79/47
f 78/101/67 60/112/76 40/113/77 41/102/68
f 76/109/73 56/114/78 35/115/79 36/110/74
f 74/105/70 52/116/80 47/117/81 48/106/71
f 72/92/60 69/100/66 42/103/69 43/93/61
f 68/88/56 65/108/72 37/111/75 38/89/57
f 64/118/82 61/91/59 44/94/38 45/119/37
f 60/112/76 57/87/55 39/90/58 40/113/77
f 56/114/78 53/83/51 33/86/54 35/115/79
f 52/116/80 49/120/83 46/121/84 47/117/81
f 78/101/67 69/100/66 70/82/50 77/81/49
f 76/109/73 65/108/72 66/80/48 75/79/47
f 74/105/70 79/104/52 80/99/41 73/98/65
f 72/92/60 61/91/59 62/78/46 71/77/45
f 68/88/56 57/87/55 58/76/44 67/75/43
f 64/118/82 49/120/83 50/64/34 63/63/33
f 79/84/52 53/83/51 54/74/42 80/73/41
f 60/112/76 78/101/67 77/81/49 59/97/64
f 56/114/78 76/109/73 75/79/47 55/95/62
f 52/116/80 74/105/70 73/98/65 51/96/63
f 69/100/66 72/92/60 71/77/45 70/82/50
f 65/108/72 68/88/56 67/75/43 66/80/48
f 61/91/59 64/118/82 63/63/33 62/78/46
f 57/87/55 60/112/76 59/97/64 58/76/44
f 53/83/51 56/114/78 55/95/62 54/74/42
f 49/120/83 52/116/80 51/96/63 50/64/34
f 49/120/83 64/118/82 45/119/37 46/121/84
f 38/122/57 37/123/75 85/124/85 86/125/86
f 46/126/84 45/69/37 93/72/40 94/127/87
f 39/128/58 38/122/57 86/125/86 87/129/88
f 47/130/81 46/126/84 94/127/87 95/131/89
f 40/132/77 39/128/58 87/129/88 88/133/90
f 48/134/71 47/130/81 95/131/89 96/135/91
f 41/136/68 40/132/77 88/133/90 89/137/92
f 33/138/54 34/139/53 82/140/93 81/141/94
f 34/142/53 48/134/71 96/135/91 82/143/93
f 42/144/69 41/136/68 89/137/92 90/145/95
f 35/146/79 33/138/54 81/141/94 83/147/96
f 43/148/61 42/144/69 90/145/95 91/149/97
f 36/150/74 35/146/79 83/147/96 84/151/98
f 44/70/38 43/148/61 91/149/97 92/71/39
f 37/123/75 36/150/74 84/151/98 85/124/85
