# Blender v3.3.1 OBJ File: 'Office Set.blend'
# www.blender.org
mtllib Book_Small.mtl
o Book_Small_Cube.112
v -7.366448 1.205626 4.599940
v -7.400831 1.205626 4.599940
v -7.366448 1.205626 4.400567
v -7.400831 1.205626 4.400567
v -7.400831 0.950000 4.400567
v -7.400831 0.950000 4.599940
v -7.366448 0.950000 4.400567
v -7.366448 0.950000 4.599940
v -7.414329 1.205626 4.400567
v -7.414329 0.950000 4.400567
v -7.352950 1.205626 4.400567
v -7.352950 0.950000 4.400567
v -7.400831 1.196166 4.408438
v -7.366448 1.196166 4.408438
v -7.400831 0.959460 4.408438
v -7.366448 0.959460 4.408438
v -7.400831 1.196166 4.601873
v -7.366448 1.196166 4.601873
v -7.400831 0.959460 4.601873
v -7.366448 0.959460 4.601873
v -7.414329 1.205626 4.598532
v -7.399125 1.205626 4.611083
v -7.403578 1.205626 4.602208
v -7.409876 1.205626 4.607407
v -7.368154 1.205626 4.611083
v -7.352950 1.205626 4.598532
v -7.363700 1.205626 4.602208
v -7.357403 1.205626 4.607407
v -7.399125 0.950000 4.611083
v -7.414329 0.950000 4.598532
v -7.403578 0.950000 4.602208
v -7.409876 0.950000 4.607407
v -7.352950 0.950000 4.598532
v -7.368154 0.950000 4.611083
v -7.363700 0.950000 4.602208
v -7.357403 0.950000 4.607407
vt 0.376935 0.970093
vt 0.376935 0.976359
vt 0.376849 0.976430
vt 0.376511 0.976315
vt 0.376511 0.970093
vt 0.378015 0.976359
vt 0.378102 0.976430
vt 0.377962 0.976709
vt 0.376988 0.976709
vt 0.390716 0.961150
vt 0.384476 0.961150
vt 0.384723 0.960853
vt 0.390776 0.960853
vt 0.384207 0.961605
vt 0.390402 0.961605
vt 0.390402 0.969638
vt 0.384207 0.969638
vt 0.384476 0.953117
vt 0.384723 0.953414
vt 0.390716 0.953117
vt 0.390776 0.953414
vt 0.394920 0.951054
vt 0.394920 0.943021
vt 0.395344 0.943021
vt 0.395344 0.951054
vt 0.369267 0.963213
vt 0.375463 0.963213
vt 0.375463 0.971246
vt 0.369267 0.971246
vt 0.388209 0.975904
vt 0.389290 0.975904
vt 0.389376 0.975975
vt 0.389236 0.976254
vt 0.388263 0.976254
vt 0.388123 0.975975
vt 0.378015 0.970093
vt 0.378440 0.970093
vt 0.378440 0.976315
vt 0.394920 0.943021
vt 0.394920 0.951054
vt 0.394496 0.951054
vt 0.394496 0.943021
vt 0.388209 0.969638
vt 0.387785 0.975860
vt 0.387785 0.969638
vt 0.389290 0.969638
vt 0.389714 0.969638
vt 0.389714 0.975860
vt 0.024687 0.904145
vt 0.024687 0.904145
vt 0.024687 0.904145
vt 0.024687 0.904145
vt 0.024687 0.904145
vt 0.024687 0.904145
vt 0.024687 0.904145
vt 0.024687 0.904145
vt 0.391477 0.943021
vt 0.391477 0.951054
vt 0.391231 0.950757
vt 0.391231 0.943318
vt 0.385238 0.943021
vt 0.385178 0.943318
vt 0.378104 0.951509
vt 0.378104 0.952590
vt 0.377806 0.952590
vt 0.377806 0.951509
vt 0.377509 0.952590
vt 0.377509 0.951509
vt 0.377806 0.951509
vt 0.377806 0.952590
vt 0.385238 0.951054
vt 0.385178 0.950757
vt 0.378300 0.976593
vt 0.376651 0.976593
vt 0.387925 0.976138
vt 0.389574 0.976138
vt 0.368977 0.971246
vt 0.368977 0.963213
vt 0.387785 0.969638
vt 0.387785 0.977672
vt 0.387447 0.977672
vt 0.387447 0.969638
vt 0.386474 0.969638
vt 0.386474 0.977672
vt 0.386136 0.977672
vt 0.386136 0.969638
vt 0.390693 0.961605
vt 0.390693 0.969638
vn 0.0000 1.0000 -0.0000
vn -1.0000 0.0000 0.0000
vn 0.0000 0.0000 -1.0000
vn 1.0000 0.0000 0.0000
vn 0.0000 -1.0000 0.0000
vn 0.0000 0.2002 -0.9798
vn 0.0000 -0.2002 -0.9798
vn 0.8938 0.0000 0.4484
vn 0.3236 0.0000 0.9462
vn -0.3236 0.0000 0.9462
vn -0.8938 0.0000 0.4484
vn 0.0000 0.0000 1.0000
usemtl Palette
s off
f 3/1/1 1/2/1 27/3/1 26/4/1 11/5/1
f 1/2/1 2/6/1 23/7/1 22/8/1 25/9/1 27/3/1
f 1/10/2 3/11/2 14/12/2 18/13/2
f 10/14/2 30/15/2 21/16/2 9/17/2
f 3/11/2 7/18/2 16/19/2 14/12/2
f 7/18/2 8/20/2 20/21/2 16/19/2
f 4/22/3 5/23/3 10/24/3 9/25/3
f 33/26/4 12/27/4 11/28/4 26/29/4
f 6/30/5 8/31/5 35/32/5 34/33/5 29/34/5 31/35/5
f 2/6/1 4/36/1 9/37/1 21/38/1 23/7/1
f 7/39/3 3/40/3 11/41/3 12/42/3
f 5/43/5 6/30/5 31/35/5 30/44/5 10/45/5
f 8/31/5 7/46/5 12/47/5 33/48/5 35/32/5
f 16/49/3 15/50/3 13/51/3 14/52/3
f 18/53/1 14/52/1 13/51/1 17/54/1
f 20/55/5 19/56/5 15/50/5 16/49/5
f 5/57/4 4/58/4 13/59/4 15/60/4
f 6/61/4 5/57/4 15/60/4 19/62/4
f 8/63/6 6/64/6 19/65/6 20/66/6
f 2/67/7 1/68/7 18/69/7 17/70/7
f 4/58/4 2/71/4 17/72/4 13/59/4
f 21/38/1 24/73/1 23/7/1
f 24/73/1 22/8/1 23/7/1
f 25/9/1 28/74/1 27/3/1
f 28/74/1 26/4/1 27/3/1
f 29/34/5 32/75/5 31/35/5
f 32/75/5 30/44/5 31/35/5
f 33/48/5 36/76/5 35/32/5
f 36/76/5 34/33/5 35/32/5
f 33/26/8 26/29/8 28/77/8 36/78/8
f 36/79/9 28/80/9 25/81/9 34/82/9
f 29/83/10 22/84/10 24/85/10 32/86/10
f 32/87/11 24/88/11 21/16/11 30/15/11
f 29/83/12 34/82/12 25/81/12 22/84/12
