# Blender v3.3.1 OBJ File: 'Office Set.blend'
# www.blender.org
mtllib Box_B.mtl
o Box_B_Cube.193
v -13.825409 0.561056 -1.862245
v -13.825409 0.561055 -2.137753
v -13.452771 0.647848 -1.675000
v -13.452772 0.647848 -2.325000
v -13.454490 0.653965 -1.675000
v -13.454491 0.653965 -2.325000
v -13.827127 0.567172 -1.862245
v -13.827127 0.567172 -2.137753
vt 0.946202 0.953250
vt 0.945278 0.952326
vt 0.945278 0.986400
vt 0.946202 0.985475
vt 0.946202 0.953250
vt 0.946202 0.985475
vt 0.945278 0.986400
vt 0.945278 0.952326
vn 0.2268 -0.9739 0.0000
vn -0.2268 0.9739 -0.0000
vn -0.4235 -0.1190 0.8980
vn -0.9627 -0.2705 0.0000
vn -0.4235 -0.1189 -0.8980
vn 0.9627 0.2706 -0.0000
usemtl Palette
s off
f 2/1/1 4/2/1 3/3/1 1/4/1
f 8/5/2 7/6/2 5/7/2 6/8/2
f 1/4/3 3/3/3 5/7/3 7/6/3
f 2/1/4 1/4/4 7/6/4 8/5/4
f 4/2/5 2/1/5 8/5/5 6/8/5
f 3/3/6 4/2/6 6/8/6 5/7/6
