# Blender v3.3.1 OBJ File: 'Office Set.blend'
# www.blender.org
mtllib Box_A.mtl
o Box_A_Cube.189
v -15.001067 0.911147 -2.307689
v -15.001067 0.911147 -1.692311
v -14.814508 0.649987 -2.325000
v -14.814508 0.649987 -1.675000
v -14.819678 0.646294 -2.325000
v -14.819678 0.646294 -1.675000
v -15.006237 0.907453 -2.307689
v -15.006237 0.907453 -1.692311
vt 0.946202 0.953250
vt 0.945278 0.952326
vt 0.945278 0.986400
vt 0.946202 0.985475
vt 0.946202 0.953250
vt 0.946202 0.985475
vt 0.945278 0.986400
vt 0.945278 0.952326
vn 0.8137 0.5813 0.0000
vn -0.8137 -0.5813 0.0000
vn -0.0313 0.0438 -0.9985
vn -0.5813 0.8137 0.0000
vn -0.0313 0.0438 0.9985
vn 0.5812 -0.8137 0.0000
usemtl Palette
s off
f 2/1/1 4/2/1 3/3/1 1/4/1
f 8/5/2 7/6/2 5/7/2 6/8/2
f 1/4/3 3/3/3 5/7/3 7/6/3
f 2/1/4 1/4/4 7/6/4 8/5/4
f 4/2/5 2/1/5 8/5/5 6/8/5
f 3/3/6 4/2/6 6/8/6 5/7/6
