# Blender v3.3.1 OBJ File: 'Office Set.blend'
# www.blender.org
mtllib Box_Base.mtl
o Box_Base_Cube.188
v -14.825000 0.000000 -1.675000
v -14.175000 0.000000 -1.675000
v -14.825000 0.000000 -2.325000
v -14.175000 0.000000 -2.325000
v -14.807364 0.652048 -2.307364
v -14.807364 0.652048 -1.692636
v -14.192636 0.652048 -1.692636
v -14.192636 0.652048 -2.307364
v -14.825000 0.652048 -2.325000
v -14.825000 0.652048 -1.675000
v -14.175000 0.652048 -1.675000
v -14.175000 0.652048 -2.325000
v -14.807364 0.020724 -2.307364
v -14.807364 0.020724 -1.692636
v -14.192636 0.020724 -1.692636
v -14.192636 0.020724 -2.307364
vt 0.945278 0.952326
vt 0.945278 0.986400
vt 0.979352 0.986400
vt 0.979352 0.952326
vt 0.616204 0.721089
vt 0.616204 0.688863
vt 0.616204 0.688863
vt 0.616204 0.721089
vt 0.945278 0.986400
vt 0.979352 0.986400
vt 0.979352 0.952326
vt 0.945278 0.952326
vt 0.946202 0.953250
vt 0.946202 0.985475
vt 0.978427 0.953250
vt 0.978427 0.985475
vt 0.699686 0.692271
vt 0.731911 0.692271
vt 0.731911 0.724496
vt 0.699686 0.724496
vt 0.648429 0.721089
vt 0.648429 0.721089
vt 0.648429 0.688863
vt 0.648429 0.688863
vn 0.0000 -1.0000 0.0000
vn 1.0000 0.0000 0.0000
vn 0.0000 0.0000 -1.0000
vn 0.0000 0.0000 1.0000
vn -1.0000 0.0000 0.0000
vn 0.0000 1.0000 0.0000
usemtl Palette
s off
f 1/1/1 3/2/1 4/3/1 2/4/1
f 5/5/2 6/6/2 14/7/2 13/8/2
f 4/3/3 3/2/3 9/9/3 12/10/3
f 1/1/4 2/4/4 11/11/4 10/12/4
f 2/4/2 4/3/2 12/10/2 11/11/2
f 3/2/5 1/1/5 10/12/5 9/9/5
f 6/13/6 5/14/6 9/9/6 10/12/6
f 7/15/6 6/13/6 10/12/6 11/11/6
f 8/16/6 7/15/6 11/11/6 12/10/6
f 5/14/6 8/16/6 12/10/6 9/9/6
f 14/17/6 15/18/6 16/19/6 13/20/6
f 8/21/4 5/5/4 13/8/4 16/22/4
f 6/6/3 7/23/3 15/24/3 14/7/3
f 7/23/5 8/21/5 16/22/5 15/24/5
