# Blender v3.3.1 OBJ File: 'Office Set.blend'
# www.blender.org
mtllib Chair_Office_Base_B.mtl
o Chair_Office_Base_B_Cube.128
v -9.803065 0.538558 0.754889
v -9.803065 0.599532 0.245111
v -9.803065 0.538558 0.303993
v -9.803065 0.599532 0.303993
v -9.803065 0.578197 0.248429
v -9.803065 0.538558 0.288068
v -9.803065 0.558378 0.253740
v -9.803065 0.543869 0.268249
v -9.803065 0.559892 0.754889
v -9.803065 0.599532 0.715249
v -9.803065 0.579712 0.749578
v -9.803065 0.594221 0.735069
v -9.803065 1.076573 0.248258
v -9.803065 1.092400 0.231302
v -9.803065 1.087764 0.242840
v -9.803065 1.092400 0.204149
v -9.803065 1.076573 0.189375
v -9.803065 1.087764 0.193250
v -9.522147 0.357509 0.521213
v -9.522147 0.538558 0.521213
v -9.530934 0.357509 0.500000
v -9.530934 0.538558 0.500000
v -9.522147 0.357509 0.478787
v -9.522147 0.538558 0.478787
v -9.803349 0.798875 0.242128
v -9.858186 0.798875 0.242128
v -9.803349 0.780125 0.259570
v -9.858186 0.780125 0.259570
v -9.803349 0.581863 0.575940
v -9.858186 0.581863 0.575940
v -9.803349 0.725242 0.601268
v -9.803349 0.780125 0.555230
v -9.803349 0.746245 0.600735
v -9.803349 0.764050 0.591799
v -9.803349 0.775947 0.575820
v -9.858186 0.780125 0.555230
v -9.858186 0.725242 0.601268
v -9.858186 0.775947 0.575820
v -9.858186 0.764050 0.591799
v -9.858186 0.746245 0.600735
v -9.803349 0.798875 0.552477
v -9.803349 0.720499 0.618614
v -9.803349 0.795039 0.576392
v -9.803349 0.783907 0.596657
v -9.803349 0.766567 0.611289
v -9.803349 0.744718 0.618854
v -9.858186 0.720499 0.618614
v -9.858186 0.798875 0.552477
v -9.858186 0.744718 0.618854
v -9.858186 0.766567 0.611289
v -9.858186 0.783907 0.596657
v -9.858186 0.795039 0.576392
v -9.803349 0.603549 0.598661
v -9.803349 0.589595 0.589046
v -9.858186 0.589595 0.589046
v -9.858186 0.603549 0.598661
v -9.196935 0.538558 0.754889
v -9.196935 0.599532 0.245111
v -9.196935 0.538558 0.303993
v -9.196935 0.599532 0.303993
v -9.196935 0.578197 0.248429
v -9.196935 0.538558 0.288068
v -9.196935 0.558378 0.253739
v -9.196935 0.543869 0.268248
v -9.196935 0.559892 0.754889
v -9.196935 0.599532 0.715249
v -9.196935 0.579712 0.749578
v -9.196935 0.594221 0.735069
v -9.196935 1.076573 0.248257
v -9.196935 1.092400 0.231302
v -9.196935 1.087764 0.242839
v -9.196935 1.092400 0.204148
v -9.196935 1.076573 0.189375
v -9.196935 1.087764 0.193250
v -9.500000 0.357509 0.530000
v -9.500000 0.538558 0.530000
v -9.477853 0.357509 0.521213
v -9.477853 0.538558 0.521213
v -9.469066 0.357509 0.500000
v -9.469066 0.538558 0.500000
v -9.477853 0.357509 0.478787
v -9.477853 0.538558 0.478787
v -9.500000 0.357509 0.470000
v -9.500000 0.538558 0.470000
v -9.196651 0.798875 0.242127
v -9.141814 0.798875 0.242127
v -9.196651 0.780125 0.259570
v -9.141814 0.780125 0.259570
v -9.196651 0.581863 0.575940
v -9.141814 0.581863 0.575940
v -9.196651 0.725242 0.601268
v -9.196651 0.780125 0.555230
v -9.196651 0.746245 0.600735
v -9.196651 0.764050 0.591799
v -9.196651 0.775947 0.575820
v -9.141814 0.780125 0.555230
v -9.141814 0.725242 0.601268
v -9.141814 0.775947 0.575820
v -9.141814 0.764050 0.591799
v -9.141814 0.746245 0.600735
v -9.196651 0.798875 0.552477
v -9.196651 0.720499 0.618614
v -9.196651 0.795039 0.576392
v -9.196651 0.783907 0.596657
v -9.196651 0.766567 0.611288
v -9.196651 0.744718 0.618854
v -9.141814 0.720499 0.618614
v -9.141814 0.798875 0.552477
v -9.141814 0.744718 0.618854
v -9.141814 0.766567 0.611288
v -9.141814 0.783907 0.596657
v -9.141814 0.795039 0.576392
v -9.196651 0.603549 0.598661
v -9.196651 0.589595 0.589046
v -9.141814 0.589595 0.589046
v -9.141814 0.603549 0.598661
vt 0.134016 0.970137
vt 0.134016 0.970088
vt 0.134016 0.969591
vt 0.134016 0.969044
vt 0.134016 0.968513
vt 0.134016 0.968513
vt 0.134016 0.970137
vt 0.134016 0.960815
vt 0.134016 0.968513
vt 0.134016 0.960815
vt 0.134016 0.960073
vt 0.134016 0.960073
vt 0.134016 0.960106
vt 0.134016 0.960444
vt 0.134016 0.960073
vt 0.134016 0.960073
vt 0.134016 0.970137
vt 0.134016 0.970137
vt 0.134016 0.970137
vt 0.134016 0.968513
vt 0.134016 0.968556
vt 0.134016 0.968951
vt 0.134016 0.969700
vt 0.134016 0.970095
vt 0.134016 0.960444
vt 0.134016 0.960106
vt 0.134016 0.970137
vt 0.134016 0.968513
vt 0.134016 0.962036
vt 0.134016 0.961585
vt 0.134016 0.961235
vt 0.134016 0.961039
vt 0.134016 0.960815
vt 0.134016 0.960815
vt 0.134016 0.960815
vt 0.134016 0.960815
vt 0.134016 0.960815
vt 0.134016 0.960830
vt 0.134016 0.960893
vt 0.134016 0.961500
vt 0.134016 0.961948
vt 0.134016 0.962458
vt 0.134016 0.968513
vt 0.134016 0.968513
vt 0.144081 0.968513
vt 0.144081 0.968513
vt 0.144081 0.960815
vt 0.144081 0.960815
vt 0.144081 0.960815
vt 0.144081 0.960815
vt 0.144081 0.962036
vt 0.144081 0.962458
vt 0.144081 0.961930
vt 0.144081 0.961448
vt 0.144081 0.960859
vt 0.144081 0.960823
vt 0.144081 0.960815
vt 0.144081 0.960815
vt 0.144081 0.960815
vt 0.144081 0.960815
vt 0.134016 0.968513
vt 0.134016 0.969044
vt 0.134016 0.969591
vt 0.134016 0.970088
vt 0.134016 0.970095
vt 0.134016 0.969700
vt 0.134016 0.968951
vt 0.134016 0.968556
vt 0.134016 0.962036
vt 0.134016 0.968513
vt 0.134016 0.968513
vt 0.134016 0.962458
vt 0.134016 0.961948
vt 0.134016 0.961500
vt 0.134016 0.960893
vt 0.134016 0.960830
vt 0.134016 0.960815
vt 0.134016 0.960815
vt 0.134016 0.960815
vt 0.134016 0.960815
vt 0.134016 0.960815
vt 0.134016 0.961039
vt 0.134016 0.961235
vt 0.134016 0.961585
vt 0.144081 0.968513
vt 0.144081 0.968513
vt 0.144081 0.960815
vt 0.144081 0.960815
vt 0.144081 0.960815
vt 0.144081 0.960815
vt 0.144081 0.960815
vt 0.144081 0.960823
vt 0.144081 0.960859
vt 0.144081 0.961448
vt 0.144081 0.961930
vt 0.144081 0.962458
vt 0.144081 0.962036
vt 0.144081 0.960815
vt 0.144081 0.960815
vt 0.144081 0.960815
vt 0.234661 0.864560
vt 0.234661 0.898634
vt 0.230402 0.898634
vt 0.230402 0.864560
vt 0.226143 0.898634
vt 0.226143 0.864560
vt 0.221884 0.898634
vt 0.221884 0.864560
vt 0.217624 0.898634
vt 0.217624 0.864560
vt 0.134016 0.960815
vt 0.134016 0.960815
vt 0.144081 0.961585
vt 0.230402 0.864560
vt 0.230402 0.898634
vt 0.226143 0.864560
vt 0.226143 0.898634
vt 0.221884 0.864560
vt 0.221884 0.898634
vt 0.134016 0.960815
vt 0.134016 0.960815
vt 0.144081 0.961585
vn -1.0000 0.0000 0.0000
vn 0.0000 1.0000 0.0000
vn 0.0000 0.0000 1.0000
vn -0.0000 -0.1160 -0.9932
vn 0.0000 0.9659 0.2588
vn 0.0000 0.7071 0.7071
vn 0.0000 0.2588 0.9659
vn -0.0000 -0.1537 -0.9881
vn 0.0000 0.1160 0.9932
vn 0.0000 -0.6811 -0.7322
vn 1.0000 0.0000 0.0000
vn 0.6648 0.7320 -0.1492
vn 0.6262 0.5320 -0.5699
vn -0.6262 0.5320 -0.5699
vn -0.6648 0.7320 -0.1492
vn 0.6952 -0.1485 -0.7033
vn 0.6532 -0.3786 -0.6557
vn -0.6532 -0.3786 -0.6557
vn -0.6952 -0.1485 -0.7033
vn 0.6532 -0.6557 -0.3786
vn -0.6532 -0.6557 -0.3786
vn 0.6789 -0.7280 -0.0958
vn -0.6789 -0.7280 -0.0958
vn 0.7071 -0.7071 0.0000
vn -0.7071 -0.7071 0.0000
vn 0.6602 0.0813 -0.7467
vn -0.6602 0.0813 -0.7467
vn -0.6342 0.5652 0.5276
vn 0.6342 0.5652 0.5276
vn 0.6668 0.7317 0.1415
vn -0.6668 0.7317 0.1415
vn -0.6715 0.2073 0.7114
vn 0.6715 0.2073 0.7114
vn -0.7018 0.0000 0.7124
vn -0.7018 0.0000 -0.7124
vn 0.0000 0.0000 -1.0000
vn -0.6897 0.7218 0.0575
vn 0.6897 0.7219 0.0575
vn 0.5479 0.3341 -0.7670
vn -0.5479 0.3340 -0.7670
vn -0.6853 -0.7246 -0.0728
vn -0.6273 -0.7140 -0.3110
vn 0.6273 -0.7140 -0.3110
vn 0.6853 -0.7246 -0.0728
vn 0.6853 0.0544 -0.7262
vn -0.6853 0.0544 -0.7262
vn -0.6611 -0.1822 -0.7278
vn 0.6611 -0.1821 -0.7278
vn -0.6587 -0.4836 -0.5765
vn 0.6587 -0.4836 -0.5765
vn -0.6611 -0.6850 -0.3060
vn 0.6611 -0.6850 -0.3060
vn 0.5490 -0.6869 -0.4763
vn -0.5490 -0.6869 -0.4763
vn -0.6706 0.7016 0.2409
vn 0.6706 0.7016 0.2409
vn -0.6682 0.5756 0.4713
vn 0.6682 0.5756 0.4713
vn -0.6682 0.3678 0.6467
vn 0.6682 0.3678 0.6467
vn -0.6706 0.1194 0.7321
vn 0.6706 0.1194 0.7321
vn -0.6897 -0.0647 0.7212
vn 0.6897 -0.0647 0.7212
vn 0.6617 -0.5485 0.5112
vn -0.6617 -0.5485 0.5112
vn 0.6617 -0.2824 0.6946
vn -0.6617 -0.2824 0.6946
vn 0.7018 0.0000 0.7124
vn 0.7018 0.0000 -0.7124
vn 0.5773 -0.5774 0.5773
vn -0.5774 -0.5773 0.5774
usemtl Palette
s off
f 5/1/1 7/2/1 8/3/1 6/4/1 3/5/1 4/6/1 2/7/1
f 66/8/2 60/9/2 4/6/2 10/10/2
f 3/5/1 1/11/1 9/12/1 11/13/1 12/14/1 10/10/1 4/6/1
f 57/15/3 65/16/3 9/12/3 1/11/3
f 17/17/4 73/18/4 58/19/4 2/7/4
f 2/7/1 4/6/1 13/20/1 15/21/1 14/22/1 16/23/1 18/24/1 17/17/1
f 12/14/5 68/25/5 66/8/5 10/10/5
f 11/13/6 67/26/6 68/25/6 12/14/6
f 9/12/7 65/16/7 67/26/7 11/13/7
f 2/7/8 58/19/8 61/27/8 5/1/8
f 60/9/9 69/28/9 13/20/9 4/6/9
f 36/29/1 38/30/1 39/31/1 40/32/1 37/33/1 30/34/1 55/35/1 56/36/1 47/37/1 49/38/1 50/39/1 51/40/1 52/41/1 48/42/1 26/43/1 28/44/1
f 26/43/10 25/45/10 27/46/10 28/44/10
f 31/47/11 33/48/11 34/49/11 35/50/11 32/51/11 27/46/11 25/45/11 41/52/11 43/53/11 44/54/11 45/55/11 46/56/11 42/57/11 53/58/11 54/59/11 29/60/11
f 61/27/11 58/19/11 60/9/11 59/61/11 62/62/11 64/63/11 63/64/11
f 59/61/11 60/9/11 66/8/11 68/25/11 67/26/11 65/16/11 57/15/11
f 58/19/11 73/18/11 74/65/11 72/66/11 70/67/11 71/68/11 69/28/11 60/9/11
f 96/69/11 88/70/11 86/71/11 108/72/11 112/73/11 111/74/11 110/75/11 109/76/11 107/77/11 116/78/11 115/79/11 90/80/11 97/81/11 100/82/11 99/83/11 98/84/11
f 86/71/10 88/70/10 87/85/10 85/86/10
f 91/87/1 89/88/1 114/89/1 113/90/1 102/91/1 106/92/1 105/93/1 104/94/1 103/95/1 101/96/1 85/86/1 87/85/1 92/97/1 95/98/1 94/99/1 93/100/1
s 1
f 72/66/12 74/65/13 18/24/14 16/23/15
f 61/27/16 63/64/17 7/2/18 5/1/19
f 63/64/17 64/63/20 8/3/21 7/2/18
f 64/63/20 62/62/22 6/4/23 8/3/21
f 59/61/24 3/5/25 6/4/23 62/62/22
f 74/65/13 73/18/26 17/17/27 18/24/14
f 15/21/28 71/68/29 70/67/30 14/22/31
f 13/20/32 69/28/33 71/68/29 15/21/28
f 70/67/30 72/66/12 16/23/15 14/22/31
f 75/101/3 76/102/3 20/103/34 19/104/34
f 19/104/34 20/103/34 22/105/1 21/106/1
f 21/106/1 22/105/1 24/107/35 23/108/35
f 23/108/35 24/107/35 84/109/36 83/110/36
f 48/42/37 41/52/38 25/45/39 26/43/40
f 36/29/41 28/44/42 27/46/43 32/51/44
f 31/47/45 37/33/46 40/111/47 33/48/48
f 33/48/48 40/111/47 39/112/49 34/49/50
f 34/49/50 39/112/49 38/30/51 35/113/52
f 35/113/52 38/30/51 36/29/41 32/51/44
f 31/47/45 29/60/53 30/34/54 37/33/46
f 41/52/38 48/42/37 52/41/55 43/53/56
f 43/53/56 52/41/55 51/40/57 44/54/58
f 44/54/58 51/40/57 50/39/59 45/55/60
f 45/55/60 50/39/59 49/38/61 46/56/62
f 46/56/62 49/38/61 47/37/63 42/57/64
f 54/59/65 55/35/66 30/34/54 29/60/53
f 53/58/67 56/36/68 55/35/66 54/59/65
f 42/57/64 47/37/63 56/36/68 53/58/67
f 75/101/3 77/114/69 78/115/69 76/102/3
f 77/114/69 79/116/11 80/117/11 78/115/69
f 79/116/11 81/118/70 82/119/70 80/117/11
f 81/118/70 83/110/36 84/109/36 82/119/70
f 108/72/38 86/71/39 85/86/40 101/96/37
f 96/69/44 92/97/41 87/85/42 88/70/43
f 91/87/46 93/100/47 100/120/48 97/81/45
f 93/100/47 94/99/49 99/121/50 100/120/48
f 94/99/49 95/122/51 98/84/52 99/121/50
f 95/122/51 92/97/41 96/69/44 98/84/52
f 91/87/46 97/81/45 90/80/53 89/88/54
f 101/96/37 103/95/55 112/73/56 108/72/38
f 103/95/55 104/94/57 111/74/58 112/73/56
f 104/94/57 105/93/59 110/75/60 111/74/58
f 105/93/59 106/92/61 109/76/62 110/75/60
f 106/92/61 102/91/63 107/77/64 109/76/62
f 114/89/66 89/88/54 90/80/53 115/79/65
f 113/90/68 114/89/66 115/79/65 116/78/67
f 102/91/63 113/90/68 116/78/67 107/77/64
f 57/15/71 1/11/72 3/5/25 59/61/24
