# Blender v3.3.1 OBJ File: 'Office Set.blend'
# www.blender.org
mtllib Chair_B.mtl
o Chair_B_Cube.060
v -8.860245 0.442926 2.199976
v -8.860245 0.442926 2.798220
v -8.860245 0.536196 2.199976
v -8.860245 0.536196 2.798220
v -8.794637 0.532932 2.201293
v -8.794637 0.532932 2.796903
v -8.794637 0.607577 2.199976
v -8.858786 0.705647 2.202892
v -8.858786 0.705647 2.796045
v -8.858786 0.735009 2.202892
v -8.858786 0.735009 2.796045
v -8.804350 0.705647 2.796045
v -8.804350 0.705647 2.202892
v -8.804350 0.735009 2.796045
v -8.804350 0.735009 2.202892
v -8.858786 0.705647 2.770006
v -8.858786 0.705647 2.228931
v -8.804350 0.018911 2.202892
v -8.804350 0.018911 2.241235
v -8.804350 0.705647 2.770006
v -8.804350 0.705647 2.228931
v -8.858786 0.018911 2.202892
v -8.858786 0.018911 2.241235
v -8.858786 0.018911 2.796045
v -8.804350 0.018911 2.796045
v -8.858786 0.018911 2.770006
v -8.804350 0.018911 2.770006
v -8.848241 0.050996 2.214913
v -8.848241 0.050996 2.783283
v -8.848241 0.121153 2.214913
v -8.848241 0.121153 2.783283
v -8.848241 0.050996 2.757539
v -8.848241 0.050996 2.240657
v -8.819495 0.050996 2.240657
v -8.819495 0.050996 2.214913
v -8.819495 0.050996 2.783283
v -8.819495 0.121153 2.783283
v -8.819495 0.121153 2.214913
v -8.819495 0.050996 2.757539
v -8.818707 0.050996 2.233542
v -8.818707 0.121153 2.233542
v -8.792963 0.050996 2.233542
v -8.792963 0.050996 2.204796
v -8.818707 0.050996 2.204796
v -8.818707 0.121153 2.204796
v -8.794637 0.607577 2.302875
v -8.794637 0.905005 2.178381
v -8.767279 0.932339 2.204313
v -8.786624 0.924333 2.185385
v -8.767279 0.932339 2.252496
v -8.794637 0.905005 2.281280
v -8.786624 0.924333 2.272259
v -8.794637 0.589729 2.798220
v -8.794637 0.607577 2.780372
v -8.794637 0.602349 2.792993
v -8.858786 0.453489 2.796045
v -8.804350 0.453489 2.796045
v -8.804350 0.453489 2.770006
v -8.858786 0.453489 2.770006
v -8.858786 0.523440 2.796045
v -8.804350 0.523440 2.796045
v -8.804350 0.523440 2.770006
v -8.858786 0.523440 2.770006
v -8.804350 0.524842 2.202892
v -8.804350 0.461363 2.202892
v -8.804350 0.461363 2.241235
v -8.804350 0.524842 2.228931
v -8.858786 0.461363 2.241235
v -8.858786 0.524842 2.228931
v -8.858786 0.461363 2.202892
v -8.858786 0.524842 2.202892
v -8.139755 0.442926 2.199975
v -8.139755 0.442926 2.798220
v -8.139755 0.536196 2.199975
v -8.139755 0.536196 2.798220
v -8.500000 0.532932 2.201293
v -8.500000 0.532932 2.796903
v -8.205363 0.532932 2.201293
v -8.205363 0.532932 2.796903
v -8.205363 0.607577 2.199975
v -8.141214 0.705647 2.202892
v -8.141214 0.705647 2.796045
v -8.141214 0.735009 2.202892
v -8.141214 0.735009 2.796045
v -8.195650 0.705647 2.796045
v -8.195650 0.705647 2.202892
v -8.195650 0.735009 2.796045
v -8.195650 0.735009 2.202892
v -8.141214 0.705647 2.770006
v -8.141214 0.705647 2.228931
v -8.195650 0.018911 2.202892
v -8.195650 0.018911 2.241235
v -8.195650 0.705647 2.770006
v -8.195650 0.705647 2.228931
v -8.141214 0.018911 2.202892
v -8.141214 0.018911 2.241235
v -8.141214 0.018911 2.796045
v -8.195650 0.018911 2.796045
v -8.141214 0.018911 2.770006
v -8.195650 0.018911 2.770006
v -8.151759 0.050996 2.214913
v -8.151759 0.050996 2.783283
v -8.151759 0.121153 2.214913
v -8.151759 0.121153 2.783283
v -8.151759 0.050996 2.757539
v -8.151759 0.050996 2.240657
v -8.180505 0.050996 2.240657
v -8.180505 0.050996 2.214913
v -8.180505 0.050996 2.783283
v -8.180505 0.121153 2.783283
v -8.180505 0.121153 2.214913
v -8.180505 0.050996 2.757539
v -8.181293 0.050996 2.233542
v -8.181293 0.121153 2.233542
v -8.207038 0.050996 2.233542
v -8.207038 0.050996 2.204796
v -8.181293 0.050996 2.204796
v -8.181293 0.121153 2.204796
v -8.205363 0.607577 2.302874
v -8.205363 0.905005 2.178380
v -8.232721 0.932339 2.204313
v -8.213376 0.924333 2.185385
v -8.232721 0.932339 2.252496
v -8.205363 0.905005 2.281279
v -8.213376 0.924333 2.272258
v -8.205363 0.589729 2.798220
v -8.205363 0.607577 2.780372
v -8.205363 0.602349 2.792992
v -8.141214 0.453489 2.796045
v -8.195650 0.453489 2.796045
v -8.195650 0.453489 2.770006
v -8.141214 0.453489 2.770006
v -8.141214 0.523440 2.796045
v -8.195650 0.523440 2.796045
v -8.195650 0.523440 2.770006
v -8.141214 0.523440 2.770006
v -8.195650 0.524842 2.202892
v -8.195650 0.461363 2.202892
v -8.195650 0.461363 2.241235
v -8.195650 0.524842 2.228931
v -8.141214 0.461363 2.241235
v -8.141214 0.524842 2.228931
v -8.141214 0.461363 2.202892
v -8.141214 0.524842 2.202892
vt 0.556231 0.896136
vt 0.556231 0.896136
vt 0.556231 0.865869
vt 0.556231 0.865869
vt 0.556231 0.896136
vt 0.556231 0.896136
vt 0.556231 0.865869
vt 0.556231 0.865869
vt 0.556231 0.865869
vt 0.556231 0.865869
vt 0.556231 0.865869
vt 0.556231 0.865869
vt 0.731818 0.783222
vt 0.731818 0.817296
vt 0.731818 0.817296
vt 0.731818 0.817200
vt 0.731818 0.816329
vt 0.731818 0.790457
vt 0.731818 0.783222
vt 0.556231 0.886047
vt 0.556231 0.886047
vt 0.556231 0.896136
vt 0.556231 0.896136
vt 0.556231 0.865869
vt 0.556231 0.865869
vt 0.556231 0.875958
vt 0.556231 0.875958
vt 0.556231 0.875958
vt 0.556232 0.865869
vt 0.556231 0.865869
vt 0.556231 0.865869
vt 0.556231 0.865869
vt 0.556231 0.865869
vt 0.556231 0.865869
vt 0.556231 0.875958
vt 0.556231 0.896136
vt 0.556231 0.896136
vt 0.556231 0.896136
vt 0.556231 0.896136
vt 0.556231 0.886047
vt 0.556231 0.886047
vt 0.556231 0.896136
vt 0.556231 0.896136
vt 0.556231 0.875958
vt 0.556231 0.875958
vt 0.556231 0.886047
vt 0.556231 0.886047
vt 0.556231 0.865869
vt 0.556231 0.865869
vt 0.556231 0.875958
vt 0.556231 0.886047
vt 0.556231 0.896136
vt 0.556231 0.896136
vt 0.556231 0.865869
vt 0.556231 0.896136
vt 0.556231 0.896136
vt 0.556231 0.886047
vt 0.556231 0.875958
vt 0.556231 0.865869
vt 0.556231 0.865869
vt 0.556231 0.875958
vt 0.556231 0.875958
vt 0.556231 0.865869
vt 0.556231 0.875958
vt 0.556231 0.875958
vt 0.556231 0.865869
vt 0.556231 0.865869
vt 0.727924 0.788533
vt 0.727924 0.788533
vt 0.727924 0.785145
vt 0.727924 0.785145
vt 0.731818 0.817296
vt 0.731818 0.817296
vt 0.697744 0.817296
vt 0.556231 0.865869
vt 0.556232 0.865869
vt 0.556231 0.875958
vt 0.556232 0.875958
vt 0.556231 0.886047
vt 0.556231 0.886047
vt 0.556231 0.896136
vt 0.556231 0.896136
vt 0.731818 0.783222
vt 0.731818 0.783222
vt 0.731818 0.790457
vt 0.731818 0.816329
vt 0.731818 0.817200
vt 0.556231 0.886047
vt 0.556231 0.896136
vt 0.556231 0.896136
vt 0.556231 0.886047
vt 0.556231 0.865869
vt 0.556231 0.875958
vt 0.556231 0.875958
vt 0.556231 0.865869
vt 0.556231 0.875958
vt 0.556232 0.865869
vt 0.556231 0.865869
vt 0.556231 0.865869
vt 0.556231 0.865869
vt 0.556231 0.865869
vt 0.556231 0.865869
vt 0.556231 0.875958
vt 0.556231 0.896136
vt 0.556231 0.896136
vt 0.556231 0.896136
vt 0.556231 0.896136
vt 0.556231 0.886047
vt 0.556231 0.886047
vt 0.556231 0.896136
vt 0.556231 0.896136
vt 0.556231 0.875958
vt 0.556231 0.886047
vt 0.556231 0.886047
vt 0.556231 0.875958
vt 0.556231 0.865869
vt 0.556231 0.896136
vt 0.556231 0.896136
vt 0.556231 0.886047
vt 0.556231 0.875958
vt 0.556231 0.865869
vt 0.556231 0.865869
vt 0.556231 0.865869
vt 0.556231 0.875958
vt 0.556231 0.886047
vt 0.556231 0.896136
vt 0.556231 0.896136
vt 0.556232 0.865869
vt 0.556231 0.865869
vt 0.556232 0.875958
vt 0.556231 0.875958
vt 0.556231 0.886047
vt 0.556231 0.886047
vt 0.556231 0.896136
vt 0.556231 0.896136
vt 0.697744 0.783222
vt 0.731248 0.783518
vt 0.731248 0.783518
vt 0.731818 0.790457
vt 0.731818 0.783222
vt 0.731818 0.790457
vt 0.731818 0.783222
vt 0.731248 0.790190
vt 0.731248 0.790190
vn 0.0000 1.0000 0.0000
vn 0.0000 0.0000 1.0000
vn -1.0000 0.0000 0.0000
vn -0.0000 0.0000 -1.0000
vn 0.0000 -1.0000 0.0000
vn 1.0000 0.0000 0.0000
vn 0.0000 -0.0232 0.9997
vn -0.7133 -0.0316 -0.7001
vn 0.7133 -0.0316 -0.7001
vn 0.7110 -0.0124 -0.7030
vn -0.0000 -0.0176 -0.9998
vn -0.7110 -0.0124 -0.7030
vn -0.6303 0.5490 0.5490
vn 0.6303 0.5490 0.5490
vn 0.6657 0.7319 0.1456
vn -0.6657 0.7319 0.1456
vn 0.1475 0.9774 -0.1516
vn 0.4967 0.6988 -0.5147
vn -0.4967 0.6988 -0.5147
vn -0.1475 0.9774 -0.1516
vn -0.8959 0.3253 0.3025
vn -0.6874 0.2710 0.6738
vn -0.6872 0.2003 -0.6983
vn 0.8959 0.3253 0.3025
vn 0.6874 0.2710 0.6738
vn 0.6872 0.2003 -0.6983
vn -0.4981 0.7219 0.4804
vn 0.4981 0.7219 0.4803
vn 0.1486 0.9783 0.1446
vn -0.1486 0.9783 0.1446
vn -0.6635 0.1375 0.7355
vn 0.6635 0.1375 0.7355
usemtl Palette
s off
f 4/1/1 75/2/1 74/3/1 3/4/1
f 73/5/2 75/2/2 4/1/2 2/6/2
f 1/7/3 2/6/3 4/1/3 3/4/3
f 3/4/4 74/3/4 72/8/4 1/7/4
f 114/9/1 118/10/1 45/11/1 41/12/1
f 5/13/3 6/14/3 53/15/3 55/16/3 54/17/3 46/18/3 7/19/3
f 26/20/5 27/21/5 25/22/5 24/23/5
f 22/24/5 18/25/5 19/26/5 23/27/5
f 66/28/6 19/26/6 18/25/6 65/29/6
f 10/30/4 15/31/4 13/32/4 8/33/4
f 70/34/3 22/24/3 23/27/3 68/35/3
f 9/36/2 12/37/2 14/38/2 11/39/2
f 11/39/1 14/38/1 15/31/1 10/30/1
f 58/40/4 27/21/4 26/20/4 59/41/4
f 56/42/2 24/23/2 25/22/2 57/43/2
f 17/44/5 21/45/5 20/46/5 16/47/5
f 21/45/6 13/32/6 15/31/6 14/38/6 12/37/6 20/46/6
f 65/29/4 18/25/4 22/24/4 70/34/4
f 10/30/3 8/33/3 17/44/3 16/47/3 9/36/3 11/39/3
f 68/35/2 23/27/2 19/26/2 66/28/2
f 57/43/6 25/22/6 27/21/6 58/40/6
f 59/41/3 26/20/3 24/23/3 56/42/3
f 30/48/3 28/49/3 33/50/3 32/51/3 29/52/3 31/53/3
f 38/54/6 37/55/6 36/56/6 39/57/6 34/58/6 35/59/6
f 30/48/1 31/53/1 37/55/1 38/54/1
f 29/52/5 32/51/5 39/57/5 36/56/5
f 32/51/5 33/50/5 34/58/5 39/57/5
f 118/10/4 117/60/4 116/61/4 43/62/4 44/63/4 45/11/4
f 33/50/5 28/49/5 35/59/5 34/58/5
f 43/62/5 116/61/5 115/64/5 42/65/5
f 114/9/2 41/12/2 40/66/2 42/65/2 115/64/2 113/67/2
f 42/65/5 40/66/5 44/63/5 43/62/5
f 50/68/1 123/69/1 121/70/1 48/71/1
f 79/72/7 126/73/7 53/15/7 6/14/7 77/74/7
f 13/32/4 64/75/4 71/76/4 8/33/4
f 17/44/2 69/77/2 67/78/2 21/45/2
f 20/46/4 62/79/4 63/80/4 16/47/4
f 9/36/2 60/81/2 61/82/2 12/37/2
f 12/37/6 61/82/6 62/79/6 20/46/6
f 16/47/3 63/80/3 60/81/3 9/36/3
f 8/33/3 71/76/3 69/77/3 17/44/3
f 21/45/6 67/78/6 64/75/6 13/32/6
f 72/8/6 74/3/6 75/2/6 73/5/6
f 78/83/6 80/84/6 119/85/6 127/86/6 128/87/6 126/73/6 79/72/6
f 99/88/5 97/89/5 98/90/5 100/91/5
f 95/92/5 96/93/5 92/94/5 91/95/5
f 139/96/3 138/97/3 91/95/3 92/94/3
f 83/98/4 81/99/4 86/100/4 88/101/4
f 143/102/6 141/103/6 96/93/6 95/92/6
f 82/104/2 84/105/2 87/106/2 85/107/2
f 84/105/1 83/98/1 88/101/1 87/106/1
f 131/108/4 132/109/4 99/88/4 100/91/4
f 129/110/2 130/111/2 98/90/2 97/89/2
f 90/112/5 89/113/5 93/114/5 94/115/5
f 94/115/3 93/114/3 85/107/3 87/106/3 88/101/3 86/100/3
f 138/97/4 143/102/4 95/92/4 91/95/4
f 83/98/6 84/105/6 82/104/6 89/113/6 90/112/6 81/99/6
f 141/103/2 139/96/2 92/94/2 96/93/2
f 130/111/3 131/108/3 100/91/3 98/90/3
f 132/109/6 129/110/6 97/89/6 99/88/6
f 103/116/6 104/117/6 102/118/6 105/119/6 106/120/6 101/121/6
f 111/122/3 108/123/3 107/124/3 112/125/3 109/126/3 110/127/3
f 103/116/1 111/122/1 110/127/1 104/117/1
f 102/118/5 109/126/5 112/125/5 105/119/5
f 105/119/5 112/125/5 107/124/5 106/120/5
f 106/120/5 107/124/5 108/123/5 101/121/5
f 115/64/5 116/61/5 117/60/5 113/67/5
f 86/100/4 81/99/4 144/128/4 137/129/4
f 90/112/2 94/115/2 140/130/2 142/131/2
f 93/114/4 89/113/4 136/132/4 135/133/4
f 82/104/2 85/107/2 134/134/2 133/135/2
f 85/107/3 93/114/3 135/133/3 134/134/3
f 89/113/6 82/104/6 133/135/6 136/132/6
f 81/99/6 90/112/6 142/131/6 144/128/6
f 94/115/3 86/100/3 137/129/3 140/130/3
f 1/7/5 72/8/5 73/5/5 2/6/5
s 1
f 7/19/8 80/84/9 78/83/10 76/136/11 5/13/12
f 55/16/13 128/87/14 127/86/15 54/17/16
f 121/70/17 122/137/18 49/138/19 48/71/20
f 7/19/8 46/18/21 51/139/22 47/140/23
f 119/85/24 124/141/25 51/139/22 46/18/21
f 122/137/18 120/142/26 47/140/23 49/138/19
f 52/143/27 125/144/28 123/69/29 50/68/30
f 50/68/30 48/71/20 49/138/19 52/143/27
f 52/143/27 49/138/19 47/140/23 51/139/22
f 51/139/22 124/141/25 125/144/28 52/143/27
f 47/140/23 120/142/26 80/84/9 7/19/8
f 53/15/31 126/73/32 128/87/14 55/16/13
f 54/17/16 127/86/15 119/85/24 46/18/21
f 80/84/9 120/142/26 124/141/25 119/85/24
f 123/69/29 125/144/28 122/137/18 121/70/17
f 125/144/28 124/141/25 120/142/26 122/137/18
l 76 77
