# Blender v3.3.1 OBJ File: 'Office Set.blend'
# www.blender.org
mtllib Chair_A.mtl
o Chair_A_Cube.160
v -8.786028 0.000000 1.114417
v -8.786028 0.000000 1.177394
v -8.722065 0.000000 1.177394
v -8.722065 0.000000 1.114417
v -8.786028 0.658536 1.313155
v -8.786028 0.600375 1.249835
v -8.786028 0.617429 1.296225
v -8.786028 0.650744 1.283306
v -8.786028 0.629456 1.260130
v -8.722065 0.600375 1.249835
v -8.722065 0.658536 1.313155
v -8.722065 0.617429 1.296225
v -8.722065 0.629456 1.260130
v -8.722065 0.650744 1.283306
v -8.786028 0.582290 1.311044
v -8.786028 0.600979 1.331581
v -8.722065 0.600979 1.331581
v -8.722065 0.582290 1.311044
v -8.773922 0.705754 1.299547
v -8.213972 0.000000 1.114417
v -8.213972 0.000000 1.177394
v -8.277935 0.000000 1.177394
v -8.277936 0.000000 1.114417
v -8.213972 0.658536 1.313155
v -8.213972 0.600375 1.249835
v -8.213972 0.617429 1.296225
v -8.213972 0.650744 1.283306
v -8.213972 0.629456 1.260130
v -8.277935 0.600375 1.249835
v -8.277935 0.658536 1.313155
v -8.277935 0.617429 1.296225
v -8.277935 0.629456 1.260130
v -8.277935 0.650744 1.283306
v -8.213972 0.582290 1.311044
v -8.213972 0.600979 1.331581
v -8.277935 0.600979 1.331581
v -8.277935 0.582290 1.311044
v -8.226079 0.705754 1.299547
v -8.773922 1.112328 1.255125
v -8.748749 0.714949 1.784810
v -8.805480 0.714949 1.728079
v -8.777114 0.714949 1.777209
v -8.797879 0.714949 1.756444
v -8.805480 0.655285 1.728079
v -8.748749 0.655285 1.784810
v -8.797879 0.655285 1.756444
v -8.777114 0.655285 1.777209
v -8.786028 0.000000 1.793528
v -8.786028 0.000000 1.730551
v -8.722065 0.000000 1.730551
v -8.722065 0.000000 1.793528
v -8.786028 0.658536 1.697988
v -8.786028 0.600375 1.761307
v -8.786028 0.617429 1.714918
v -8.786028 0.650744 1.727837
v -8.786028 0.629456 1.751013
v -8.722065 0.600375 1.761307
v -8.722065 0.658536 1.697988
v -8.722065 0.617429 1.714918
v -8.722065 0.629456 1.751013
v -8.722065 0.650744 1.727837
v -8.786028 0.582290 1.700099
v -8.786028 0.600979 1.679562
v -8.722065 0.600979 1.679562
v -8.722065 0.582290 1.700099
v -8.251251 0.714949 1.784810
v -8.194520 0.714949 1.728079
v -8.222886 0.714949 1.777209
v -8.202121 0.714949 1.756444
v -8.194520 0.655285 1.728079
v -8.251251 0.655285 1.784810
v -8.202121 0.655285 1.756444
v -8.222886 0.655285 1.777209
v -8.213972 0.000000 1.793528
v -8.213972 0.000000 1.730551
v -8.277935 0.000000 1.730551
v -8.277935 0.000000 1.793528
v -8.213972 0.658536 1.697988
v -8.213972 0.600375 1.761307
v -8.213972 0.617429 1.714918
v -8.213972 0.650744 1.727837
v -8.213972 0.629456 1.751013
v -8.277935 0.600375 1.761307
v -8.277935 0.658536 1.697988
v -8.277935 0.617429 1.714918
v -8.277935 0.629456 1.751013
v -8.277935 0.650744 1.727837
v -8.213972 0.582290 1.700099
v -8.213972 0.600979 1.679562
v -8.277935 0.600979 1.679562
v -8.277935 0.582290 1.700099
v -8.226079 1.112328 1.255125
v -8.634194 1.112328 1.234046
v -8.500000 1.112328 1.228912
v -8.365807 1.112328 1.234046
v -8.634194 0.705754 1.278469
v -8.500000 0.705754 1.273335
v -8.365807 0.705754 1.278469
v -8.365807 0.705754 1.232625
v -8.500000 0.705754 1.227490
v -8.634194 0.705754 1.232625
v -8.365807 1.112328 1.188202
v -8.500000 1.112328 1.183068
v -8.634194 1.112328 1.188202
v -8.688494 0.714949 1.215190
v -8.805479 0.714949 1.311245
v -8.720576 0.714949 1.219892
v -8.750978 0.714949 1.233535
v -8.781586 0.714949 1.254786
v -8.800777 0.714949 1.281563
v -8.805479 0.655285 1.311245
v -8.688494 0.655285 1.215190
v -8.800777 0.655285 1.281563
v -8.781586 0.655285 1.254786
v -8.750978 0.655285 1.233535
v -8.720576 0.655285 1.219892
v -8.194521 0.714949 1.311245
v -8.311506 0.714949 1.215190
v -8.199223 0.714949 1.281562
v -8.218414 0.714949 1.254785
v -8.249022 0.714949 1.233535
v -8.279425 0.714949 1.219891
v -8.311506 0.655285 1.215190
v -8.194521 0.655285 1.311245
v -8.279425 0.655285 1.219891
v -8.249022 0.655285 1.233535
v -8.218414 0.655285 1.254785
v -8.199223 0.655285 1.281562
v -8.773922 0.705754 1.275682
v -8.750525 0.705754 1.250312
v -8.249476 0.705754 1.250312
v -8.226079 0.705754 1.275682
v -8.750525 1.112328 1.205890
v -8.773922 1.112328 1.231260
v -8.226079 1.112328 1.231260
v -8.249476 1.112328 1.205889
vt 0.380041 0.797325
vt 0.380046 0.797319
vt 0.380065 0.797299
vt 0.380105 0.797257
vt 0.380162 0.797195
vt 0.380221 0.797132
vt 0.381001 0.796295
vt 0.380872 0.796810
vt 0.380521 0.797187
vt 0.380041 0.797325
vt 0.380041 0.797325
vt 0.380521 0.797187
vt 0.380872 0.796810
vt 0.381001 0.796295
vt 0.380221 0.797132
vt 0.380162 0.797195
vt 0.380105 0.797257
vt 0.380065 0.797299
vt 0.380046 0.797319
vt 0.380041 0.797325
vt 0.224909 0.878234
vt 0.224485 0.878419
vt 0.224485 0.878419
vt 0.224909 0.878234
vt 0.224880 0.877772
vt 0.224880 0.877772
vt 0.224909 0.878234
vt 0.225509 0.878334
vt 0.225509 0.883390
vt 0.224669 0.883344
vt 0.224669 0.878594
vt 0.225509 0.883390
vt 0.224669 0.883344
vt 0.224862 0.878270
vt 0.224669 0.878594
vt 0.225509 0.878334
vt 0.224880 0.877772
vt 0.225202 0.877772
vt 0.225452 0.877772
vt 0.225562 0.877772
vt 0.225509 0.878047
vt 0.225509 0.877824
vt 0.225509 0.877725
vt 0.224862 0.878270
vt 0.224880 0.877772
vt 0.224862 0.878270
vt 0.224485 0.878419
vt 0.224485 0.878419
vt 0.224669 0.878402
vt 0.224687 0.878419
vt 0.720559 0.807141
vt 0.720962 0.807163
vt 0.720962 0.807163
vt 0.720122 0.807117
vt 0.720122 0.807117
vt 0.224909 0.878234
vt 0.224880 0.877772
vt 0.224880 0.877772
vt 0.224909 0.878234
vt 0.224485 0.878419
vt 0.224485 0.878419
vt 0.224909 0.878234
vt 0.224669 0.878594
vt 0.224669 0.883344
vt 0.225509 0.883390
vt 0.225509 0.878334
vt 0.224669 0.883344
vt 0.225509 0.883390
vt 0.224862 0.878270
vt 0.225509 0.878334
vt 0.224669 0.878594
vt 0.224880 0.877772
vt 0.225202 0.877772
vt 0.225452 0.877772
vt 0.225562 0.877772
vt 0.225509 0.878047
vt 0.225509 0.877824
vt 0.225509 0.877725
vt 0.224862 0.878270
vt 0.224485 0.878419
vt 0.224485 0.878419
vt 0.224862 0.878270
vt 0.224880 0.877772
vt 0.224669 0.878402
vt 0.224687 0.878419
vt 0.720962 0.807163
vt 0.720962 0.807163
vt 0.720559 0.807141
vt 0.720122 0.807117
vt 0.720122 0.807117
vt 0.224909 0.878234
vt 0.224669 0.878594
vt 0.224669 0.883344
vt 0.225509 0.883390
vt 0.225509 0.878334
vt 0.224669 0.883344
vt 0.225509 0.883390
vt 0.224862 0.878270
vt 0.225509 0.878334
vt 0.224669 0.878594
vt 0.225202 0.877772
vt 0.225452 0.877772
vt 0.225562 0.877772
vt 0.225509 0.878047
vt 0.225509 0.877824
vt 0.225509 0.877725
vt 0.224669 0.878402
vt 0.224687 0.878419
vt 0.224909 0.878234
vt 0.225509 0.878334
vt 0.225509 0.883390
vt 0.224669 0.883344
vt 0.224669 0.878594
vt 0.225509 0.883390
vt 0.224669 0.883344
vt 0.224862 0.878270
vt 0.224669 0.878594
vt 0.225509 0.878334
vt 0.225202 0.877772
vt 0.225452 0.877772
vt 0.225562 0.877772
vt 0.225509 0.878047
vt 0.225509 0.877824
vt 0.225509 0.877725
vt 0.224669 0.878402
vt 0.224687 0.878419
vt 0.392296 0.797325
vt 0.392290 0.797319
vt 0.392271 0.797299
vt 0.392232 0.797257
vt 0.392175 0.797195
vt 0.392116 0.797132
vt 0.391336 0.796295
vt 0.391465 0.796810
vt 0.391816 0.797187
vt 0.392296 0.797325
vt 0.392296 0.797325
vt 0.391816 0.797187
vt 0.391465 0.796810
vt 0.391336 0.796295
vt 0.392116 0.797132
vt 0.392175 0.797195
vt 0.392232 0.797257
vt 0.392271 0.797299
vt 0.392290 0.797319
vt 0.392296 0.797325
vt 0.720962 0.807163
vt 0.720962 0.807163
vt 0.720962 0.807163
vt 0.720962 0.807163
vt 0.720122 0.807117
vt 0.720122 0.807117
vt 0.720122 0.807117
vt 0.720122 0.807117
vt 0.720122 0.807117
vt 0.720122 0.807117
vt 0.720559 0.807141
vt 0.720962 0.807163
vt 0.720962 0.807163
vt 0.720559 0.807141
vt 0.382704 0.803023
vt 0.382704 0.801407
vt 0.393040 0.801407
vt 0.393040 0.803023
vt 0.225202 0.877772
vt 0.225509 0.878047
vt 0.382704 0.803396
vt 0.393040 0.803396
vt 0.393040 0.803396
vt 0.382704 0.803396
vt 0.225202 0.877772
vt 0.225509 0.878047
vt 0.393040 0.802916
vt 0.382704 0.802916
vt 0.393040 0.801921
vt 0.382704 0.801921
vt 0.393040 0.803023
vt 0.393040 0.801407
vt 0.382704 0.801407
vt 0.382704 0.803023
vt 0.225202 0.877772
vt 0.225509 0.878047
vt 0.382704 0.802916
vt 0.393040 0.802916
vt 0.382704 0.801921
vt 0.393040 0.801921
vt 0.225202 0.877772
vt 0.225509 0.878047
vt 0.393040 0.803396
vt 0.382704 0.803396
vt 0.382704 0.803396
vt 0.393040 0.803396
vt 0.382704 0.803396
vt 0.393040 0.803396
vt 0.382704 0.803242
vt 0.393040 0.803242
vt 0.382704 0.803138
vt 0.393040 0.803138
vt 0.382704 0.803138
vt 0.393040 0.803138
vt 0.382704 0.803242
vt 0.393040 0.803242
vt 0.382704 0.803396
vt 0.393040 0.803396
vt 0.382704 0.803396
vt 0.393040 0.803396
vt 0.382704 0.803396
vt 0.393040 0.803396
vn 0.0000 -1.0000 0.0000
vn 1.0000 0.0000 0.0000
vn -1.0000 -0.0000 0.0000
vn 0.0000 1.0000 0.0000
vn -1.0000 0.0001 0.0000
vn 1.0000 0.0001 0.0000
vn 1.0000 -0.0001 0.0000
vn 0.1494 -0.1074 -0.9829
vn -0.1494 -0.1074 -0.9829
vn 0.1483 0.1074 0.9831
vn -0.1483 0.1074 0.9831
vn -0.0380 0.1085 0.9934
vn 0.0380 0.1085 0.9934
vn -0.0380 -0.1085 -0.9934
vn 0.0380 -0.1085 -0.9934
vn 0.7331 -0.0739 -0.6761
vn -0.7331 -0.0739 -0.6761
vn -0.7217 -0.6899 -0.0568
vn -0.7280 -0.6789 0.0958
vn -0.7280 0.6789 0.0958
vn -0.7217 0.6899 -0.0568
vn -0.6940 0.1997 -0.6917
vn 0.6940 0.1997 -0.6917
vn 0.5666 -0.5146 -0.6436
vn -0.5666 -0.5146 -0.6436
vn -0.7980 -0.5620 -0.2175
vn -0.7980 -0.5620 0.2175
vn 0.7980 -0.5620 0.2175
vn 0.7980 -0.5620 -0.2175
vn -0.5902 -0.6315 0.5030
vn 0.5902 -0.6315 0.5030
vn 0.7809 -0.3152 0.5392
vn -0.7809 -0.3152 0.5392
vn -0.8783 0.4625 -0.1207
vn 0.8783 0.4625 -0.1207
vn 0.6566 0.6622 -0.3610
vn -0.6566 0.6622 -0.3610
vn 0.6566 0.4159 -0.6292
vn -0.6566 0.4159 -0.6292
vn 0.0958 -0.6789 0.7280
vn 0.0958 0.6789 0.7280
vn -0.0958 0.6789 0.7280
vn -0.0958 -0.6789 0.7280
vn -0.5901 -0.6315 0.5030
vn -0.3786 0.6532 0.6557
vn -0.3786 -0.6532 0.6557
vn -0.6557 0.6532 0.3786
vn -0.6557 -0.6532 0.3786
vn 0.7217 0.6899 -0.0568
vn 0.7280 0.6789 0.0958
vn 0.7280 -0.6789 0.0958
vn 0.7217 -0.6899 -0.0568
vn -0.6763 0.1441 0.7224
vn -0.5746 -0.5630 0.5940
vn 0.5746 -0.5630 0.5940
vn 0.6763 0.1441 0.7224
vn -0.5801 -0.5908 -0.5607
vn -0.8035 -0.2548 -0.5380
vn 0.8035 -0.2548 -0.5380
vn 0.5801 -0.5908 -0.5607
vn -0.8783 0.4625 0.1207
vn -0.6566 0.6622 0.3610
vn 0.6566 0.6622 0.3611
vn 0.8783 0.4625 0.1207
vn -0.6566 0.4159 0.6292
vn 0.6566 0.4159 0.6292
vn 0.3786 -0.6532 0.6557
vn 0.3786 0.6532 0.6557
vn 0.6557 -0.6532 0.3786
vn 0.6557 0.6532 0.3786
vn -0.0525 0.6911 -0.7208
vn -0.0525 -0.6911 -0.7208
vn -0.2059 -0.6774 -0.7062
vn -0.2059 0.6774 -0.7062
vn -0.3575 -0.6869 -0.6327
vn -0.3575 0.6869 -0.6327
vn -0.5205 -0.6707 -0.5284
vn -0.5205 0.6707 -0.5284
vn -0.6960 -0.6588 -0.2857
vn -0.6960 0.6588 -0.2857
vn 0.6960 -0.6588 -0.2857
vn 0.6960 0.6588 -0.2857
vn 0.5205 -0.6707 -0.5284
vn 0.5205 0.6707 -0.5284
vn 0.3575 -0.6869 -0.6327
vn 0.3575 0.6869 -0.6327
vn 0.2059 -0.6774 -0.7062
vn 0.2059 0.6774 -0.7062
vn 0.0525 -0.6911 -0.7208
vn 0.0525 0.6911 -0.7208
usemtl Palette
s off
f 123/1/1 125/2/1 126/3/1 127/4/1 128/5/1 124/6/1 70/7/1 72/8/1 73/9/1 71/10/1 45/11/1 47/12/1 46/13/1 44/14/1 111/15/1 113/16/1 114/17/1 115/18/1 116/19/1 112/20/1
f 59/21/2 64/22/2 17/23/2 12/24/2 11/25/2 58/26/2
f 7/27/3 6/28/3 1/29/3 2/30/3 15/31/3
f 1/29/1 4/32/1 3/33/1 2/30/1
f 12/34/2 18/35/2 3/33/2 4/32/2 10/36/2
f 5/37/3 8/38/3 7/27/3
f 8/38/3 9/39/3 7/27/3
f 9/39/3 6/40/3 7/27/3
f 10/36/2 13/41/2 12/24/2
f 13/41/2 14/42/2 12/24/2
f 14/42/2 11/43/2 12/24/2
f 54/44/3 52/45/3 5/37/3 7/46/3 16/47/3 63/48/3
f 15/31/3 16/49/3 7/46/3
f 17/23/2 18/50/2 12/34/2
f 135/51/4 136/52/4 102/53/4 95/54/4 92/55/4
f 85/56/3 84/57/3 30/58/3 31/59/3 36/60/3 90/61/3
f 26/62/2 34/63/2 21/64/2 20/65/2 25/66/2
f 20/65/1 21/64/1 22/67/1 23/68/1
f 31/69/3 29/70/3 23/68/3 22/67/3 37/71/3
f 24/72/2 26/62/2 27/73/2
f 27/73/2 26/62/2 28/74/2
f 28/74/2 26/62/2 25/75/2
f 29/70/5 31/59/5 32/76/5
f 32/76/3 31/59/3 33/77/3
f 33/77/3 31/59/3 30/78/3
f 80/79/2 89/80/2 35/81/2 26/82/2 24/72/2 78/83/2
f 34/63/2 26/82/2 35/84/2
f 36/60/3 31/69/3 37/85/3
f 104/86/4 133/87/4 134/88/4 39/89/4 93/90/4
f 54/91/3 62/92/3 49/93/3 48/94/3 53/95/3
f 48/94/1 49/93/1 50/96/1 51/97/1
f 59/98/2 57/99/2 51/97/2 50/96/2 65/100/2
f 52/45/3 54/91/3 55/101/3
f 55/101/3 54/91/3 56/102/3
f 56/102/3 54/91/3 53/103/3
f 57/99/6 59/21/6 60/104/6
f 60/104/2 59/21/2 61/105/2
f 61/105/2 59/21/2 58/106/2
f 62/92/3 54/44/3 63/107/3
f 64/22/2 59/98/2 65/108/2
f 80/109/2 79/110/2 74/111/2 75/112/2 88/113/2
f 74/111/1 77/114/1 76/115/1 75/112/1
f 85/116/3 91/117/3 76/115/3 77/114/3 83/118/3
f 78/83/2 81/119/2 80/109/2
f 81/119/7 82/120/7 80/109/7
f 82/120/2 79/121/2 80/109/2
f 83/118/5 86/122/5 85/56/5
f 86/122/3 87/123/3 85/56/3
f 87/123/3 84/124/3 85/56/3
f 88/113/2 89/125/2 80/79/2
f 90/61/3 91/126/3 85/116/3
f 105/127/4 107/128/4 108/129/4 109/130/4 110/131/4 106/132/4 41/133/4 43/134/4 42/135/4 40/136/4 66/137/4 68/138/4 69/139/4 67/140/4 117/141/4 119/142/4 120/143/4 121/144/4 122/145/4 118/146/4
f 99/147/8 102/53/8 136/52/8 131/148/8
f 130/149/9 133/87/9 104/86/9 101/150/9
f 96/151/10 93/90/10 39/89/10 19/152/10
f 38/153/11 92/55/11 95/54/11 98/154/11
f 98/154/12 95/54/12 94/155/12 97/156/12
f 97/156/13 94/155/13 93/90/13 96/151/13
f 132/157/2 135/51/2 92/55/2 38/153/2
f 101/150/14 104/86/14 103/158/14 100/159/14
f 100/159/15 103/158/15 102/53/15 99/147/15
f 102/53/4 103/158/4 94/155/4 95/54/4
f 103/158/4 104/86/4 93/90/4 94/155/4
f 131/148/16 136/52/16 135/51/16 132/157/16
f 133/87/17 130/149/17 129/160/17 134/88/17
f 19/152/3 39/89/3 134/88/3 129/160/3
s 1
f 111/161/18 44/162/19 41/163/20 106/164/21
f 6/28/22 10/36/23 4/32/24 1/29/25
f 63/48/26 16/47/27 17/23/28 64/22/29
f 2/30/30 3/33/31 18/35/32 15/31/33
f 5/37/34 11/25/35 14/165/36 8/38/37
f 8/38/37 14/165/36 13/41/38 9/166/39
f 9/166/39 13/41/38 10/36/23 6/28/22
f 15/31/33 18/35/32 17/23/28 16/47/27
f 71/167/40 66/168/41 40/169/42 45/170/43
f 25/66/23 20/65/24 23/68/25 29/70/22
f 89/80/29 90/61/26 36/60/27 35/81/28
f 21/64/31 34/63/32 37/71/33 22/67/44
f 24/72/35 27/73/36 33/171/37 30/58/34
f 27/73/36 28/172/38 32/76/39 33/171/37
f 28/172/38 25/66/23 29/70/22 32/76/39
f 34/63/32 35/81/28 36/60/27 37/71/33
f 40/169/42 42/173/45 47/174/46 45/170/43
f 42/173/45 43/175/47 46/176/48 47/174/46
f 43/175/47 41/163/20 44/162/19 46/176/48
f 117/177/49 67/178/50 70/179/51 124/180/52
f 53/95/53 48/94/54 51/97/55 57/99/56
f 49/93/57 62/92/58 65/100/59 50/96/60
f 52/45/61 55/101/62 61/181/63 58/26/64
f 55/101/62 56/182/65 60/104/66 61/181/63
f 56/182/65 53/95/53 57/99/56 60/104/66
f 62/92/58 63/48/26 64/22/29 65/100/59
f 66/168/41 71/167/40 73/183/67 68/184/68
f 68/184/68 73/183/67 72/185/69 69/186/70
f 69/186/70 72/185/69 70/179/51 67/178/50
f 79/110/56 83/118/53 77/114/54 74/111/55
f 75/112/60 76/115/57 91/117/58 88/113/59
f 78/83/64 84/57/61 87/187/62 81/119/63
f 81/119/63 87/187/62 86/122/65 82/188/66
f 82/188/66 86/122/65 83/118/53 79/110/56
f 88/113/59 91/117/58 90/61/26 89/80/29
f 105/189/71 112/190/72 116/191/73 107/192/74
f 107/192/74 116/191/73 115/193/75 108/194/76
f 108/194/76 115/193/75 114/195/77 109/196/78
f 109/196/78 114/195/77 113/197/79 110/198/80
f 110/198/80 113/197/79 111/161/18 106/164/21
f 117/177/49 124/180/52 128/199/81 119/200/82
f 119/200/82 128/199/81 127/201/83 120/202/84
f 120/202/84 127/201/83 126/203/85 121/204/86
f 121/204/86 126/203/85 125/205/87 122/206/88
f 122/206/88 125/205/87 123/207/89 118/208/90
f 123/207/89 112/190/72 105/189/71 118/208/90
