# Blender v3.3.1 OBJ File: 'Office Set.blend'
# www.blender.org
mtllib Clock_A.mtl
o Clock_A_Cube.204
v -7.732441 1.573352 5.522512
v -7.716976 1.573352 5.522512
v -7.732441 1.733209 5.522512
v -7.716976 1.733209 5.522512
v -7.716976 1.733209 5.511198
v -7.732441 1.733209 5.511198
v -7.716976 1.573352 5.511198
v -7.732441 1.573352 5.511198
vt 0.119070 0.941658
vt 0.151259 0.941658
vt 0.151259 0.973847
vt 0.119070 0.973847
vt 0.119070 0.973847
vt 0.119070 0.941658
vt 0.151259 0.941658
vt 0.151259 0.973847
vn 0.0000 0.0000 1.0000
vn -1.0000 0.0000 0.0000
vn 1.0000 0.0000 0.0000
vn 0.0000 -1.0000 0.0000
vn 0.0000 0.0000 -1.0000
vn 0.0000 1.0000 0.0000
usemtl Palette
s off
f 1/1/1 2/2/1 4/3/1 3/4/1
f 6/5/2 8/6/2 1/1/2 3/4/2
f 7/7/3 5/8/3 4/3/3 2/2/3
f 8/6/4 7/7/4 2/2/4 1/1/4
f 8/6/5 6/5/5 5/8/5 7/7/5
f 5/8/6 6/5/6 3/4/6 4/3/6
