# Blender v3.3.1 OBJ File: 'Office Set.blend'
# www.blender.org
mtllib CoffeeCupB.mtl
o CoffeeCupB_Cube.126
v -7.729130 1.074981 5.804665
v -7.715575 0.950000 5.808451
v -7.726650 0.950000 5.810654
v -7.736039 0.950000 5.816927
v -7.742312 0.950000 5.826316
v -7.744515 0.950000 5.837391
v -7.742312 0.950000 5.848465
v -7.736039 0.950000 5.857854
v -7.726650 0.950000 5.864128
v -7.715575 0.950000 5.866331
v -7.704501 0.950000 5.864128
v -7.695112 0.950000 5.857854
v -7.688838 0.950000 5.848465
v -7.686635 0.950000 5.837391
v -7.688838 0.950000 5.826316
v -7.695112 0.950000 5.816927
v -7.704501 0.950000 5.810654
v -7.715574 1.074981 5.801969
v -7.740622 1.074981 5.812343
v -7.748300 1.074981 5.823835
v -7.750997 1.074981 5.837391
v -7.748300 1.074981 5.850946
v -7.740622 1.074981 5.862438
v -7.729130 1.074981 5.870117
v -7.715574 1.074981 5.872813
v -7.702019 1.074981 5.870117
v -7.690527 1.074981 5.862438
v -7.682848 1.074981 5.850946
v -7.680152 1.074981 5.837391
v -7.682848 1.074981 5.823835
v -7.690527 1.074981 5.812343
v -7.702019 1.074981 5.804665
v -7.715574 1.074981 5.798275
v -7.700605 1.074981 5.801252
v -7.687915 1.074981 5.809731
v -7.679436 1.074981 5.822422
v -7.676458 1.074981 5.837391
v -7.679436 1.074981 5.852360
v -7.687915 1.074981 5.865050
v -7.700605 1.074981 5.873529
v -7.715574 1.074981 5.876507
v -7.730543 1.074981 5.873529
v -7.743233 1.074981 5.865050
v -7.751713 1.074981 5.852360
v -7.754690 1.074981 5.837391
v -7.751713 1.074981 5.822422
v -7.743233 1.074981 5.809731
v -7.730543 1.074981 5.801252
v -7.715574 0.954700 5.811364
v -7.705614 0.954700 5.813345
v -7.697170 0.954700 5.818987
v -7.691528 0.954700 5.827431
v -7.689547 0.954700 5.837391
v -7.691528 0.954700 5.847351
v -7.697170 0.954700 5.855794
v -7.705614 0.954700 5.861436
v -7.715574 0.954700 5.863418
v -7.725534 0.954700 5.861436
v -7.733978 0.954700 5.855794
v -7.739620 0.954700 5.847351
v -7.741601 0.954700 5.837391
v -7.739620 0.954700 5.827431
v -7.733978 0.954700 5.818987
v -7.725534 0.954700 5.813345
vt 0.721596 0.803666
vt 0.728115 0.802369
vt 0.733643 0.798676
vt 0.737336 0.793149
vt 0.738633 0.786629
vt 0.737336 0.780109
vt 0.733643 0.774582
vt 0.728115 0.770889
vt 0.721596 0.769592
vt 0.715076 0.770889
vt 0.709549 0.774582
vt 0.705855 0.780109
vt 0.704558 0.786629
vt 0.705855 0.793149
vt 0.709549 0.798676
vt 0.715076 0.802369
vt 0.721596 0.802058
vt 0.727500 0.800883
vt 0.728115 0.802369
vt 0.721596 0.803666
vt 0.732505 0.797539
vt 0.733643 0.798676
vt 0.735850 0.792533
vt 0.737336 0.793149
vt 0.737024 0.786629
vt 0.738633 0.786629
vt 0.735850 0.780725
vt 0.737336 0.780109
vt 0.732505 0.775720
vt 0.733643 0.774582
vt 0.727500 0.772375
vt 0.728115 0.770889
vt 0.721596 0.771201
vt 0.721596 0.769592
vt 0.715692 0.772375
vt 0.715076 0.770889
vt 0.710686 0.775720
vt 0.709549 0.774582
vt 0.707342 0.780725
vt 0.705855 0.780109
vt 0.706167 0.786629
vt 0.704558 0.786629
vt 0.707342 0.792533
vt 0.705855 0.793149
vt 0.710686 0.797539
vt 0.709549 0.798676
vt 0.715692 0.800883
vt 0.715076 0.802369
vt 0.721596 0.802058
vt 0.715692 0.800883
vt 0.710686 0.797539
vt 0.707342 0.792533
vt 0.706167 0.786629
vt 0.707342 0.780725
vt 0.710686 0.775720
vt 0.715692 0.772375
vt 0.721596 0.771201
vt 0.727500 0.772375
vt 0.732505 0.775720
vt 0.735850 0.780725
vt 0.737024 0.786629
vt 0.735850 0.792533
vt 0.732505 0.797539
vt 0.727500 0.800883
vn 0.0000 -1.0000 0.0000
vn 0.0000 1.0000 0.0000
vn -0.2750 -0.6953 -0.6640
vn -0.5082 -0.6953 -0.5082
vn -0.5461 0.6353 -0.5461
vn -0.2955 0.6353 -0.7135
vn -0.6640 -0.6953 0.2750
vn -0.5082 -0.6953 0.5082
vn -0.5461 0.6353 0.5461
vn -0.7135 0.6353 0.2955
vn -0.0000 -0.6953 0.7187
vn 0.2750 -0.6953 0.6640
vn 0.2955 0.6353 0.7135
vn 0.0000 0.6353 0.7723
vn -0.7187 -0.6953 0.0000
vn -0.7722 0.6353 0.0000
vn 0.2750 -0.6953 -0.6640
vn -0.0000 -0.6953 -0.7187
vn 0.0000 0.6353 -0.7723
vn 0.2955 0.6353 -0.7135
vn 0.6640 -0.6953 0.2750
vn 0.7187 -0.6953 0.0000
vn 0.7723 0.6353 0.0000
vn 0.7135 0.6353 0.2955
vn -0.2750 -0.6953 0.6640
vn -0.2955 0.6353 0.7135
vn -0.6640 -0.6953 -0.2750
vn -0.7135 0.6353 -0.2955
vn 0.5082 -0.6953 -0.5082
vn 0.5461 0.6353 -0.5461
vn 0.5082 -0.6953 0.5082
vn 0.5461 0.6353 0.5461
vn 0.6640 -0.6953 -0.2750
vn 0.7135 0.6353 -0.2955
vn -0.0000 0.7783 -0.6278
vn -0.2402 0.7784 -0.5800
vn -0.2755 0.6941 -0.6650
vn -0.0000 0.6941 -0.7198
vn -0.2403 0.7784 0.5800
vn -0.0000 0.7783 0.6278
vn -0.0000 0.6941 0.7198
vn -0.2755 0.6941 0.6650
vn 0.2403 0.7784 0.5800
vn 0.2755 0.6941 0.6650
vn 0.2403 0.7784 -0.5800
vn 0.2755 0.6941 -0.6650
vn -0.4439 0.7784 0.4439
vn -0.5090 0.6941 0.5090
vn 0.4439 0.7784 -0.4439
vn 0.5090 0.6941 -0.5090
vn -0.5800 0.7783 0.2403
vn -0.6650 0.6941 0.2755
vn 0.5800 0.7783 -0.2403
vn 0.6650 0.6941 -0.2755
vn -0.6278 0.7784 -0.0000
vn -0.7198 0.6941 -0.0000
vn 0.6278 0.7784 -0.0000
vn 0.7198 0.6941 -0.0000
vn -0.5800 0.7783 -0.2403
vn -0.6650 0.6941 -0.2755
vn 0.5800 0.7783 0.2403
vn 0.6650 0.6941 0.2755
vn -0.4439 0.7784 -0.4439
vn -0.5090 0.6941 -0.5090
vn 0.4439 0.7784 0.4439
vn 0.5090 0.6941 0.5090
usemtl Palette
s off
f 2/1/1 17/2/1 16/3/1 15/4/1 14/5/1 13/6/1 12/7/1 11/8/1 10/9/1 9/10/1 8/11/1 7/12/1 6/13/1 5/14/1 4/15/1 3/16/1
f 18/17/2 32/18/2 34/19/2 33/20/2
f 32/18/2 31/21/2 35/22/2 34/19/2
f 31/21/2 30/23/2 36/24/2 35/22/2
f 30/23/2 29/25/2 37/26/2 36/24/2
f 29/25/2 28/27/2 38/28/2 37/26/2
f 28/27/2 27/29/2 39/30/2 38/28/2
f 27/29/2 26/31/2 40/32/2 39/30/2
f 26/31/2 25/33/2 41/34/2 40/32/2
f 25/33/2 24/35/2 42/36/2 41/34/2
f 24/35/2 23/37/2 43/38/2 42/36/2
f 23/37/2 22/39/2 44/40/2 43/38/2
f 22/39/2 21/41/2 45/42/2 44/40/2
f 21/41/2 20/43/2 46/44/2 45/42/2
f 20/43/2 19/45/2 47/46/2 46/44/2
f 19/45/2 1/47/2 48/48/2 47/46/2
f 1/47/2 18/17/2 33/20/2 48/48/2
f 49/49/2 64/50/2 63/51/2 62/52/2 61/53/2 60/54/2 59/55/2 58/56/2 57/57/2 56/58/2 55/59/2 54/60/2 53/61/2 52/62/2 51/63/2 50/64/2
s 1
f 3/16/3 4/15/4 47/46/5 48/48/6
f 7/12/7 8/11/8 43/38/9 44/40/10
f 10/9/11 11/8/12 40/32/13 41/34/14
f 6/13/15 7/12/7 44/40/10 45/42/16
f 17/2/17 2/1/18 33/20/19 34/19/20
f 13/6/21 14/5/22 37/26/23 38/28/24
f 9/10/25 10/9/11 41/34/14 42/36/26
f 2/1/18 3/16/3 48/48/6 33/20/19
f 5/14/27 6/13/15 45/42/16 46/44/28
f 16/3/29 17/2/17 34/19/20 35/22/30
f 12/7/31 13/6/21 38/28/24 39/30/32
f 8/11/8 9/10/25 42/36/26 43/38/9
f 4/15/4 5/14/27 46/44/28 47/46/5
f 15/4/33 16/3/29 35/22/30 36/24/34
f 25/33/35 26/31/36 56/58/37 57/57/38
f 14/5/22 15/4/33 36/24/34 37/26/23
f 11/8/12 12/7/31 39/30/32 40/32/13
f 32/18/39 18/17/40 49/49/41 50/64/42
f 18/17/40 1/47/43 64/50/44 49/49/41
f 24/35/45 25/33/35 57/57/38 58/56/46
f 31/21/47 32/18/39 50/64/42 51/63/48
f 23/37/49 24/35/45 58/56/46 59/55/50
f 30/23/51 31/21/47 51/63/48 52/62/52
f 22/39/53 23/37/49 59/55/50 60/54/54
f 29/25/55 30/23/51 52/62/52 53/61/56
f 21/41/57 22/39/53 60/54/54 61/53/58
f 28/27/59 29/25/55 53/61/56 54/60/60
f 20/43/61 21/41/57 61/53/58 62/52/62
f 27/29/63 28/27/59 54/60/60 55/59/64
f 19/45/65 20/43/61 62/52/62 63/51/66
f 26/31/36 27/29/63 55/59/64 56/58/37
f 1/47/43 19/45/65 63/51/66 64/50/44
