# Blender v3.3.1 OBJ File: 'Office Set.blend'
# www.blender.org
mtllib Computer_Case.mtl
o Computer_Case_Cube.097
v -7.995297 1.042465 4.484659
v -8.172029 0.947564 4.575838
v -7.995297 1.329632 4.259712
v -7.995297 1.042465 4.259712
v -8.172029 1.361443 4.211490
v -8.172029 0.947564 4.211490
v -7.995297 1.320681 4.484659
v -7.995297 1.329632 4.475708
v -7.995297 1.327010 4.482037
v -8.172029 1.361443 4.531579
v -8.172029 1.317185 4.575838
v -8.172029 1.348480 4.562874
v -7.995297 1.361443 4.211490
v -7.995297 0.947564 4.211490
v -7.995297 0.947564 4.575838
v -7.995297 1.361443 4.531579
v -7.995297 1.348480 4.562874
v -7.995297 1.317185 4.575838
v -8.165126 1.268753 4.577505
v -8.165126 1.307677 4.577505
v -8.002201 1.268753 4.577505
v -8.002201 1.307677 4.577505
v -8.002201 1.268753 4.571455
v -8.165126 1.268753 4.571455
v -8.002201 1.307677 4.571455
v -8.165126 1.307677 4.571455
v -8.165126 1.226439 4.577505
v -8.165126 1.265363 4.577505
v -8.002201 1.226439 4.577505
v -8.002201 1.265363 4.577505
v -8.002201 1.226439 4.571455
v -8.165126 1.226439 4.571455
v -8.002201 1.265363 4.571455
v -8.165126 1.265363 4.571455
v -8.165126 1.183955 4.577505
v -8.165126 1.222879 4.577505
v -8.002201 1.183955 4.577505
v -8.002201 1.222879 4.577505
v -8.002201 1.183955 4.571455
v -8.165126 1.183955 4.571455
v -8.002201 1.222879 4.571455
v -8.165126 1.222879 4.571455
v -8.165126 1.142362 4.578448
v -8.165126 1.157104 4.578448
v -8.002201 1.142362 4.578448
v -8.002201 1.157104 4.578448
v -8.002201 1.142362 4.572397
v -8.165126 1.142362 4.572397
v -8.002201 1.157104 4.572397
v -8.165126 1.157104 4.572397
v -8.084641 1.087805 4.569302
v -8.084641 1.084169 4.579301
v -8.074140 1.083983 4.569302
v -8.076476 1.081197 4.579301
v -8.068551 1.074304 4.569302
v -8.072132 1.073673 4.579301
v -8.070492 1.063299 4.569302
v -8.073641 1.065117 4.579301
v -8.079053 1.056115 4.569302
v -8.080297 1.059532 4.579301
v -8.090228 1.056115 4.569302
v -8.088984 1.059532 4.579301
v -8.098789 1.063299 4.569302
v -8.095640 1.065117 4.579301
v -8.100730 1.074304 4.569302
v -8.097149 1.073673 4.579301
v -8.095142 1.083983 4.569302
v -8.092805 1.081197 4.579301
v -8.084641 1.087805 4.579301
v -8.074140 1.083983 4.579301
v -8.068551 1.074304 4.579301
v -8.070492 1.063299 4.579301
v -8.079053 1.056115 4.579301
v -8.090228 1.056115 4.579301
v -8.098789 1.063299 4.579301
v -8.100730 1.074304 4.579301
v -8.095142 1.083983 4.579301
vt 0.051230 0.967837
vt 0.051230 0.967837
vt 0.051230 0.967837
vt 0.051230 0.967837
vt 0.109279 0.960292
vt 0.119127 0.960292
vt 0.119127 0.960292
vt 0.109279 0.960292
vt 0.121642 0.967837
vt 0.121642 0.967837
vt 0.111794 0.967837
vt 0.111794 0.967837
vt 0.120589 0.967837
vt 0.121539 0.967837
vt 0.116824 0.950233
vt 0.116824 0.950233
vt 0.116824 0.950233
vt 0.116824 0.950233
vt 0.107368 0.961399
vt 0.107368 0.961399
vt 0.116163 0.961399
vt 0.116163 0.961399
vt 0.049620 0.967837
vt 0.049517 0.967837
vt 0.049517 0.967837
vt 0.049620 0.967837
vt 0.121942 0.963008
vt 0.120991 0.963008
vt 0.120991 0.963008
vt 0.121942 0.963008
vt 0.960708 0.703253
vt 0.960708 0.703253
vt 0.968593 0.703253
vt 0.968631 0.703253
vt 0.968558 0.703253
vt 0.968364 0.703253
vt 0.042363 0.967837
vt 0.041381 0.967837
vt 0.050249 0.967837
vt 0.042363 0.967837
vt 0.041381 0.967837
vt 0.050286 0.967837
vt 0.051127 0.967837
vt 0.050214 0.967836
vt 0.050176 0.967837
vt 0.050019 0.967836
vt 0.105759 0.966227
vt 0.105759 0.966227
vt 0.114554 0.966227
vt 0.114554 0.966227
vt 0.105759 0.966227
vt 0.105759 0.966227
vt 0.114554 0.966227
vt 0.114554 0.966227
vt 0.050176 0.967837
vt 0.050176 0.967837
vt 0.041381 0.967837
vt 0.041381 0.967837
vt 0.050176 0.967837
vt 0.050176 0.967837
vt 0.041381 0.967837
vt 0.041381 0.967837
vt 0.050176 0.967837
vt 0.050176 0.967837
vt 0.041381 0.967837
vt 0.041381 0.967837
vt 0.050176 0.967837
vt 0.050176 0.967837
vt 0.041381 0.967837
vt 0.041381 0.967837
vt 0.105759 0.966227
vt 0.105759 0.966227
vt 0.114554 0.966227
vt 0.114554 0.966227
vt 0.050176 0.967837
vt 0.050176 0.967837
vt 0.041381 0.967837
vt 0.041381 0.967837
vt 0.050176 0.967837
vt 0.050176 0.967837
vt 0.041381 0.967837
vt 0.041381 0.967837
vt 0.105759 0.966227
vt 0.105759 0.966227
vt 0.114554 0.966227
vt 0.114554 0.966227
vt 0.050176 0.967837
vt 0.050176 0.967837
vt 0.041381 0.967837
vt 0.041381 0.967837
vt 0.050176 0.967837
vt 0.050176 0.967837
vt 0.041381 0.967837
vt 0.041381 0.967837
vt 0.118810 0.874031
vt 0.118039 0.874031
vt 0.120865 0.874031
vt 0.124036 0.874031
vt 0.127302 0.874031
vt 0.130567 0.874031
vt 0.133738 0.874031
vt 0.136564 0.874031
vt 0.135793 0.874031
vt 0.790721 0.721820
vt 0.807704 0.721820
vt 0.814357 0.721820
vt 0.784068 0.721820
vt 0.808475 0.721820
vt 0.810571 0.721820
vt 0.805649 0.721820
vt 0.806785 0.721820
vt 0.802478 0.721820
vt 0.802999 0.721820
vt 0.799213 0.721820
vt 0.799213 0.721820
vt 0.795947 0.721820
vt 0.795427 0.721820
vt 0.792776 0.721820
vt 0.791641 0.721820
vt 0.789950 0.721820
vt 0.787855 0.721820
vt 0.818143 0.687745
vt 0.818143 0.721820
vt 0.814357 0.687745
vt 0.810571 0.687745
vt 0.806785 0.687745
vt 0.802999 0.687745
vt 0.799213 0.687745
vt 0.795427 0.687745
vt 0.791641 0.687745
vt 0.787855 0.687745
vt 0.784068 0.687745
vn 0.0000 1.0000 0.0000
vn 0.0000 0.0000 -1.0000
vn -1.0000 -0.0000 0.0000
vn 0.0000 -1.0000 0.0000
vn 0.0000 0.0000 1.0000
vn 0.0000 0.9239 0.3827
vn 0.0000 0.3827 0.9239
vn 1.0000 0.0000 0.0000
vn 0.0000 0.7704 0.6376
vn 0.4952 0.5901 0.6376
vn 0.6428 0.7661 0.0000
vn 0.7587 0.1338 0.6376
vn 0.9848 0.1737 0.0000
vn 0.6671 -0.3852 0.6376
vn 0.8660 -0.5000 0.0000
vn 0.2635 -0.7239 0.6376
vn 0.3420 -0.9397 0.0000
vn -0.2635 -0.7239 0.6376
vn -0.3420 -0.9397 0.0000
vn -0.6671 -0.3852 0.6376
vn -0.8660 -0.5000 0.0000
vn -0.7587 0.1337 0.6376
vn -0.9848 0.1736 0.0000
vn -0.4952 0.5901 0.6376
vn -0.6428 0.7660 0.0000
usemtl Palette
s off
f 16/1/1 13/2/1 5/3/1 10/4/1
f 6/5/2 5/6/2 13/7/2 14/8/2
f 10/9/3 5/10/3 6/11/3 2/12/3 11/13/3 12/14/3
f 2/15/4 6/16/4 14/17/4 15/18/4
f 2/19/5 15/20/5 18/21/5 11/22/5
f 10/23/6 12/24/6 17/25/6 16/26/6
f 12/27/7 11/28/7 18/29/7 17/30/7
f 1/31/8 4/32/8 3/33/8 8/34/8 9/35/8 7/36/8
f 4/37/8 14/38/8 13/2/8 3/39/8
f 1/40/8 15/41/8 14/38/8 4/37/8
f 8/42/8 16/1/8 17/43/8 9/44/8
f 9/44/8 17/43/8 18/45/8 7/46/8
f 7/46/8 18/45/8 15/41/8 1/40/8
f 3/39/8 13/2/8 16/1/8 8/42/8
f 19/47/5 21/48/5 22/49/5 20/50/5
f 27/51/5 29/52/5 30/53/5 28/54/5
f 20/55/3 26/56/3 24/57/3 19/58/3
f 22/59/1 25/60/1 26/56/1 20/55/1
f 21/61/8 23/62/8 25/60/8 22/59/8
f 19/58/4 24/57/4 23/62/4 21/61/4
f 28/63/3 34/64/3 32/65/3 27/66/3
f 30/67/1 33/68/1 34/64/1 28/63/1
f 29/69/8 31/70/8 33/68/8 30/67/8
f 27/66/4 32/65/4 31/70/4 29/69/4
f 35/71/5 37/72/5 38/73/5 36/74/5
f 36/75/3 42/76/3 40/77/3 35/78/3
f 38/79/1 41/80/1 42/76/1 36/75/1
f 37/81/8 39/82/8 41/80/8 38/79/8
f 35/78/4 40/77/4 39/82/4 37/81/4
f 43/83/5 45/84/5 46/85/5 44/86/5
f 44/87/3 50/88/3 48/89/3 43/90/3
f 46/91/1 49/92/1 50/88/1 44/87/1
f 45/93/8 47/94/8 49/92/8 46/91/8
f 43/90/4 48/89/4 47/94/4 45/93/4
f 52/95/5 68/96/5 66/97/5 64/98/5 62/99/5 60/100/5 58/101/5 56/102/5 54/103/5
f 52/104/5 54/105/5 70/106/5 69/107/5
f 54/105/5 56/108/5 71/109/5 70/106/5
f 56/108/5 58/110/5 72/111/5 71/109/5
f 58/110/5 60/112/5 73/113/5 72/111/5
f 60/112/5 62/114/5 74/115/5 73/113/5
f 62/114/5 64/116/5 75/117/5 74/115/5
f 64/116/5 66/118/5 76/119/5 75/117/5
f 66/118/5 68/120/5 77/121/5 76/119/5
f 68/120/5 52/104/5 69/107/5 77/121/5
s 1
f 51/122/1 69/123/9 70/106/10 53/124/11
f 53/124/11 70/106/10 71/109/12 55/125/13
f 55/125/13 71/109/12 72/111/14 57/126/15
f 57/126/15 72/111/14 73/113/16 59/127/17
f 59/127/17 73/113/16 74/115/18 61/128/19
f 61/128/19 74/115/18 75/117/20 63/129/21
f 63/129/21 75/117/20 76/119/22 65/130/23
f 65/130/23 76/119/22 77/121/24 67/131/25
f 67/131/25 77/121/24 69/107/9 51/132/1
