# Blender v3.3.1 OBJ File: 'Office Set.blend'
# www.blender.org
mtllib Door_Handle1.mtl
o Door_Handle1_Cube.067
v 16.361284 1.058163 4.984595
v 16.361284 1.104463 4.984595
v 16.361284 1.058163 4.928287
v 16.361284 1.104463 4.928287
v 16.407583 1.058163 5.029148
v 16.407583 1.104463 5.029148
v 16.407583 1.058163 4.928287
v 16.407583 1.104463 4.928287
v 16.194130 1.058163 4.984595
v 16.194130 1.104463 4.984595
v 16.194130 1.104463 5.029148
v 16.194130 1.058163 5.029148
vt 0.121637 0.858299
vt 0.131947 0.858299
vt 0.131947 0.868608
vt 0.121637 0.868608
vt 0.121637 0.878918
vt 0.131947 0.878918
vt 0.131947 0.889227
vt 0.121637 0.889227
vt 0.131947 0.889227
vt 0.121637 0.889227
vt 0.111328 0.878918
vt 0.111328 0.889227
vt 0.142256 0.878918
vt 0.142256 0.889227
vt 0.131947 0.899536
vt 0.121637 0.899536
vt 0.121637 0.858299
vt 0.131947 0.858299
vt 0.111328 0.889227
vt 0.142256 0.889227
vn -1.0000 0.0000 0.0000
vn 1.0000 0.0000 0.0000
vn 0.0000 0.0000 1.0000
vn 0.0000 -1.0000 0.0000
vn 0.0000 1.0000 0.0000
vn 0.0000 0.0000 -1.0000
usemtl Palette
s off
f 1/1/1 2/2/1 4/3/1 3/4/1
f 7/5/2 8/6/2 6/7/2 5/8/2
f 5/8/3 6/7/3 11/9/3 12/10/3
f 3/11/4 7/5/4 5/8/4 1/12/4
f 8/6/5 4/13/5 2/14/5 6/7/5
f 12/10/1 11/9/1 10/15/1 9/16/1
f 2/2/6 1/1/6 9/17/6 10/18/6
f 1/12/4 5/8/4 12/10/4 9/19/4
f 6/7/5 2/14/5 10/20/5 11/9/5
