# Blender v3.3.1 OBJ File: 'Office Set.blend'
# www.blender.org
mtllib Door_Handle2.mtl
o Door_Handle2_Cube.070
v 13.683604 1.104463 4.961172
v 13.683604 1.058164 4.961172
v 13.643404 1.104463 5.005724
v 13.643404 1.058164 5.005724
v 14.316396 1.104463 4.961171
v 14.316396 1.058164 4.961171
v 14.356596 1.058164 5.005724
v 14.356596 1.104463 5.005724
v 13.653605 1.104463 4.912968
v 13.653605 1.058164 4.912968
v 13.613404 1.104463 4.912968
v 13.613404 1.058164 4.912968
v 14.346396 1.104463 4.912968
v 14.346396 1.058164 4.912968
v 14.386597 1.058164 4.912968
v 14.386597 1.104463 4.912968
vt 0.211306 0.895810
vt 0.221616 0.895810
vt 0.221616 0.895810
vt 0.211306 0.895810
vt 0.200997 0.895810
vt 0.211306 0.895810
vt 0.200997 0.895810
vt 0.221616 0.864882
vt 0.211306 0.864882
vt 0.211306 0.864882
vt 0.221616 0.864882
vt 0.200997 0.895810
vt 0.231925 0.895810
vt 0.231925 0.895810
vt 0.221616 0.895810
vt 0.231925 0.895810
vt 0.211306 0.895810
vt 0.200997 0.895810
vt 0.221616 0.864882
vt 0.211306 0.864882
vt 0.211306 0.864882
vt 0.221616 0.864882
vt 0.231925 0.895810
vt 0.221616 0.895810
vn 0.0000 0.0000 1.0000
vn 0.0000 1.0000 0.0000
vn -0.0000 0.0000 -1.0000
vn 0.0000 -1.0000 -0.0000
vn -0.9515 0.0000 0.3077
vn 0.8490 0.0000 -0.5284
vn -0.8490 0.0000 -0.5284
vn 0.9515 0.0000 0.3077
usemtl Palette
s off
f 3/1/1 4/2/1 7/3/1 8/4/1
f 5/5/2 8/4/2 16/6/2 13/7/2
f 2/8/3 1/9/3 5/10/3 6/11/3
f 1/12/2 3/1/2 8/4/2 5/5/2
f 4/2/4 2/13/4 6/14/4 7/3/4
f 2/13/4 4/2/4 12/15/4 10/16/4
f 4/2/5 3/1/5 11/17/5 12/15/5
f 3/1/2 1/12/2 9/18/2 11/17/2
f 1/9/6 2/8/6 10/19/6 9/20/6
f 6/11/7 5/10/7 13/21/7 14/22/7
f 7/3/4 6/14/4 14/23/4 15/24/4
f 8/4/8 7/3/8 15/24/8 16/6/8
