# Blender v3.3.1 OBJ File: 'Office Set.blend'
# www.blender.org
mtllib FileCabinet_Small.mtl
o FileCabinet_Small_Cube.100
v 10.392689 1.021875 -1.189068
v 10.606561 1.021875 -1.189068
v 10.606561 1.021875 -1.734318
v 10.392689 1.021875 -1.734318
v 10.368176 1.021875 -1.189068
v 10.631075 1.021875 -1.189068
v 10.631075 1.021875 -1.763305
v 10.368176 1.021875 -1.763305
v 10.368176 0.000000 -1.763305
v 10.631075 0.000000 -1.763305
v 10.631075 0.000000 -1.189068
v 10.368176 0.000000 -1.189068
v 10.392689 0.000000 -1.734318
v 10.606561 0.000000 -1.734318
v 10.606561 0.000000 -1.189068
v 10.392689 0.000000 -1.189068
v 10.383263 0.017541 -1.744927
v 10.615987 0.017541 -1.744927
v 10.383263 0.017541 -1.193353
v 10.615987 0.017541 -1.193353
v 10.383263 0.034747 -1.744927
v 10.615987 0.034747 -1.744927
v 10.383263 0.034747 -1.193353
v 10.615987 0.034747 -1.193353
v 10.362300 1.021875 -1.769115
v 10.636950 1.021875 -1.769115
v 10.362300 1.021875 -1.166867
v 10.636950 1.021875 -1.166867
v 10.362300 1.050000 -1.769115
v 10.636950 1.050000 -1.769115
v 10.362300 1.050000 -1.166867
v 10.636950 1.050000 -1.166867
vt 0.042402 0.978629
vt 0.042402 0.979085
vt 0.042402 0.979085
vt 0.042402 0.978629
vt 0.042402 0.967844
vt 0.042402 0.967844
vt 0.042402 0.963017
vt 0.042402 0.963017
vt 0.042402 0.983456
vt 0.042402 0.961540
vt 0.042402 0.984933
vt 0.042402 0.967388
vt 0.042402 0.967388
vt 0.042402 0.961540
vt 0.042402 0.984933
vt 0.042402 0.983456
vt 0.042402 0.963017
vt 0.042402 0.961540
vt 0.042402 0.967388
vt 0.042402 0.967844
vt 0.042402 0.963017
vt 0.042402 0.967844
vt 0.042402 0.967388
vt 0.042402 0.961540
vt 0.042402 0.963017
vt 0.042402 0.961540
vt 0.042402 0.967388
vt 0.042402 0.967844
vt 0.042402 0.963017
vt 0.042402 0.967844
vt 0.042402 0.967388
vt 0.042402 0.961540
vn 0.0000 0.0000 1.0000
vn -1.0000 0.0000 0.0000
vn 0.0000 1.0000 0.0000
vn 1.0000 0.0000 0.0000
vn 0.0000 0.0000 -1.0000
vn 0.0000 -1.0000 0.0000
usemtl Palette
s off
f 15/1/1 11/2/1 6/3/1 2/4/1
f 14/5/2 15/1/2 2/4/2 3/6/2
f 13/7/1 14/5/1 3/6/1 4/8/1
f 1/9/3 4/8/3 8/10/3 5/11/3
f 4/8/3 3/6/3 7/12/3 8/10/3
f 3/6/3 2/4/3 6/3/3 7/12/3
f 11/2/4 10/13/4 7/12/4 6/3/4
f 9/14/2 12/15/2 5/11/2 8/10/2
f 10/13/5 9/14/5 8/10/5 7/12/5
f 16/16/4 13/7/4 4/8/4 1/9/4
f 12/15/1 16/16/1 1/9/1 5/11/1
f 13/7/6 9/14/6 10/13/6 14/5/6
f 14/5/6 10/13/6 11/2/6 15/1/6
f 16/16/6 12/15/6 9/14/6 13/7/6
f 19/17/6 17/18/6 18/19/6 20/20/6
f 23/21/3 24/22/3 22/23/3 21/24/3
f 20/20/1 24/22/1 23/21/1 19/17/1
f 27/25/6 25/26/6 26/27/6 28/28/6
f 31/29/3 32/30/3 30/31/3 29/32/3
f 28/28/1 32/30/1 31/29/1 27/25/1
f 26/27/5 25/26/5 29/32/5 30/31/5
f 28/28/4 26/27/4 30/31/4 32/30/4
f 25/26/2 27/25/2 31/29/2 29/32/2
