# Blender v3.3.1 OBJ File: 'Office Set.blend'
# www.blender.org
mtllib FileCabinet_Small_Drawer_B.mtl
o FileCabinet_Small_Drawer_B_Cube.105
v 10.611863 0.699259 -1.168594
v 10.611863 1.023638 -1.168594
v 10.611863 0.699259 -1.723030
v 10.611863 1.023638 -1.723030
v 10.387387 0.699259 -1.723030
v 10.387387 1.023638 -1.723030
v 10.387387 0.699259 -1.168594
v 10.387387 1.023638 -1.168594
v 10.437707 0.985098 -1.139400
v 10.437707 1.001765 -1.139400
v 10.437707 0.963162 -1.183602
v 10.437707 1.001765 -1.183602
v 10.561129 0.985098 -1.139400
v 10.561129 1.001765 -1.139400
v 10.561129 0.963162 -1.183602
v 10.561129 1.001765 -1.183602
v 10.590259 1.023638 -1.193632
v 10.590259 1.023638 -1.697992
v 10.408992 1.023638 -1.697992
v 10.408992 1.023638 -1.193632
v 10.590259 0.714452 -1.193632
v 10.590259 0.714452 -1.697992
v 10.408992 0.714452 -1.697992
v 10.408992 0.714452 -1.193632
vt 0.784832 0.690680
vt 0.797214 0.690680
vt 0.797214 0.696871
vt 0.784832 0.696871
vt 0.797214 0.709252
vt 0.784832 0.709252
vt 0.778641 0.696871
vt 0.778641 0.709252
vt 0.797214 0.715443
vt 0.784832 0.715443
vt 0.708840 0.937219
vt 0.718806 0.937219
vt 0.718806 0.947185
vt 0.708840 0.947185
vt 0.708840 0.957150
vt 0.718806 0.957150
vt 0.718806 0.967116
vt 0.708840 0.967116
vt 0.718806 0.977081
vt 0.708840 0.977081
vt 0.698875 0.957150
vt 0.698875 0.967116
vt 0.728772 0.957150
vt 0.728772 0.967116
vt 0.797214 0.690680
vt 0.797214 0.696871
vt 0.797214 0.709252
vt 0.797214 0.715443
vt 0.797214 0.715443
vt 0.797214 0.690680
vt 0.797214 0.696871
vt 0.797214 0.709252
vn 0.0000 0.0000 -1.0000
vn 1.0000 0.0000 0.0000
vn 0.0000 -1.0000 0.0000
vn 0.0000 0.0000 1.0000
vn -1.0000 0.0000 0.0000
vn 0.0000 -0.8958 0.4445
vn 0.0000 1.0000 0.0000
usemtl Palette
s off
f 5/1/1 6/2/1 4/3/1 3/4/1
f 3/4/2 4/3/2 2/5/2 1/6/2
f 5/7/3 3/4/3 1/6/3 7/8/3
f 1/6/4 2/5/4 8/9/4 7/10/4
f 9/11/5 10/12/5 12/13/5 11/14/5
f 15/15/2 16/16/2 14/17/2 13/18/2
f 13/18/4 14/17/4 10/19/4 9/20/4
f 11/21/6 15/15/6 13/18/6 9/22/6
f 16/16/7 12/23/7 10/24/7 14/17/7
f 5/1/5 7/10/5 8/9/5 6/2/5
f 4/3/7 6/2/7 19/25/7 18/26/7
f 8/9/7 2/5/7 17/27/7 20/28/7
f 2/5/7 4/3/7 18/26/7 17/27/7
f 6/2/7 8/9/7 20/28/7 19/25/7
f 19/25/2 20/28/2 24/29/2 23/30/2
f 17/27/5 18/26/5 22/31/5 21/32/5
f 20/28/1 17/27/1 21/32/1 24/29/1
f 18/26/4 19/25/4 23/30/4 22/31/4
f 23/30/7 24/29/7 21/32/7 22/31/7
