# Blender v3.3.1 OBJ File: 'Office Set.blend'
# www.blender.org
mtllib Food_CheeseSlice_3.mtl
o Food_CheeseSlice_3_Cube.474
v 10.375999 1.016228 2.582215
v 10.375999 1.016228 2.411764
v 10.375999 1.042141 2.582215
v 10.375999 1.042141 2.411764
v 10.290774 1.016228 2.496989
v 10.461225 1.016228 2.496989
v 10.290774 1.042141 2.496989
v 10.461225 1.042141 2.496989
v 10.310032 1.016228 2.586027
v 10.286963 1.016228 2.562958
v 10.297979 1.016228 2.583454
v 10.289535 1.016228 2.575010
v 10.465037 1.016228 2.562958
v 10.441968 1.016228 2.586027
v 10.462464 1.016228 2.575010
v 10.454021 1.016228 2.583454
v 10.286963 1.016228 2.431021
v 10.310032 1.016228 2.407952
v 10.289535 1.016228 2.418968
v 10.297979 1.016228 2.410525
v 10.441968 1.016228 2.407952
v 10.465037 1.016228 2.431021
v 10.454021 1.016228 2.410525
v 10.462464 1.016228 2.418968
v 10.310032 1.042141 2.407952
v 10.286963 1.042141 2.431021
v 10.297979 1.042141 2.410525
v 10.289535 1.042141 2.418968
v 10.286963 1.042141 2.562958
v 10.310032 1.042141 2.586027
v 10.289535 1.042141 2.575010
v 10.297979 1.042141 2.583454
v 10.441968 1.042141 2.586027
v 10.465037 1.042141 2.562958
v 10.454021 1.042141 2.583454
v 10.462464 1.042141 2.575010
v 10.465037 1.042141 2.431021
v 10.441968 1.042141 2.407952
v 10.462464 1.042141 2.418968
v 10.454021 1.042141 2.410525
vt 0.888470 0.978262
vt 0.876045 0.978262
vt 0.876045 0.978262
vt 0.888470 0.978262
vt 0.863620 0.944188
vt 0.876045 0.944188
vt 0.876045 0.944188
vt 0.863620 0.944188
vt 0.859008 0.973650
vt 0.859008 0.961225
vt 0.859008 0.961225
vt 0.859008 0.973650
vt 0.893082 0.948800
vt 0.893082 0.961225
vt 0.893082 0.961225
vt 0.893082 0.948800
vt 0.888470 0.944188
vt 0.888470 0.944188
vt 0.548746 0.782274
vt 0.561171 0.782274
vt 0.563423 0.782486
vt 0.565571 0.784634
vt 0.565783 0.786885
vt 0.565783 0.799311
vt 0.565783 0.811736
vt 0.565571 0.813988
vt 0.563423 0.816136
vt 0.561171 0.816348
vt 0.548746 0.816348
vt 0.536320 0.816348
vt 0.534068 0.816136
vt 0.531921 0.813988
vt 0.531709 0.811736
vt 0.531709 0.799311
vt 0.531709 0.786885
vt 0.531921 0.784633
vt 0.534068 0.782486
vt 0.536320 0.782274
vt 0.859008 0.948800
vt 0.859008 0.948800
vt 0.893082 0.973650
vt 0.893082 0.973650
vt 0.863620 0.978262
vt 0.863620 0.978262
vt 0.890723 0.978050
vt 0.890723 0.978050
vt 0.892870 0.975903
vt 0.892870 0.975903
vt 0.890723 0.944400
vt 0.890723 0.944400
vt 0.892870 0.946548
vt 0.892870 0.946548
vt 0.861367 0.944400
vt 0.861367 0.944400
vt 0.859220 0.946548
vt 0.859220 0.946548
vt 0.861367 0.978050
vt 0.861367 0.978050
vt 0.859220 0.975903
vt 0.859220 0.975903
vt 0.548746 0.816348
vt 0.561171 0.816348
vt 0.563423 0.816136
vt 0.565571 0.813988
vt 0.565783 0.811736
vt 0.565783 0.799311
vt 0.565783 0.786885
vt 0.565571 0.784634
vt 0.563423 0.782486
vt 0.561171 0.782274
vt 0.548746 0.782274
vt 0.536320 0.782274
vt 0.534068 0.782486
vt 0.531921 0.784634
vt 0.531709 0.786885
vt 0.531709 0.799311
vt 0.531709 0.811736
vt 0.531921 0.813988
vt 0.534068 0.816136
vt 0.536320 0.816348
vn -0.0577 0.0000 -0.9983
vn 0.0577 0.0000 0.9983
vn -0.9983 0.0000 0.0577
vn 0.9983 0.0000 -0.0577
vn -0.0577 0.0000 0.9983
vn 0.0000 1.0000 -0.0000
vn -0.9983 0.0000 -0.0577
vn 0.9983 0.0000 0.0577
vn 0.0577 0.0000 -0.9983
vn 0.2088 0.0000 -0.9780
vn 0.7071 0.0000 -0.7071
vn 0.9780 0.0000 -0.2088
vn 0.2088 0.0000 0.9780
vn 0.7071 0.0000 0.7071
vn 0.9780 0.0000 0.2088
vn -0.2088 0.0000 0.9780
vn -0.7071 0.0000 0.7071
vn -0.9780 0.0000 0.2087
vn -0.2088 0.0000 -0.9780
vn -0.7071 0.0000 -0.7071
vn -0.9780 0.0000 -0.2087
vn 0.0000 -1.0000 -0.0000
usemtl Palette
s off
f 21/1/1 2/2/1 4/3/1 38/4/1
f 9/5/2 1/6/2 3/7/2 30/8/2
f 17/9/3 5/10/3 7/11/3 26/12/3
f 13/13/4 6/14/4 8/15/4 34/16/4
f 1/6/5 14/17/5 33/18/5 3/7/5
f 3/19/6 33/20/6 35/21/6 36/22/6 34/23/6 8/24/6 37/25/6 39/26/6 40/27/6 38/28/6 4/29/6 25/30/6 27/31/6 28/32/6 26/33/6 7/34/6 29/35/6 31/36/6 32/37/6 30/38/6
f 5/10/7 10/39/7 29/40/7 7/11/7
f 6/14/8 22/41/8 37/42/8 8/15/8
f 2/2/9 18/43/9 25/44/9 4/3/9
f 21/1/10 38/4/10 40/45/10 23/46/10
f 23/46/11 40/45/11 39/47/11 24/48/11
f 24/48/12 39/47/12 37/42/12 22/41/12
f 33/18/13 14/17/13 16/49/13 35/50/13
f 35/50/14 16/49/14 15/51/14 36/52/14
f 36/52/15 15/51/15 13/13/15 34/16/15
f 9/5/16 30/8/16 32/53/16 11/54/16
f 11/54/17 32/53/17 31/55/17 12/56/17
f 12/56/18 31/55/18 29/40/18 10/39/18
f 25/44/19 18/43/19 20/57/19 27/58/19
f 27/58/20 20/57/20 19/59/20 28/60/20
f 28/60/21 19/59/21 17/9/21 26/12/21
f 2/61/22 21/62/22 23/63/22 24/64/22 22/65/22 6/66/22 13/67/22 15/68/22 16/69/22 14/70/22 1/71/22 9/72/22 11/73/22 12/74/22 10/75/22 5/76/22 17/77/22 19/78/22 20/79/22 18/80/22
