# Blender v3.3.1 OBJ File: 'Office Set.blend'
# www.blender.org
mtllib Food_LettuceSlice.mtl
o Food_LettuceSlice_Cube.318
v 10.489609 1.008185 2.519791
v 10.491494 1.010459 2.494792
v 10.465528 1.004774 2.534107
v 10.465954 1.008185 2.560869
v 10.421490 1.008185 2.600339
v 10.348552 1.008185 2.589437
v 10.364604 1.004774 2.571447
v 10.334041 1.010459 2.555207
v 10.288453 1.008185 2.549153
v 10.305490 1.008185 2.516827
v 10.283442 1.008185 2.504631
v 10.268866 1.002839 2.471768
v 10.287158 1.008185 2.427624
v 10.314479 1.009747 2.446293
v 10.319423 1.008185 2.402227
v 10.340736 1.008185 2.408780
v 10.337965 1.003075 2.380804
v 10.379178 1.003075 2.389648
v 10.389921 1.008185 2.427417
v 10.415539 1.008185 2.437219
v 10.413299 1.003075 2.413961
v 10.457204 1.009747 2.439340
v 10.465029 1.002839 2.471145
v 10.412245 1.004774 2.569978
v 10.435375 1.010459 2.515673
v 10.377367 1.010459 2.533822
v 10.308077 1.002839 2.485556
v 10.339774 1.002839 2.494728
v 10.394290 1.002839 2.496855
v 10.354136 1.009747 2.460297
v 10.394193 1.009747 2.461419
v 10.491510 1.021588 2.494488
v 10.489626 1.017108 2.519488
v 10.465545 1.013697 2.533804
v 10.465971 1.017108 2.560566
v 10.421507 1.013633 2.600036
v 10.348569 1.013633 2.589134
v 10.364621 1.013697 2.571144
v 10.334057 1.019382 2.554903
v 10.288469 1.012863 2.548850
v 10.305507 1.015068 2.516523
v 10.283459 1.017108 2.504328
v 10.268882 1.008983 2.471465
v 10.287175 1.013078 2.427320
v 10.314495 1.015687 2.445990
v 10.319440 1.014125 2.401924
v 10.340754 1.014125 2.408476
v 10.337982 1.008153 2.380501
v 10.379195 1.008153 2.389345
v 10.389938 1.017108 2.427114
v 10.415556 1.017108 2.436916
v 10.413316 1.011998 2.413658
v 10.457220 1.018670 2.439036
v 10.465046 1.008983 2.470842
v 10.412262 1.013697 2.569675
v 10.377384 1.021588 2.533519
v 10.435392 1.021588 2.515370
v 10.308094 1.008983 2.485253
v 10.339790 1.008983 2.494425
v 10.394306 1.008983 2.496552
v 10.354154 1.018670 2.459994
v 10.394209 1.018670 2.461115
vt 0.882767 0.861616
vt 0.878510 0.887958
vt 0.883052 0.879216
vt 0.885236 0.866534
vt 0.878870 0.865625
vt 0.875622 0.867443
vt 0.869776 0.878226
vt 0.873543 0.877438
vt 0.879520 0.861616
vt 0.889003 0.900572
vt 0.889523 0.897844
vt 0.891991 0.894855
vt 0.884940 0.894575
vt 0.897837 0.893557
vt 0.894849 0.886931
vt 0.888467 0.886761
vt 0.891861 0.881085
vt 0.888053 0.879687
vt 0.879080 0.891991
vt 0.883307 0.889073
vt 0.890432 0.870302
vt 0.882767 0.898492
vt 0.879649 0.896025
vt 0.871465 0.881085
vt 0.874583 0.889789
vt 0.873413 0.898234
vt 0.869646 0.883942
vt 0.902644 0.888879
vt 0.899137 0.884722
vt 0.893550 0.877577
vt 0.895499 0.874069
vt 0.882767 0.861616
vt 0.885236 0.866534
vt 0.883052 0.879216
vt 0.878510 0.887958
vt 0.878870 0.865625
vt 0.873543 0.877438
vt 0.869776 0.878226
vt 0.875622 0.867443
vt 0.879520 0.861616
vt 0.889003 0.900572
vt 0.884940 0.894575
vt 0.891991 0.894855
vt 0.889523 0.897844
vt 0.888467 0.886761
vt 0.894849 0.886931
vt 0.897837 0.893557
vt 0.888053 0.879687
vt 0.891861 0.881085
vt 0.879080 0.891991
vt 0.883307 0.889073
vt 0.890432 0.870302
vt 0.882767 0.898492
vt 0.879649 0.896025
vt 0.874583 0.889789
vt 0.871465 0.881085
vt 0.873413 0.898234
vt 0.869646 0.883942
vt 0.899137 0.884722
vt 0.902644 0.888879
vt 0.893550 0.877577
vt 0.895499 0.874069
vn 0.0809 -0.9721 0.2202
vn 0.0807 -0.9912 0.1047
vn -0.0291 -0.9864 -0.1618
vn 0.0822 -0.9892 -0.1210
vn -0.0113 -0.9994 0.0337
vn -0.0183 -0.9987 0.0482
vn -0.0634 -0.9894 -0.1306
vn 0.0306 -0.9761 0.2152
vn -0.0689 -0.9788 -0.1930
vn -0.0664 -0.9798 0.1888
vn -0.0183 -0.9779 0.2082
vn -0.0648 -0.9845 0.1629
vn -0.0409 -0.9858 -0.1628
vn 0.0317 -0.9989 0.0356
vn -0.0108 -0.9903 0.1382
vn 0.0066 -0.9812 -0.1927
vn 0.0549 -0.9841 -0.1690
vn -0.0009 -0.9995 0.0305
vn -0.0497 -0.9853 0.1634
vn 0.0102 -0.9973 0.0733
vn 0.0258 -0.9769 0.2121
vn -0.1278 0.9287 -0.3480
vn -0.0711 0.9964 -0.0463
vn 0.0622 0.9698 0.2357
vn -0.0886 0.9908 0.1020
vn -0.0282 0.9977 -0.0613
vn -0.0453 0.9982 -0.0402
vn 0.0871 0.9799 0.1795
vn -0.0487 0.9383 -0.3422
vn 0.0948 0.9595 0.2653
vn 0.0984 0.9550 -0.2797
vn -0.0179 0.9565 -0.2912
vn 0.1091 0.9774 -0.1812
vn 0.0303 0.9761 0.2150
vn -0.1035 0.9940 -0.0347
vn -0.0002 1.0000 0.0026
vn -0.0091 0.9641 0.2655
vn -0.1021 0.9768 0.1885
vn 0.0025 0.9961 -0.0885
vn 0.0374 0.9728 -0.2286
vn -0.0102 0.9973 -0.0733
vn -0.0258 0.9769 -0.2121
vn -0.9230 -0.0182 -0.3844
vn -0.1476 0.0554 0.9875
vn -0.9955 0.0051 0.0948
vn 0.5660 -0.0478 -0.8230
vn -0.7471 -0.0263 -0.6642
vn 0.5037 -0.0304 -0.8634
vn -0.9938 -0.0029 -0.1114
vn -0.4645 0.0309 0.8850
vn 0.9702 -0.0118 -0.2418
vn 0.2935 -0.0496 -0.9547
vn -0.1357 0.0444 0.9898
vn 0.6718 -0.0273 -0.7402
vn 0.9972 0.0007 0.0753
vn -0.9953 0.0084 0.0969
vn -0.8841 -0.0220 -0.4667
vn 0.5079 0.0283 0.8610
vn 0.2095 -0.0590 -0.9760
vn -0.4825 0.0346 0.8752
vn 0.9999 -0.0025 -0.0156
vn 0.9624 -0.0141 -0.2711
vn -0.9153 0.0182 0.4023
vn 0.6629 0.0300 0.7481
vn 0.3572 -0.0324 -0.9335
usemtl Palette
s off
f 2/1/1 25/2/1 29/3/1 23/4/1
f 3/5/2 4/6/2 5/7/2 24/8/2
f 2/1/3 1/9/3 3/5/3 25/2/3
f 12/10/4 13/11/4 14/12/4 27/13/4
f 14/12/5 15/14/5 16/15/5 30/16/5
f 16/15/6 19/17/6 31/18/6
f 3/5/7 24/8/7 26/19/7 25/2/7
f 25/2/8 26/19/8 28/20/8 29/3/8
f 31/18/9 22/21/9 23/4/9 29/3/9
f 11/22/10 12/10/10 27/13/10
f 26/19/11 10/23/11 28/20/11
f 10/23/12 11/22/12 27/13/12 28/20/12
f 24/8/13 7/24/13 8/25/13 26/19/13
f 8/25/14 9/26/14 10/23/14 26/19/14
f 5/7/15 6/27/15 7/24/15 24/8/15
f 30/16/16 31/18/16 29/3/16 28/20/16
f 14/12/17 30/16/17 28/20/17 27/13/17
f 16/15/18 31/18/18 30/16/18
f 19/17/19 16/15/19 17/28/19 18/29/19
f 19/17/20 20/30/20 22/21/20 31/18/20
f 20/30/21 21/31/21 22/21/21
f 32/32/22 54/33/22 60/34/22 57/35/22
f 34/36/23 55/37/23 36/38/23 35/39/23
f 32/32/24 57/35/24 34/36/24 33/40/24
f 43/41/25 58/42/25 45/43/25 44/44/25
f 45/43/26 61/45/26 47/46/26 46/47/26
f 47/46/27 62/48/27 50/49/27
f 34/36/28 57/35/28 56/50/28 55/37/28
f 57/35/29 60/34/29 59/51/29 56/50/29
f 62/48/30 60/34/30 54/33/30 53/52/30
f 42/53/31 58/42/31 43/41/31
f 56/50/32 59/51/32 41/54/32
f 41/54/33 59/51/33 58/42/33 42/53/33
f 55/37/34 56/50/34 39/55/34 38/56/34
f 39/55/35 56/50/35 41/54/35 40/57/35
f 36/38/36 55/37/36 38/56/36 37/58/36
f 61/45/37 59/51/37 60/34/37 62/48/37
f 45/43/38 58/42/38 59/51/38 61/45/38
f 47/46/39 61/45/39 62/48/39
f 50/49/40 49/59/40 48/60/40 47/46/40
f 50/49/41 62/48/41 53/52/41 51/61/41
f 51/61/42 53/52/42 52/62/42
f 13/11/43 12/10/43 43/41/43 44/44/43
f 6/27/44 5/7/44 36/38/44 37/58/44
f 21/31/45 20/30/45 51/61/45 52/62/45
f 14/12/46 13/11/46 44/44/46 45/43/46
f 7/24/47 6/27/47 37/58/47 38/56/47
f 22/21/48 21/31/48 52/62/48 53/52/48
f 15/14/49 14/12/49 45/43/49 46/47/49
f 8/25/50 7/24/50 38/56/50 39/55/50
f 23/4/51 22/21/51 53/52/51 54/33/51
f 16/15/52 15/14/52 46/47/52 47/46/52
f 9/26/53 8/25/53 39/55/53 40/57/53
f 2/1/54 23/4/54 54/33/54 32/32/54
f 1/9/55 2/1/55 32/32/55 33/40/55
f 17/28/56 16/15/56 47/46/56 48/60/56
f 10/23/57 9/26/57 40/57/57 41/54/57
f 3/5/58 1/9/58 33/40/58 34/36/58
f 18/29/59 17/28/59 48/60/59 49/59/59
f 11/22/60 10/23/60 41/54/60 42/53/60
f 4/6/61 3/5/61 34/36/61 35/39/61
f 19/17/62 18/29/62 49/59/62 50/49/62
f 12/10/63 11/22/63 42/53/63 43/41/63
f 5/7/64 4/6/64 35/39/64 36/38/64
f 20/30/65 19/17/65 50/49/65 51/61/65
