# Blender v3.3.1 OBJ File: 'Office Set.blend'
# www.blender.org
mtllib Food_CheeseSlice_Copy.mtl
o Food_CheeseSlice_Copy_Cube.471
v 10.279610 1.008055 2.446797
v 10.426891 1.003979 2.402312
v 10.482018 1.008055 2.536878
v 10.279610 1.003979 2.446797
v 10.426891 1.008055 2.402312
v 10.482018 1.003979 2.536878
v 10.279684 1.003979 2.468476
v 10.294940 1.003979 2.518025
v 10.339131 1.003979 2.544391
v 10.339131 1.008055 2.544391
v 10.350613 1.003979 2.446767
v 10.350613 1.008055 2.446767
v 10.454943 1.003979 2.472384
v 10.454943 1.008055 2.472384
v 10.334928 1.003979 2.431404
v 10.350432 1.003979 2.535440
v 10.334928 1.008055 2.431404
v 10.350432 1.008055 2.535440
v 10.294940 1.008055 2.518025
v 10.279684 1.008055 2.468476
v 10.387928 1.003979 2.430854
v 10.439465 1.003979 2.479702
v 10.337470 1.003979 2.558711
v 10.387928 1.008055 2.430854
v 10.337470 1.008055 2.558711
v 10.439465 1.008055 2.479702
v 10.372566 1.003979 2.446538
v 10.372566 1.008055 2.446538
v 10.346420 1.003979 2.570012
v 10.346420 1.008055 2.570012
v 10.423346 1.003979 2.473932
v 10.423346 1.008055 2.473932
v 10.372042 1.003979 2.562722
v 10.372042 1.008055 2.562722
v 10.383104 1.003979 2.404399
v 10.383104 1.008055 2.404399
v 10.360741 1.003979 2.571673
v 10.360741 1.008055 2.571673
v 10.409280 1.003979 2.528104
v 10.409280 1.008055 2.528104
v 10.334852 1.003979 2.424166
v 10.334852 1.008055 2.424166
v 10.409320 1.003979 2.517762
v 10.409320 1.008055 2.517762
v 10.299024 1.003979 2.468257
v 10.299024 1.008055 2.468257
v 10.434462 1.003979 2.562715
v 10.434462 1.008055 2.562715
v 10.433352 1.003979 2.558131
v 10.433352 1.008055 2.558131
v 10.314904 1.003979 2.488600
v 10.314904 1.008055 2.488600
v 10.416661 1.003979 2.510477
v 10.416661 1.008055 2.510477
v 10.442209 1.003979 2.543619
v 10.442209 1.008055 2.543619
v 10.471625 1.003979 2.547490
v 10.426907 1.003979 2.535485
v 10.458733 1.003979 2.539621
v 10.434247 1.003979 2.528201
v 10.309206 1.003979 2.509803
v 10.309206 1.008055 2.509803
v 10.416564 1.003979 2.535445
v 10.373703 1.003979 2.548403
v 10.434288 1.003979 2.517859
v 10.458733 1.008055 2.539621
v 10.427003 1.003979 2.510518
v 10.427003 1.008055 2.510518
v 10.367612 1.003979 2.505227
v 10.364752 1.003979 2.537102
v 10.338432 1.003979 2.493007
v 10.471625 1.008055 2.547490
v 10.416027 1.003979 2.458454
v 10.416027 1.008055 2.458454
v 10.350492 1.003979 2.505160
v 10.434288 1.008055 2.517859
v 10.373703 1.008055 2.548403
v 10.422857 1.003979 2.441377
v 10.422857 1.008055 2.441377
v 10.364752 1.008055 2.537102
v 10.434247 1.008055 2.528201
v 10.440806 1.003979 2.436280
v 10.440806 1.008055 2.436280
v 10.455248 1.003979 2.471532
v 10.455248 1.008055 2.471532
v 10.426907 1.008055 2.535485
v 10.477540 1.003979 2.525946
v 10.461345 1.003979 2.522648
v 10.454455 1.003979 2.505744
v 10.462618 1.003979 2.489521
v 10.379766 1.003979 2.493167
v 10.416564 1.008055 2.535445
v 10.379831 1.003979 2.476047
v 10.367772 1.003979 2.463893
v 10.350652 1.003979 2.463827
v 10.338498 1.003979 2.475886
v 10.461345 1.008055 2.522648
v 10.454455 1.008055 2.505744
v 10.462618 1.008055 2.489521
v 10.477540 1.008055 2.525946
v 10.379766 1.008055 2.493167
v 10.379831 1.008055 2.476047
v 10.367772 1.008055 2.463893
v 10.350652 1.008055 2.463827
v 10.338498 1.008055 2.475886
v 10.367612 1.008055 2.505227
v 10.338432 1.008055 2.493007
v 10.350492 1.008055 2.505160
v 10.363758 1.008055 2.591680
v 10.326056 1.008055 2.593979
v 10.326056 1.003979 2.593979
v 10.363758 1.003979 2.591680
v 10.348516 1.003979 2.588508
v 10.348516 1.008055 2.588508
v 10.392790 1.003979 2.400431
v 10.392790 1.008055 2.400431
v 10.407667 1.003979 2.409317
v 10.407667 1.008055 2.409317
vt 0.876305 0.794742
vt 0.876284 0.794610
vt 0.876284 0.794610
vt 0.876305 0.794744
vt 0.876625 0.794854
vt 0.876669 0.794846
vt 0.876669 0.794846
vt 0.876623 0.794929
vt 0.876295 0.793819
vt 0.876321 0.793923
vt 0.876326 0.793870
vt 0.876306 0.793757
vt 0.876419 0.794472
vt 0.876429 0.794546
vt 0.876460 0.794368
vt 0.876452 0.794277
vt 0.876298 0.793274
vt 0.876284 0.793414
vt 0.876313 0.793505
vt 0.876355 0.793817
vt 0.876383 0.793870
vt 0.876395 0.793996
vt 0.876383 0.794122
vt 0.876355 0.794174
vt 0.876326 0.794122
vt 0.876284 0.793826
vt 0.876313 0.794977
vt 0.876503 0.794977
vt 0.876508 0.794810
vt 0.876549 0.794673
vt 0.876606 0.794745
vt 0.876669 0.794233
vt 0.876654 0.794260
vt 0.876597 0.794057
vt 0.876549 0.794206
vt 0.876534 0.794368
vt 0.876497 0.794435
vt 0.876436 0.794602
vt 0.876426 0.794744
vt 0.876397 0.794815
vt 0.876365 0.794774
vt 0.876349 0.794645
vt 0.876358 0.794502
vt 0.876387 0.794431
vt 0.876445 0.794206
vt 0.876460 0.794043
vt 0.876497 0.793976
vt 0.876534 0.794043
vt 0.876588 0.793962
vt 0.876608 0.793755
vt 0.876669 0.793698
vt 0.876669 0.793590
vt 0.876638 0.793490
vt 0.876637 0.793282
vt 0.876556 0.793302
vt 0.876554 0.793478
vt 0.876524 0.793595
vt 0.876485 0.793586
vt 0.876458 0.793455
vt 0.876460 0.793280
vt 0.876462 0.793274
vt 0.876417 0.793274
vt 0.876397 0.793389
vt 0.876359 0.793416
vt 0.876325 0.793274
vt 0.876542 0.794134
vt 0.876541 0.794126
vt 0.876534 0.794043
vt 0.876588 0.793962
vt 0.876597 0.794064
vt 0.876326 0.793870
vt 0.876320 0.793931
vt 0.876295 0.793819
vt 0.876307 0.793750
vt 0.876319 0.793678
vt 0.876313 0.793505
vt 0.876284 0.793414
vt 0.876298 0.793280
vt 0.876327 0.793312
vt 0.876359 0.793416
vt 0.876397 0.793389
vt 0.876417 0.793274
vt 0.876462 0.793274
vt 0.876460 0.793280
vt 0.876458 0.793455
vt 0.876485 0.793586
vt 0.876524 0.793595
vt 0.876554 0.793478
vt 0.876550 0.793274
vt 0.876635 0.793274
vt 0.876633 0.793475
vt 0.876659 0.793571
vt 0.876656 0.793672
vt 0.876608 0.793755
vt 0.876497 0.793976
vt 0.876460 0.794043
vt 0.876452 0.794285
vt 0.876419 0.794472
vt 0.876387 0.794431
vt 0.876358 0.794502
vt 0.876349 0.794645
vt 0.876365 0.794774
vt 0.876397 0.794815
vt 0.876426 0.794744
vt 0.876428 0.794539
vt 0.876460 0.794368
vt 0.876497 0.794435
vt 0.876534 0.794368
vt 0.876607 0.794171
vt 0.876654 0.794260
vt 0.876669 0.794233
vt 0.876606 0.794745
vt 0.876549 0.794673
vt 0.876508 0.794810
vt 0.876503 0.794977
vt 0.876313 0.794977
vt 0.876284 0.793826
vt 0.876314 0.793996
vt 0.876326 0.794122
vt 0.876355 0.794174
vt 0.876383 0.794122
vt 0.876395 0.793996
vt 0.876383 0.793870
vt 0.876355 0.793817
vt 0.879837 0.795528
vt 0.879837 0.794752
vt 0.878875 0.794752
vt 0.878875 0.795528
vt 0.877913 0.794752
vt 0.877913 0.795528
vt 0.877488 0.794752
vt 0.876950 0.794752
vt 0.876950 0.795528
vt 0.875988 0.794752
vt 0.875988 0.795528
vt 0.875026 0.794752
vt 0.875026 0.795528
vt 0.874064 0.794752
vt 0.874064 0.795528
vt 0.873639 0.794752
vt 0.873101 0.794752
vt 0.873101 0.795528
vt 0.872139 0.794752
vt 0.872139 0.795528
vt 0.872139 0.794971
vt 0.872139 0.795576
vt 0.873101 0.795576
vt 0.873101 0.794971
vt 0.874064 0.794971
vt 0.874064 0.795576
vt 0.875026 0.795576
vt 0.875026 0.794971
vt 0.875988 0.794971
vt 0.875988 0.795576
vt 0.879520 0.795576
vt 0.879837 0.795576
vt 0.879837 0.794971
vt 0.879520 0.794971
vt 0.873592 0.795576
vt 0.879142 0.795527
vt 0.879142 0.794745
vt 0.878875 0.794745
vt 0.878875 0.795527
vt 0.878406 0.795527
vt 0.877913 0.794745
vt 0.877913 0.795527
vt 0.876950 0.794745
vt 0.876950 0.795527
vt 0.876095 0.794745
vt 0.876095 0.795527
vt 0.872139 0.794565
vt 0.872139 0.795487
vt 0.873101 0.795487
vt 0.873101 0.794565
vt 0.875026 0.794565
vt 0.874064 0.794565
vt 0.874064 0.795487
vt 0.875026 0.795487
vt 0.875988 0.794565
vt 0.875988 0.795487
vt 0.876950 0.795487
vt 0.876536 0.794565
vt 0.877913 0.794565
vt 0.876950 0.794565
vt 0.877913 0.795487
vt 0.878875 0.795487
vt 0.878875 0.794565
vt 0.879837 0.795487
vt 0.879837 0.794565
vt 0.877760 0.795576
vt 0.877760 0.794971
vt 0.877173 0.794971
vt 0.877173 0.795576
vt 0.875988 0.794971
vt 0.875988 0.795576
vt 0.875026 0.794971
vt 0.875026 0.795576
vt 0.874304 0.794971
vt 0.874304 0.795576
vt 0.878875 0.794752
vt 0.878875 0.795528
vt 0.879837 0.795528
vt 0.879837 0.794752
vt 0.877913 0.794752
vt 0.877913 0.795528
vt 0.876950 0.794752
vt 0.876950 0.795528
vt 0.874115 0.794752
vt 0.874064 0.794752
vt 0.874064 0.795528
vt 0.874115 0.795528
vt 0.873101 0.794752
vt 0.873101 0.795528
vt 0.872139 0.794752
vt 0.872139 0.795528
vt 0.878875 0.794465
vt 0.878875 0.795465
vt 0.879837 0.795465
vt 0.879837 0.794465
vt 0.877913 0.794465
vt 0.877913 0.795465
vt 0.876950 0.794465
vt 0.876950 0.795465
vt 0.875988 0.794465
vt 0.875988 0.795465
vt 0.875026 0.794465
vt 0.875026 0.795465
vt 0.874064 0.794465
vt 0.874561 0.795465
vt 0.874064 0.795465
vt 0.873101 0.794465
vt 0.873101 0.795465
vt 0.872139 0.794465
vt 0.872139 0.795465
vt 0.879837 0.795527
vt 0.879837 0.794745
vt 0.878875 0.794745
vt 0.878875 0.795527
vt 0.878083 0.794745
vt 0.878083 0.795527
vt 0.873101 0.795527
vt 0.873101 0.794745
vt 0.872139 0.794745
vt 0.872139 0.795527
vn -0.2037 0.0000 0.9790
vn -1.0000 0.0000 0.0034
vn 0.0000 -1.0000 0.0000
vn 0.0000 1.0000 -0.0000
vn -0.3424 0.0000 -0.9396
vn 0.9253 0.0000 -0.3791
vn 0.9254 0.0000 -0.3791
vn -0.3791 0.0000 -0.9254
vn 0.7144 0.0000 0.6997
vn 0.3791 0.0000 0.9254
vn -0.9254 0.0000 0.3791
vn 0.2367 0.0000 0.9716
vn 0.5128 0.0000 -0.8585
vn 0.7184 0.6303 -0.2943
vn 0.7184 -0.6303 -0.2943
vn 0.7161 -0.6303 0.2999
vn 0.7161 0.6303 0.2999
vn 0.2253 -0.8042 0.5500
vn 0.2253 0.8042 0.5500
vn -0.2296 -0.8042 0.5482
vn -0.2296 0.8042 0.5482
vn -0.7184 -0.6303 0.2943
vn -0.7184 0.6303 0.2943
vn -0.7161 -0.6303 -0.2999
vn -0.7161 0.6303 -0.2999
vn -0.2253 -0.8042 -0.5500
vn -0.2253 0.8042 -0.5500
vn 0.2296 -0.8042 -0.5482
vn 0.2296 0.8042 -0.5482
vn 0.7142 -0.6303 -0.3046
vn 0.7142 0.6303 -0.3046
vn 0.2217 0.8042 -0.5515
vn 0.2217 -0.8042 -0.5515
vn -0.2332 -0.8042 -0.5467
vn -0.2332 0.8042 -0.5467
vn -0.7526 0.6168 -0.2306
vn -0.7526 -0.6168 -0.2306
vn -0.7088 -0.5891 -0.3880
vn -0.7088 0.5891 -0.3880
vn 0.4580 0.5600 -0.6904
vn 0.4580 -0.5600 -0.6904
vn 0.7218 0.5857 0.3687
vn 0.7218 -0.5857 0.3687
vn 0.5872 -0.8042 0.0919
vn 0.5872 0.8042 0.0919
vn 0.3502 0.8042 0.4802
vn 0.3502 -0.8042 0.4802
vn -0.1201 -0.6303 0.7670
vn -0.1201 0.6303 0.7670
vn 0.0998 -0.5902 0.8010
vn 0.0998 0.5902 0.8010
vn 0.3778 -0.6303 -0.6783
vn 0.3778 0.6303 -0.6783
vn -0.2124 0.6303 -0.7467
vn -0.2124 -0.6303 -0.7467
vn -0.7467 -0.6303 0.2125
vn -0.6783 -0.6303 -0.3778
vn -0.6783 0.6303 -0.3778
vn -0.7467 0.6303 0.2125
vn -0.2892 -0.8042 0.5193
vn -0.2892 0.8042 0.5193
vn 0.1626 0.8042 0.5717
vn 0.1626 -0.8042 0.5717
vn 0.6783 -0.6303 0.3778
vn 0.6783 0.6303 0.3778
vn 0.7467 0.6303 -0.2125
vn 0.7467 -0.6303 -0.2125
vn -0.5733 0.5769 0.5818
vn -0.5733 -0.5769 0.5818
vn -0.3402 -0.6196 0.7074
vn -0.3402 0.6196 0.7074
vn -0.7696 -0.6191 0.1561
vn -0.7696 0.6191 0.1561
vn -0.6156 -0.6303 -0.4731
vn -0.6156 0.6303 -0.4731
vn -0.7676 -0.5847 -0.2625
vn -0.7676 0.5847 -0.2625
vn 0.7785 -0.6273 -0.0238
vn 0.7785 0.6273 -0.0238
vn 0.5215 0.6303 -0.5752
vn 0.5215 -0.6303 -0.5752
vn 0.5253 -0.6200 0.5828
vn 0.5253 0.6200 0.5828
vn 0.7378 -0.5717 0.3588
vn 0.7378 0.5717 0.3588
vn -0.0189 -0.5456 -0.8378
vn -0.5752 -0.6303 -0.5215
vn -0.5752 0.6303 -0.5215
vn -0.0189 0.5456 -0.8378
vn -0.0380 -0.6303 -0.7755
vn -0.0380 0.6303 -0.7755
vn 0.2943 -0.6303 0.7184
vn 0.2943 0.6303 0.7184
vn -0.2999 -0.6303 0.7161
vn -0.2999 0.6303 0.7161
vn -0.5483 -0.8042 -0.2296
vn -0.5483 0.8042 -0.2296
vn 0.2999 -0.6303 -0.7161
vn 0.2999 0.6303 -0.7161
vn 0.5035 0.6147 -0.6071
vn 0.5035 -0.6147 -0.6071
vn 0.7802 -0.6248 0.0309
vn 0.7802 0.6248 0.0309
vn 0.7804 -0.6246 0.0302
vn 0.7804 0.6246 0.0302
vn 0.5029 0.6149 -0.6075
vn 0.5029 -0.6149 -0.6075
usemtl Palette
s off
f 113/1/1 112/2/1 109/3/1 114/4/1
f 20/5/2 1/6/2 4/7/2 7/8/2
f 49/9/3 58/10/3 60/11/3 55/12/3
f 70/13/3 16/14/3 75/15/3 69/16/3
f 6/17/3 57/18/3 59/19/3 55/12/3 60/11/3 65/20/3 67/21/3 53/22/3 43/23/3 39/24/3 63/25/3 58/10/3 49/9/3 47/26/3 112/2/3 113/1/3 111/27/3 8/28/3 61/29/3 51/30/3 45/31/3 7/8/3 4/7/3 41/32/3 15/33/3 11/34/3 95/35/3 96/36/3 71/37/3 75/15/3 16/38/3 9/39/3 23/40/3 29/41/3 37/42/3 33/43/3 64/44/3 70/13/3 69/45/3 91/46/3 93/47/3 94/48/3 27/49/3 21/50/3 35/51/3 115/52/3 117/53/3 2/54/3 82/55/3 78/56/3 73/57/3 31/58/3 22/59/3 13/60/3 84/61/3 90/62/3 89/63/3 88/64/3 87/65/3
f 95/66/3 11/34/3 27/49/3 94/48/3
f 104/67/4 103/68/4 28/69/4 12/70/4
f 81/71/4 86/72/4 50/73/4 56/74/4
f 81/71/4 56/75/4 66/76/4 72/77/4 3/78/4 100/79/4 97/80/4 98/81/4 99/82/4 85/83/4 14/84/4 26/85/4 32/86/4 74/87/4 79/88/4 83/89/4 5/90/4 118/91/4 116/92/4 36/93/4 24/94/4 28/69/4 103/68/4 102/95/4 101/96/4 106/97/4 80/98/4 77/99/4 34/100/4 38/101/4 30/102/4 25/103/4 10/104/4 18/105/4 108/106/4 107/107/4 105/108/4 104/67/4 12/109/4 17/110/4 42/111/4 1/6/4 20/5/4 46/112/4 52/113/4 62/114/4 19/115/4 110/116/4 114/4/4 109/3/4 48/117/4 50/73/4 86/118/4 92/119/4 40/120/4 44/121/4 54/122/4 68/123/4 76/124/4
f 18/105/4 80/98/4 106/97/4 108/106/4
f 117/53/5 118/91/5 5/90/5 2/54/5
f 90/62/6 84/61/6 85/83/6 99/82/6
f 100/79/7 3/78/7 6/17/7 87/65/7
f 41/32/8 4/7/8 1/6/8 42/111/8
f 6/17/9 3/78/9 72/77/9 57/18/9
f 48/117/10 109/3/10 112/2/10 47/26/10
f 116/92/8 115/52/8 35/51/8 36/93/8
f 111/27/11 110/116/11 19/115/11 8/28/11
f 113/1/12 114/4/12 110/116/12 111/27/12
f 2/54/7 5/90/7 83/89/7 82/55/7
f 117/53/13 115/52/13 116/92/13 118/91/13
s 1
f 107/125/14 71/126/15 96/127/16 105/128/17
f 96/127/16 95/129/18 104/130/19 105/128/17
f 95/131/18 94/132/20 103/133/21 104/130/19
f 94/132/20 93/134/22 102/135/23 103/133/21
f 93/134/22 91/136/24 101/137/25 102/135/23
f 101/137/25 91/136/24 69/138/26 106/139/27
f 106/139/27 69/140/26 75/141/28 108/142/29
f 108/142/29 75/141/28 71/143/15 107/144/14
f 15/145/30 17/146/31 12/147/32 11/148/33
f 27/149/34 28/150/35 24/151/36 21/152/37
f 35/153/38 21/152/37 24/151/36 36/154/39
f 42/155/40 17/156/31 15/157/30 41/158/41
f 12/159/32 28/150/35 27/149/34 11/148/33
f 48/160/42 47/161/43 49/162/44 50/163/45
f 56/164/46 50/163/45 49/162/44 55/165/47
f 56/166/46 55/165/47 59/167/48 66/168/49
f 59/167/48 57/169/50 72/170/51 66/168/49
f 29/171/52 30/172/53 38/173/54 37/174/55
f 64/175/56 33/176/57 34/177/58 77/178/59
f 70/179/60 64/175/56 77/178/59 80/180/61
f 18/181/62 16/182/63 70/179/60 80/180/61
f 9/183/64 16/184/63 18/181/62 10/185/65
f 25/186/66 23/187/67 9/183/64 10/185/65
f 30/188/53 29/189/52 23/187/67 25/186/66
f 37/174/55 38/173/54 34/177/58 33/176/57
f 20/190/68 7/191/69 45/192/70 46/193/71
f 46/193/71 45/192/70 51/194/72 52/195/73
f 52/195/73 51/194/72 61/196/74 62/197/75
f 8/198/76 19/199/77 62/197/75 61/196/74
f 73/200/78 74/201/79 32/202/80 31/203/81
f 78/204/82 79/205/83 74/201/79 73/200/78
f 79/205/83 78/204/82 82/206/84 83/207/85
f 84/208/86 13/209/87 14/210/88 85/211/89
f 22/212/90 26/213/91 14/210/88 13/209/87
f 31/214/81 32/215/80 26/213/91 22/212/90
f 43/216/16 44/217/17 40/218/14 39/219/15
f 44/217/17 43/216/16 53/220/92 54/221/93
f 54/221/93 53/220/92 67/222/94 68/223/95
f 67/222/94 65/224/22 76/225/23 68/223/95
f 65/224/22 60/226/96 81/227/97 76/225/23
f 81/227/97 60/226/96 58/228/26 86/229/27
f 86/230/27 58/228/26 63/231/98 92/232/99
f 92/232/99 63/231/98 39/233/15 40/234/14
f 97/235/100 88/236/101 89/237/102 98/238/103
f 89/237/102 90/239/104 99/240/105 98/238/103
f 100/241/106 87/242/107 88/243/101 97/244/100
