# Blender v3.3.1 OBJ File: 'Office Set.blend'
# www.blender.org
mtllib Fruit_Apple.mtl
o Fruit_Apple_Cube.171
v 9.798758 0.955188 2.497168
v 9.833122 0.970304 2.522135
v 9.785631 0.970304 2.537566
v 9.756280 0.970304 2.497168
v 9.785631 0.970304 2.456769
v 9.833122 0.970304 2.472200
v 9.814824 1.022300 2.546618
v 9.756692 1.022300 2.527730
v 9.756692 1.022300 2.466606
v 9.814824 1.022300 2.447718
v 9.850752 1.022300 2.497168
v 9.798757 1.038371 2.497168
v 9.791042 0.952344 2.520913
v 9.818956 0.946851 2.511843
v 9.811241 0.965739 2.535589
v 9.839155 0.965740 2.497168
v 9.818956 0.952344 2.482492
v 9.773789 0.946851 2.497168
v 9.766074 0.965740 2.520913
v 9.791042 0.946851 2.473423
v 9.766074 0.965740 2.473422
v 9.811241 0.965739 2.458747
v 9.850913 0.996302 2.514114
v 9.850913 0.996302 2.480222
v 9.798757 0.996302 2.552008
v 9.830992 0.996302 2.541535
v 9.746601 0.996302 2.514114
v 9.766522 0.996302 2.541535
v 9.766522 0.996302 2.452801
v 9.746601 0.996302 2.480222
v 9.830992 0.996302 2.452801
v 9.798757 0.996302 2.442328
v 9.838763 1.026864 2.526234
v 9.783476 1.026864 2.544198
v 9.749307 1.026864 2.497168
v 9.783476 1.026864 2.450138
v 9.838763 1.026864 2.468102
v 9.808201 1.045752 2.526234
v 9.829319 1.045752 2.497168
v 9.774032 1.045752 2.515131
v 9.774032 1.045752 2.479204
v 9.808201 1.045752 2.468102
v 9.797290 1.040817 2.494115
v 9.795628 1.041637 2.498646
v 9.806110 1.037512 2.504127
v 9.804391 1.038627 2.508829
v 9.808416 1.058902 2.504774
v 9.796400 1.062540 2.485067
v 9.794510 1.063470 2.490257
v 9.810911 1.057208 2.498636
v 9.802990 1.040177 2.496483
v 9.802616 1.042528 2.497256
v 9.803682 1.036325 2.501307
v 9.803437 1.038926 2.502070
v 9.815901 1.048741 2.498560
v 9.814825 1.052032 2.490502
v 9.814395 1.054712 2.491392
v 9.816178 1.045080 2.497648
v 9.798374 1.043859 2.499667
v 9.796400 1.041271 2.499422
v 9.802624 1.037922 2.502866
v 9.799369 1.038075 2.504122
v 9.794868 1.054280 2.516440
v 9.791477 1.062942 2.510109
v 9.788018 1.062874 2.511319
v 9.799394 1.053857 2.514738
vt 0.782851 0.867137
vt 0.784400 0.869820
vt 0.781303 0.869820
vt 0.785949 0.872503
vt 0.787498 0.869820
vt 0.789047 0.872503
vt 0.807633 0.867137
vt 0.809182 0.869820
vt 0.806084 0.869820
vt 0.801437 0.867137
vt 0.802986 0.869820
vt 0.799888 0.869820
vt 0.795242 0.867137
vt 0.796791 0.869820
vt 0.793693 0.869820
vt 0.787498 0.875186
vt 0.779754 0.872503
vt 0.782851 0.872503
vt 0.781302 0.875185
vt 0.804535 0.872503
vt 0.807633 0.872503
vt 0.806084 0.875186
vt 0.798340 0.872503
vt 0.801437 0.872503
vt 0.799888 0.875186
vt 0.792144 0.872503
vt 0.795242 0.872503
vt 0.793693 0.875186
vt 0.784400 0.875186
vt 0.778205 0.875186
vt 0.802986 0.875186
vt 0.796791 0.875186
vt 0.790595 0.875186
vt 0.782851 0.877868
vt 0.785949 0.877868
vt 0.784400 0.880551
vt 0.776656 0.877868
vt 0.779754 0.877868
vt 0.778205 0.880551
vt 0.801437 0.877868
vt 0.804535 0.877868
vt 0.802986 0.880551
vt 0.795242 0.877868
vt 0.798340 0.877868
vt 0.796791 0.880551
vt 0.789047 0.877868
vt 0.792144 0.877868
vt 0.790596 0.880551
vt 0.785484 0.868625
vt 0.788582 0.868625
vt 0.787033 0.871308
vt 0.793693 0.880551
vt 0.791680 0.868625
vt 0.794777 0.868625
vt 0.793228 0.871308
vt 0.799888 0.880551
vt 0.797875 0.868625
vt 0.800973 0.868625
vt 0.799424 0.871308
vt 0.806084 0.880551
vt 0.807633 0.877868
vt 0.773094 0.868625
vt 0.776191 0.868625
vt 0.774643 0.871308
vt 0.781302 0.880551
vt 0.779289 0.868625
vt 0.782387 0.868625
vt 0.780838 0.871308
vt 0.787498 0.880551
vt 0.809182 0.875186
vt 0.810730 0.872503
vt 0.790596 0.869820
vt 0.789047 0.867137
vt 0.556851 0.877446
vt 0.557332 0.878279
vt 0.557332 0.878279
vt 0.556851 0.877446
vt 0.556851 0.877446
vt 0.556851 0.877446
vt 0.557332 0.878279
vt 0.557332 0.878279
vt 0.976110 0.879993
vt 0.976652 0.880930
vt 0.976652 0.880930
vt 0.976110 0.879993
vt 0.976110 0.879993
vt 0.976110 0.879993
vt 0.976652 0.880930
vt 0.976652 0.880930
vt 0.976110 0.879993
vt 0.976652 0.880930
vt 0.976652 0.880930
vt 0.976110 0.879993
vt 0.976110 0.879993
vt 0.976110 0.879993
vt 0.976652 0.880930
vt 0.976652 0.880930
vn 0.0399 -0.9988 0.0290
vn 0.2849 -0.9359 0.2070
vn -0.1399 -0.8917 0.4305
vn 0.6954 -0.5111 0.5052
vn 0.8080 -0.5888 -0.0205
vn -0.3810 -0.9232 0.0503
vn -0.0699 -0.9232 -0.3778
vn 0.3662 -0.8917 -0.2660
vn 0.9381 -0.1422 0.3157
vn -0.2574 -0.5535 0.7921
vn 0.2302 -0.5888 0.7748
vn -0.0104 -0.1423 0.9898
vn -0.8595 -0.5111 -0.0000
vn -0.6417 -0.5888 0.4915
vn -0.9445 -0.1423 0.2960
vn -0.2656 -0.5111 -0.8174
vn -0.6711 -0.5585 -0.4876
vn -0.5734 -0.1423 -0.8068
vn 0.6738 -0.5535 -0.4895
vn 0.2691 -0.5888 -0.7621
vn 0.5902 -0.1423 -0.7947
vn 0.5902 -0.1422 0.7947
vn -0.5734 -0.1423 0.8068
vn -0.9445 -0.1423 -0.2960
vn -0.0104 -0.1423 -0.9898
vn 0.9381 -0.1422 -0.3157
vn 0.2846 0.3893 0.8760
vn 0.7088 0.4820 0.5150
vn 0.1184 0.9237 0.3643
vn -0.7452 0.3893 0.5414
vn -0.2708 0.4820 0.8333
vn -0.3099 0.9237 0.2252
vn -0.7452 0.3893 -0.5414
vn -0.8762 0.4820 0.0000
vn -0.3099 0.9237 -0.2252
vn 0.2846 0.3893 -0.8760
vn -0.2708 0.4820 -0.8333
vn 0.1184 0.9237 -0.3643
vn 0.9211 0.3893 0.0000
vn 0.7088 0.4820 -0.5150
vn 0.3831 0.9237 0.0000
vn 0.0000 1.0000 -0.0000
vn -0.6605 0.7503 0.0287
vn -0.9325 0.0993 0.3471
vn 0.3161 0.1034 0.9431
vn 0.2991 0.5949 0.7461
vn -0.1326 0.4201 -0.8977
vn 0.9264 0.2796 -0.2522
vn 0.9626 -0.2430 -0.1198
vn -0.1458 -0.4131 -0.8989
vn 0.1426 0.9233 -0.3567
vn -0.7317 0.6748 -0.0964
vn 0.1549 0.1397 0.9780
vn 0.5578 0.4743 0.6812
vn 0.4337 -0.0023 -0.9011
vn 0.8263 -0.5506 0.1191
vn 0.6208 -0.7522 0.2209
vn 0.0130 -0.4814 -0.8764
vn -0.7567 0.6418 0.1245
vn -0.9483 -0.2368 -0.2113
vn -0.2599 -0.6369 0.7258
vn -0.2724 -0.0749 0.9593
vn 0.2562 0.9358 -0.2421
vn 0.8244 0.1741 0.5385
vn 0.9142 -0.0811 0.3971
vn 0.3238 0.5278 -0.7852
usemtl Palette
s 1
f 1/1/1 14/2/2 13/3/3
f 2/4/4 14/5/2 16/6/5
f 1/7/1 13/8/3 18/9/6
f 1/10/1 18/11/6 20/12/7
f 1/13/1 20/14/7 17/15/8
f 2/4/4 16/6/5 23/16/9
f 3/17/10 15/18/11 25/19/12
f 4/20/13 19/21/14 27/22/15
f 5/23/16 21/24/17 29/25/18
f 6/26/19 22/27/20 31/28/21
f 2/4/4 23/16/9 26/29/22
f 3/17/10 25/19/12 28/30/23
f 4/20/13 27/22/15 30/31/24
f 5/23/16 29/25/18 32/32/25
f 6/26/19 31/28/21 24/33/26
f 7/34/27 33/35/28 38/36/29
f 8/37/30 34/38/31 40/39/32
f 9/40/33 35/41/34 41/42/35
f 10/43/36 36/44/37 42/45/38
f 11/46/39 37/47/40 39/48/41
f 39/49/41 42/50/38 12/51/42
f 39/48/41 37/47/40 42/52/38
f 37/47/40 10/43/36 42/52/38
f 42/53/38 41/54/35 12/55/42
f 42/45/38 36/44/37 41/56/35
f 36/44/37 9/40/33 41/56/35
f 41/57/35 40/58/32 12/59/42
f 41/42/35 35/41/34 40/60/32
f 35/41/34 8/61/30 40/60/32
f 40/62/32 38/63/29 12/64/42
f 40/39/32 34/38/31 38/65/29
f 34/38/31 7/34/27 38/65/29
f 38/66/29 39/67/41 12/68/42
f 38/36/29 33/35/28 39/69/41
f 33/35/28 11/46/39 39/69/41
f 24/33/26 37/47/40 11/46/39
f 24/33/26 31/28/21 37/47/40
f 31/28/21 10/43/36 37/47/40
f 32/32/25 36/44/37 10/43/36
f 32/32/25 29/25/18 36/44/37
f 29/25/18 9/40/33 36/44/37
f 30/31/24 35/41/34 9/40/33
f 30/31/24 27/22/15 35/41/34
f 27/22/15 8/61/30 35/41/34
f 28/30/23 34/38/31 8/37/30
f 28/30/23 25/19/12 34/38/31
f 25/19/12 7/34/27 34/38/31
f 26/29/22 33/35/28 7/34/27
f 26/29/22 23/16/9 33/35/28
f 23/16/9 11/46/39 33/35/28
f 31/28/21 32/32/25 10/43/36
f 31/28/21 22/27/20 32/32/25
f 22/27/20 5/23/16 32/32/25
f 29/25/18 30/31/24 9/40/33
f 29/25/18 21/24/17 30/31/24
f 21/24/17 4/20/13 30/31/24
f 27/22/15 28/70/23 8/61/30
f 27/22/15 19/21/14 28/70/23
f 19/21/14 3/71/10 28/70/23
f 25/19/12 26/29/22 7/34/27
f 25/19/12 15/18/11 26/29/22
f 15/18/11 2/4/4 26/29/22
f 23/16/9 24/33/26 11/46/39
f 23/16/9 16/6/5 24/33/26
f 16/6/5 6/26/19 24/33/26
f 17/15/8 22/27/20 6/26/19
f 17/15/8 20/14/7 22/27/20
f 20/14/7 5/23/16 22/27/20
f 20/12/7 21/24/17 5/23/16
f 20/12/7 18/11/6 21/24/17
f 18/11/6 4/20/13 21/24/17
f 18/9/6 19/21/14 4/20/13
f 18/9/6 13/8/3 19/21/14
f 13/8/3 3/71/10 19/21/14
f 16/6/5 17/72/8 6/26/19
f 16/6/5 14/5/2 17/72/8
f 14/5/2 1/73/1 17/72/8
f 13/3/3 15/18/11 3/17/10
f 13/3/3 14/2/2 15/18/11
f 14/2/2 2/4/4 15/18/11
f 49/74/43 44/75/44 46/76/45 47/77/46
f 48/78/47 50/79/48 45/80/49 43/81/50
f 48/78/47 43/81/50 44/75/44 49/74/43
f 45/80/49 50/79/48 47/77/46 46/76/45
f 49/74/43 47/77/46 50/79/48 48/78/47
f 57/82/51 52/83/52 54/84/53 55/85/54
f 56/86/55 58/87/56 53/88/57 51/89/58
f 56/86/55 51/89/58 52/83/52 57/82/51
f 53/88/57 58/87/56 55/85/54 54/84/53
f 57/82/51 55/85/54 58/87/56 56/86/55
f 65/90/59 60/91/60 62/92/61 63/93/62
f 64/94/63 66/95/64 61/96/65 59/97/66
f 64/94/63 59/97/66 60/91/60 65/90/59
f 61/96/65 66/95/64 63/93/62 62/92/61
f 65/90/59 63/93/62 66/95/64 64/94/63
