# Blender v3.3.1 OBJ File: 'Office Set.blend'
# www.blender.org
mtllib Fruit_Banana_B.mtl
o Fruit_Banana_B_Cube.169
v 10.121766 0.955428 2.511783
v 10.131660 0.955428 2.511783
v 10.121766 0.953092 2.502209
v 10.131660 0.953092 2.502209
v 10.120172 1.184434 2.505657
v 10.133254 1.184434 2.505657
v 10.120184 1.184369 2.491196
v 10.133242 1.184369 2.491197
v 10.143024 1.092049 2.483491
v 10.110401 1.095536 2.451055
v 10.143024 1.095536 2.451055
v 10.110401 1.092049 2.483491
v 10.140736 1.150228 2.465630
v 10.112690 1.142870 2.492711
v 10.140736 1.142870 2.492711
v 10.112690 1.150228 2.465630
v 10.121043 0.953764 2.507739
v 10.126714 0.955182 2.513205
v 10.132384 0.953764 2.507739
v 10.126714 0.952346 2.502279
v 10.118910 1.185345 2.498935
v 10.126713 1.185331 2.507953
v 10.134516 1.185345 2.498935
v 10.126713 1.185106 2.490601
v 10.136259 0.958822 2.510526
v 10.117167 0.957792 2.491526
v 10.142890 1.044626 2.453219
v 10.110536 1.047814 2.485417
v 10.149140 1.093793 2.467272
v 10.104285 1.093793 2.467272
v 10.126713 1.096190 2.444977
v 10.126713 1.091395 2.489574
v 10.142890 1.047814 2.485417
v 10.110536 1.044626 2.453219
v 10.141012 0.996212 2.467762
v 10.112413 1.000454 2.496041
v 10.141012 1.000454 2.496041
v 10.112413 0.996212 2.467762
v 10.136259 0.957792 2.491526
v 10.117167 0.958822 2.510526
v 10.145936 1.146597 2.479168
v 10.107490 1.146597 2.479168
v 10.126713 1.151599 2.460749
v 10.126713 1.141523 2.497839
v 10.148955 1.046220 2.469316
v 10.104470 1.046220 2.469316
v 10.126713 1.044029 2.447189
v 10.126713 1.048412 2.491458
v 10.126713 1.001243 2.501356
v 10.126713 0.995411 2.462496
v 10.107062 0.998325 2.481914
v 10.146363 0.998325 2.481914
v 10.126713 0.958956 2.514103
v 10.126713 0.957512 2.488079
v 10.113675 0.958234 2.501162
v 10.139750 0.958234 2.501162
v 10.134062 1.207110 2.512265
v 10.134062 1.197371 2.522178
v 10.119368 1.207110 2.512265
v 10.119368 1.197371 2.522178
v 10.132515 1.194828 2.502745
v 10.120915 1.194828 2.502745
v 10.132516 1.189263 2.510847
v 10.120914 1.189263 2.510847
v 10.122772 0.951361 2.504626
v 10.122196 0.952378 2.508945
v 10.122772 0.954051 2.512001
v 10.126714 0.953981 2.513149
v 10.130655 0.954051 2.512001
v 10.131231 0.952378 2.508945
v 10.130655 0.951361 2.504626
v 10.126714 0.950776 2.504747
v 10.126714 0.951691 2.510278
vt 0.526707 0.716301
vt 0.526707 0.716301
vt 0.527950 0.715198
vt 0.527950 0.715198
vt 0.463528 0.862843
vt 0.463528 0.862843
vt 0.464829 0.864543
vt 0.464829 0.864543
vt 0.529415 0.717113
vt 0.528264 0.718034
vt 0.529415 0.717113
vt 0.528264 0.718034
vt 0.450298 0.865869
vt 0.450298 0.881003
vt 0.450298 0.881003
vt 0.450298 0.865869
vt 0.480565 0.865869
vt 0.465431 0.865869
vt 0.465431 0.865869
vt 0.480565 0.865869
vt 0.480565 0.896136
vt 0.480565 0.881003
vt 0.480565 0.881003
vt 0.480565 0.896136
vt 0.450298 0.896136
vt 0.465431 0.891932
vt 0.465431 0.891932
vt 0.450298 0.896136
vt 0.808144 0.806411
vt 0.805442 0.803030
vt 0.807309 0.794511
vt 0.812905 0.795973
vt 0.780301 0.781443
vt 0.788405 0.785993
vt 0.786539 0.794511
vt 0.780943 0.795973
vt 0.805443 0.785993
vt 0.813547 0.781443
vt 0.796924 0.810044
vt 0.785704 0.806411
vt 0.788405 0.803030
vt 0.796924 0.804896
vt 0.796924 0.781266
vt 0.796924 0.784126
vt 0.813961 0.811549
vt 0.813898 0.798755
vt 0.813488 0.795626
vt 0.813961 0.811549
vt 0.808869 0.808411
vt 0.813330 0.800819
vt 0.813329 0.786431
vt 0.813583 0.801180
vt 0.813930 0.791428
vt 0.810768 0.809669
vt 0.813958 0.791353
vt 0.784398 0.808279
vt 0.781030 0.798824
vt 0.780271 0.801590
vt 0.780722 0.810955
vt 0.782632 0.793089
vt 0.780573 0.791745
vt 0.780009 0.801456
vt 0.780323 0.811236
vt 0.785249 0.789955
vt 0.797436 0.811112
vt 0.796665 0.811205
vt 0.796429 0.811054
vt 0.797491 0.786414
vt 0.797231 0.791448
vt 0.797077 0.790947
vt 0.785092 0.783832
vt 0.797043 0.779864
vt 0.809229 0.783354
vt 0.796924 0.811075
vt 0.779887 0.811549
vt 0.780478 0.795765
vt 0.779887 0.777474
vt 0.796924 0.777474
vt 0.813961 0.777474
vt 0.813961 0.811548
vt 0.796924 0.806816
vt 0.779887 0.811548
vt 0.779887 0.794511
vt 0.813961 0.794511
vt 0.804149 0.784550
vt 0.804150 0.784550
vt 0.802999 0.785471
vt 0.802592 0.782817
vt 0.802173 0.784696
vt 0.802173 0.784695
vt 0.802592 0.782817
vt 0.801348 0.783920
vt 0.801348 0.783920
vt 0.801348 0.783920
vt 0.802998 0.785471
vt 0.802998 0.785471
vt 0.465431 0.880582
vn 0.0000 0.6126 -0.7904
vn 0.0000 0.7133 0.7008
vn 0.9944 -0.0807 -0.0686
vn -0.9944 -0.0807 -0.0686
vn 0.0000 -0.8132 0.5819
vn -0.5645 -0.3687 0.7385
vn -0.7386 -0.6543 0.1622
vn -0.5696 -0.7645 0.3018
vn -0.4799 -0.4723 0.7393
vn 0.5645 -0.3686 0.7386
vn 0.0000 -0.1095 0.9940
vn 0.0000 -0.4572 0.8894
vn 0.4800 -0.4722 0.7393
vn 0.3950 -0.8839 -0.2503
vn 0.7387 -0.6542 0.1622
vn 0.5697 -0.7645 0.3017
vn 0.4455 -0.8820 -0.1536
vn -0.3949 -0.8840 -0.2502
vn 0.0000 -0.8919 -0.4523
vn -0.0000 -0.9833 -0.1821
vn -0.4454 -0.8820 -0.1536
vn 0.6683 0.3863 -0.6357
vn 0.6040 0.5923 -0.5333
vn 0.9784 0.2048 0.0288
vn 0.9872 0.1596 0.0071
vn -0.7286 -0.0761 0.6807
vn -0.7679 -0.2129 0.6042
vn -0.9783 0.2051 0.0288
vn -0.9872 0.1595 0.0071
vn 0.7677 -0.2134 0.6042
vn 0.7286 -0.0761 0.6807
vn 0.0000 0.4661 -0.8848
vn -0.6683 0.3863 -0.6357
vn -0.6040 0.5923 -0.5333
vn -0.0000 0.7056 -0.7086
vn 0.0000 -0.1967 0.9805
vn -0.0000 -0.5025 0.8646
vn 0.6758 -0.3424 -0.6527
vn 0.9936 -0.1125 -0.0034
vn 0.8762 -0.4763 0.0734
vn 0.5704 -0.6793 -0.4617
vn 0.6915 0.0914 -0.7166
vn 0.9993 0.0289 -0.0242
vn 0.7193 0.1366 0.6812
vn 0.9993 -0.0321 -0.0200
vn 0.7210 0.0757 0.6888
vn 0.6921 -0.1330 -0.7094
vn 0.7250 -0.0316 0.6880
vn -0.6758 -0.3424 -0.6527
vn -0.9936 -0.1125 -0.0034
vn -0.9993 -0.0321 -0.0200
vn -0.6921 -0.1330 -0.7094
vn -0.7210 0.0758 0.6888
vn -0.7250 -0.0316 0.6880
vn -0.9993 0.0289 -0.0242
vn -0.6915 0.0914 -0.7166
vn -0.7193 0.1366 0.6812
vn -0.0000 -0.4254 -0.9050
vn -0.0000 -0.1711 -0.9853
vn -0.0000 0.1162 -0.9932
vn 0.0000 0.2486 0.9686
vn -0.0000 0.1249 0.9922
vn 0.0000 -0.0589 0.9983
vn -0.6985 -0.2047 0.6857
vn -0.0000 0.0611 0.9981
vn 0.6985 -0.2047 0.6857
vn -0.0000 -0.7572 -0.6532
vn -0.5704 -0.6793 -0.4617
vn -0.8762 -0.4763 0.0734
vn 0.7069 -0.5248 0.4742
vn -0.7069 -0.5247 0.4743
vn -0.6943 0.5202 -0.4973
vn 0.6944 0.5201 -0.4973
vn -0.0000 -0.9122 0.4098
usemtl Palette
s off
f 61/1/1 62/2/1 59/3/1 57/4/1
f 57/5/2 59/6/2 60/7/2 58/8/2
f 58/9/3 63/10/3 61/1/3 57/4/3
f 60/11/4 59/3/4 62/2/4 64/12/4
f 58/9/5 60/11/5 64/12/5 63/10/5
s 1
f 1/13/6 17/14/7 66/15/8 67/16/9
f 2/17/10 18/18/11 68/19/12 69/20/13
f 4/21/14 19/22/15 70/23/16 71/24/17
f 3/25/18 20/26/19 72/27/20 65/28/21
f 13/29/22 8/30/23 23/31/24 41/32/25
f 14/33/26 5/34/27 21/35/28 42/36/29
f 41/32/25 23/31/24 6/37/30 15/38/31
f 43/39/32 16/40/33 7/41/34 24/42/35
f 42/36/29 21/35/28 7/41/34 16/40/33
f 43/39/32 24/42/35 8/30/23 13/29/22
f 44/43/36 22/44/37 5/34/27 14/33/26
f 35/45/38 52/46/39 56/47/40 39/48/41
f 11/49/42 13/29/22 41/32/25 29/50/43
f 37/51/44 52/46/39 45/52/45 33/53/46
f 45/52/45 27/54/47 11/49/42 29/50/43
f 33/53/46 45/52/45 29/50/43 9/55/48
f 52/46/39 35/45/38 27/54/47 45/52/45
f 38/56/49 51/57/50 46/58/51 34/59/52
f 46/58/51 28/60/53 12/61/54 30/62/55
f 34/59/52 46/58/51 30/62/55 10/63/56
f 51/57/50 36/64/57 28/60/53 46/58/51
f 35/45/38 50/65/58 47/66/59 27/54/47
f 47/66/59 34/59/52 10/63/56 31/67/60
f 27/54/47 47/66/59 31/67/60 11/49/42
f 50/65/58 38/56/49 34/59/52 47/66/59
f 36/64/57 49/68/61 48/69/62 28/60/53
f 48/69/62 33/53/46 9/55/48 32/70/63
f 28/60/53 48/69/62 32/70/63 12/61/54
f 40/71/64 53/72/65 49/68/61 36/64/57
f 49/68/61 37/51/44 33/53/46 48/69/62
f 37/51/44 49/68/61 53/72/65 25/73/66
f 39/48/41 54/74/67 50/65/58 35/45/38
f 54/74/67 26/75/68 38/56/49 50/65/58
f 26/75/68 55/76/69 51/57/50 38/56/49
f 55/76/69 40/71/64 36/64/57 51/57/50
f 25/73/66 56/47/40 52/46/39 37/51/44
f 1/77/6 18/78/11 53/72/65 40/71/64
f 18/78/11 2/79/10 25/73/66 53/72/65
f 4/80/14 20/81/19 54/74/67 39/48/41
f 20/81/19 3/82/18 26/75/68 54/74/67
f 3/82/18 17/83/7 55/76/69 26/75/68
f 17/83/7 1/77/6 40/71/64 55/76/69
f 2/79/10 19/84/15 56/47/40 25/73/66
f 19/84/15 4/80/14 39/48/41 56/47/40
f 12/61/54 14/33/26 42/36/29 30/62/55
f 29/50/43 41/32/25 15/38/31 9/55/48
f 16/40/33 43/39/32 31/67/60 10/63/56
f 30/62/55 42/36/29 16/40/33 10/63/56
f 15/38/31 44/43/36 32/70/63 9/55/48
f 31/67/60 43/39/32 13/29/22 11/49/42
f 32/70/63 44/43/36 14/33/26 12/61/54
f 63/85/70 64/86/71 22/87/37
f 64/86/71 62/88/72 21/89/28
f 63/85/70 23/90/24 61/91/73
f 8/92/23 24/93/35 61/91/73
f 61/91/73 24/93/35 62/88/72
f 62/88/72 24/93/35 7/94/34
f 61/91/73 23/90/24 8/92/23
f 23/90/24 63/85/70 6/95/30
f 22/87/37 6/95/30 63/85/70
f 22/87/37 64/86/71 5/96/27
f 21/89/28 62/88/72 7/94/34
f 21/89/28 5/96/27 64/86/71
f 67/16/9 66/15/8 73/97/74 68/19/12
f 66/15/8 65/28/21 72/27/20 73/97/74
f 73/97/74 72/27/20 71/24/17 70/23/16
f 68/19/12 73/97/74 70/23/16 69/20/13
f 20/26/19 4/21/14 71/24/17 72/27/20
f 19/22/15 2/17/10 69/20/13 70/23/16
f 18/18/11 1/13/6 67/16/9 68/19/12
f 17/14/7 3/25/18 65/28/21 66/15/8
f 44/43/36 15/38/31 6/37/30 22/44/37
