# Blender v3.3.1 OBJ File: 'Office Set.blend'
# www.blender.org
mtllib Lamp_1.mtl
o Lamp_1_Cylinder.003
v -14.500000 -0.002285 -1.112966
v -14.456770 -0.002285 -1.104367
v -14.420121 -0.002285 -1.079879
v -14.395634 -0.002285 -1.043230
v -14.387034 -0.002285 -1.000000
v -14.395634 -0.002285 -0.956770
v -14.420121 -0.002285 -0.920121
v -14.456770 -0.002285 -0.895633
v -14.500000 -0.002285 -0.887034
v -14.543230 -0.002285 -0.895633
v -14.579879 -0.002285 -0.920121
v -14.604366 -0.002285 -0.956770
v -14.612966 -0.002285 -1.000000
v -14.604366 -0.002285 -1.043230
v -14.579879 -0.002285 -1.079879
v -14.543230 -0.002285 -1.104367
v -14.540819 0.017398 -1.098547
v -14.575424 0.017398 -1.075425
v -14.598547 0.017398 -1.040820
v -14.606667 0.017398 -1.000000
v -14.598547 0.017398 -0.959180
v -14.575424 0.017398 -0.924575
v -14.540819 0.017398 -0.901453
v -14.500000 0.017398 -0.893333
v -14.459181 0.017398 -0.901453
v -14.424576 0.017398 -0.924575
v -14.401453 0.017398 -0.959180
v -14.393333 0.017398 -1.000000
v -14.401453 0.017398 -1.040820
v -14.424576 0.017398 -1.075425
v -14.459181 0.017398 -1.098547
v -14.500000 0.017398 -1.106667
v -14.507639 0.039527 -1.018442
v -14.500000 0.039527 -1.019961
v -14.514114 0.039527 -1.014115
v -14.519961 0.039527 -1.000000
v -14.518442 0.039527 -1.007639
v -14.518442 0.039527 -0.992361
v -14.514114 0.039527 -0.985885
v -14.507639 0.039527 -0.981558
v -14.500000 0.039527 -0.980039
v -14.492361 0.039527 -0.981558
v -14.485886 0.039527 -0.985885
v -14.481558 0.039527 -0.992361
v -14.480039 0.039527 -1.000000
v -14.481558 0.039527 -1.007639
v -14.485886 0.039527 -1.014115
v -14.492361 0.039527 -1.018442
v -14.521952 0.039527 -1.052996
v -14.500000 0.039527 -1.057362
v -14.540561 0.039527 -1.040561
v -14.557362 0.039527 -1.000000
v -14.552996 0.039527 -1.021952
v -14.552996 0.039527 -0.978049
v -14.540561 0.039527 -0.959439
v -14.521952 0.039527 -0.947004
v -14.500000 0.039527 -0.942638
v -14.478048 0.039527 -0.947004
v -14.459439 0.039527 -0.959439
v -14.447004 0.039527 -0.978049
v -14.442638 0.039527 -1.000000
v -14.447004 0.039527 -1.021952
v -14.459439 0.039527 -1.040561
v -14.478048 0.039527 -1.052996
v -14.507639 1.432757 -1.018442
v -14.500000 1.432757 -1.019961
v -14.514114 1.432757 -1.014115
v -14.519961 1.432757 -1.000000
v -14.518442 1.432757 -1.007639
v -14.518442 1.432757 -0.992361
v -14.514114 1.432757 -0.985885
v -14.507639 1.432757 -0.981558
v -14.500000 1.432757 -0.980039
v -14.492361 1.432757 -0.981558
v -14.485886 1.432757 -0.985885
v -14.481558 1.432757 -0.992361
v -14.480039 1.432757 -1.000000
v -14.481558 1.432757 -1.007639
v -14.485886 1.432757 -1.014115
v -14.492361 1.432757 -1.018442
v -14.567014 1.329253 -1.161785
v -14.500000 1.329253 -1.175115
v -14.623825 1.329253 -1.123825
v -14.675115 1.329253 -1.000000
v -14.661785 1.329253 -1.067014
v -14.661785 1.329253 -0.932986
v -14.623825 1.329253 -0.876175
v -14.567014 1.329253 -0.838215
v -14.500000 1.329253 -0.824885
v -14.432986 1.329253 -0.838215
v -14.376175 1.329253 -0.876175
v -14.338215 1.329253 -0.932986
v -14.324884 1.329253 -1.000000
v -14.338215 1.329253 -1.067014
v -14.376175 1.329253 -1.123825
v -14.432986 1.329253 -1.161785
v -14.553236 1.511324 -1.128523
v -14.500000 1.511324 -1.139112
v -14.598367 1.511324 -1.098367
v -14.639112 1.511324 -1.000000
v -14.628523 1.511324 -1.053236
v -14.628523 1.511324 -0.946764
v -14.598367 1.511324 -0.901633
v -14.553236 1.511324 -0.871477
v -14.500000 1.511324 -0.860888
v -14.446764 1.511324 -0.871477
v -14.401632 1.511324 -0.901633
v -14.371477 1.511324 -0.946764
v -14.360888 1.511324 -1.000000
v -14.371477 1.511324 -1.053236
v -14.401633 1.511324 -1.098367
v -14.446764 1.511324 -1.128523
v -14.567014 1.511324 -1.161785
v -14.500000 1.511324 -1.175115
v -14.623825 1.511324 -1.123825
v -14.675115 1.511324 -1.000000
v -14.661785 1.511324 -1.067014
v -14.661785 1.511324 -0.932986
v -14.623825 1.511324 -0.876175
v -14.567014 1.511324 -0.838215
v -14.500000 1.511324 -0.824885
v -14.432986 1.511324 -0.838215
v -14.376175 1.511324 -0.876175
v -14.338215 1.511324 -0.932986
v -14.324884 1.511324 -1.000000
v -14.338215 1.511324 -1.067014
v -14.376175 1.511324 -1.123825
v -14.432986 1.511324 -1.161785
v -14.553236 1.329253 -1.128523
v -14.500000 1.329253 -1.139112
v -14.598367 1.329253 -1.098367
v -14.639112 1.329253 -1.000000
v -14.628523 1.329253 -1.053236
v -14.628523 1.329253 -0.946764
v -14.598367 1.329253 -0.901633
v -14.553236 1.329253 -0.871477
v -14.500000 1.329253 -0.860888
v -14.446764 1.329253 -0.871477
v -14.401632 1.329253 -0.901633
v -14.371477 1.329253 -0.946764
v -14.360888 1.329253 -1.000000
v -14.371477 1.329253 -1.053236
v -14.401633 1.329253 -1.098367
v -14.446764 1.329253 -1.128523
v -14.507639 1.457466 -1.018442
v -14.500000 1.457466 -1.019961
v -14.514114 1.457466 -1.014115
v -14.519961 1.457466 -1.000000
v -14.518442 1.457466 -1.007639
v -14.518442 1.457466 -0.992361
v -14.514114 1.457466 -0.985885
v -14.507639 1.457466 -0.981558
v -14.500000 1.457466 -0.980039
v -14.492361 1.457466 -0.981558
v -14.485886 1.457466 -0.985885
v -14.481558 1.457466 -0.992361
v -14.480039 1.457466 -1.000000
v -14.481558 1.457466 -1.007639
v -14.485886 1.457466 -1.014115
v -14.492361 1.457466 -1.018442
v -14.639812 1.432757 -1.023840
v -14.638292 1.432757 -1.031479
v -14.523840 1.432757 -0.860188
v -14.531479 1.432757 -0.861707
v -14.360188 1.432757 -0.976160
v -14.361708 1.432757 -0.968521
v -14.476160 1.432757 -1.139812
v -14.468521 1.432757 -1.138293
v -14.639812 1.457465 -1.023840
v -14.638292 1.457465 -1.031479
v -14.523840 1.457466 -0.860188
v -14.531479 1.457466 -0.861707
v -14.360188 1.457466 -0.976160
v -14.361708 1.457466 -0.968521
v -14.476160 1.457466 -1.139812
v -14.468521 1.457466 -1.138293
vt 0.724588 0.790792
vt 0.729091 0.789896
vt 0.732909 0.787345
vt 0.735459 0.783528
vt 0.736355 0.779025
vt 0.735459 0.774522
vt 0.732909 0.770705
vt 0.729091 0.768155
vt 0.724588 0.767259
vt 0.720086 0.768155
vt 0.716268 0.770705
vt 0.713718 0.774522
vt 0.712822 0.779025
vt 0.713718 0.783528
vt 0.716268 0.787345
vt 0.720086 0.789896
vt 0.700104 0.884077
vt 0.701245 0.884304
vt 0.701245 0.886620
vt 0.699217 0.886217
vt 0.699136 0.883431
vt 0.697499 0.885068
vt 0.698263 0.881322
vt 0.698490 0.882463
vt 0.696350 0.883350
vt 0.695947 0.881322
vt 0.698490 0.880181
vt 0.696350 0.879295
vt 0.699136 0.879214
vt 0.697499 0.877576
vt 0.700104 0.878567
vt 0.699217 0.876427
vt 0.701245 0.878340
vt 0.701245 0.876024
vt 0.702386 0.878567
vt 0.703272 0.876427
vt 0.703353 0.879214
vt 0.704991 0.877576
vt 0.704000 0.880181
vt 0.706140 0.879295
vt 0.704227 0.881322
vt 0.706543 0.881322
vt 0.704000 0.882463
vt 0.706140 0.883350
vt 0.703353 0.883431
vt 0.704991 0.885068
vt 0.702386 0.884077
vt 0.703272 0.886217
vt 0.700104 0.884077
vt 0.699136 0.883431
vt 0.697499 0.885068
vt 0.699217 0.886217
vt 0.698490 0.882463
vt 0.696350 0.883350
vt 0.698263 0.881322
vt 0.695947 0.881322
vt 0.698490 0.880181
vt 0.696350 0.879295
vt 0.699136 0.879214
vt 0.697499 0.877576
vt 0.700104 0.878567
vt 0.699217 0.876427
vt 0.701245 0.878340
vt 0.701245 0.876024
vt 0.702386 0.878567
vt 0.703272 0.876427
vt 0.703353 0.879214
vt 0.704991 0.877576
vt 0.704000 0.880181
vt 0.706140 0.879295
vt 0.704227 0.881322
vt 0.706543 0.881322
vt 0.704000 0.882463
vt 0.706140 0.883350
vt 0.703353 0.883431
vt 0.704991 0.885068
vt 0.702386 0.884077
vt 0.703272 0.886217
vt 0.701245 0.884304
vt 0.701245 0.886620
vt 0.716268 0.787345
vt 0.720086 0.789896
vt 0.720086 0.768155
vt 0.716268 0.770705
vt 0.713718 0.774522
vt 0.712822 0.779025
vt 0.732909 0.770705
vt 0.729091 0.768155
vt 0.729091 0.789896
vt 0.732909 0.787345
vt 0.713718 0.783528
vt 0.724588 0.767259
vt 0.735459 0.783528
vt 0.736355 0.779025
vt 0.724588 0.790792
vt 0.735459 0.774522
vt 0.716268 0.787345
vt 0.720086 0.789896
vt 0.722561 0.783920
vt 0.720842 0.782771
vt 0.720842 0.782771
vt 0.722561 0.783920
vt 0.735459 0.774522
vt 0.732909 0.770705
vt 0.712822 0.779025
vt 0.713718 0.783528
vt 0.736355 0.779025
vt 0.713718 0.774522
vt 0.735459 0.783528
vt 0.716268 0.770705
vt 0.732909 0.787345
vt 0.720086 0.768155
vt 0.729091 0.789896
vt 0.724588 0.767259
vt 0.724588 0.790792
vt 0.729091 0.768155
vt 0.724588 0.784323
vt 0.719290 0.779025
vt 0.719694 0.781053
vt 0.719694 0.776998
vt 0.720842 0.775279
vt 0.722561 0.774130
vt 0.724588 0.773727
vt 0.726616 0.774130
vt 0.728335 0.775279
vt 0.729483 0.776998
vt 0.729886 0.779025
vt 0.729483 0.781053
vt 0.728335 0.782771
vt 0.726616 0.783920
vt 0.729886 0.779025
vt 0.729483 0.781053
vt 0.729483 0.781053
vt 0.729886 0.779025
vt 0.729483 0.776998
vt 0.728335 0.775279
vt 0.719290 0.779025
vt 0.719694 0.781053
vt 0.719694 0.776998
vt 0.720842 0.775279
vt 0.728335 0.782771
vt 0.722561 0.774130
vt 0.726616 0.783920
vt 0.724588 0.773727
vt 0.724588 0.784323
vt 0.726616 0.774130
vt 0.724588 0.784323
vt 0.722561 0.783920
vt 0.720842 0.782771
vt 0.719694 0.781053
vt 0.719290 0.779025
vt 0.719694 0.776998
vt 0.720842 0.775279
vt 0.722561 0.774130
vt 0.724588 0.773727
vt 0.726616 0.774130
vt 0.728335 0.775279
vt 0.729483 0.776998
vt 0.728335 0.782771
vt 0.726616 0.783920
vt 0.724588 0.773727
vt 0.724588 0.773727
vt 0.729483 0.776998
vt 0.729483 0.776998
vt 0.726616 0.783920
vt 0.726616 0.783920
vt 0.724588 0.784323
vt 0.719290 0.779025
vt 0.719290 0.779025
vt 0.722561 0.774130
vt 0.724588 0.784323
vt 0.719694 0.781053
vt 0.729886 0.779025
vt 0.729886 0.779025
vt 0.719694 0.781053
vt 0.722561 0.774130
vn 0.0000 -1.0000 0.0000
vn 0.0000 1.0000 0.0000
vn -0.5924 -0.5461 -0.5924
vn -0.5420 0.6422 -0.5420
vn -0.2934 0.6422 -0.7082
vn -0.3206 -0.5461 -0.7740
vn -0.3206 -0.5461 0.7740
vn -0.2934 0.6422 0.7082
vn -0.5420 0.6422 0.5420
vn -0.5924 -0.5461 0.5924
vn -0.7740 -0.5461 0.3206
vn -0.7082 0.6422 0.2933
vn -0.7666 0.6422 -0.0000
vn -0.8377 -0.5461 -0.0000
vn 0.5924 -0.5461 0.5924
vn 0.5420 0.6422 0.5420
vn 0.2934 0.6422 0.7082
vn 0.3206 -0.5461 0.7740
vn 0.3206 -0.5461 -0.7740
vn 0.2934 0.6422 -0.7082
vn 0.5420 0.6422 -0.5420
vn 0.5924 -0.5461 -0.5924
vn -0.7740 -0.5461 -0.3206
vn -0.7082 0.6422 -0.2934
vn 0.0000 -0.5461 0.8377
vn -0.0000 0.6422 0.7666
vn 0.7740 -0.5461 -0.3206
vn 0.7082 0.6422 -0.2934
vn 0.7666 0.6422 0.0000
vn 0.8377 -0.5461 0.0000
vn -0.0000 0.6422 -0.7666
vn -0.0000 -0.5461 -0.8377
vn 0.7740 -0.5461 0.3206
vn 0.7082 0.6422 0.2934
vn -0.1655 0.9722 -0.1655
vn -0.0896 0.9722 -0.2163
vn -0.2515 0.7538 -0.6071
vn -0.4647 0.7538 -0.4647
vn -0.7071 0.0000 -0.7071
vn -0.3827 0.0000 -0.9239
vn 0.2163 0.9722 0.0896
vn 0.1655 0.9722 0.1655
vn -0.2341 0.9722 0.0000
vn -0.2163 0.9722 -0.0896
vn 0.2341 0.9722 -0.0000
vn -0.2163 0.9722 0.0896
vn 0.2163 0.9722 -0.0896
vn -0.1655 0.9722 0.1655
vn 0.1655 0.9722 -0.1655
vn -0.0896 0.9722 0.2163
vn 0.0896 0.9722 -0.2163
vn -0.0000 0.9722 0.2341
vn 0.0000 0.9722 -0.2341
vn 0.0896 0.9722 0.2163
vn 0.0000 0.7538 -0.6571
vn -0.6572 0.7538 0.0000
vn -0.6071 0.7538 -0.2515
vn -0.6071 0.7538 0.2515
vn -0.4647 0.7538 0.4647
vn -0.2515 0.7538 0.6071
vn 0.0000 0.7538 0.6571
vn 0.2515 0.7538 0.6071
vn 0.4647 0.7538 0.4647
vn 0.6071 0.7538 0.2515
vn 0.6572 0.7538 0.0000
vn 0.6071 0.7538 -0.2515
vn 0.4647 0.7538 -0.4647
vn 0.2515 0.7538 -0.6071
vn 0.8973 -0.2860 -0.3363
vn 0.9239 0.0000 -0.3827
vn 0.6894 0.6657 -0.2856
vn 0.3659 0.8557 -0.3659
vn 0.7003 -0.2860 0.6541
vn 0.7071 0.0000 0.7071
vn -0.8973 -0.2860 0.3363
vn -0.7003 -0.2860 -0.6541
vn -0.9239 0.0000 0.3827
vn -0.7071 0.0000 0.7071
vn 0.7071 0.0000 -0.7071
vn -0.6541 -0.2860 0.7003
vn 0.6541 -0.2860 -0.7003
vn 0.3363 -0.2860 0.8973
vn -0.3363 -0.2860 -0.8973
vn 0.3827 0.0000 0.9239
vn -0.6571 0.7538 0.0000
vn -0.6071 -0.7538 0.2515
vn -0.6571 -0.7538 -0.0000
vn 0.4647 -0.7538 -0.4647
vn 0.6071 -0.7538 -0.2515
vn -0.6894 -0.6657 -0.2856
vn -0.7462 -0.6657 0.0000
vn -0.7462 0.6657 0.0000
vn -0.6894 0.6657 -0.2856
vn 0.6894 -0.6657 0.2856
vn 0.7462 -0.6657 0.0000
vn 0.7462 0.6657 0.0000
vn 0.6894 0.6657 0.2856
vn -0.6894 -0.6657 0.2856
vn -0.6894 0.6657 0.2856
vn 0.6894 -0.6657 -0.2856
vn -0.5276 -0.6657 0.5276
vn -0.5276 0.6657 0.5276
vn 0.5276 -0.6657 -0.5276
vn 0.5276 0.6657 -0.5276
vn -0.2856 -0.6657 0.6894
vn -0.2856 0.6657 0.6894
vn 0.2856 -0.6657 -0.6894
vn 0.2856 0.6657 -0.6894
vn 0.0000 -0.6657 0.7462
vn 0.0000 0.6657 0.7462
vn 0.0000 -0.6657 -0.7462
vn 0.0000 0.6657 -0.7462
vn 0.2856 -0.6657 0.6894
vn 0.2856 0.6657 0.6894
vn -0.2856 -0.6657 -0.6894
vn -0.2856 0.6657 -0.6894
vn -0.5276 -0.6657 -0.5276
vn -0.5276 0.6657 -0.5276
vn 0.5276 -0.6657 0.5276
vn 0.5276 0.6657 0.5276
vn -0.4647 -0.7538 0.4647
vn 0.2515 -0.7538 -0.6071
vn -0.2515 -0.7538 0.6071
vn 0.0000 -0.7538 -0.6571
vn -0.0000 -0.7538 0.6571
vn -0.2515 -0.7538 -0.6071
vn 0.2515 -0.7538 0.6071
vn 0.6071 -0.7538 0.2515
vn 0.4647 -0.7538 0.4647
vn -0.4647 -0.7538 -0.4647
vn -0.6071 -0.7538 -0.2515
vn 0.6571 0.7538 0.0000
vn 0.6571 -0.7538 0.0000
vn -0.3659 0.8557 -0.3659
vn -0.1980 0.8557 -0.4781
vn -0.3659 0.8557 0.3659
vn -0.4781 0.8557 0.1980
vn 0.3659 0.8557 0.3659
vn 0.1980 0.8557 0.4781
vn 0.4781 0.8557 -0.1980
vn 0.6935 0.7071 0.1380
vn 0.6935 -0.7071 0.1380
vn -0.1379 -0.7071 0.6935
vn -0.1379 0.7071 0.6935
vn -0.6935 0.7071 -0.1379
vn -0.1380 0.7071 0.6935
vn -0.1380 -0.7071 0.6935
vn -0.6935 -0.7071 -0.1380
vn -0.6935 -0.7071 -0.1379
vn 0.1379 0.7071 -0.6935
vn 0.1380 0.7071 -0.6935
vn 0.1380 -0.7071 -0.6935
vn 0.1379 -0.7071 -0.6935
vn -0.6935 0.7071 -0.1380
usemtl Palette
s off
f 1/1/1 2/2/1 3/3/1 4/4/1 5/5/1 6/6/1 7/7/1 8/8/1 9/9/1 10/10/1 11/11/1 12/12/1 13/13/1 14/14/1 15/15/1 16/16/1
f 97/17/2 98/18/2 114/19/2 113/20/2
f 99/21/2 97/17/2 113/20/2 115/22/2
f 100/23/2 101/24/2 117/25/2 116/26/2
f 102/27/2 100/23/2 116/26/2 118/28/2
f 103/29/2 102/27/2 118/28/2 119/30/2
f 104/31/2 103/29/2 119/30/2 120/32/2
f 105/33/2 104/31/2 120/32/2 121/34/2
f 106/35/2 105/33/2 121/34/2 122/36/2
f 107/37/2 106/35/2 122/36/2 123/38/2
f 108/39/2 107/37/2 123/38/2 124/40/2
f 109/41/2 108/39/2 124/40/2 125/42/2
f 110/43/2 109/41/2 125/42/2 126/44/2
f 111/45/2 110/43/2 126/44/2 127/46/2
f 112/47/2 111/45/2 127/46/2 128/48/2
f 98/18/2 112/47/2 128/48/2 114/19/2
f 101/24/2 99/21/2 115/22/2 117/25/2
f 129/49/1 131/50/1 83/51/1 81/52/1
f 131/50/1 133/53/1 85/54/1 83/51/1
f 133/53/1 132/55/1 84/56/1 85/54/1
f 132/55/1 134/57/1 86/58/1 84/56/1
f 134/57/1 135/59/1 87/60/1 86/58/1
f 135/59/1 136/61/1 88/62/1 87/60/1
f 136/61/1 137/63/1 89/64/1 88/62/1
f 137/63/1 138/65/1 90/66/1 89/64/1
f 138/65/1 139/67/1 91/68/1 90/66/1
f 139/67/1 140/69/1 92/70/1 91/68/1
f 140/69/1 141/71/1 93/72/1 92/70/1
f 141/71/1 142/73/1 94/74/1 93/72/1
f 142/73/1 143/75/1 95/76/1 94/74/1
f 143/75/1 144/77/1 96/78/1 95/76/1
f 144/77/1 130/79/1 82/80/1 96/78/1
f 130/79/1 129/49/1 81/52/1 82/80/1
s 1
f 15/15/3 18/81/4 17/82/5 16/16/6
f 10/10/7 23/83/8 22/84/9 11/11/10
f 12/12/11 21/85/12 20/86/13 13/13/14
f 7/7/15 26/87/16 25/88/17 8/8/18
f 2/2/19 31/89/20 30/90/21 3/3/22
f 14/14/23 19/91/24 18/81/4 15/15/3
f 9/9/25 24/92/26 23/83/8 10/10/7
f 4/4/27 29/93/28 28/94/29 5/5/30
f 16/16/6 17/82/5 32/95/31 1/1/32
f 11/11/10 22/84/9 21/85/12 12/12/11
f 6/6/33 27/96/34 26/87/16 7/7/15
f 1/1/32 32/95/31 31/89/20 2/2/19
f 13/13/14 20/86/13 19/91/24 14/14/23
f 8/8/18 25/88/17 24/92/26 9/9/25
f 3/3/22 30/90/21 29/93/28 4/4/27
f 5/5/30 28/94/29 27/96/34 6/6/33
f 18/81/4 51/97/35 49/98/36 17/82/5
f 33/99/37 35/100/38 67/101/39 65/102/40
f 27/96/34 60/103/41 59/104/42 26/87/16
f 20/86/13 52/105/43 53/106/44 19/91/24
f 28/94/29 61/107/45 60/103/41 27/96/34
f 21/85/12 54/108/46 52/105/43 20/86/13
f 29/93/28 62/109/47 61/107/45 28/94/29
f 22/84/9 55/110/48 54/108/46 21/85/12
f 30/90/21 63/111/49 62/109/47 29/93/28
f 23/83/8 56/112/50 55/110/48 22/84/9
f 31/89/20 64/113/51 63/111/49 30/90/21
f 24/92/26 57/114/52 56/112/50 23/83/8
f 32/95/31 50/115/53 64/113/51 31/89/20
f 25/88/17 58/116/54 57/114/52 24/92/26
f 17/82/5 49/98/36 50/115/53 32/95/31
f 19/91/24 53/106/44 51/97/35 18/81/4
f 26/87/16 59/104/42 58/116/54 25/88/17
f 33/99/37 34/117/55 50/115/53 49/98/36
f 35/100/38 33/99/37 49/98/36 51/97/35
f 36/118/56 37/119/57 53/106/44 52/105/43
f 38/120/58 36/118/56 52/105/43 54/108/46
f 39/121/59 38/120/58 54/108/46 55/110/48
f 40/122/60 39/121/59 55/110/48 56/112/50
f 41/123/61 40/122/60 56/112/50 57/114/52
f 42/124/62 41/123/61 57/114/52 58/116/54
f 43/125/63 42/124/62 58/116/54 59/104/42
f 44/126/64 43/125/63 59/104/42 60/103/41
f 45/127/65 44/126/64 60/103/41 61/107/45
f 46/128/66 45/127/65 61/107/45 62/109/47
f 47/129/67 46/128/66 62/109/47 63/111/49
f 48/130/68 47/129/67 63/111/49 64/113/51
f 34/117/55 48/130/68 64/113/51 50/115/53
f 37/119/57 35/100/38 51/97/35 53/106/44
f 77/131/69 78/132/70 158/133/71 157/134/72
f 43/125/63 44/126/64 76/135/73 75/136/74
f 37/119/57 36/118/56 68/137/75 69/138/76
f 44/126/64 45/127/65 77/131/69 76/135/73
f 36/118/56 38/120/58 70/139/77 68/137/75
f 45/127/65 46/128/66 78/132/70 77/131/69
f 38/120/58 39/121/59 71/140/78 70/139/77
f 46/128/66 47/129/67 79/141/79 78/132/70
f 39/121/59 40/122/60 72/142/80 71/140/78
f 47/129/67 48/130/68 80/143/81 79/141/79
f 40/122/60 41/123/61 73/144/82 72/142/80
f 48/130/68 34/117/55 66/145/83 80/143/81
f 41/123/61 42/124/62 74/146/84 73/144/82
f 34/117/55 33/99/37 65/102/40 66/145/83
f 35/100/38 37/119/57 69/138/76 67/101/39
f 42/124/62 43/125/63 75/136/74 74/146/84
f 109/41/85 110/43/58 142/73/86 141/71/87
f 102/27/66 103/29/67 135/59/88 134/57/89
f 85/54/90 84/56/91 116/26/92 117/25/93
f 92/70/94 93/72/95 125/42/96 124/40/97
f 84/56/91 86/58/98 118/28/99 116/26/92
f 93/72/95 94/74/100 126/44/71 125/42/96
f 86/58/98 87/60/101 119/30/102 118/28/99
f 94/74/100 95/76/103 127/46/104 126/44/71
f 87/60/101 88/62/105 120/32/106 119/30/102
f 95/76/103 96/78/107 128/48/108 127/46/104
f 88/62/105 89/64/109 121/34/110 120/32/106
f 96/78/107 82/80/111 114/19/112 128/48/108
f 89/64/109 90/66/113 122/36/114 121/34/110
f 82/80/111 81/52/115 113/20/116 114/19/112
f 83/51/117 85/54/90 117/25/93 115/22/118
f 90/66/113 91/68/119 123/38/120 122/36/114
f 81/52/115 83/51/117 115/22/118 113/20/116
f 91/68/119 92/70/94 124/40/97 123/38/120
f 110/43/58 111/45/59 143/75/121 142/73/86
f 103/29/67 104/31/68 136/61/122 135/59/88
f 111/45/59 112/47/60 144/77/123 143/75/121
f 104/31/68 105/33/55 137/63/124 136/61/122
f 112/47/60 98/18/61 130/79/125 144/77/123
f 105/33/55 106/35/37 138/65/126 137/63/124
f 98/18/61 97/17/62 129/49/127 130/79/125
f 99/21/63 101/24/64 133/53/128 131/50/129
f 106/35/37 107/37/38 139/67/130 138/65/126
f 97/17/62 99/21/63 131/50/129 129/49/127
f 107/37/38 108/39/57 140/69/131 139/67/130
f 101/24/64 100/23/132 132/55/133 133/53/128
f 108/39/57 109/41/85 141/71/87 140/69/131
f 100/23/132 102/27/66 134/57/89 132/55/133
f 146/147/134 145/148/116 147/149/118 149/150/135 148/151/136 150/152/99 151/153/102 152/154/137 153/155/138 154/156/114 155/157/120 156/158/139 157/134/72 158/133/71 159/159/104 160/160/140
f 70/139/77 71/140/78 151/153/102 150/152/99
f 78/132/70 79/141/79 159/159/104 158/133/71
f 71/140/78 72/142/80 152/154/137 151/153/102
f 79/141/79 80/143/81 160/160/140 159/159/104
f 73/144/82 153/155/138 171/161/141 163/162/142
f 156/158/139 76/135/73 166/163/143 174/164/144
f 73/144/82 74/146/84 154/156/114 153/155/138
f 66/145/83 65/102/40 145/148/116 146/147/134
f 67/101/39 69/138/76 149/150/135 147/149/118
f 74/146/84 75/136/74 155/157/120 154/156/114
f 65/102/40 67/101/39 147/149/118 145/148/116
f 75/136/74 76/135/73 156/158/139 155/157/120
f 160/160/140 80/143/81 168/165/142 176/166/141
f 146/147/134 160/160/140 176/166/141 175/167/145
f 68/137/75 70/139/77 150/152/99 148/151/136
f 68/137/75 148/151/136 169/168/146 161/169/147
f 72/142/80 73/144/82 163/162/142 164/170/148
f 66/145/83 146/147/134 175/167/145 167/171/149
f 80/143/81 66/145/83 167/171/149 168/165/142
f 148/151/136 149/150/135 170/172/150 169/168/146
f 77/131/69 157/134/72 173/173/151 165/174/152
f 157/134/72 156/158/139 174/164/144 173/173/151
f 149/150/135 69/138/76 162/175/153 170/172/150
f 69/138/76 68/137/75 161/169/147 162/175/153
f 76/135/73 77/131/69 165/174/152 166/163/143
f 153/155/138 152/154/137 172/176/154 171/161/141
f 152/154/137 72/142/80 164/170/148 172/176/154
