# Blender v3.3.1 OBJ File: 'Office Set.blend'
# www.blender.org
mtllib Lamp_1_Small.mtl
o Lamp_1_Small_Cylinder.002
v -14.468884 -0.002285 -0.075124
v -14.424877 -0.002285 -0.031118
v -14.424877 -0.002285 0.031116
v -14.468884 -0.002285 0.075122
v -14.531117 -0.002285 0.075122
v -14.575124 -0.002285 0.031116
v -14.575124 -0.002285 -0.031118
v -14.531117 -0.002285 -0.075124
v -14.529746 0.007145 -0.071813
v -14.571813 0.007145 -0.029747
v -14.571813 0.007145 0.029744
v -14.529746 0.007145 0.071811
v -14.470255 0.007145 0.071811
v -14.428188 0.007145 0.029744
v -14.428188 0.007145 -0.029746
v -14.470255 0.007145 -0.071813
v -14.505864 0.015950 -0.014156
v -14.514156 0.015950 -0.005864
v -14.514156 0.015950 0.005863
v -14.505864 0.015950 0.014155
v -14.494137 0.015950 0.014155
v -14.485845 0.015950 0.005863
v -14.485845 0.015950 -0.005864
v -14.494137 0.015950 -0.014156
v -14.521792 0.015950 -0.052612
v -14.552611 0.015950 -0.021793
v -14.552611 0.015950 0.021791
v -14.521792 0.015950 0.052610
v -14.478209 0.015950 0.052610
v -14.447390 0.015950 0.021791
v -14.447390 0.015950 -0.021793
v -14.478209 0.015950 -0.052612
v -14.505864 0.344416 -0.014156
v -14.514156 0.344416 -0.005864
v -14.514156 0.344416 0.005863
v -14.505864 0.344416 0.014155
v -14.494137 0.344416 0.014155
v -14.485845 0.344416 0.005863
v -14.485845 0.344416 -0.005864
v -14.494137 0.344416 -0.014156
v -14.540771 0.257991 -0.098431
v -14.500001 0.257991 -0.106541
v -14.575336 0.257991 -0.075336
v -14.606541 0.257991 -0.000001
v -14.598431 0.257991 -0.040772
v -14.598431 0.257991 0.040770
v -14.575336 0.257991 0.075334
v -14.540771 0.257991 0.098430
v -14.500001 0.257991 0.106539
v -14.459229 0.257991 0.098430
v -14.424665 0.257991 0.075334
v -14.401570 0.257991 0.040770
v -14.393460 0.257991 -0.000001
v -14.401570 0.257991 -0.040772
v -14.424665 0.257991 -0.075336
v -14.459229 0.257991 -0.098431
v -14.532390 0.410843 -0.078195
v -14.500001 0.410843 -0.084637
v -14.559847 0.410843 -0.059848
v -14.584637 0.410843 -0.000001
v -14.578194 0.410843 -0.032390
v -14.578194 0.410843 0.032388
v -14.559847 0.410843 0.059846
v -14.532390 0.410843 0.078193
v -14.500001 0.410843 0.084635
v -14.467611 0.410843 0.078193
v -14.440154 0.410843 0.059846
v -14.421807 0.410843 0.032388
v -14.415364 0.410843 -0.000001
v -14.421807 0.410843 -0.032390
v -14.440154 0.410843 -0.059848
v -14.467611 0.410843 -0.078195
v -14.540771 0.410843 -0.098431
v -14.500001 0.410843 -0.106541
v -14.575336 0.410843 -0.075336
v -14.606541 0.410843 -0.000001
v -14.598431 0.410843 -0.040772
v -14.598431 0.410843 0.040770
v -14.575336 0.410843 0.075334
v -14.540771 0.410843 0.098430
v -14.500001 0.410843 0.106539
v -14.459229 0.410843 0.098430
v -14.424665 0.410843 0.075334
v -14.401570 0.410843 0.040770
v -14.393460 0.410843 -0.000001
v -14.401570 0.410843 -0.040772
v -14.424665 0.410843 -0.075336
v -14.459229 0.410843 -0.098431
v -14.532390 0.257991 -0.078195
v -14.500001 0.257991 -0.084637
v -14.559847 0.257991 -0.059848
v -14.584637 0.257991 -0.000001
v -14.578194 0.257991 -0.032390
v -14.578194 0.257991 0.032388
v -14.559847 0.257991 0.059846
v -14.532390 0.257991 0.078193
v -14.500001 0.257991 0.084635
v -14.467611 0.257991 0.078193
v -14.440154 0.257991 0.059846
v -14.421807 0.257991 0.032388
v -14.415364 0.257991 -0.000001
v -14.421807 0.257991 -0.032390
v -14.440154 0.257991 -0.059848
v -14.467611 0.257991 -0.078195
vt 0.729091 0.789896
vt 0.735459 0.783528
vt 0.735459 0.774522
vt 0.729091 0.768155
vt 0.720086 0.768155
vt 0.713718 0.774522
vt 0.713718 0.783528
vt 0.720086 0.789896
vt 0.700104 0.884077
vt 0.701245 0.884304
vt 0.701245 0.886620
vt 0.699217 0.886217
vt 0.699136 0.883431
vt 0.697499 0.885068
vt 0.698263 0.881322
vt 0.698490 0.882463
vt 0.696350 0.883350
vt 0.695947 0.881322
vt 0.698490 0.880181
vt 0.696350 0.879295
vt 0.699136 0.879214
vt 0.697499 0.877576
vt 0.700104 0.878567
vt 0.699217 0.876427
vt 0.701245 0.878340
vt 0.701245 0.876024
vt 0.702386 0.878567
vt 0.703272 0.876427
vt 0.703353 0.879214
vt 0.704991 0.877576
vt 0.704000 0.880181
vt 0.706140 0.879295
vt 0.704227 0.881322
vt 0.706543 0.881322
vt 0.704000 0.882463
vt 0.706140 0.883350
vt 0.703353 0.883431
vt 0.704991 0.885068
vt 0.702386 0.884077
vt 0.703272 0.886217
vt 0.700104 0.884077
vt 0.699136 0.883431
vt 0.697499 0.885068
vt 0.699217 0.886217
vt 0.698490 0.882463
vt 0.696350 0.883350
vt 0.698263 0.881322
vt 0.695947 0.881322
vt 0.698490 0.880181
vt 0.696350 0.879295
vt 0.699136 0.879214
vt 0.697499 0.877576
vt 0.700104 0.878567
vt 0.699217 0.876427
vt 0.701245 0.878340
vt 0.701245 0.876024
vt 0.702386 0.878567
vt 0.703272 0.876427
vt 0.703353 0.879214
vt 0.704991 0.877576
vt 0.704000 0.880181
vt 0.706140 0.879295
vt 0.704227 0.881322
vt 0.706543 0.881322
vt 0.704000 0.882463
vt 0.706140 0.883350
vt 0.703353 0.883431
vt 0.704991 0.885068
vt 0.702386 0.884077
vt 0.703272 0.886217
vt 0.701245 0.884304
vt 0.701245 0.886620
vt 0.735459 0.774522
vt 0.735459 0.783528
vt 0.729091 0.768155
vt 0.720086 0.768155
vt 0.720086 0.789896
vt 0.729091 0.789896
vt 0.713718 0.783528
vt 0.713718 0.783528
vt 0.720086 0.789896
vt 0.713718 0.774522
vt 0.729091 0.768155
vt 0.735459 0.774522
vt 0.726616 0.774130
vt 0.729483 0.776998
vt 0.729483 0.776998
vt 0.726616 0.774130
vt 0.713718 0.774522
vt 0.735459 0.783528
vt 0.720086 0.768155
vt 0.729091 0.789896
vt 0.722561 0.783920
vt 0.726616 0.783920
vt 0.719694 0.781053
vt 0.719694 0.776998
vt 0.722561 0.774130
vt 0.729483 0.781053
vt 0.719694 0.781053
vt 0.722561 0.783920
vt 0.719694 0.776998
vt 0.722561 0.774130
vt 0.729483 0.781053
vt 0.726616 0.783920
vn 0.0000 -1.0000 0.0000
vn 0.0000 1.0000 0.0000
vn 0.7031 0.6487 0.2912
vn 0.8054 -0.4900 0.3336
vn 0.8054 -0.4900 -0.3336
vn 0.7031 0.6487 -0.2912
vn 0.2912 0.6488 0.7031
vn 0.3336 -0.4900 0.8054
vn -0.2912 0.6488 0.7031
vn -0.3336 -0.4900 0.8054
vn -0.2912 0.6488 -0.7031
vn 0.2912 0.6488 -0.7031
vn 0.3336 -0.4900 -0.8054
vn -0.3336 -0.4900 -0.8054
vn -0.7031 0.6488 -0.2912
vn -0.2270 0.9693 -0.0940
vn -0.0940 0.9693 -0.2270
vn -0.7031 0.6488 0.2912
vn -0.8054 -0.4900 0.3336
vn -0.8054 -0.4900 -0.3336
vn 0.0940 0.9693 0.2270
vn 0.2270 0.9693 0.0940
vn 0.2275 0.8042 0.5491
vn 0.5491 0.8042 0.2275
vn 0.7173 0.6303 0.2971
vn 0.2971 0.6303 0.7173
vn -0.2270 0.9693 0.0940
vn 0.2270 0.9693 -0.0940
vn -0.0940 0.9693 0.2270
vn 0.0940 0.9693 -0.2270
vn -0.2275 0.8042 -0.5491
vn 0.2275 0.8042 -0.5491
vn -0.5491 0.8042 -0.2275
vn -0.5491 0.8042 0.2275
vn -0.2275 0.8042 0.5491
vn 0.5491 0.8042 -0.2275
vn -0.7173 0.6303 -0.2971
vn -0.2971 0.6303 -0.7173
vn -0.7173 0.6303 0.2971
vn -0.2971 0.6303 0.7173
vn 0.7173 0.6303 -0.2971
vn 0.2971 0.6303 -0.7173
vn -0.6571 0.7538 -0.0000
vn -0.6071 0.7538 0.2515
vn -0.6071 -0.7538 0.2515
vn -0.6571 -0.7538 -0.0000
vn 0.6071 0.7538 -0.2515
vn 0.4647 0.7538 -0.4647
vn 0.4647 -0.7538 -0.4647
vn 0.6071 -0.7538 -0.2515
vn -0.6894 -0.6657 -0.2856
vn -0.7462 -0.6657 0.0000
vn -0.7462 0.6657 0.0000
vn -0.6894 0.6657 -0.2856
vn 0.6894 -0.6657 0.2856
vn 0.7462 -0.6657 0.0000
vn 0.7462 0.6657 0.0000
vn 0.6894 0.6657 0.2856
vn -0.6894 -0.6657 0.2856
vn -0.6894 0.6657 0.2856
vn 0.6894 -0.6657 -0.2856
vn 0.6894 0.6657 -0.2856
vn -0.5276 -0.6657 0.5276
vn -0.5276 0.6657 0.5276
vn 0.5276 -0.6657 -0.5276
vn 0.5276 0.6657 -0.5276
vn -0.2856 -0.6657 0.6894
vn -0.2856 0.6657 0.6894
vn 0.2856 -0.6657 -0.6894
vn 0.2856 0.6657 -0.6894
vn -0.0000 -0.6657 0.7462
vn -0.0000 0.6657 0.7462
vn -0.0000 -0.6657 -0.7462
vn -0.0000 0.6657 -0.7462
vn 0.2856 -0.6657 0.6894
vn 0.2856 0.6657 0.6894
vn -0.2856 -0.6657 -0.6894
vn -0.2856 0.6657 -0.6894
vn -0.5276 -0.6657 -0.5276
vn -0.5276 0.6657 -0.5276
vn 0.5276 -0.6657 0.5276
vn 0.5276 0.6657 0.5276
vn -0.4647 0.7538 0.4647
vn -0.4647 -0.7538 0.4647
vn 0.2515 0.7538 -0.6071
vn 0.2515 -0.7538 -0.6071
vn -0.2515 0.7538 0.6071
vn -0.2515 -0.7538 0.6071
vn 0.0000 0.7538 -0.6571
vn 0.0000 -0.7538 -0.6571
vn 0.0000 0.7538 0.6571
vn 0.0000 -0.7538 0.6571
vn -0.2515 0.7538 -0.6071
vn -0.2515 -0.7538 -0.6071
vn 0.2515 0.7538 0.6071
vn 0.2515 -0.7538 0.6071
vn 0.4647 0.7538 0.4647
vn 0.6071 0.7538 0.2515
vn 0.6071 -0.7538 0.2515
vn 0.4647 -0.7538 0.4647
vn -0.4647 0.7538 -0.4647
vn -0.4647 -0.7538 -0.4647
vn -0.6071 0.7538 -0.2515
vn -0.6071 -0.7538 -0.2515
vn 0.6571 0.7538 0.0000
vn 0.6571 -0.7538 0.0000
usemtl Palette
s off
f 1/1/1 2/2/1 3/3/1 4/4/1 5/5/1 6/6/1 7/7/1 8/8/1
f 57/9/2 58/10/2 74/11/2 73/12/2
f 59/13/2 57/9/2 73/12/2 75/14/2
f 60/15/2 61/16/2 77/17/2 76/18/2
f 62/19/2 60/15/2 76/18/2 78/20/2
f 63/21/2 62/19/2 78/20/2 79/22/2
f 64/23/2 63/21/2 79/22/2 80/24/2
f 65/25/2 64/23/2 80/24/2 81/26/2
f 66/27/2 65/25/2 81/26/2 82/28/2
f 67/29/2 66/27/2 82/28/2 83/30/2
f 68/31/2 67/29/2 83/30/2 84/32/2
f 69/33/2 68/31/2 84/32/2 85/34/2
f 70/35/2 69/33/2 85/34/2 86/36/2
f 71/37/2 70/35/2 86/36/2 87/38/2
f 72/39/2 71/37/2 87/38/2 88/40/2
f 58/10/2 72/39/2 88/40/2 74/11/2
f 61/16/2 59/13/2 75/14/2 77/17/2
f 89/41/1 91/42/1 43/43/1 41/44/1
f 91/42/1 93/45/1 45/46/1 43/43/1
f 93/45/1 92/47/1 44/48/1 45/46/1
f 92/47/1 94/49/1 46/50/1 44/48/1
f 94/49/1 95/51/1 47/52/1 46/50/1
f 95/51/1 96/53/1 48/54/1 47/52/1
f 96/53/1 97/55/1 49/56/1 48/54/1
f 97/55/1 98/57/1 50/58/1 49/56/1
f 98/57/1 99/59/1 51/60/1 50/58/1
f 99/59/1 100/61/1 52/62/1 51/60/1
f 100/61/1 101/63/1 53/64/1 52/62/1
f 101/63/1 102/65/1 54/66/1 53/64/1
f 102/65/1 103/67/1 55/68/1 54/66/1
f 103/67/1 104/69/1 56/70/1 55/68/1
f 104/69/1 90/71/1 42/72/1 56/70/1
f 90/71/1 89/41/1 41/44/1 42/72/1
s 1
f 14/73/3 3/3/4 2/2/5 15/74/6
f 3/3/4 14/73/3 13/75/7 4/4/8
f 4/4/8 13/75/7 12/76/9 5/5/10
f 9/77/11 16/78/12 1/1/13 8/8/14
f 10/79/15 26/80/16 25/81/17 9/77/11
f 15/74/6 2/2/5 1/1/13 16/78/12
f 11/82/18 6/6/19 5/5/10 12/76/9
f 10/79/15 7/7/20 6/6/19 11/82/18
f 29/83/21 13/75/7 14/73/3 30/84/22
f 21/85/23 22/86/24 38/87/25 37/88/26
f 11/82/18 27/89/27 26/80/16 10/79/15
f 15/74/6 31/90/28 30/84/22 14/73/3
f 12/76/9 28/91/29 27/89/27 11/82/18
f 16/78/12 32/92/30 31/90/28 15/74/6
f 13/75/7 29/83/21 28/91/29 12/76/9
f 9/77/11 25/81/17 32/92/30 16/78/12
f 17/93/31 24/94/32 32/92/30 25/81/17
f 18/95/33 17/93/31 25/81/17 26/80/16
f 19/96/34 18/95/33 26/80/16 27/89/27
f 20/97/35 19/96/34 27/89/27 28/91/29
f 21/85/23 20/97/35 28/91/29 29/83/21
f 22/86/24 21/85/23 29/83/21 30/84/22
f 23/98/36 22/86/24 30/84/22 31/90/28
f 24/94/32 23/98/36 31/90/28 32/92/30
f 17/93/31 18/95/33 34/99/37 33/100/38
f 33/100/38 34/99/37 35/101/39 36/102/40 37/88/26 38/87/25 39/103/41 40/104/42
f 18/95/33 19/96/34 35/101/39 34/99/37
f 22/86/24 23/98/36 39/103/41 38/87/25
f 19/96/34 20/97/35 36/102/40 35/101/39
f 23/98/36 24/94/32 40/104/42 39/103/41
f 20/97/35 21/85/23 37/88/26 36/102/40
f 17/93/31 33/100/38 40/104/42 24/94/32
f 69/33/43 70/35/44 102/65/45 101/63/46
f 62/19/47 63/21/48 95/51/49 94/49/50
f 45/46/51 44/48/52 76/18/53 77/17/54
f 52/62/55 53/64/56 85/34/57 84/32/58
f 44/48/52 46/50/59 78/20/60 76/18/53
f 53/64/56 54/66/61 86/36/62 85/34/57
f 46/50/59 47/52/63 79/22/64 78/20/60
f 54/66/61 55/68/65 87/38/66 86/36/62
f 47/52/63 48/54/67 80/24/68 79/22/64
f 55/68/65 56/70/69 88/40/70 87/38/66
f 48/54/67 49/56/71 81/26/72 80/24/68
f 56/70/69 42/72/73 74/11/74 88/40/70
f 49/56/71 50/58/75 82/28/76 81/26/72
f 42/72/73 41/44/77 73/12/78 74/11/74
f 43/43/79 45/46/51 77/17/54 75/14/80
f 50/58/75 51/60/81 83/30/82 82/28/76
f 41/44/77 43/43/79 75/14/80 73/12/78
f 51/60/81 52/62/55 84/32/58 83/30/82
f 70/35/44 71/37/83 103/67/84 102/65/45
f 63/21/48 64/23/85 96/53/86 95/51/49
f 71/37/83 72/39/87 104/69/88 103/67/84
f 64/23/85 65/25/89 97/55/90 96/53/86
f 72/39/87 58/10/91 90/71/92 104/69/88
f 65/25/89 66/27/93 98/57/94 97/55/90
f 58/10/91 57/9/95 89/41/96 90/71/92
f 59/13/97 61/16/98 93/45/99 91/42/100
f 66/27/93 67/29/101 99/59/102 98/57/94
f 57/9/95 59/13/97 91/42/100 89/41/96
f 67/29/101 68/31/103 100/61/104 99/59/102
f 61/16/98 60/15/105 92/47/106 93/45/99
f 68/31/103 69/33/43 101/63/46 100/61/104
f 60/15/105 62/19/47 94/49/50 92/47/106
f 7/7/20 10/79/15 9/77/11 8/8/14
