# Blender v3.3.1 OBJ File: 'Office Set.blend'
# www.blender.org
mtllib MarkerEraser.mtl
o MarkerEraser_Cube.179
v 13.577685 0.948271 -0.251113
v 13.455060 0.948271 -0.251113
v 13.577685 0.948271 -0.207633
v 13.455060 0.948271 -0.207633
v 13.577685 0.961857 -0.251113
v 13.455060 0.961857 -0.251113
v 13.455060 0.961857 -0.207633
v 13.577685 0.961857 -0.207633
v 13.574781 0.957880 -0.256235
v 13.583509 0.957880 -0.248510
v 13.579145 0.957880 -0.255200
v 13.582340 0.957880 -0.252373
v 13.449234 0.957880 -0.248510
v 13.457962 0.957880 -0.256235
v 13.450403 0.957880 -0.252373
v 13.453598 0.957880 -0.255200
v 13.457962 0.957880 -0.202511
v 13.449234 0.957880 -0.210237
v 13.453598 0.957880 -0.203546
v 13.450403 0.957880 -0.206374
v 13.583509 0.957880 -0.210237
v 13.574781 0.957880 -0.202511
v 13.582340 0.957880 -0.206374
v 13.579145 0.957880 -0.203546
v 13.583509 0.978640 -0.248510
v 13.574781 0.978640 -0.256235
v 13.582340 0.978640 -0.252373
v 13.579145 0.978640 -0.255200
v 13.457962 0.978640 -0.256235
v 13.449234 0.978640 -0.248510
v 13.453598 0.978640 -0.255200
v 13.450403 0.978640 -0.252373
v 13.449234 0.978640 -0.210237
v 13.457962 0.978640 -0.202511
v 13.450403 0.978640 -0.206374
v 13.453598 0.978640 -0.203546
v 13.574781 0.978640 -0.202511
v 13.583509 0.978640 -0.210237
v 13.579145 0.978640 -0.203546
v 13.582340 0.978640 -0.206374
vt 0.120752 0.948398
vt 0.120752 0.980587
vt 0.152940 0.980587
vt 0.152940 0.948398
vt 0.152940 0.980587
vt 0.152940 0.948398
vt 0.120752 0.948398
vt 0.120752 0.980587
vt 0.308474 0.692445
vt 0.308474 0.716719
vt 0.308474 0.716719
vt 0.308474 0.692445
vt 0.274400 0.692445
vt 0.274499 0.689995
vt 0.275508 0.687764
vt 0.276615 0.687545
vt 0.306259 0.687545
vt 0.307367 0.687764
vt 0.308375 0.689995
vt 0.308375 0.719169
vt 0.307367 0.721400
vt 0.306259 0.721619
vt 0.276615 0.721619
vt 0.275508 0.721400
vt 0.274499 0.719169
vt 0.274400 0.716719
vt 0.276615 0.687545
vt 0.275508 0.687764
vt 0.274499 0.689995
vt 0.274400 0.692445
vt 0.274400 0.716719
vt 0.274499 0.719169
vt 0.275508 0.721400
vt 0.276615 0.721619
vt 0.306259 0.721619
vt 0.307367 0.721400
vt 0.308375 0.719169
vt 0.308375 0.689995
vt 0.307367 0.687764
vt 0.306259 0.687545
vn 0.0000 -1.0000 0.0000
vn 1.0000 0.0000 0.0000
vn -1.0000 0.0000 0.0000
vn 0.0000 0.0000 1.0000
vn 0.0000 0.0000 -1.0000
vn 1.0000 0.0001 0.0000
vn 0.0000 1.0000 0.0000
vn 0.9571 -0.0000 0.2897
vn 0.6628 0.0000 0.7488
vn 0.2308 0.0000 0.9730
vn -0.9571 0.0000 0.2897
vn -0.6628 0.0000 0.7488
vn -0.2308 0.0000 0.9730
vn -0.9571 0.0000 -0.2897
vn -0.6628 0.0000 -0.7488
vn -0.2308 0.0000 -0.9730
vn 0.9571 0.0000 -0.2897
vn 0.6628 0.0000 -0.7488
vn 0.2308 0.0000 -0.9730
usemtl Palette
s off
f 4/1/1 2/2/1 1/3/1 3/4/1
f 3/4/2 1/3/2 5/5/2 8/6/2
f 2/2/3 4/1/3 7/7/3 6/8/3
f 4/1/4 3/4/4 8/6/4 7/7/4
f 1/3/5 2/2/5 6/8/5 5/5/5
f 21/9/6 10/10/6 25/11/6 38/12/6
f 33/13/7 35/14/7 36/15/7 34/16/7 37/17/7 39/18/7 40/19/7 38/12/7 25/11/7 27/20/7 28/21/7 26/22/7 29/23/7 31/24/7 32/25/7 30/26/7
f 17/27/1 19/28/1 20/29/1 18/30/1 13/31/1 15/32/1 16/33/1 14/34/1 9/35/1 11/36/1 12/37/1 10/10/1 21/9/1 23/38/1 24/39/1 22/40/1
f 13/31/3 18/30/3 33/13/3 30/26/3
f 17/27/4 22/40/4 37/17/4 34/16/4
f 21/9/8 38/12/8 40/19/8 23/38/8
f 23/38/9 40/19/9 39/18/9 24/39/9
f 24/39/10 39/18/10 37/17/10 22/40/10
f 33/13/11 18/30/11 20/29/11 35/14/11
f 35/14/12 20/29/12 19/28/12 36/15/12
f 36/15/13 19/28/13 17/27/13 34/16/13
f 13/31/14 30/26/14 32/25/14 15/32/14
f 15/32/15 32/25/15 31/24/15 16/33/15
f 16/33/16 31/24/16 29/23/16 14/34/16
f 25/11/17 10/10/17 12/37/17 27/20/17
f 27/20/18 12/37/18 11/36/18 28/21/18
f 28/21/19 11/36/19 9/35/19 26/22/19
f 9/35/5 14/34/5 29/23/5 26/22/5
