# Blender v3.3.1 OBJ File: 'Office Set.blend'
# www.blender.org
mtllib Nature_Deco_Small.mtl
o Nature_Deco_Small_Cylinder.005
v -13.631117 0.655235 2.081117
v -13.368883 0.655235 2.081117
v -13.631117 0.655235 0.918883
v -13.368883 0.655235 0.918883
v -13.312500 0.000000 0.862500
v -13.687500 0.000000 0.862500
v -13.312500 0.000000 2.137500
v -13.687500 0.000000 2.137500
v -13.687500 0.655235 0.862500
v -13.687500 0.655235 2.137500
v -13.312500 0.655235 2.137500
v -13.312500 0.655235 0.862500
v -13.631117 0.590003 0.918883
v -13.631117 0.590003 2.081117
v -13.368883 0.590003 2.081117
v -13.368883 0.590003 0.918883
vt 0.968976 0.728959
vt 0.936787 0.728959
vt 0.936787 0.728959
vt 0.968976 0.728959
vt 0.936787 0.696771
vt 0.936787 0.696771
vt 0.964136 0.727536
vt 0.941627 0.727536
vt 0.941627 0.727536
vt 0.964136 0.727536
vt 0.968976 0.696771
vt 0.968976 0.696771
vt 0.941627 0.698194
vt 0.964136 0.698194
vt 0.958715 0.858939
vt 0.982543 0.858939
vt 0.982543 0.890000
vt 0.958715 0.890000
vt 0.964136 0.698194
vt 0.941627 0.698194
vn 0.0000 0.0000 -1.0000
vn -1.0000 0.0000 0.0000
vn 0.0000 0.0000 1.0000
vn 0.0000 -1.0000 0.0000
vn 1.0000 0.0000 0.0000
vn 0.0000 1.0000 0.0000
usemtl Palette
s off
f 5/1/1 6/2/1 9/3/1 12/4/1
f 6/2/2 8/5/2 10/6/2 9/3/2
f 4/7/3 3/8/3 13/9/3 16/10/3
f 8/5/4 6/2/4 5/1/4 7/11/4
f 7/11/5 5/1/5 12/4/5 11/12/5
f 8/5/3 7/11/3 11/12/3 10/6/3
f 1/13/6 3/8/6 9/3/6 10/6/6
f 2/14/6 1/13/6 10/6/6 11/12/6
f 4/7/6 2/14/6 11/12/6 12/4/6
f 3/8/6 4/7/6 12/4/6 9/3/6
f 14/15/6 15/16/6 16/17/6 13/18/6
f 1/13/1 2/14/1 15/19/1 14/20/1
f 2/14/2 4/7/2 16/10/2 15/19/2
f 3/8/5 1/13/5 14/20/5 13/9/5
