# Blender v3.3.1 OBJ File: 'Office Set.blend'
# www.blender.org
mtllib Office_Files_B.mtl
o Office_Files_B_Cube.116
v -8.378127 0.975791 5.323901
v -8.378127 0.975791 5.689015
v -8.621873 0.975791 5.689015
v -8.621873 0.975791 5.323901
v -8.621873 0.950000 5.689015
v -8.378127 0.950000 5.689015
v -8.621873 0.950000 5.323901
v -8.378127 0.950000 5.323901
v -8.386072 1.003491 5.318840
v -8.370405 1.003491 5.683618
v -8.613927 1.003491 5.694077
v -8.629595 1.003491 5.329299
v -8.613927 0.974984 5.694077
v -8.370405 0.974984 5.683618
v -8.629595 0.974984 5.329299
v -8.386072 0.974984 5.318840
v -8.390090 1.005617 5.270689
v -8.366666 1.016956 5.635050
v -8.609910 1.016956 5.650688
v -8.633334 1.005617 5.286326
v -8.609910 1.003034 5.650688
v -8.366666 1.003034 5.635050
v -8.633334 0.991694 5.286326
v -8.390090 0.991694 5.270689
v -8.378039 1.063012 5.283628
v -8.378214 1.063012 5.648743
v -8.621961 1.063012 5.648626
v -8.621786 1.063012 5.283512
v -8.621961 1.030094 5.648626
v -8.378214 1.030094 5.648743
v -8.621786 1.030094 5.283512
v -8.378039 1.030094 5.283628
v -8.385066 1.029733 5.292752
v -8.371360 1.023214 5.657609
v -8.614934 1.023214 5.666759
v -8.628640 1.029733 5.301903
v -8.614934 1.010166 5.666759
v -8.371360 1.010166 5.657609
v -8.628640 1.016685 5.301903
v -8.385066 1.016685 5.292752
v -8.372938 1.029733 5.615586
v -8.616512 1.029733 5.624736
v -8.616512 1.016685 5.624736
v -8.372938 1.016685 5.615586
v -8.388034 1.016956 5.302665
v -8.631278 1.016956 5.318303
v -8.631278 1.003034 5.318303
v -8.388034 1.003034 5.302665
v -8.378366 1.053939 5.254907
v -8.386671 1.076261 5.615377
v -8.630355 1.076261 5.609832
v -8.622049 1.053939 5.249363
v -8.630355 1.062339 5.609832
v -8.386671 1.062339 5.615377
v -8.622049 1.040017 5.249363
v -8.378366 1.040017 5.254907
v -8.379095 1.076261 5.282391
v -8.622778 1.076261 5.276847
v -8.622778 1.062339 5.276847
v -8.379095 1.062339 5.282391
v -8.378730 1.070591 5.266374
v -8.378730 1.056669 5.266374
v -8.622414 1.070591 5.260829
v -8.622414 1.056669 5.260829
vt 0.689225 0.810481
vt 0.689225 0.810481
vt 0.723299 0.810481
vt 0.723299 0.810481
vt 0.689225 0.776407
vt 0.723299 0.776407
vt 0.723299 0.776407
vt 0.689225 0.776407
vt 0.689225 0.810481
vt 0.689225 0.810481
vt 0.723299 0.810481
vt 0.723299 0.810481
vt 0.689225 0.776407
vt 0.723299 0.776407
vt 0.723299 0.776407
vt 0.689225 0.776407
vt 0.689225 0.810481
vt 0.689225 0.810481
vt 0.723299 0.810481
vt 0.723299 0.810481
vt 0.689225 0.807491
vt 0.723299 0.807491
vt 0.723299 0.807491
vt 0.723299 0.776407
vt 0.723299 0.776407
vt 0.689225 0.807491
vt 0.689225 0.776407
vt 0.689225 0.776407
vt 0.689225 0.810481
vt 0.689225 0.810481
vt 0.723299 0.810481
vt 0.723299 0.810481
vt 0.689225 0.776407
vt 0.723299 0.776407
vt 0.723299 0.776407
vt 0.689225 0.776407
vt 0.689225 0.810481
vt 0.689225 0.810481
vt 0.723299 0.810481
vt 0.723299 0.810481
vt 0.689225 0.780331
vt 0.723299 0.780331
vt 0.723299 0.780331
vt 0.723299 0.776407
vt 0.723299 0.776407
vt 0.689225 0.780331
vt 0.689225 0.776407
vt 0.689225 0.776407
vt 0.689225 0.810481
vt 0.689225 0.810481
vt 0.723299 0.810481
vt 0.723299 0.810481
vt 0.689225 0.808986
vt 0.723299 0.808986
vt 0.723299 0.807491
vt 0.723299 0.807491
vt 0.723299 0.776407
vt 0.723299 0.776407
vt 0.689225 0.808986
vt 0.689225 0.776407
vt 0.689225 0.776407
vt 0.723299 0.808986
vt 0.689225 0.807491
vt 0.689225 0.807491
vn 0.0000 0.0000 -1.0000
vn 0.0000 1.0000 0.0000
vn 1.0000 0.0000 0.0000
vn -1.0000 0.0000 0.0000
vn 0.0000 0.0000 1.0000
vn 0.0000 -1.0000 0.0000
vn -0.0429 0.0000 -0.9991
vn 0.9991 0.0000 -0.0429
vn -0.9991 0.0000 0.0429
vn 0.0429 0.0000 0.9991
vn -0.0642 0.0000 -0.9979
vn -0.0214 0.9427 -0.3329
vn 0.9979 0.0000 -0.0642
vn -0.9979 0.0000 0.0642
vn 0.0642 0.0000 0.9979
vn 0.0214 -0.9427 0.3329
vn 0.0005 0.0000 -1.0000
vn 1.0000 0.0000 0.0005
vn -1.0000 0.0000 -0.0005
vn -0.0005 0.0000 1.0000
vn -0.0375 0.0000 -0.9993
vn 0.9993 0.0000 -0.0375
vn -0.9993 0.0000 0.0375
vn 0.0375 0.0000 0.9993
vn -0.0058 -0.9882 -0.1531
vn 0.0058 0.9882 0.1531
vn 0.0227 0.0000 -0.9997
vn 0.0187 0.5673 -0.8233
vn 0.9997 0.0000 0.0227
vn -0.9995 0.0000 -0.0318
vn -0.0227 0.0000 0.9997
vn -0.0187 -0.5673 0.8233
vn -0.9997 0.0000 -0.0227
vn 0.9997 0.0000 0.0228
vn 0.9995 0.0000 0.0318
vn -0.0076 -0.9427 0.3335
vn 0.0076 0.9427 -0.3335
usemtl Palette
s off
f 7/1/1 4/2/1 1/3/1 8/4/1
f 3/5/2 2/6/2 1/3/2 4/2/2
f 8/4/3 1/3/3 2/6/3 6/7/3
f 5/8/4 3/5/4 4/2/4 7/1/4
f 6/7/5 2/6/5 3/5/5 5/8/5
f 5/8/6 7/1/6 8/4/6 6/7/6
f 15/9/7 12/10/7 9/11/7 16/12/7
f 11/13/2 10/14/2 9/11/2 12/10/2
f 16/12/8 9/11/8 10/14/8 14/15/8
f 13/16/9 11/13/9 12/10/9 15/9/9
f 14/15/10 10/14/10 11/13/10 13/16/10
f 13/16/6 15/9/6 16/12/6 14/15/6
f 23/17/11 20/18/11 17/19/11 24/20/11
f 46/21/12 45/22/12 17/19/12 20/18/12
f 48/23/13 45/22/13 18/24/13 22/25/13
f 47/26/14 46/21/14 20/18/14 23/17/14
f 22/25/15 18/24/15 19/27/15 21/28/15
f 47/26/16 23/17/16 24/20/16 48/23/16
f 31/29/17 28/30/17 25/31/17 32/32/17
f 27/33/2 26/34/2 25/31/2 28/30/2
f 32/32/18 25/31/18 26/34/18 30/35/18
f 29/36/19 27/33/19 28/30/19 31/29/19
f 30/35/20 26/34/20 27/33/20 29/36/20
f 29/36/6 31/29/6 32/32/6 30/35/6
f 39/37/21 36/38/21 33/39/21 40/40/21
f 42/41/2 41/42/2 33/39/2 36/38/2
f 44/43/22 41/42/22 34/44/22 38/45/22
f 43/46/23 42/41/23 36/38/23 39/37/23
f 38/45/24 34/44/24 35/47/24 37/48/24
f 43/46/6 39/37/6 40/40/6 44/43/6
f 37/48/25 43/46/25 44/43/25 38/45/25
f 37/48/23 35/47/23 42/41/23 43/46/23
f 40/40/22 33/39/22 41/42/22 44/43/22
f 35/47/26 34/44/26 41/42/26 42/41/26
f 21/28/6 47/26/6 48/23/6 22/25/6
f 21/28/14 19/27/14 46/21/14 47/26/14
f 24/20/13 17/19/13 45/22/13 48/23/13
f 19/27/2 18/24/2 45/22/2 46/21/2
f 55/49/27 52/50/27 49/51/27 56/52/27
f 63/53/28 61/54/28 49/51/28 52/50/28
f 60/55/29 57/56/29 50/57/29 54/58/29
f 64/59/30 63/53/30 52/50/30 55/49/30
f 54/58/31 50/57/31 51/60/31 53/61/31
f 64/59/32 55/49/32 56/52/32 62/62/32
f 53/61/6 59/63/6 60/55/6 54/58/6
f 53/61/33 51/60/33 58/64/33 59/63/33
f 62/62/34 61/54/34 57/56/34 60/55/34
f 51/60/2 50/57/2 57/56/2 58/64/2
f 56/52/35 49/51/35 61/54/35 62/62/35
f 59/63/36 64/59/36 62/62/36 60/55/36
f 59/63/33 58/64/33 63/53/33 64/59/33
f 58/64/37 57/56/37 61/54/37 63/53/37
