# Blender v3.3.1 OBJ File: 'Office Set.blend'
# www.blender.org
mtllib Office_Files_E.mtl
o Office_Files_E_Cube.373
v -8.878127 1.145218 5.965338
v -8.888225 0.811751 5.965338
v -9.120464 0.811751 5.965338
v -9.121873 1.145218 5.965338
v -9.120464 0.811751 5.937871
v -8.888225 0.811751 5.937871
v -9.121873 1.145218 5.937871
v -8.878127 1.145218 5.937871
v -8.886072 1.145734 5.994420
v -8.885223 0.811751 5.994420
v -9.116192 0.811751 5.994420
v -9.120865 1.139820 5.994420
v -9.116192 0.811751 5.965911
v -8.885223 0.811751 5.965911
v -9.120865 1.139820 5.965911
v -8.886072 1.145734 5.965911
v -8.883770 0.811751 6.063868
v -9.114032 0.811751 6.063868
v -9.114032 0.811751 6.023863
v -8.883770 0.811751 6.023863
v -8.882846 1.145399 5.994303
v -9.119572 1.144282 5.994303
v -9.119572 1.144282 6.023810
v -8.882846 1.145399 6.023810
v -8.891545 0.811751 5.994303
v -9.125025 0.811751 5.994303
v -9.125025 0.811751 6.023810
v -8.891545 0.811751 6.023810
v -8.888034 1.145854 6.063868
v -9.122548 1.150816 6.063868
v -9.122548 1.150816 6.023863
v -8.888034 1.145854 6.023863
v -8.878127 1.145218 6.081899
v -8.888225 0.811751 6.081899
v -9.120464 0.811751 6.081899
v -9.121873 1.145218 6.081899
v -9.120464 0.811751 6.064003
v -8.888225 0.811751 6.064003
v -9.121873 1.145218 6.064003
v -8.878127 1.145218 6.064003
vt 0.689225 0.810481
vt 0.689225 0.810481
vt 0.723299 0.810481
vt 0.723299 0.810481
vt 0.689225 0.776407
vt 0.723299 0.776407
vt 0.723299 0.776407
vt 0.689225 0.776407
vt 0.689225 0.810481
vt 0.689225 0.810481
vt 0.723299 0.810481
vt 0.723299 0.810481
vt 0.689225 0.776407
vt 0.723299 0.776407
vt 0.723299 0.776407
vt 0.689225 0.776407
vt 0.723299 0.807491
vt 0.723299 0.807491
vt 0.723299 0.776407
vt 0.723299 0.776407
vt 0.689225 0.807491
vt 0.689225 0.807491
vt 0.689225 0.776407
vt 0.689225 0.776407
vt 0.689225 0.776407
vt 0.689225 0.776407
vt 0.689225 0.807491
vt 0.689225 0.807491
vt 0.723299 0.776407
vt 0.723299 0.807491
vt 0.723299 0.807491
vt 0.723299 0.776407
vt 0.689225 0.810481
vt 0.689225 0.810481
vt 0.723299 0.810481
vt 0.723299 0.810481
vt 0.689225 0.776407
vt 0.723299 0.776407
vt 0.723299 0.776407
vt 0.689225 0.776407
vn 0.0000 1.0000 0.0000
vn 0.0000 0.0000 1.0000
vn 0.9995 -0.0303 0.0000
vn -1.0000 -0.0042 0.0000
vn 0.0000 -1.0000 0.0000
vn 0.0000 0.0000 -1.0000
vn -0.0252 0.9997 0.0000
vn 1.0000 0.0025 0.0000
vn -0.9999 -0.0142 0.0000
vn 0.9999 0.0128 0.0000
vn 0.0212 0.9998 0.0000
vn -0.9999 0.0164 0.0000
vn 0.9997 -0.0261 0.0000
vn -0.0047 1.0000 0.0000
vn -0.9997 -0.0251 0.0000
usemtl Palette
s off
f 7/1/1 4/2/1 1/3/1 8/4/1
f 3/5/2 2/6/2 1/3/2 4/2/2
f 8/4/3 1/3/3 2/6/3 6/7/3
f 5/8/4 3/5/4 4/2/4 7/1/4
f 6/7/5 2/6/5 3/5/5 5/8/5
f 5/8/6 7/1/6 8/4/6 6/7/6
f 15/9/7 12/10/7 9/11/7 16/12/7
f 11/13/2 10/14/2 9/11/2 12/10/2
f 16/12/8 9/11/8 10/14/8 14/15/8
f 13/16/9 11/13/9 12/10/9 15/9/9
f 14/15/5 10/14/5 11/13/5 13/16/5
f 13/16/6 15/9/6 16/12/6 14/15/6
f 32/17/10 29/18/10 17/19/10 20/20/10
f 32/17/11 31/21/11 30/22/11 29/18/11
f 20/20/5 17/19/5 18/23/5 19/24/5
f 26/25/12 27/26/12 23/27/12 22/28/12
f 27/26/2 28/29/2 24/30/2 23/27/2
f 26/25/6 22/28/6 21/31/6 25/32/6
f 21/31/13 24/30/13 28/29/13 25/32/13
f 25/32/5 28/29/5 27/26/5 26/25/5
f 21/31/14 22/28/14 23/27/14 24/30/14
f 19/24/6 31/21/6 32/17/6 20/20/6
f 19/24/15 18/23/15 30/22/15 31/21/15
f 18/23/2 17/19/2 29/18/2 30/22/2
f 39/33/1 36/34/1 33/35/1 40/36/1
f 35/37/2 34/38/2 33/35/2 36/34/2
f 40/36/3 33/35/3 34/38/3 38/39/3
f 37/40/4 35/37/4 36/34/4 39/33/4
f 38/39/5 34/38/5 35/37/5 37/40/5
f 37/40/6 39/33/6 40/36/6 38/39/6
