# Blender v3.3.1 OBJ File: 'Office Set.blend'
# www.blender.org
mtllib Office_Files_C.mtl
o Office_Files_C_Cube.123
v -8.878127 0.961400 5.323901
v -8.878127 0.961400 5.689015
v -9.121873 0.961400 5.689015
v -9.121873 0.961400 5.323901
v -9.121873 0.950000 5.689015
v -8.878127 0.950000 5.689015
v -9.121873 0.950000 5.323901
v -8.878127 0.950000 5.323901
v -8.875813 0.955127 5.311319
v -9.113938 0.961540 5.307864
v -8.878448 0.961540 5.678358
v -9.122134 0.961540 5.672886
v -9.113938 0.972940 5.307864
v -9.122134 0.972940 5.672886
v -8.878448 0.972940 5.678358
v -8.875813 0.966528 5.311319
v -8.870470 0.972940 5.322975
v -8.870470 0.961540 5.322975
v -8.891061 0.972940 5.312868
v -8.891061 0.961540 5.312868
vt 0.689225 0.810481
vt 0.689225 0.810481
vt 0.723299 0.810481
vt 0.723299 0.810481
vt 0.689225 0.776407
vt 0.723299 0.776407
vt 0.723299 0.776407
vt 0.689225 0.776407
vt 0.723299 0.776407
vt 0.723299 0.776407
vt 0.689225 0.776407
vt 0.689225 0.776407
vt 0.689225 0.810481
vt 0.720390 0.810481
vt 0.723299 0.809581
vt 0.689225 0.810481
vt 0.723299 0.809581
vt 0.720390 0.810481
vt 0.723299 0.810481
vt 0.723299 0.810481
vn 0.0000 0.0000 -1.0000
vn 0.0000 1.0000 0.0000
vn 1.0000 0.0000 0.0000
vn -1.0000 0.0000 0.0000
vn 0.0000 0.0000 1.0000
vn 0.0000 -1.0000 0.0000
vn -0.0224 0.0000 0.9997
vn -0.9997 0.0000 -0.0224
vn 0.9091 0.0000 -0.4167
vn 0.0224 0.0000 -0.9997
vn 0.2733 0.7844 -0.5568
vn 0.9997 0.0000 0.0224
vn -0.2733 -0.7844 0.5568
vn -0.1011 0.0000 -0.9949
usemtl Palette
s off
f 7/1/1 4/2/1 1/3/1 8/4/1
f 3/5/2 2/6/2 1/3/2 4/2/2
f 8/4/3 1/3/3 2/6/3 6/7/3
f 5/8/4 3/5/4 4/2/4 7/1/4
f 6/7/5 2/6/5 3/5/5 5/8/5
f 5/8/6 7/1/6 8/4/6 6/7/6
f 11/9/7 15/10/7 14/11/7 12/12/7
f 12/12/6 10/13/6 20/14/6 18/15/6 11/9/6
f 12/12/8 14/11/8 13/16/8 10/13/8
f 14/11/2 15/10/2 17/17/2 19/18/2 13/16/2
f 9/19/9 16/20/9 17/17/9 18/15/9
f 10/13/10 13/16/10 19/18/10 20/14/10
f 17/17/11 16/20/11 19/18/11
f 17/17/12 15/10/12 11/9/12 18/15/12
f 20/14/13 9/19/13 18/15/13
f 19/18/14 16/20/14 9/19/14 20/14/14
