# Blender v3.3.1 OBJ File: 'Office Set.blend'
# www.blender.org
mtllib Office_Desk_4_Two.mtl
o Office_Desk_4_Two_Cube.089
v 2.684252 0.949037 -1.875000
v 2.684252 0.873724 -1.875000
v 2.684252 0.949037 -1.125000
v 2.684252 0.873724 -1.125000
v 2.628777 -0.001885 -1.223171
v 2.628777 0.896389 -1.223171
v 2.671511 -0.001885 -1.223171
v 2.671511 0.896389 -1.223171
v 2.671511 0.896389 -1.788486
v 2.671511 -0.001885 -1.788486
v 2.628777 -0.001885 -1.852898
v 2.628777 0.896389 -1.852898
v 2.628777 0.896389 -1.788486
v 2.628777 -0.001885 -1.788486
v 2.671511 -0.001885 -1.852898
v 2.671511 0.896389 -1.852898
v 2.077927 -0.001885 -1.223171
v 2.077927 0.896389 -1.223171
v 2.120661 -0.001885 -1.223171
v 2.120661 0.896389 -1.223171
v 2.120661 0.896389 -1.788486
v 2.120661 -0.001885 -1.788486
v 2.077927 0.896389 -1.788486
v 2.077927 -0.001885 -1.788486
v 2.680382 0.896389 -1.796773
v 2.680382 -0.001885 -1.796773
v 2.613241 -0.001885 -1.866269
v 2.613241 0.896389 -1.866269
v 2.680382 -0.001885 -1.866269
v 2.680382 0.896389 -1.866269
v 2.680382 0.896389 -1.243043
v 2.680382 -0.001885 -1.243043
v 2.680382 -0.001885 -1.312540
v 2.680382 0.896389 -1.312540
v 2.668932 0.896389 -1.243043
v 2.668932 0.896389 -1.312540
v 2.668932 -0.001885 -1.312540
v 2.668932 -0.001885 -1.243043
v 1.998470 0.896389 -1.866269
v 1.998470 -0.001885 -1.866269
v 1.928974 -0.001885 -1.866269
v 1.928974 0.896389 -1.866269
v 1.998470 0.896389 -1.854819
v 1.928974 0.896389 -1.854819
v 1.928974 -0.001885 -1.854819
v 1.998470 -0.001885 -1.854819
v 0.308885 0.949037 -1.875000
v 0.308885 0.873724 -1.875000
v 0.308885 0.949037 -1.125000
v 0.308885 0.873724 -1.125000
v 0.371223 -0.001885 -1.223171
v 0.371223 0.896389 -1.223171
v 0.328489 -0.001885 -1.223171
v 0.328489 0.896389 -1.223171
v 0.328489 0.896389 -1.788486
v 0.328489 -0.001885 -1.788486
v 0.371223 -0.001885 -1.852898
v 0.371223 0.896389 -1.852898
v 0.371223 0.896389 -1.788486
v 0.371223 -0.001885 -1.788486
v 0.328489 -0.001885 -1.852898
v 0.328489 0.896389 -1.852898
v 1.068695 0.873724 -1.875000
v 1.068695 0.949037 -1.125000
v 1.068695 0.949037 -1.875000
v 1.068695 0.873724 -1.125000
v 0.922073 -0.001885 -1.223171
v 0.922073 0.896389 -1.223171
v 0.879339 -0.001885 -1.223171
v 0.879339 0.896389 -1.223171
v 0.879339 0.896389 -1.788486
v 0.879339 -0.001885 -1.788486
v 0.922073 0.896389 -1.788486
v 0.922073 -0.001885 -1.788486
v 0.319618 0.896389 -1.796773
v 0.319618 -0.001885 -1.796773
v 0.386759 -0.001885 -1.866269
v 0.386759 0.896389 -1.866269
v 0.319618 -0.001885 -1.866269
v 0.319618 0.896389 -1.866269
v 1.001530 0.896389 -1.866269
v 1.001530 -0.001885 -1.866269
v 1.071026 -0.001885 -1.866269
v 1.071026 0.896389 -1.866269
v 1.001530 0.896389 -1.854819
v 1.071026 0.896389 -1.854819
v 1.071026 -0.001885 -1.854819
v 1.001530 -0.001885 -1.854819
v 0.364893 -0.001885 -1.223171
v 0.364893 -0.001885 -1.254048
v 0.364893 0.896389 -1.223171
v 0.364893 0.896389 -1.254048
v 0.315117 0.896389 -1.179857
v 0.315117 -0.001885 -1.179857
v 0.315117 -0.001885 -1.110361
v 0.315117 0.896389 -1.110361
v 0.326568 0.896389 -1.179857
v 0.326568 0.896389 -1.110361
v 0.326568 -0.001885 -1.110361
v 0.326568 -0.001885 -1.179857
v 0.308886 0.949037 1.519446
v 0.308886 0.873724 1.519446
v 1.068695 0.949037 1.519446
v 1.068695 0.873724 1.519446
v 0.958216 -0.001885 1.463971
v 0.958216 0.896389 1.463971
v 0.958216 -0.001885 1.506705
v 0.958216 0.896389 1.506705
v 0.392901 0.896389 1.506705
v 0.392901 -0.001885 1.506705
v 0.328489 -0.001885 1.463970
v 0.328489 0.896389 1.463970
v 0.371223 0.896389 1.463971
v 0.371223 -0.001885 1.463971
v 0.328489 -0.001885 1.506705
v 0.328489 0.896389 1.506705
v 0.958216 -0.001885 0.913121
v 0.958216 0.896389 0.913121
v 0.958216 -0.001885 0.955855
v 0.958216 0.896389 0.955855
v 0.392901 0.896389 0.955855
v 0.392901 -0.001885 0.955855
v 0.392901 0.896389 0.913121
v 0.392901 -0.001885 0.913121
v 0.384614 0.896389 1.515576
v 0.384614 -0.001885 1.515576
v 0.315117 -0.001885 1.448435
v 0.315117 0.896389 1.448435
v 0.315117 -0.001885 1.515576
v 0.315117 0.896389 1.515576
v 0.938344 0.896389 1.515576
v 0.938344 -0.001885 1.515576
v 0.868847 -0.001885 1.515576
v 0.868847 0.896389 1.515576
v 0.938344 0.896389 1.504126
v 0.868847 0.896389 1.504126
v 0.868847 -0.001885 1.504126
v 0.938344 -0.001885 1.504126
v 0.315117 0.896389 0.833664
v 0.315117 -0.001885 0.833664
v 0.315117 -0.001885 0.764168
v 0.315117 0.896389 0.764168
v 0.326568 0.896389 0.833664
v 0.326568 0.896389 0.764168
v 0.326568 -0.001885 0.764168
v 0.326568 -0.001885 0.833664
v 0.879339 0.896389 -1.254048
v 0.879339 -0.001885 -1.254048
v 0.922073 0.896389 -1.254048
v 0.922073 -0.001885 -1.254048
v 0.958216 -0.001885 -0.646423
v 0.958216 0.896389 -0.646423
v 0.958216 -0.001885 -0.603689
v 0.958216 0.896389 -0.603689
v 0.392901 0.896389 -0.603689
v 0.392901 -0.001885 -0.603689
v 0.392901 0.896389 -0.646423
v 0.392901 -0.001885 -0.646423
vt 0.464329 0.868146
vt 0.464329 0.868146
vt 0.473509 0.868146
vt 0.473509 0.868146
vt 0.531062 0.878184
vt 0.540243 0.878184
vt 0.540243 0.887365
vt 0.531062 0.887365
vt 0.531062 0.887365
vt 0.531062 0.887365
vt 0.531062 0.878184
vt 0.531062 0.878184
vt 0.540243 0.887365
vt 0.540243 0.878184
vt 0.540243 0.878184
vt 0.464329 0.859823
vt 0.464329 0.860278
vt 0.473509 0.860278
vt 0.473509 0.859823
vt 0.464329 0.859823
vt 0.473509 0.859823
vt 0.464329 0.887365
vt 0.473509 0.887365
vt 0.473509 0.896545
vt 0.464329 0.896545
vt 0.473509 0.878184
vt 0.473509 0.879043
vt 0.464329 0.879043
vt 0.464329 0.878184
vt 0.464329 0.869004
vt 0.473509 0.869004
vt 0.455148 0.887365
vt 0.455148 0.879043
vt 0.455148 0.878184
vt 0.455148 0.878184
vt 0.455148 0.879043
vt 0.473509 0.869004
vt 0.464329 0.869004
vt 0.464329 0.859823
vt 0.473509 0.859823
vt 0.473509 0.868146
vt 0.464329 0.868146
vt 0.464329 0.887365
vt 0.473509 0.887365
vt 0.473509 0.896545
vt 0.464329 0.896545
vt 0.473509 0.879043
vt 0.464329 0.879043
vt 0.455148 0.887365
vt 0.455148 0.879043
vt 0.544056 0.889625
vt 0.544056 0.890483
vt 0.534876 0.890483
vt 0.534876 0.889625
vt 0.534876 0.880444
vt 0.544056 0.880444
vt 0.540243 0.878184
vt 0.540243 0.879043
vt 0.531062 0.879043
vt 0.531062 0.878184
vt 0.540243 0.879043
vt 0.531062 0.879043
vt 0.531062 0.878184
vt 0.540243 0.878184
vt 0.544056 0.889625
vt 0.544056 0.890483
vt 0.534876 0.890483
vt 0.534876 0.889625
vt 0.544056 0.890483
vt 0.534876 0.890483
vt 0.534876 0.889625
vt 0.544056 0.889625
vt 0.540243 0.887365
vt 0.464329 0.886910
vt 0.464329 0.887365
vt 0.464329 0.887365
vt 0.464329 0.886910
vt 0.464329 0.859823
vt 0.473509 0.859823
vt 0.464329 0.887365
vt 0.464329 0.896545
vt 0.473509 0.896545
vt 0.473509 0.887365
vt 0.473509 0.878184
vt 0.464329 0.878184
vt 0.464329 0.879043
vt 0.473509 0.879043
vt 0.455148 0.887365
vt 0.473509 0.879043
vt 0.464329 0.879043
vt 0.473509 0.886910
vt 0.531062 0.878184
vt 0.531062 0.878184
vt 0.540243 0.878184
vt 0.540243 0.878184
vt 0.531062 0.887365
vt 0.464329 0.868146
vt 0.473509 0.868146
vt 0.464329 0.896545
vt 0.473509 0.896545
vt 0.473509 0.887365
vt 0.473509 0.887365
vt 0.455148 0.886910
vt 0.455148 0.887365
vt 0.544056 0.889625
vt 0.534876 0.889625
vt 0.534876 0.890483
vt 0.544056 0.890483
vt 0.534876 0.880444
vt 0.544056 0.880444
vt 0.544056 0.889625
vt 0.534876 0.889625
vt 0.534876 0.890483
vt 0.544056 0.890483
vt 0.534876 0.890483
vt 0.544056 0.890483
vt 0.544056 0.889625
vt 0.534876 0.889625
vt 0.455148 0.879043
vt 0.473509 0.886910
vt 0.540243 0.887365
vt 0.544056 0.889625
vt 0.544056 0.890483
vt 0.534876 0.890483
vt 0.534876 0.889625
vt 0.544056 0.890483
vt 0.534876 0.890483
vt 0.534876 0.889625
vt 0.544056 0.889625
vt 0.464329 0.859823
vt 0.464329 0.868146
vt 0.473509 0.868146
vt 0.473509 0.859823
vt 0.464329 0.887365
vt 0.464329 0.896545
vt 0.473509 0.896545
vt 0.473509 0.887365
vt 0.473509 0.878184
vt 0.464329 0.878184
vt 0.464329 0.879043
vt 0.473509 0.879043
vt 0.464329 0.869004
vt 0.473509 0.869004
vt 0.455148 0.879043
vt 0.455148 0.887365
vt 0.455148 0.878184
vt 0.464329 0.859823
vt 0.464329 0.868146
vt 0.473509 0.868146
vt 0.473509 0.859823
vt 0.464329 0.887365
vt 0.464329 0.896545
vt 0.473509 0.896545
vt 0.473509 0.887365
vt 0.473509 0.879043
vt 0.464329 0.879043
vt 0.455148 0.879043
vt 0.455148 0.887365
vt 0.544056 0.889625
vt 0.534876 0.889625
vt 0.534876 0.890483
vt 0.544056 0.890483
vt 0.534876 0.880444
vt 0.544056 0.880444
vt 0.544056 0.889625
vt 0.534876 0.889625
vt 0.534876 0.890483
vt 0.544056 0.890483
vt 0.534876 0.890483
vt 0.544056 0.890483
vt 0.544056 0.889625
vt 0.534876 0.889625
vt 0.544056 0.889625
vt 0.534876 0.889625
vt 0.534876 0.890483
vt 0.544056 0.890483
vt 0.534876 0.890483
vt 0.544056 0.890483
vt 0.544056 0.889625
vt 0.534876 0.889625
vt 0.473509 0.869004
vt 0.464329 0.869004
vt 0.455148 0.878184
vt 0.455148 0.879043
vt 0.464329 0.868146
vt 0.473509 0.868146
vt 0.464329 0.859823
vt 0.464329 0.868146
vt 0.473509 0.868146
vt 0.473509 0.859823
vt 0.464329 0.887365
vt 0.464329 0.896545
vt 0.473509 0.896545
vt 0.473509 0.887365
vt 0.473509 0.879043
vt 0.464329 0.879043
vt 0.455148 0.879043
vt 0.455148 0.887365
vn 0.0000 0.0000 1.0000
vn 1.0000 0.0000 0.0000
vn 0.0000 -1.0000 0.0000
vn 0.0000 0.0000 -1.0000
vn -1.0000 0.0000 0.0000
vn -0.7192 0.0000 0.6948
vn 0.7192 0.0000 0.6948
vn 0.0000 1.0000 0.0000
vn 0.6948 0.0000 -0.7192
usemtl Palette
s off
f 60/1/1 14/2/1 13/3/1 59/4/1
f 2/5/2 1/6/2 3/7/2 4/8/2
f 66/9/3 50/10/3 48/11/3 63/12/3
f 66/9/1 4/8/1 3/7/1 64/13/1
f 63/12/4 48/11/4 47/14/4 65/15/4
f 67/16/2 150/17/2 149/18/2 68/19/2
f 5/20/5 6/21/5 13/3/5 14/2/5
f 7/22/1 8/23/1 6/24/1 5/25/1
f 16/26/2 9/27/2 10/28/2 15/29/2
f 9/27/2 8/23/2 7/22/2 10/28/2
f 11/30/4 12/31/4 16/26/4 15/29/4
f 10/28/3 7/22/3 5/32/3 14/33/3
f 15/29/3 10/28/3 14/33/3 11/34/3
f 57/35/3 11/34/3 14/33/3 60/36/3
f 58/37/4 12/31/4 11/30/4 57/38/4
f 17/39/5 18/40/5 23/41/5 24/42/5
f 19/43/1 20/44/1 18/45/1 17/46/1
f 21/47/2 20/44/2 19/43/2 22/48/2
f 22/48/3 19/43/3 17/49/3 24/50/3
f 30/51/2 25/52/2 26/53/2 29/54/2
f 27/55/4 28/56/4 30/51/4 29/54/4
f 27/55/6 26/53/6 25/52/6 28/56/6
f 29/54/3 26/53/3 27/55/3
f 34/57/2 31/58/2 32/59/2 33/60/2
f 31/58/1 35/61/1 38/62/1 32/59/1
f 33/60/4 37/63/4 36/64/4 34/57/4
f 42/65/4 39/66/4 40/67/4 41/68/4
f 39/66/2 43/69/2 46/70/2 40/67/2
f 41/68/5 45/71/5 44/72/5 42/65/5
f 48/11/5 50/10/5 49/73/5 47/14/5
f 148/74/3 69/75/3 89/76/3 90/77/3
f 4/8/3 66/9/3 63/12/3 2/5/3
f 51/78/2 60/1/2 59/4/2 52/79/2
f 53/80/1 51/81/1 52/82/1 54/83/1
f 62/84/5 61/85/5 56/86/5 55/87/5
f 55/87/5 56/86/5 53/80/5 54/83/5
f 57/38/4 61/85/4 62/84/4 58/37/4
f 56/86/3 60/36/3 51/88/3 53/80/3
f 61/85/3 57/35/3 60/36/3 56/86/3
f 71/89/5 72/90/5 148/74/5 147/91/5
f 50/92/5 102/93/5 101/94/5 49/95/5
f 66/9/3 104/96/3 102/93/3 50/92/3
f 150/17/2 74/97/2 73/98/2 149/18/2
f 69/75/1 67/99/1 68/100/1 70/101/1
f 69/75/1 70/101/1 91/102/1 89/76/1
f 148/74/3 150/103/3 67/104/3 69/75/3
f 80/105/5 79/106/5 76/107/5 75/108/5
f 77/109/4 79/106/4 80/105/4 78/110/4
f 77/109/7 78/110/7 75/108/7 76/107/7
f 79/106/3 77/109/3 76/107/3
f 84/111/4 83/112/4 82/113/4 81/114/4
f 81/114/5 82/113/5 88/115/5 85/116/5
f 83/112/2 84/111/2 86/117/2 87/118/2
f 65/15/8 64/13/8 3/7/8 1/6/8
f 72/90/3 74/119/3 150/103/3 148/74/3
f 147/91/4 148/74/4 90/77/4 92/120/4
f 47/14/8 49/73/8 64/13/8 65/15/8
f 101/94/8 103/121/8 64/13/8 49/95/8
f 104/96/2 66/9/2 64/13/2 103/121/2
f 96/122/5 93/123/5 94/124/5 95/125/5
f 93/123/4 97/126/4 100/127/4 94/124/4
f 95/125/1 99/128/1 98/129/1 96/122/1
f 102/93/1 104/96/1 103/121/1 101/94/1
f 105/130/4 114/131/4 113/132/4 106/133/4
f 107/134/2 105/135/2 106/136/2 108/137/2
f 116/138/1 115/139/1 110/140/1 109/141/1
f 109/141/1 110/140/1 107/134/1 108/137/1
f 111/142/5 115/139/5 116/138/5 112/143/5
f 110/140/3 114/144/3 105/145/3 107/134/3
f 115/139/3 111/146/3 114/144/3 110/140/3
f 117/147/4 124/148/4 123/149/4 118/150/4
f 119/151/2 117/152/2 118/153/2 120/154/2
f 121/155/1 122/156/1 119/151/1 120/154/1
f 122/156/3 124/157/3 117/158/3 119/151/3
f 130/159/1 129/160/1 126/161/1 125/162/1
f 127/163/5 129/160/5 130/159/5 128/164/5
f 127/163/9 128/164/9 125/162/9 126/161/9
f 129/160/3 127/163/3 126/161/3
f 134/165/1 133/166/1 132/167/1 131/168/1
f 131/168/2 132/167/2 138/169/2 135/170/2
f 133/166/5 134/165/5 136/171/5 137/172/5
f 142/173/5 141/174/5 140/175/5 139/176/5
f 139/176/1 140/175/1 146/177/1 143/178/1
f 141/174/4 142/173/4 144/179/4 145/180/4
f 2/5/4 63/12/4 65/15/4 1/6/4
f 112/143/5 54/181/5 53/182/5 111/142/5
f 111/146/3 53/183/3 51/184/3 114/144/3
f 114/131/2 51/185/2 52/186/2 113/132/2
f 151/187/4 158/188/4 157/189/4 152/190/4
f 153/191/2 151/192/2 152/193/2 154/194/2
f 155/195/1 156/196/1 153/191/1 154/194/1
f 156/196/3 158/197/3 151/198/3 153/191/3
