# Blender v3.3.1 OBJ File: 'Office Set.blend'
# www.blender.org
mtllib Office_Desk_3.mtl
o Office_Desk_3_Cube.082
v -3.315748 0.949037 0.125000
v -3.315748 0.873724 0.125000
v -3.315748 0.949037 0.875000
v -3.315748 0.873724 0.875000
v -3.371223 -0.001885 0.776829
v -3.371223 0.896389 0.776829
v -3.328489 -0.001885 0.776829
v -3.328489 0.896389 0.776829
v -3.328489 0.896389 0.211515
v -3.328489 -0.001885 0.211515
v -3.371223 -0.001885 0.147102
v -3.371223 0.896389 0.147102
v -3.371223 0.896389 0.211515
v -3.371223 -0.001885 0.211515
v -3.328489 -0.001885 0.147102
v -3.328489 0.896389 0.147102
v -3.922073 -0.001885 0.776829
v -3.922073 0.896389 0.776829
v -3.879339 -0.001885 0.776829
v -3.879339 0.896389 0.776829
v -3.879339 0.896389 0.211515
v -3.879339 -0.001885 0.211515
v -3.922073 0.896389 0.211515
v -3.922073 -0.001885 0.211515
v -3.319618 0.896389 0.203227
v -3.319618 -0.001885 0.203227
v -3.386759 -0.001885 0.133731
v -3.386759 0.896389 0.133731
v -3.319618 -0.001885 0.133731
v -3.319618 0.896389 0.133731
v -3.319618 0.896389 0.756957
v -3.319618 -0.001885 0.756957
v -3.319618 -0.001885 0.687460
v -3.319618 0.896389 0.687460
v -3.331068 0.896389 0.756957
v -3.331068 0.896389 0.687460
v -3.331068 -0.001885 0.687460
v -3.331068 -0.001885 0.756957
v -4.001530 0.896389 0.133731
v -4.001530 -0.001885 0.133731
v -4.071026 -0.001885 0.133731
v -4.071026 0.896389 0.133731
v -4.001530 0.896389 0.145181
v -4.071026 0.896389 0.145181
v -4.071026 -0.001885 0.145181
v -4.001530 -0.001885 0.145181
v -5.684252 0.949037 0.125000
v -5.684252 0.873724 0.125000
v -5.684252 0.949037 0.875000
v -5.684252 0.873724 0.875000
v -5.628777 -0.001885 0.776829
v -5.628777 0.896389 0.776829
v -5.671511 -0.001885 0.776829
v -5.671511 0.896389 0.776829
v -5.671511 0.896389 0.211515
v -5.671511 -0.001885 0.211515
v -5.628777 -0.001885 0.147102
v -5.628777 0.896389 0.147102
v -5.628777 0.896389 0.211515
v -5.628777 -0.001885 0.211515
v -5.671511 -0.001885 0.147102
v -5.671511 0.896389 0.147102
v -5.077927 -0.001885 0.776829
v -5.077927 0.896389 0.776829
v -5.120661 -0.001885 0.776829
v -5.120661 0.896389 0.776829
v -5.120661 0.896389 0.211515
v -5.120661 -0.001885 0.211515
v -5.077927 0.896389 0.211515
v -5.077927 -0.001885 0.211515
v -5.680382 0.896389 0.203227
v -5.680382 -0.001885 0.203227
v -5.613241 -0.001885 0.133731
v -5.613241 0.896389 0.133731
v -5.680382 -0.001885 0.133731
v -5.680382 0.896389 0.133731
v -5.680382 0.896389 0.756957
v -5.680382 -0.001885 0.756957
v -5.680382 -0.001885 0.687460
v -5.680382 0.896389 0.687460
v -5.668932 0.896389 0.756957
v -5.668932 0.896389 0.687460
v -5.668932 -0.001885 0.687460
v -5.668932 -0.001885 0.756957
v -4.998470 0.896389 0.133731
v -4.998470 -0.001885 0.133731
v -4.928974 -0.001885 0.133731
v -4.928974 0.896389 0.133731
v -4.998470 0.896389 0.145181
v -4.928974 0.896389 0.145181
v -4.928974 -0.001885 0.145181
v -4.998470 -0.001885 0.145181
vt 0.529156 0.868146
vt 0.529156 0.868146
vt 0.538336 0.868146
vt 0.538336 0.868146
vt 0.529156 0.878184
vt 0.538336 0.878184
vt 0.538336 0.887365
vt 0.529156 0.887365
vt 0.529156 0.887365
vt 0.529156 0.878184
vt 0.538336 0.887365
vt 0.538336 0.878184
vt 0.529156 0.859823
vt 0.538336 0.859823
vt 0.529156 0.887365
vt 0.538336 0.887365
vt 0.538336 0.896545
vt 0.529156 0.896545
vt 0.538336 0.878184
vt 0.538336 0.879043
vt 0.529156 0.879043
vt 0.529156 0.878184
vt 0.529156 0.869004
vt 0.538336 0.869004
vt 0.519975 0.887365
vt 0.519975 0.879043
vt 0.519975 0.878184
vt 0.519975 0.878184
vt 0.519975 0.879043
vt 0.538336 0.869004
vt 0.529156 0.869004
vt 0.529156 0.859823
vt 0.538336 0.859823
vt 0.538336 0.868146
vt 0.529156 0.868146
vt 0.529156 0.887365
vt 0.538336 0.887365
vt 0.538336 0.896545
vt 0.529156 0.896545
vt 0.538336 0.879043
vt 0.529156 0.879043
vt 0.519975 0.887365
vt 0.519975 0.879043
vt 0.538336 0.878184
vt 0.538336 0.879043
vt 0.529156 0.879043
vt 0.529156 0.878184
vt 0.529156 0.869004
vt 0.538336 0.869004
vt 0.538336 0.878184
vt 0.538336 0.879043
vt 0.529156 0.879043
vt 0.529156 0.878184
vt 0.538336 0.879043
vt 0.529156 0.879043
vt 0.529156 0.878184
vt 0.538336 0.878184
vt 0.538336 0.878184
vt 0.538336 0.879043
vt 0.529156 0.879043
vt 0.529156 0.878184
vt 0.538336 0.879043
vt 0.529156 0.879043
vt 0.529156 0.878184
vt 0.538336 0.878184
vt 0.529156 0.859823
vt 0.538336 0.859823
vt 0.529156 0.887365
vt 0.529156 0.896545
vt 0.538336 0.896545
vt 0.538336 0.887365
vt 0.538336 0.878184
vt 0.529156 0.878184
vt 0.529156 0.879043
vt 0.538336 0.879043
vt 0.519975 0.887365
vt 0.529156 0.859823
vt 0.529156 0.868146
vt 0.538336 0.868146
vt 0.538336 0.859823
vt 0.529156 0.887365
vt 0.529156 0.896545
vt 0.538336 0.896545
vt 0.538336 0.887365
vt 0.538336 0.879043
vt 0.529156 0.879043
vt 0.519975 0.879043
vt 0.519975 0.887365
vt 0.538336 0.878184
vt 0.529156 0.878184
vt 0.529156 0.879043
vt 0.538336 0.879043
vt 0.529156 0.869004
vt 0.538336 0.869004
vt 0.538336 0.878184
vt 0.529156 0.878184
vt 0.529156 0.879043
vt 0.538336 0.879043
vt 0.529156 0.879043
vt 0.538336 0.879043
vt 0.538336 0.878184
vt 0.529156 0.878184
vt 0.538336 0.878184
vt 0.529156 0.878184
vt 0.529156 0.879043
vt 0.538336 0.879043
vt 0.529156 0.879043
vt 0.538336 0.879043
vt 0.538336 0.878184
vt 0.529156 0.878184
vn 0.0000 0.0000 1.0000
vn 1.0000 0.0000 0.0000
vn 0.0000 -1.0000 0.0000
vn 0.0000 0.0000 -1.0000
vn -1.0000 0.0000 0.0000
vn -0.7192 0.0000 0.6948
vn 0.7192 0.0000 0.6948
vn 0.0000 1.0000 0.0000
usemtl Palette
s off
f 60/1/1 14/2/1 13/3/1 59/4/1
f 2/5/2 1/6/2 3/7/2 4/8/2
f 4/8/3 50/9/3 48/10/3 2/5/3
f 50/9/1 4/8/1 3/7/1 49/11/1
f 2/5/4 48/10/4 47/12/4 1/6/4
f 5/13/5 6/14/5 13/3/5 14/2/5
f 7/15/1 8/16/1 6/17/1 5/18/1
f 16/19/2 9/20/2 10/21/2 15/22/2
f 9/20/2 8/16/2 7/15/2 10/21/2
f 11/23/4 12/24/4 16/19/4 15/22/4
f 10/21/3 7/15/3 5/25/3 14/26/3
f 15/22/3 10/21/3 14/26/3 11/27/3
f 57/28/3 11/27/3 14/26/3 60/29/3
f 58/30/4 12/24/4 11/23/4 57/31/4
f 17/32/5 18/33/5 23/34/5 24/35/5
f 19/36/1 20/37/1 18/38/1 17/39/1
f 21/40/2 20/37/2 19/36/2 22/41/2
f 22/41/3 19/36/3 17/42/3 24/43/3
f 30/44/2 25/45/2 26/46/2 29/47/2
f 27/48/4 28/49/4 30/44/4 29/47/4
f 27/48/6 26/46/6 25/45/6 28/49/6
f 29/47/3 26/46/3 27/48/3
f 34/50/2 31/51/2 32/52/2 33/53/2
f 31/51/1 35/54/1 38/55/1 32/52/1
f 33/53/4 37/56/4 36/57/4 34/50/4
f 42/58/4 39/59/4 40/60/4 41/61/4
f 39/59/2 43/62/2 46/63/2 40/60/2
f 41/61/5 45/64/5 44/65/5 42/58/5
f 48/10/5 50/9/5 49/11/5 47/12/5
f 51/66/2 60/1/2 59/4/2 52/67/2
f 53/68/1 51/69/1 52/70/1 54/71/1
f 62/72/5 61/73/5 56/74/5 55/75/5
f 55/75/5 56/74/5 53/68/5 54/71/5
f 57/31/4 61/73/4 62/72/4 58/30/4
f 56/74/3 60/29/3 51/76/3 53/68/3
f 61/73/3 57/28/3 60/29/3 56/74/3
f 63/77/2 70/78/2 69/79/2 64/80/2
f 65/81/1 63/82/1 64/83/1 66/84/1
f 67/85/5 68/86/5 65/81/5 66/84/5
f 68/86/3 70/87/3 63/88/3 65/81/3
f 76/89/5 75/90/5 72/91/5 71/92/5
f 73/93/4 75/90/4 76/89/4 74/94/4
f 73/93/7 74/94/7 71/92/7 72/91/7
f 75/90/3 73/93/3 72/91/3
f 80/95/5 79/96/5 78/97/5 77/98/5
f 77/98/1 78/97/1 84/99/1 81/100/1
f 79/96/4 80/95/4 82/101/4 83/102/4
f 88/103/4 87/104/4 86/105/4 85/106/4
f 85/106/5 86/105/5 92/107/5 89/108/5
f 87/104/2 88/103/2 90/109/2 91/110/2
f 47/12/8 49/11/8 3/7/8 1/6/8
