# Blender v3.3.1 OBJ File: 'Office Set.blend'
# www.blender.org
mtllib Office_Files_A.mtl
o Office_Files_A_Cube.115
v -7.878127 0.975791 5.323901
v -7.878127 0.975791 5.689015
v -8.121873 0.975791 5.689015
v -8.121873 0.975791 5.323901
v -8.121873 0.950000 5.689015
v -7.878127 0.950000 5.689015
v -8.121873 0.950000 5.323901
v -7.878127 0.950000 5.323901
v -7.886073 1.003491 5.318840
v -7.870405 1.003491 5.683618
v -8.113927 1.003491 5.694077
v -8.129595 1.003491 5.329299
v -8.113927 0.974984 5.694077
v -7.870405 0.974984 5.683618
v -8.129595 0.974984 5.329299
v -7.886073 0.974984 5.318840
v -7.890090 1.045167 5.316458
v -7.866666 1.045167 5.680820
v -8.109910 1.045167 5.696458
v -8.133334 1.045167 5.332096
v -8.109910 1.003034 5.696458
v -7.866666 1.003034 5.680820
v -8.133334 1.003034 5.332096
v -7.890090 1.003034 5.316458
v -7.878039 1.076886 5.323959
v -7.878214 1.076886 5.689074
v -8.121961 1.076886 5.688957
v -8.121786 1.076886 5.323843
v -8.121961 1.043968 5.688957
v -7.878214 1.043968 5.689074
v -8.121786 1.043968 5.323843
v -7.878039 1.043968 5.323959
v -7.885066 1.093562 5.319455
v -7.871359 1.093562 5.684311
v -8.114934 1.093562 5.693462
v -8.128640 1.093562 5.328605
v -8.114934 1.075063 5.693462
v -7.871359 1.075063 5.684311
v -8.128640 1.075063 5.328605
v -7.885066 1.075063 5.319455
vt 0.689225 0.810481
vt 0.689225 0.810481
vt 0.723299 0.810481
vt 0.723299 0.810481
vt 0.689225 0.776407
vt 0.723299 0.776407
vt 0.723299 0.776407
vt 0.689225 0.776407
vt 0.689225 0.810481
vt 0.689225 0.810481
vt 0.723299 0.810481
vt 0.723299 0.810481
vt 0.689225 0.776407
vt 0.723299 0.776407
vt 0.723299 0.776407
vt 0.689225 0.776407
vt 0.689225 0.810481
vt 0.689225 0.810481
vt 0.723299 0.810481
vt 0.723299 0.810481
vt 0.689225 0.776407
vt 0.723299 0.776407
vt 0.723299 0.776407
vt 0.689225 0.776407
vt 0.689225 0.810481
vt 0.689225 0.810481
vt 0.723299 0.810481
vt 0.723299 0.810481
vt 0.689225 0.776407
vt 0.723299 0.776407
vt 0.723299 0.776407
vt 0.689225 0.776407
vt 0.689225 0.810481
vt 0.689225 0.810481
vt 0.723299 0.810481
vt 0.723299 0.810481
vt 0.689225 0.776407
vt 0.723299 0.776407
vt 0.723299 0.776407
vt 0.689225 0.776407
vn 0.0000 0.0000 -1.0000
vn 0.0000 1.0000 0.0000
vn 1.0000 0.0000 0.0000
vn -1.0000 0.0000 0.0000
vn 0.0000 0.0000 1.0000
vn 0.0000 -1.0000 0.0000
vn -0.0429 0.0000 -0.9991
vn 0.9991 0.0000 -0.0429
vn -0.9991 0.0000 0.0429
vn 0.0429 0.0000 0.9991
vn -0.0642 0.0000 -0.9979
vn 0.9979 0.0000 -0.0642
vn -0.9979 0.0000 0.0642
vn 0.0642 0.0000 0.9979
vn 0.0005 0.0000 -1.0000
vn 1.0000 0.0000 0.0005
vn -1.0000 0.0000 -0.0005
vn -0.0005 0.0000 1.0000
vn -0.0375 0.0000 -0.9993
vn 0.9993 0.0000 -0.0375
vn -0.9993 0.0000 0.0375
vn 0.0375 0.0000 0.9993
usemtl Palette
s off
f 7/1/1 4/2/1 1/3/1 8/4/1
f 3/5/2 2/6/2 1/3/2 4/2/2
f 8/4/3 1/3/3 2/6/3 6/7/3
f 5/8/4 3/5/4 4/2/4 7/1/4
f 6/7/5 2/6/5 3/5/5 5/8/5
f 5/8/6 7/1/6 8/4/6 6/7/6
f 15/9/7 12/10/7 9/11/7 16/12/7
f 11/13/2 10/14/2 9/11/2 12/10/2
f 16/12/8 9/11/8 10/14/8 14/15/8
f 13/16/9 11/13/9 12/10/9 15/9/9
f 14/15/10 10/14/10 11/13/10 13/16/10
f 13/16/6 15/9/6 16/12/6 14/15/6
f 23/17/11 20/18/11 17/19/11 24/20/11
f 19/21/2 18/22/2 17/19/2 20/18/2
f 24/20/12 17/19/12 18/22/12 22/23/12
f 21/24/13 19/21/13 20/18/13 23/17/13
f 22/23/14 18/22/14 19/21/14 21/24/14
f 21/24/6 23/17/6 24/20/6 22/23/6
f 31/25/15 28/26/15 25/27/15 32/28/15
f 27/29/2 26/30/2 25/27/2 28/26/2
f 32/28/16 25/27/16 26/30/16 30/31/16
f 29/32/17 27/29/17 28/26/17 31/25/17
f 30/31/18 26/30/18 27/29/18 29/32/18
f 29/32/6 31/25/6 32/28/6 30/31/6
f 39/33/19 36/34/19 33/35/19 40/36/19
f 35/37/2 34/38/2 33/35/2 36/34/2
f 40/36/20 33/35/20 34/38/20 38/39/20
f 37/40/21 35/37/21 36/34/21 39/33/21
f 38/39/22 34/38/22 35/37/22 37/40/22
f 37/40/6 39/33/6 40/36/6 38/39/6
