# Blender v3.3.1 OBJ File: 'Office Set.blend'
# www.blender.org
mtllib Office_Files_D_Custom.mtl
o Office_Files_D_Custom_Cube.198
v -9.378127 0.961400 5.323901
v -9.378127 0.961400 5.689015
v -9.621873 0.961400 5.689015
v -9.621873 0.961400 5.323901
v -9.621873 0.950000 5.689015
v -9.378127 0.950000 5.689015
v -9.621873 0.950000 5.323901
v -9.378127 0.950000 5.323901
vt 0.689225 0.810481
vt 0.689225 0.810481
vt 0.723299 0.810481
vt 0.723299 0.810481
vt 0.723299 0.776407
vt 0.723299 0.776407
vt 0.689225 0.776407
vt 0.689225 0.776407
vt 0.410193 0.796192
vt 0.538027 0.796192
vt 0.538027 0.987678
vt 0.410193 0.987678
vn 0.0000 0.0000 -1.0000
vn 1.0000 0.0000 0.0000
vn -1.0000 0.0000 0.0000
vn 0.0000 0.0000 1.0000
vn 0.0000 -1.0000 0.0000
vn 0.0000 1.0000 0.0000
usemtl Palette
s off
f 7/1/1 4/2/1 1/3/1 8/4/1
f 8/4/2 1/3/2 2/5/2 6/6/2
f 5/7/3 3/8/3 4/2/3 7/1/3
f 6/6/4 2/5/4 3/8/4 5/7/4
f 5/7/5 7/1/5 8/4/5 6/6/5
usemtl BoardDocs
f 3/9/6 2/10/6 1/11/6 4/12/6
