# Blender v3.3.1 OBJ File: 'Office Set.blend'
# www.blender.org
mtllib Office_Counter_Door.mtl
o Office_Counter_Door_Cube.151
v 7.550103 0.883736 2.708977
v 7.550103 0.052822 2.708977
v 7.029921 0.052822 2.708977
v 7.029921 0.883736 2.708977
v 7.029921 0.052822 2.750525
v 7.550103 0.052822 2.750525
v 7.427694 0.363880 2.743930
v 7.427694 0.722232 2.743930
v 7.455099 0.722232 2.743930
v 7.455099 0.363880 2.743930
v 7.455099 0.722232 2.774772
v 7.455099 0.363880 2.774772
v 7.427694 0.722232 2.774772
v 7.427694 0.363880 2.774772
v 7.029921 0.883736 2.750525
v 7.550103 0.883736 2.750525
vt 0.880326 0.719457
vt 0.880326 0.715312
vt 0.880326 0.715312
vt 0.880326 0.719457
vt 0.889275 0.715312
vt 0.889275 0.719457
vt 0.889275 0.719457
vt 0.889275 0.715312
vt 0.800966 0.706950
vt 0.791493 0.706950
vt 0.791493 0.706950
vt 0.800966 0.706950
vt 0.791493 0.702562
vt 0.791493 0.702562
vt 0.800966 0.702562
vt 0.800966 0.702562
vn 0.0000 -1.0000 0.0000
vn 0.0000 1.0000 0.0000
vn 0.0000 0.0000 -1.0000
vn 1.0000 0.0000 0.0000
vn -1.0000 0.0000 0.0000
vn 0.0000 0.0000 1.0000
usemtl Palette
s off
f 6/1/1 5/2/1 3/3/1 2/4/1
f 15/5/2 16/6/2 1/7/2 4/8/2
f 1/7/3 2/4/3 3/3/3 4/8/3
f 11/9/4 12/10/4 10/11/4 9/12/4
f 12/10/1 14/13/1 7/14/1 10/11/1
f 13/15/2 11/9/2 9/12/2 8/16/2
f 14/13/5 13/15/5 8/16/5 7/14/5
f 14/13/6 12/10/6 11/9/6 13/15/6
f 5/2/5 15/5/5 4/8/5 3/3/5
f 2/4/4 1/7/4 16/6/4 6/1/4
f 6/1/6 16/6/6 15/5/6 5/2/6
