# Blender v3.3.1 OBJ File: 'Office Set.blend'
# www.blender.org
mtllib Office_Deco.mtl
o Office_Deco_Cube.071
v -12.500000 0.000000 1.376595
v -12.500000 0.761901 1.300000
v -12.452775 0.000000 1.385989
v -12.423464 0.761901 1.315224
v -12.412740 0.000000 1.412740
v -12.358579 0.761901 1.358579
v -12.385988 0.000000 1.452775
v -12.315224 0.761901 1.423463
v -12.376595 0.000000 1.500000
v -12.300000 0.761901 1.500000
v -12.385988 0.000000 1.547225
v -12.315224 0.761901 1.576537
v -12.412740 0.000000 1.587261
v -12.358579 0.761901 1.641421
v -12.452775 0.000000 1.614012
v -12.423464 0.761901 1.684776
v -12.500000 0.000000 1.623405
v -12.500000 0.761901 1.700000
v -12.547225 0.000000 1.614012
v -12.576536 0.761901 1.684776
v -12.587260 0.000000 1.587261
v -12.641421 0.761901 1.641421
v -12.614012 0.000000 1.547225
v -12.684776 0.761901 1.576537
v -12.623405 0.000000 1.500000
v -12.700000 0.761901 1.500000
v -12.614012 0.000000 1.452775
v -12.684776 0.761901 1.423463
v -12.587260 0.000000 1.412740
v -12.641421 0.761901 1.358579
v -12.547225 0.000000 1.385989
v -12.576536 0.761901 1.315224
vt 0.721550 0.797035
vt 0.724680 0.796412
vt 0.727333 0.794640
vt 0.729105 0.791986
vt 0.729728 0.788857
vt 0.729105 0.785728
vt 0.727333 0.783074
vt 0.724680 0.781302
vt 0.721550 0.780679
vt 0.718421 0.781302
vt 0.715768 0.783074
vt 0.713995 0.785728
vt 0.713372 0.788857
vt 0.713995 0.791986
vt 0.715768 0.794640
vt 0.718421 0.796412
vt 0.730069 0.797376
vt 0.730069 0.814413
vt 0.727939 0.814413
vt 0.727939 0.797376
vt 0.725809 0.814413
vt 0.725809 0.797376
vt 0.723680 0.814413
vt 0.723680 0.797376
vt 0.721550 0.814413
vt 0.721550 0.797376
vt 0.719420 0.814413
vt 0.719420 0.797376
vt 0.717291 0.814413
vt 0.717291 0.797376
vt 0.715161 0.814413
vt 0.715161 0.797376
vt 0.713031 0.814413
vt 0.713031 0.797376
vt 0.710902 0.814413
vt 0.710902 0.797376
vt 0.708772 0.814413
vt 0.708772 0.797376
vt 0.706643 0.814413
vt 0.706643 0.797376
vt 0.704513 0.814413
vt 0.704513 0.797376
vt 0.702383 0.814413
vt 0.702383 0.797376
vt 0.700254 0.814413
vt 0.700254 0.797376
vt 0.707642 0.796412
vt 0.704513 0.797035
vt 0.701383 0.796412
vt 0.698730 0.794640
vt 0.696958 0.791986
vt 0.696335 0.788857
vt 0.696958 0.785728
vt 0.698730 0.783074
vt 0.701383 0.781302
vt 0.704513 0.780679
vt 0.707642 0.781302
vt 0.710295 0.783074
vt 0.712068 0.785728
vt 0.712691 0.788857
vt 0.712068 0.791986
vt 0.710295 0.794640
vt 0.698124 0.814413
vt 0.698124 0.797376
vt 0.695994 0.814413
vt 0.695994 0.797376
vn 0.0000 -1.0000 0.0000
vn 0.0000 -0.7021 -0.7121
vn 0.0000 0.6281 -0.7781
vn 0.2978 0.6281 -0.7189
vn 0.2725 -0.7021 -0.6579
vn 0.5502 0.6281 -0.5502
vn 0.5035 -0.7021 -0.5035
vn 0.7189 0.6281 -0.2978
vn 0.6579 -0.7021 -0.2725
vn 0.7781 0.6281 0.0000
vn 0.7121 -0.7021 0.0000
vn 0.7189 0.6281 0.2978
vn 0.6579 -0.7021 0.2725
vn 0.5502 0.6281 0.5502
vn 0.5035 -0.7021 0.5035
vn 0.2978 0.6281 0.7189
vn 0.2725 -0.7021 0.6579
vn 0.0000 0.6281 0.7781
vn 0.0000 -0.7021 0.7121
vn -0.2978 0.6281 0.7189
vn -0.2725 -0.7021 0.6579
vn -0.5502 0.6281 0.5502
vn -0.5035 -0.7021 0.5035
vn -0.7189 0.6281 0.2978
vn -0.6579 -0.7021 0.2725
vn -0.7781 0.6281 0.0000
vn -0.7121 -0.7021 0.0000
vn -0.7189 0.6281 -0.2978
vn -0.6579 -0.7021 -0.2725
vn -0.5502 0.6281 -0.5502
vn -0.5035 -0.7021 -0.5035
vn -0.2978 0.6281 -0.7189
vn -0.2725 -0.7021 -0.6579
usemtl Palette
s off
f 1/1/1 3/2/1 5/3/1 7/4/1 9/5/1 11/6/1 13/7/1 15/8/1 17/9/1 19/10/1 21/11/1 23/12/1 25/13/1 27/14/1 29/15/1 31/16/1
s 1
f 1/17/2 2/18/3 4/19/4 3/20/5
f 3/20/5 4/19/4 6/21/6 5/22/7
f 5/22/7 6/21/6 8/23/8 7/24/9
f 7/24/9 8/23/8 10/25/10 9/26/11
f 9/26/11 10/25/10 12/27/12 11/28/13
f 11/28/13 12/27/12 14/29/14 13/30/15
f 13/30/15 14/29/14 16/31/16 15/32/17
f 15/32/17 16/31/16 18/33/18 17/34/19
f 17/34/19 18/33/18 20/35/20 19/36/21
f 19/36/21 20/35/20 22/37/22 21/38/23
f 21/38/23 22/37/22 24/39/24 23/40/25
f 23/40/25 24/39/24 26/41/26 25/42/27
f 25/42/27 26/41/26 28/43/28 27/44/29
f 27/44/29 28/43/28 30/45/30 29/46/31
f 4/47/4 2/48/3 32/49/32 30/50/30 28/51/28 26/52/26 24/53/24 22/54/22 20/55/20 18/56/18 16/57/16 14/58/14 12/59/12 10/60/10 8/61/8 6/62/6
f 29/46/31 30/45/30 32/63/32 31/64/33
f 31/64/33 32/63/32 2/65/3 1/66/2
