# Blender v3.3.1 OBJ File: 'Office Set.blend'
# www.blender.org
mtllib Office_Files_F.mtl
o Office_Files_F_Cube.371
v -8.378127 1.145218 5.962767
v -8.388225 0.811751 5.962767
v -8.620464 0.811751 5.962767
v -8.621873 1.145218 5.962767
v -8.620464 0.811751 5.936976
v -8.388225 0.811751 5.936976
v -8.621873 1.145218 5.936976
v -8.378127 1.145218 5.936976
v -8.386072 1.150279 5.990468
v -8.385223 0.811751 5.990468
v -8.616192 0.811751 5.990468
v -8.629595 1.139820 5.990468
v -8.616192 0.811751 5.961960
v -8.385223 0.811751 5.961960
v -8.629595 1.139820 5.961960
v -8.386072 1.150279 5.961960
v -8.390090 1.198430 5.992593
v -8.383770 0.811751 6.003932
v -8.614032 0.811751 6.003932
v -8.633334 1.182793 5.992593
v -8.614032 0.811751 5.990010
v -8.383770 0.811751 5.990010
v -8.633334 1.182793 5.978670
v -8.390090 1.198430 5.978670
v -8.378039 1.185490 6.049988
v -8.388259 0.811751 6.049988
v -8.620512 0.811751 6.049988
v -8.621786 1.185607 6.049988
v -8.620512 0.811751 6.017071
v -8.388259 0.811751 6.017071
v -8.621786 1.185607 6.017071
v -8.378039 1.185490 6.017071
v -8.385066 1.176366 6.016709
v -8.385594 0.811751 6.015903
v -8.616734 0.811751 6.015903
v -8.628640 1.167216 6.016709
v -8.616734 0.811751 6.002856
v -8.385594 0.811751 6.002856
v -8.628640 1.167216 6.003662
v -8.385066 1.176366 6.003662
v -8.388034 1.166454 6.003932
v -8.631278 1.150816 6.003932
v -8.631278 1.150816 5.990010
v -8.388034 1.166454 5.990010
v -8.378366 1.214413 6.047831
v -8.391545 0.811751 6.063237
v -8.625025 0.811751 6.063237
v -8.622049 1.219862 6.048854
v -8.625025 0.811751 6.049315
v -8.391545 0.811751 6.049315
v -8.622049 1.222432 6.035171
v -8.378366 1.216983 6.034147
v -8.379095 1.186728 6.063237
v -8.622778 1.192272 6.063237
v -8.622778 1.192272 6.049315
v -8.379095 1.186728 6.049315
v -8.378730 1.200069 6.062079
v -8.378730 1.202640 6.048396
v -8.622414 1.205519 6.063103
v -8.622414 1.208089 6.049419
v -8.378127 1.145218 6.081899
v -8.388225 0.811751 6.081899
v -8.620464 0.811751 6.081899
v -8.621873 1.145218 6.081899
v -8.620464 0.811751 6.064776
v -8.388225 0.811751 6.064776
v -8.621873 1.145218 6.064776
v -8.378127 1.145218 6.064776
vt 0.689225 0.810481
vt 0.689225 0.810481
vt 0.723299 0.810481
vt 0.723299 0.810481
vt 0.689225 0.776407
vt 0.723299 0.776407
vt 0.723299 0.776407
vt 0.689225 0.776407
vt 0.689225 0.810481
vt 0.689225 0.810481
vt 0.723299 0.810481
vt 0.723299 0.810481
vt 0.689225 0.776407
vt 0.723299 0.776407
vt 0.723299 0.776407
vt 0.689225 0.776407
vt 0.689225 0.810481
vt 0.689225 0.810481
vt 0.723299 0.810481
vt 0.723299 0.810481
vt 0.689225 0.807491
vt 0.723299 0.807491
vt 0.723299 0.807491
vt 0.723299 0.776407
vt 0.723299 0.776407
vt 0.689225 0.807491
vt 0.689225 0.776407
vt 0.689225 0.776407
vt 0.689225 0.810481
vt 0.689225 0.810481
vt 0.723299 0.810481
vt 0.723299 0.810481
vt 0.689225 0.776407
vt 0.723299 0.776407
vt 0.723299 0.776407
vt 0.689225 0.776407
vt 0.689225 0.810481
vt 0.689225 0.810481
vt 0.723299 0.810481
vt 0.723299 0.810481
vt 0.689225 0.776407
vt 0.723299 0.776407
vt 0.723299 0.776407
vt 0.689225 0.776407
vt 0.689225 0.810481
vt 0.689225 0.810481
vt 0.723299 0.810481
vt 0.723299 0.810481
vt 0.689225 0.808986
vt 0.723299 0.808986
vt 0.723299 0.807491
vt 0.723299 0.807491
vt 0.723299 0.776407
vt 0.723299 0.776407
vt 0.689225 0.808986
vt 0.689225 0.776407
vt 0.689225 0.776407
vt 0.723299 0.808986
vt 0.689225 0.807491
vt 0.689225 0.807491
vt 0.689225 0.810481
vt 0.689225 0.810481
vt 0.723299 0.810481
vt 0.723299 0.810481
vt 0.689225 0.776407
vt 0.723299 0.776407
vt 0.723299 0.776407
vt 0.689225 0.776407
vn 0.0000 1.0000 0.0000
vn 0.0000 0.0000 1.0000
vn 0.9995 -0.0303 0.0000
vn -1.0000 -0.0042 0.0000
vn 0.0000 -1.0000 0.0000
vn 0.0000 0.0000 -1.0000
vn -0.0429 0.9991 0.0000
vn 1.0000 0.0025 0.0000
vn -0.9992 -0.0408 0.0000
vn -0.0642 0.9979 0.0000
vn -0.0214 0.3329 0.9427
vn 0.9999 0.0120 0.0000
vn -0.9979 -0.0642 0.0000
vn 0.0214 -0.3329 -0.9427
vn 0.0005 1.0000 0.0000
vn 0.9996 -0.0273 0.0000
vn -1.0000 -0.0034 0.0000
vn -0.0375 0.9993 0.0000
vn 0.0000 -0.0022 1.0000
vn 1.0000 -0.0014 0.0000
vn -0.9994 -0.0335 0.0000
vn -0.9987 -0.0508 0.0000
vn 0.9979 0.0642 0.0000
vn 0.0227 0.9826 0.1846
vn 0.0187 0.7044 0.7096
vn 0.9994 -0.0332 0.0000
vn -0.9995 0.0313 0.0059
vn -0.0187 -0.7044 -0.7096
vn -1.0000 0.0059 0.0000
vn 0.9997 -0.0251 -0.0023
vn 0.9995 -0.0312 -0.0059
vn -0.0027 -0.0256 -0.9997
vn -0.9997 0.0251 0.0023
vn 0.0032 0.0485 0.9988
vn -0.0000 0.0022 -1.0000
usemtl Palette
s off
f 7/1/1 4/2/1 1/3/1 8/4/1
f 3/5/2 2/6/2 1/3/2 4/2/2
f 8/4/3 1/3/3 2/6/3 6/7/3
f 5/8/4 3/5/4 4/2/4 7/1/4
f 6/7/5 2/6/5 3/5/5 5/8/5
f 5/8/6 7/1/6 8/4/6 6/7/6
f 15/9/7 12/10/7 9/11/7 16/12/7
f 11/13/2 10/14/2 9/11/2 12/10/2
f 16/12/8 9/11/8 10/14/8 14/15/8
f 13/16/9 11/13/9 12/10/9 15/9/9
f 14/15/5 10/14/5 11/13/5 13/16/5
f 13/16/6 15/9/6 16/12/6 14/15/6
f 23/17/10 20/18/10 17/19/10 24/20/10
f 42/21/11 41/22/11 17/19/11 20/18/11
f 44/23/12 41/22/12 18/24/12 22/25/12
f 43/26/13 42/21/13 20/18/13 23/17/13
f 22/25/5 18/24/5 19/27/5 21/28/5
f 43/26/14 23/17/14 24/20/14 44/23/14
f 31/29/15 28/30/15 25/31/15 32/32/15
f 27/33/2 26/34/2 25/31/2 28/30/2
f 32/32/16 25/31/16 26/34/16 30/35/16
f 29/36/17 27/33/17 28/30/17 31/29/17
f 30/35/5 26/34/5 27/33/5 29/36/5
f 29/36/6 31/29/6 32/32/6 30/35/6
f 39/37/18 36/38/18 33/39/18 40/40/18
f 35/41/19 34/42/19 33/39/19 36/38/19
f 40/40/20 33/39/20 34/42/20 38/43/20
f 38/43/5 34/42/5 35/41/5 37/44/5
f 37/44/21 35/41/21 36/38/21 39/37/21
f 21/28/6 43/26/6 44/23/6 22/25/6
f 21/28/22 19/27/22 42/21/22 43/26/22
f 24/20/23 17/19/23 41/22/23 44/23/23
f 19/27/2 18/24/2 41/22/2 42/21/2
f 51/45/24 48/46/24 45/47/24 52/48/24
f 59/49/25 57/50/25 45/47/25 48/46/25
f 56/51/26 53/52/26 46/53/26 50/54/26
f 60/55/27 59/49/27 48/46/27 51/45/27
f 50/54/5 46/53/5 47/56/5 49/57/5
f 60/55/28 51/45/28 52/48/28 58/58/28
f 49/57/6 55/59/6 56/51/6 50/54/6
f 49/57/29 47/56/29 54/60/29 55/59/29
f 58/58/30 57/50/30 53/52/30 56/51/30
f 47/56/2 46/53/2 53/52/2 54/60/2
f 52/48/31 45/47/31 57/50/31 58/58/31
f 55/59/32 60/55/32 58/58/32 56/51/32
f 55/59/33 54/60/33 59/49/33 60/55/33
f 54/60/34 53/52/34 57/50/34 59/49/34
f 37/44/35 39/37/35 40/40/35 38/43/35
f 67/61/1 64/62/1 61/63/1 68/64/1
f 63/65/2 62/66/2 61/63/2 64/62/2
f 68/64/3 61/63/3 62/66/3 66/67/3
f 65/68/4 63/65/4 64/62/4 67/61/4
f 66/67/5 62/66/5 63/65/5 65/68/5
f 65/68/6 67/61/6 68/64/6 66/67/6
