# Blender v3.3.1 OBJ File: 'Office Set.blend'
# www.blender.org
mtllib Office_Desk_4_Rounded_Alt.mtl
o Office_Desk_4_Rounded_Alt_Cube.165
v 5.628777 -0.001885 2.776829
v 5.628777 0.896389 2.776829
v 5.671511 -0.001885 2.776829
v 5.671511 0.896389 2.776829
v 5.671511 0.896389 2.211514
v 5.671511 -0.001885 2.211514
v 5.628777 -0.001885 2.147102
v 5.628777 0.896389 2.147102
v 5.628777 0.896389 2.211514
v 5.628777 -0.001885 2.211514
v 5.671511 -0.001885 2.147102
v 5.671511 0.896389 2.147102
v 5.077927 -0.001885 2.776829
v 5.077927 0.896389 2.776829
v 5.120661 -0.001885 2.776829
v 5.120661 0.896389 2.776829
v 5.120661 0.896389 2.211514
v 5.120661 -0.001885 2.211514
v 5.077927 0.896389 2.211514
v 5.077927 -0.001885 2.211514
v 3.256276 0.949037 2.868371
v 3.256276 0.873724 2.868371
v 3.371223 -0.001885 2.776829
v 3.371223 0.896389 2.776829
v 3.328489 -0.001885 2.776829
v 3.328489 0.896389 2.776829
v 4.062542 0.873724 2.078823
v 4.062542 0.949037 2.868371
v 4.062542 0.949037 2.078823
v 4.062542 0.873724 2.868371
v 3.922073 -0.001885 2.776829
v 3.922073 0.896389 2.776829
v 3.879339 -0.001885 2.776829
v 3.879339 0.896389 2.776829
v 3.879339 0.896389 2.211514
v 3.879339 -0.001885 2.211514
v 3.922073 0.896389 2.211514
v 3.922073 -0.001885 2.211514
v 3.364893 -0.001885 2.776829
v 3.364893 -0.001885 2.745952
v 3.364893 0.896389 2.776829
v 3.364893 0.896389 2.745952
v 3.256276 0.949037 4.582075
v 3.256276 0.873724 4.582075
v 4.062542 0.949037 4.582075
v 4.062542 0.873724 4.582075
v 3.958216 -0.001885 4.447390
v 3.958216 0.896389 4.447390
v 3.958216 -0.001885 4.490124
v 3.958216 0.896389 4.490124
v 3.392901 0.896389 4.490124
v 3.392901 -0.001885 4.490124
v 3.328489 -0.001885 4.447390
v 3.328489 0.896389 4.447390
v 3.371223 0.896389 4.447390
v 3.371223 -0.001885 4.447390
v 3.328489 -0.001885 4.490124
v 3.328489 0.896389 4.490124
v 3.879339 0.896389 2.745952
v 3.879339 -0.001885 2.745952
v 3.922073 0.896389 2.745952
v 3.922073 -0.001885 2.745952
v 5.763289 0.949037 2.259120
v 5.582991 0.949037 2.078823
v 5.749565 0.949037 2.190124
v 5.710481 0.949037 2.131631
v 5.651988 0.949037 2.092547
v 5.582991 0.873724 2.078823
v 5.763289 0.873724 2.259120
v 5.651988 0.873724 2.092547
v 5.710481 0.873724 2.131631
v 5.749565 0.873724 2.190124
v 5.582991 0.949037 2.868371
v 5.763289 0.949037 2.688073
v 5.651988 0.949037 2.854646
v 5.710481 0.949037 2.815563
v 5.749565 0.949037 2.757070
v 5.763289 0.873724 2.688073
v 5.582991 0.873724 2.868371
v 5.749565 0.873724 2.757070
v 5.710481 0.873724 2.815563
v 5.651988 0.873724 2.854646
v 3.664623 0.949037 2.078823
v 3.256276 0.949037 2.487170
v 3.558935 0.949037 2.092737
v 3.460450 0.949037 2.133531
v 3.375878 0.949037 2.198425
v 3.310984 0.949037 2.282996
v 3.270190 0.949037 2.381482
v 3.256276 0.873724 2.487170
v 3.664623 0.873724 2.078823
v 3.270190 0.873724 2.381482
v 3.310984 0.873724 2.282996
v 3.375878 0.873724 2.198425
v 3.460450 0.873724 2.133531
v 3.558935 0.873724 2.092737
v 3.328489 -0.001885 2.372784
v 3.554171 -0.001885 2.147102
v 3.336179 -0.001885 2.314373
v 3.358725 -0.001885 2.259943
v 3.394589 -0.001885 2.213203
v 3.441330 -0.001885 2.177338
v 3.495760 -0.001885 2.154792
v 3.554171 0.896389 2.147102
v 3.328489 0.896389 2.372784
v 3.495760 0.896389 2.154792
v 3.441330 0.896389 2.177338
v 3.394589 0.896389 2.213203
v 3.358725 0.896389 2.259943
v 3.336179 0.896389 2.314373
v 3.371223 0.896389 2.427562
v 3.587271 0.896389 2.211514
v 3.587271 -0.001885 2.211514
v 3.371223 -0.001885 2.427562
vt 0.464329 0.881475
vt 0.455148 0.882223
vt 0.455148 0.887365
vt 0.464329 0.887365
vt 0.557403 0.883905
vt 0.557403 0.893085
vt 0.557403 0.893085
vt 0.557403 0.893032
vt 0.557403 0.892880
vt 0.557403 0.891791
vt 0.557403 0.890989
vt 0.557403 0.886001
vt 0.557403 0.885199
vt 0.557403 0.884109
vt 0.557403 0.883958
vt 0.557403 0.883905
vt 0.548222 0.893085
vt 0.548222 0.893085
vt 0.548222 0.888653
vt 0.548222 0.887424
vt 0.548222 0.886279
vt 0.548222 0.884368
vt 0.548222 0.884117
vt 0.548222 0.883958
vt 0.548222 0.883905
vt 0.548222 0.883905
vt 0.464329 0.859823
vt 0.464329 0.860278
vt 0.473509 0.860278
vt 0.473509 0.859823
vt 0.464329 0.859823
vt 0.473509 0.859823
vt 0.473509 0.868146
vt 0.464329 0.868146
vt 0.464329 0.887365
vt 0.473509 0.887365
vt 0.473509 0.896545
vt 0.464329 0.896545
vt 0.473509 0.878184
vt 0.473509 0.879043
vt 0.464329 0.879043
vt 0.464329 0.878184
vt 0.464329 0.869004
vt 0.473509 0.869004
vt 0.455148 0.887365
vt 0.455148 0.879043
vt 0.455148 0.878184
vt 0.455148 0.879043
vt 0.458330 0.879782
vt 0.464329 0.859823
vt 0.473509 0.859823
vt 0.473509 0.868146
vt 0.464329 0.868146
vt 0.464329 0.887365
vt 0.473509 0.887365
vt 0.473509 0.896545
vt 0.464329 0.896545
vt 0.473509 0.879043
vt 0.464329 0.879043
vt 0.455148 0.887365
vt 0.455148 0.879043
vt 0.557403 0.883905
vt 0.557403 0.883958
vt 0.557403 0.884117
vt 0.557403 0.884368
vt 0.557403 0.886279
vt 0.557403 0.887424
vt 0.557403 0.888653
vt 0.557403 0.893085
vt 0.464329 0.886910
vt 0.464329 0.887365
vt 0.464329 0.887365
vt 0.464329 0.886910
vt 0.464329 0.868146
vt 0.473509 0.868146
vt 0.473509 0.887365
vt 0.473509 0.896545
vt 0.464329 0.896545
vt 0.473509 0.879043
vt 0.464329 0.879043
vt 0.473509 0.886910
vt 0.548222 0.893085
vt 0.548222 0.883905
vt 0.548222 0.883905
vt 0.464329 0.868146
vt 0.473509 0.868146
vt 0.464329 0.896545
vt 0.473509 0.896545
vt 0.473509 0.887365
vt 0.473509 0.887365
vt 0.455148 0.886910
vt 0.455148 0.887365
vt 0.473509 0.881475
vt 0.548222 0.890989
vt 0.548222 0.891791
vt 0.548222 0.892880
vt 0.548222 0.893032
vt 0.548222 0.893085
vt 0.548222 0.883905
vt 0.548222 0.883958
vt 0.548222 0.884109
vt 0.548222 0.885199
vt 0.548222 0.886001
vt 0.455148 0.879043
vt 0.473509 0.886910
vt 0.557403 0.883905
vt 0.557403 0.893085
vt 0.557403 0.883905
vt 0.464329 0.859823
vt 0.464329 0.868146
vt 0.473509 0.868146
vt 0.473509 0.859823
vt 0.464329 0.887365
vt 0.464329 0.896545
vt 0.473509 0.896545
vt 0.473509 0.887365
vt 0.473509 0.878184
vt 0.464329 0.878184
vt 0.464329 0.879043
vt 0.473509 0.879043
vt 0.464329 0.869004
vt 0.473509 0.869004
vt 0.455148 0.879043
vt 0.455148 0.887365
vt 0.455148 0.878184
vt 0.473509 0.869004
vt 0.464329 0.869004
vt 0.455148 0.878184
vt 0.455148 0.879043
vt 0.464329 0.868146
vt 0.473509 0.868146
vt 0.473509 0.877284
vt 0.464329 0.877284
vt 0.464329 0.877517
vt 0.473509 0.877517
vt 0.464329 0.877734
vt 0.473509 0.877734
vt 0.464329 0.878184
vt 0.473509 0.878184
vt 0.464329 0.879830
vt 0.473509 0.879830
vt 0.464329 0.880623
vt 0.473509 0.880623
vt 0.473509 0.864965
vt 0.464329 0.864965
vt 0.464329 0.859823
vt 0.473509 0.859823
vt 0.463428 0.878184
vt 0.462833 0.878288
vt 0.462889 0.880613
vt 0.454754 0.879064
vt 0.460546 0.878594
vn 0.0000 -1.0000 0.0000
vn 0.0000 1.0000 -0.0000
vn 1.0000 0.0000 0.0000
vn -1.0000 0.0000 0.0000
vn 0.0000 0.0000 1.0000
vn 0.0000 0.0000 -1.0000
vn -0.1305 0.0000 -0.9914
vn -0.3827 0.0000 -0.9239
vn -0.6088 0.0000 -0.7934
vn -0.7934 0.0000 -0.6088
vn -0.9239 0.0000 -0.3827
vn -0.9914 0.0000 -0.1305
vn 0.7071 0.0000 0.7071
vn 0.3015 -0.9045 0.3015
vn 0.0713 -0.6857 0.7244
vn 0.0713 0.6857 0.7244
vn 0.3015 0.9045 0.3015
vn -0.7071 -0.7071 0.0000
vn -0.5774 -0.5774 0.5774
vn -0.5774 0.5774 0.5774
vn -0.7071 0.7071 0.0000
vn 0.0000 -0.7071 -0.7071
vn -0.0472 -0.6927 -0.7197
vn -0.0472 0.6927 -0.7197
vn 0.0000 0.7071 -0.7071
vn 0.5774 -0.5774 0.5774
vn 0.5774 0.5774 0.5774
vn 0.7244 -0.6857 -0.0713
vn 0.7244 0.6857 -0.0713
vn 0.7244 0.6857 0.0713
vn 0.7244 -0.6857 0.0713
vn 0.6894 -0.6657 -0.2856
vn 0.6894 0.6657 -0.2856
vn 0.5276 -0.6657 -0.5276
vn 0.5276 0.6657 -0.5276
vn 0.2856 -0.6657 -0.6894
vn 0.2856 0.6657 -0.6894
vn 0.0713 -0.6857 -0.7244
vn 0.0713 0.6857 -0.7244
vn 0.2856 -0.6657 0.6894
vn 0.2856 0.6657 0.6894
vn 0.5276 -0.6657 0.5276
vn 0.5276 0.6657 0.5276
vn 0.6894 -0.6657 0.2856
vn 0.6894 0.6657 0.2856
vn -0.1900 -0.6789 -0.7092
vn -0.1900 0.6789 -0.7092
vn -0.3671 -0.6789 -0.6359
vn -0.3671 0.6789 -0.6359
vn -0.5192 -0.6789 -0.5192
vn -0.5192 0.6789 -0.5192
vn -0.6359 -0.6789 -0.3671
vn -0.6359 0.6789 -0.3671
vn -0.7092 -0.6789 -0.1900
vn -0.7092 0.6789 -0.1900
vn -0.7197 -0.6927 -0.0472
vn -0.7197 0.6927 -0.0472
usemtl Palette
s off
f 97/1/1 114/2/1 23/3/1 25/4/1
f 29/5/2 28/6/2 73/7/2 75/8/2 76/9/2 77/10/2 74/11/2 63/12/2 65/13/2 66/14/2 67/15/2 64/16/2
f 30/17/1 22/18/1 90/19/1 92/20/1 93/21/1 94/22/1 95/23/1 96/24/1 91/25/1 27/26/1
f 31/27/3 62/28/3 61/29/3 32/30/3
f 1/31/4 2/32/4 9/33/4 10/34/4
f 3/35/5 4/36/5 2/37/5 1/38/5
f 12/39/3 5/40/3 6/41/3 11/42/3
f 5/40/3 4/36/3 3/35/3 6/41/3
f 7/43/6 8/44/6 12/39/6 11/42/6
f 6/41/1 3/35/1 1/45/1 10/46/1
f 11/42/1 6/41/1 10/46/1 7/47/1
f 113/48/1 114/2/1 100/49/1
f 13/50/4 14/51/4 19/52/4 20/53/4
f 15/54/5 16/55/5 14/56/5 13/57/5
f 17/58/3 16/55/3 15/54/3 18/59/3
f 18/59/1 15/54/1 13/60/1 20/61/1
f 83/62/2 85/63/2 86/64/2 87/65/2 88/66/2 89/67/2 84/68/2 21/69/2 28/6/2 29/5/2
f 60/70/1 33/71/1 39/72/1 40/73/1
f 113/74/5 10/34/5 9/33/5 112/75/5
f 25/4/6 26/76/6 24/77/6 23/78/6
f 35/79/4 36/80/4 60/70/4 59/81/4
f 30/17/1 46/82/1 44/83/1 22/84/1
f 62/28/3 38/85/3 37/86/3 61/29/3
f 33/71/5 31/87/5 32/88/5 34/89/5
f 33/71/5 34/89/5 41/90/5 39/72/5
f 60/70/1 62/91/1 31/92/1 33/71/1
f 25/4/4 26/76/4 105/93/4 97/1/4
f 78/94/1 80/95/1 81/96/1 82/97/1 79/98/1 30/17/1 27/26/1 68/99/1 70/100/1 71/101/1 72/102/1 69/103/1
f 36/80/1 38/104/1 62/91/1 60/70/1
f 59/81/6 60/70/6 40/73/6 42/105/6
f 43/106/2 45/107/2 28/6/2 21/108/2
f 47/109/6 56/110/6 55/111/6 48/112/6
f 49/113/3 47/114/3 48/115/3 50/116/3
f 58/117/5 57/118/5 52/119/5 51/120/5
f 51/120/5 52/119/5 49/113/5 50/116/5
f 53/121/4 57/118/4 58/117/4 54/122/4
f 52/119/1 56/123/1 47/124/1 49/113/1
f 57/118/1 53/125/1 56/123/1 52/119/1
f 54/122/4 26/126/4 25/127/4 53/121/4
f 53/125/1 25/128/1 23/129/1 56/123/1
f 56/110/3 23/130/3 24/131/3 55/111/3
f 104/132/7 98/133/7 103/134/7 106/135/7
f 106/135/8 103/134/8 102/136/8 107/137/8
f 107/137/9 102/136/9 101/138/9 108/139/9
f 108/139/10 101/138/10 100/140/10 109/141/10
f 109/141/11 100/140/11 99/142/11 110/143/11
f 110/143/12 99/142/12 97/1/12 105/93/12
f 98/133/6 104/132/6 8/44/6 7/43/6
f 111/144/13 114/145/13 113/74/13 112/75/13
f 23/146/3 114/145/3 111/144/3 24/147/3
f 113/48/1 98/148/1 7/47/1 10/46/1
f 103/149/1 98/148/1 113/48/1
f 114/2/1 97/1/1 99/150/1
f 100/49/1 114/2/1 99/150/1
f 100/49/1 101/151/1 113/48/1
f 101/151/1 102/152/1 113/48/1
f 102/152/1 103/149/1 113/48/1
s 1
f 30/17/14 79/98/15 73/7/16 28/6/17
f 22/84/18 44/83/19 43/106/20 21/108/21
f 27/26/22 91/25/23 83/62/24 29/5/25
f 46/82/26 30/17/14 28/6/17 45/107/27
f 44/83/19 46/82/26 45/107/27 43/106/20
f 69/103/28 63/12/29 74/11/30 78/94/31
f 63/12/29 69/103/28 72/102/32 65/13/33
f 65/13/33 72/102/32 71/101/34 66/14/35
f 66/14/35 71/101/34 70/100/36 67/15/37
f 67/15/37 70/100/36 68/99/38 64/16/39
f 73/7/16 79/98/15 82/97/40 75/8/41
f 75/8/41 82/97/40 81/96/42 76/9/43
f 76/9/43 81/96/42 80/95/44 77/10/45
f 77/10/45 80/95/44 78/94/31 74/11/30
f 68/99/38 27/26/22 29/5/25 64/16/39
f 83/62/24 91/25/23 96/24/46 85/63/47
f 85/63/47 96/24/46 95/23/48 86/64/49
f 86/64/49 95/23/48 94/22/50 87/65/51
f 87/65/51 94/22/50 93/21/52 88/66/53
f 88/66/53 93/21/52 92/20/54 89/67/55
f 89/67/55 92/20/54 90/19/56 84/68/57
f 90/19/56 22/18/18 21/69/21 84/68/57
