# Blender v3.3.1 OBJ File: 'Office Set.blend'
# www.blender.org
mtllib Office_Desk_3_Alt.mtl
o Office_Desk_3_Alt_Cube.205
v -3.315748 0.949037 2.125000
v -3.315748 0.873724 2.125000
v -3.315748 0.949037 2.875000
v -3.315748 0.873724 2.875000
v -3.371223 -0.001885 2.776829
v -3.371223 0.896389 2.776829
v -3.328489 -0.001885 2.776829
v -3.328489 0.896389 2.776829
v -3.328489 0.896389 2.211514
v -3.328489 -0.001885 2.211514
v -3.371223 -0.001885 2.147102
v -3.371223 0.896389 2.147102
v -3.371223 0.896389 2.211514
v -3.371223 -0.001885 2.211514
v -3.328489 -0.001885 2.147102
v -3.328489 0.896389 2.147102
v -3.922073 -0.001885 2.776829
v -3.922073 0.896389 2.776829
v -3.879339 -0.001885 2.776829
v -3.879339 0.896389 2.776829
v -3.879339 0.896389 2.211514
v -3.879339 -0.001885 2.211514
v -3.922073 0.896389 2.211514
v -3.922073 -0.001885 2.211514
v -5.684252 0.949037 2.125000
v -5.684252 0.873724 2.125000
v -5.684252 0.949037 2.875000
v -5.684252 0.873724 2.875000
v -5.628777 -0.001885 2.776829
v -5.628777 0.896389 2.776829
v -5.671511 -0.001885 2.776829
v -5.671511 0.896389 2.776829
v -5.671511 0.896389 2.211514
v -5.671511 -0.001885 2.211514
v -5.628777 -0.001885 2.147102
v -5.628777 0.896389 2.147102
v -5.628777 0.896389 2.211514
v -5.628777 -0.001885 2.211514
v -5.671511 -0.001885 2.147102
v -5.671511 0.896389 2.147102
v -5.077927 -0.001885 2.776829
v -5.077927 0.896389 2.776829
v -5.120661 -0.001885 2.776829
v -5.120661 0.896389 2.776829
v -5.120661 0.896389 2.211514
v -5.120661 -0.001885 2.211514
v -5.077927 0.896389 2.211514
v -5.077927 -0.001885 2.211514
vt 0.529156 0.868146
vt 0.529156 0.868146
vt 0.538336 0.868146
vt 0.538336 0.868146
vt 0.529156 0.878184
vt 0.538336 0.878184
vt 0.538336 0.887365
vt 0.529156 0.887365
vt 0.529156 0.887365
vt 0.529156 0.878184
vt 0.538336 0.887365
vt 0.538336 0.878184
vt 0.529156 0.859823
vt 0.538336 0.859823
vt 0.529156 0.887365
vt 0.538336 0.887365
vt 0.538336 0.896545
vt 0.529156 0.896545
vt 0.538336 0.878184
vt 0.538336 0.879043
vt 0.529156 0.879043
vt 0.529156 0.878184
vt 0.529156 0.869004
vt 0.538336 0.869004
vt 0.519975 0.887365
vt 0.519975 0.879043
vt 0.519975 0.878184
vt 0.519975 0.878184
vt 0.519975 0.879043
vt 0.538336 0.869004
vt 0.529156 0.869004
vt 0.529156 0.859823
vt 0.538336 0.859823
vt 0.538336 0.868146
vt 0.529156 0.868146
vt 0.529156 0.887365
vt 0.538336 0.887365
vt 0.538336 0.896545
vt 0.529156 0.896545
vt 0.538336 0.879043
vt 0.529156 0.879043
vt 0.519975 0.887365
vt 0.519975 0.879043
vt 0.529156 0.859823
vt 0.538336 0.859823
vt 0.529156 0.887365
vt 0.529156 0.896545
vt 0.538336 0.896545
vt 0.538336 0.887365
vt 0.538336 0.878184
vt 0.529156 0.878184
vt 0.529156 0.879043
vt 0.538336 0.879043
vt 0.519975 0.887365
vt 0.529156 0.859823
vt 0.529156 0.868146
vt 0.538336 0.868146
vt 0.538336 0.859823
vt 0.529156 0.887365
vt 0.529156 0.896545
vt 0.538336 0.896545
vt 0.538336 0.887365
vt 0.538336 0.879043
vt 0.529156 0.879043
vt 0.519975 0.879043
vt 0.519975 0.887365
vn 0.0000 0.0000 1.0000
vn 1.0000 0.0000 0.0000
vn 0.0000 -1.0000 0.0000
vn 0.0000 0.0000 -1.0000
vn -1.0000 0.0000 0.0000
vn 0.0000 1.0000 0.0000
usemtl Palette
s off
f 38/1/1 14/2/1 13/3/1 37/4/1
f 2/5/2 1/6/2 3/7/2 4/8/2
f 4/8/3 28/9/3 26/10/3 2/5/3
f 28/9/1 4/8/1 3/7/1 27/11/1
f 2/5/4 26/10/4 25/12/4 1/6/4
f 5/13/5 6/14/5 13/3/5 14/2/5
f 7/15/1 8/16/1 6/17/1 5/18/1
f 16/19/2 9/20/2 10/21/2 15/22/2
f 9/20/2 8/16/2 7/15/2 10/21/2
f 11/23/4 12/24/4 16/19/4 15/22/4
f 10/21/3 7/15/3 5/25/3 14/26/3
f 15/22/3 10/21/3 14/26/3 11/27/3
f 35/28/3 11/27/3 14/26/3 38/29/3
f 36/30/4 12/24/4 11/23/4 35/31/4
f 17/32/5 18/33/5 23/34/5 24/35/5
f 19/36/1 20/37/1 18/38/1 17/39/1
f 21/40/2 20/37/2 19/36/2 22/41/2
f 22/41/3 19/36/3 17/42/3 24/43/3
f 26/10/5 28/9/5 27/11/5 25/12/5
f 29/44/2 38/1/2 37/4/2 30/45/2
f 31/46/1 29/47/1 30/48/1 32/49/1
f 40/50/5 39/51/5 34/52/5 33/53/5
f 33/53/5 34/52/5 31/46/5 32/49/5
f 35/31/4 39/51/4 40/50/4 36/30/4
f 34/52/3 38/29/3 29/54/3 31/46/3
f 39/51/3 35/28/3 38/29/3 34/52/3
f 41/55/2 48/56/2 47/57/2 42/58/2
f 43/59/1 41/60/1 42/61/1 44/62/1
f 45/63/5 46/64/5 43/59/5 44/62/5
f 46/64/3 48/65/3 41/66/3 43/59/3
f 25/12/6 27/11/6 3/7/6 1/6/6
