# Blender v3.3.1 OBJ File: 'Office Set.blend'
# www.blender.org
mtllib Painting_Small.mtl
o Painting_Small_Cube.106
v -12.593750 1.906250 -0.985291
v -12.593750 2.093750 -0.985291
v -12.625852 1.873857 -1.024694
v -12.625852 2.126142 -1.024694
v -12.406250 1.906250 -0.985291
v -12.406250 2.093750 -0.985291
v -12.374148 1.873857 -1.024694
v -12.374148 2.126142 -1.024694
v -12.625852 1.873857 -0.985291
v -12.625852 2.126142 -0.985291
v -12.374148 2.126142 -0.985291
v -12.374148 1.873857 -0.985291
v -12.593750 1.906250 -0.993508
v -12.593750 2.093750 -0.993508
v -12.406250 2.093750 -0.993508
v -12.406250 1.906250 -0.993508
vt 0.532773 0.851771
vt 0.545980 0.851771
vt 0.545980 0.864978
vt 0.532773 0.864978
vt 0.545967 0.876919
vt 0.560013 0.876919
vt 0.560013 0.890965
vt 0.545967 0.890965
vt 0.532773 0.878184
vt 0.545980 0.878184
vt 0.545980 0.891391
vt 0.532773 0.891391
vt 0.533438 0.904259
vt 0.533438 0.891731
vt 0.533438 0.891731
vt 0.533438 0.904259
vt 0.519566 0.878184
vt 0.519566 0.891391
vt 0.559187 0.878184
vt 0.559187 0.891391
vt 0.545315 0.904259
vt 0.545980 0.904598
vt 0.532773 0.904598
vt 0.545315 0.891731
vt 0.545315 0.904259
vt 0.545315 0.891731
vt 0.353654 0.151347
vt 0.353654 0.493654
vt 0.011346 0.493654
vt 0.011346 0.151346
vn -1.0000 0.0000 0.0000
vn 0.0000 0.0000 -1.0000
vn 1.0000 0.0000 0.0000
vn 0.0000 1.0000 0.0000
vn 0.0000 -1.0000 0.0000
vn 0.0000 0.0000 1.0000
usemtl Palette
s off
f 9/1/1 10/2/1 4/3/1 3/4/1
f 3/5/2 4/6/2 8/7/2 7/8/2
f 7/9/3 8/10/3 11/11/3 12/12/3
f 1/13/4 5/14/4 16/15/4 13/16/4
f 3/17/5 7/9/5 12/12/5 9/18/5
f 8/10/4 4/19/4 10/20/4 11/11/4
f 1/13/6 2/21/6 10/22/6 9/23/6
f 6/24/6 5/14/6 12/12/6 11/11/6
f 5/14/6 1/13/6 9/23/6 12/12/6
f 2/21/6 6/24/6 11/11/6 10/22/6
f 2/21/3 1/13/3 13/16/3 14/25/3
f 6/24/5 2/21/5 14/25/5 15/26/5
f 5/14/1 6/24/1 15/26/1 16/15/1
usemtl Painting
f 16/27/6 15/28/6 14/29/6 13/30/6
