# Blender v3.3.1 OBJ File: 'Office Set.blend'
# www.blender.org
mtllib Painting.mtl
o Painting_Cube.004
v -13.911791 1.800572 -0.985291
v -13.911791 2.199428 -0.985291
v -13.934123 1.778241 -1.014709
v -13.934123 2.221759 -1.014709
v -13.088209 1.800572 -0.985291
v -13.088209 2.199428 -0.985291
v -13.065877 1.778241 -1.014709
v -13.065877 2.221759 -1.014709
v -13.934123 1.778241 -0.985291
v -13.934123 2.221759 -0.985291
v -13.065877 2.221759 -0.985291
v -13.065877 1.778241 -0.985291
v -13.911791 1.800572 -0.993508
v -13.911791 2.199428 -0.993508
v -13.088209 2.199428 -0.993508
v -13.088209 1.800572 -0.993508
vt 0.532773 0.851771
vt 0.545980 0.851771
vt 0.545980 0.864978
vt 0.532773 0.864978
vt 0.545980 0.878184
vt 0.532773 0.878184
vt 0.545980 0.891391
vt 0.532773 0.891391
vt 0.533438 0.904259
vt 0.533438 0.891731
vt 0.533438 0.891731
vt 0.533438 0.904259
vt 0.519566 0.878184
vt 0.519566 0.891391
vt 0.559187 0.878184
vt 0.559187 0.891391
vt 0.545315 0.904259
vt 0.545980 0.904598
vt 0.532773 0.904598
vt 0.545315 0.891731
vt 0.545315 0.904259
vt 0.545315 0.891731
vt 0.994535 0.514057
vt 0.994535 0.990943
vt 0.009830 0.990943
vt 0.009830 0.514057
vn -1.0000 0.0000 0.0000
vn 0.0000 0.0000 -1.0000
vn 1.0000 0.0000 0.0000
vn 0.0000 1.0000 0.0000
vn 0.0000 -1.0000 0.0000
vn 0.0000 0.0000 1.0000
usemtl Palette
s off
f 9/1/1 10/2/1 4/3/1 3/4/1
f 3/4/2 4/3/2 8/5/2 7/6/2
f 7/6/3 8/5/3 11/7/3 12/8/3
f 1/9/4 5/10/4 16/11/4 13/12/4
f 3/13/5 7/6/5 12/8/5 9/14/5
f 8/5/4 4/15/4 10/16/4 11/7/4
f 1/9/6 2/17/6 10/18/6 9/19/6
f 6/20/6 5/10/6 12/8/6 11/7/6
f 5/10/6 1/9/6 9/19/6 12/8/6
f 2/17/6 6/20/6 11/7/6 10/18/6
f 2/17/3 1/9/3 13/12/3 14/21/3
f 6/20/5 2/17/5 14/21/5 15/22/5
f 5/10/1 6/20/1 15/22/1 16/11/1
usemtl Painting
f 16/23/6 15/24/6 14/25/6 13/26/6
