# Blender v3.3.1 OBJ File: 'Office Set.blend'
# www.blender.org
mtllib Pencil_2.mtl
o Pencil_2_Cube.146
v -7.368909 1.081924 5.767951
v -7.366235 0.960606 5.766843
v -7.368909 0.960606 5.767951
v -7.370018 0.960606 5.770626
v -7.368909 0.960606 5.773300
v -7.366235 0.960606 5.774408
v -7.363560 0.960606 5.773300
v -7.362453 0.960606 5.770626
v -7.363560 0.960606 5.767951
v -7.366235 1.084702 5.767017
v -7.369843 1.084702 5.770626
v -7.368909 1.081924 5.773300
v -7.366235 1.084702 5.774234
v -7.363560 1.081924 5.773300
v -7.362627 1.084702 5.770626
v -7.363560 1.081924 5.767951
v -7.366234 1.099483 5.770629
v -7.368011 1.089141 5.768850
v -7.366235 1.091686 5.768895
v -7.367967 1.091686 5.770628
v -7.364458 1.089141 5.768850
v -7.368011 1.089141 5.772404
v -7.366235 1.091686 5.772360
v -7.364458 1.089141 5.772404
v -7.364502 1.091686 5.770628
v -7.368909 0.949037 5.767951
v -7.366235 0.949037 5.766843
v -7.370018 0.949037 5.770626
v -7.368909 0.949037 5.773300
v -7.366235 0.949037 5.774408
v -7.363560 0.949037 5.773300
v -7.362453 0.949037 5.770626
v -7.363560 0.949037 5.767951
v -7.362453 0.957976 5.770626
v -7.363560 0.957976 5.767951
v -7.363560 0.957976 5.773300
v -7.366235 0.957976 5.766843
v -7.368909 0.957976 5.767951
v -7.366235 0.957976 5.774408
v -7.368909 0.957976 5.773300
v -7.370018 0.957976 5.770626
vt 0.985635 0.875478
vt 0.980645 0.887525
vt 0.980645 0.887525
vt 0.985635 0.875478
vt 0.980645 0.863431
vt 0.980645 0.863431
vt 0.956551 0.887525
vt 0.951561 0.875478
vt 0.951561 0.875478
vt 0.956551 0.887525
vt 0.956551 0.863431
vt 0.956551 0.863431
vt 0.968598 0.858441
vt 0.968598 0.858441
vt 0.953941 0.729553
vt 0.940794 0.725571
vt 0.952175 0.730285
vt 0.968598 0.892515
vt 0.968598 0.892515
vt 0.646383 0.890106
vt 0.651373 0.878058
vt 0.651373 0.878058
vt 0.646383 0.890105
vt 0.936812 0.715957
vt 0.940794 0.725571
vt 0.963555 0.725571
vt 0.963555 0.725571
vt 0.940794 0.702810
vt 0.936080 0.714191
vt 0.950408 0.698828
vt 0.940794 0.702810
vt 0.963555 0.702810
vt 0.952175 0.698096
vt 0.967537 0.712425
vt 0.963555 0.702810
vt 0.968269 0.714191
vt 0.808171 0.791931
vt 0.803260 0.804546
vt 0.802692 0.803984
vt 0.806748 0.791936
vt 0.803255 0.779321
vt 0.802692 0.779890
vt 0.790645 0.774411
vt 0.790647 0.775834
vt 0.778035 0.779321
vt 0.778598 0.779890
vt 0.773120 0.791931
vt 0.774543 0.791936
vt 0.790645 0.809462
vt 0.790647 0.808040
vt 0.778031 0.804546
vt 0.778598 0.803984
vt 0.639447 0.888281
vt 0.651494 0.883291
vt 0.656484 0.871244
vt 0.651494 0.859196
vt 0.639447 0.854206
vt 0.627400 0.859196
vt 0.622410 0.871244
vt 0.627400 0.883291
vt 0.646383 0.866011
vt 0.646383 0.866011
vt 0.622289 0.890106
vt 0.634336 0.895096
vt 0.634336 0.895096
vt 0.622289 0.890105
vt 0.634336 0.861021
vt 0.634336 0.861021
vt 0.622289 0.866011
vt 0.622289 0.866011
vt 0.617299 0.878058
vt 0.617299 0.878058
vt 0.799402 0.716708
vt 0.811449 0.711718
vt 0.811449 0.711718
vt 0.799402 0.716708
vt 0.782365 0.699671
vt 0.787355 0.711718
vt 0.787355 0.711718
vt 0.782365 0.699671
vt 0.787355 0.687624
vt 0.787355 0.687624
vt 0.799402 0.682634
vt 0.799402 0.682634
vt 0.811449 0.687624
vt 0.811449 0.687624
vt 0.816439 0.699671
vt 0.816439 0.699671
vn 0.9342 0.0007 -0.3569
vn 0.9342 0.0007 0.3568
vn -0.9341 0.0007 -0.3569
vn -0.9341 0.0007 0.3569
vn -0.3569 0.0007 0.9341
vn 0.3569 0.0007 0.9341
vn -0.2761 0.2087 -0.9382
vn 0.3569 0.0007 -0.9342
vn 0.9239 0.0000 -0.3826
vn -0.3569 0.0007 -0.9342
vn -0.9384 0.2087 -0.2752
vn 0.2760 0.2086 -0.9383
vn -0.9384 0.2086 0.2754
vn -0.2751 0.2084 0.9385
vn 0.2751 0.2082 0.9386
vn 0.9385 0.2084 0.2754
vn 0.9385 0.2085 -0.2753
vn 0.8871 0.1997 -0.4161
vn 0.8872 0.1995 0.4160
vn 0.4159 0.1993 0.8873
vn -0.4159 0.1994 0.8873
vn -0.8872 0.1995 0.4159
vn 0.4160 0.1998 -0.8871
vn -0.8872 0.1997 -0.4160
vn -0.4160 0.1998 -0.8871
vn 0.0000 -1.0000 0.0000
vn 0.9239 0.0000 0.3827
vn -0.3826 0.0000 -0.9239
vn 0.3828 0.0000 0.9238
vn -0.3828 0.0000 0.9238
vn -0.9238 0.0000 0.3828
vn -0.9238 0.0000 -0.3828
vn 0.3826 0.0000 -0.9239
vn -0.9239 0.0000 -0.3828
usemtl Palette
s off
f 8/1/1 9/2/1 16/3/1 15/4/1
f 7/5/2 8/1/2 15/4/2 14/6/2
f 3/7/3 4/8/3 11/9/3 1/10/3
f 4/8/4 5/11/4 12/12/4 11/9/4
f 5/11/5 6/13/5 13/14/5 12/12/5
f 6/13/6 7/5/6 14/6/6 13/14/6
f 19/15/7 18/16/7 17/17/7
f 9/2/8 2/18/8 10/19/8 16/3/8
f 35/20/9 34/21/9 32/22/9 33/23/9
f 2/18/10 3/7/10 1/10/10 10/19/10
f 18/16/11 20/24/11 17/25/11
f 21/26/12 19/15/12 17/27/12
f 20/24/13 22/28/13 17/29/13
f 22/28/14 23/30/14 17/31/14
f 23/30/15 24/32/15 17/33/15
f 24/32/16 25/34/16 17/35/16
f 25/34/17 21/26/17 17/36/17
f 15/37/18 16/38/18 21/39/18 25/40/18
f 14/41/19 15/37/19 25/40/19 24/42/19
f 13/43/20 14/41/20 24/42/20 23/44/20
f 12/45/21 13/43/21 23/44/21 22/46/21
f 11/47/22 12/45/22 22/46/22 20/48/22
f 16/38/23 10/49/23 19/50/23 21/39/23
f 1/51/24 11/47/24 20/48/24 18/52/24
f 10/49/25 1/51/25 18/52/25 19/50/25
f 27/53/26 33/54/26 32/55/26 31/56/26 30/57/26 29/58/26 28/59/26 26/60/26
f 34/21/27 36/61/27 31/62/27 32/22/27
f 38/63/28 37/64/28 27/65/28 26/66/28
f 36/61/29 39/67/29 30/68/29 31/62/29
f 39/67/30 40/69/30 29/70/30 30/68/30
f 40/69/31 41/71/31 28/72/31 29/70/31
f 41/71/32 38/63/32 26/66/32 28/72/32
f 37/64/33 35/20/33 33/23/33 27/65/33
f 2/73/33 9/74/33 35/75/33 37/76/33
f 4/77/34 3/78/34 38/79/34 41/80/34
f 5/81/31 4/77/31 41/80/31 40/82/31
f 6/83/30 5/81/30 40/82/30 39/84/30
f 7/85/29 6/83/29 39/84/29 36/86/29
f 3/78/28 2/73/28 37/76/28 38/79/28
f 8/87/27 7/85/27 36/86/27 34/88/27
f 9/74/9 8/87/9 34/88/9 35/75/9
