# Blender v3.3.1 OBJ File: 'Office Set.blend'
# www.blender.org
mtllib Phone_A_Base.mtl
o Phone_A_Base_Cube.107
v -7.600195 0.947338 5.665774
v -7.395447 0.947338 5.665774
v -7.600195 0.947338 5.348316
v -7.395447 0.947338 5.348316
v -7.600195 0.995752 5.361524
v -7.600195 0.975699 5.638476
v -7.395447 0.975699 5.638476
v -7.395447 0.995752 5.361524
v -7.438702 0.987153 5.580098
v -7.438702 0.985267 5.601650
v -7.411223 0.985267 5.601650
v -7.411223 0.987153 5.580098
v -7.471464 0.987153 5.580098
v -7.471464 0.985267 5.601650
v -7.443985 0.985267 5.601650
v -7.443985 0.987153 5.580098
v -7.503736 0.987153 5.580098
v -7.503736 0.985267 5.601650
v -7.476258 0.985267 5.601650
v -7.476258 0.987153 5.580098
v -7.438702 0.989429 5.554086
v -7.438702 0.987543 5.575637
v -7.411223 0.987543 5.575637
v -7.411223 0.989429 5.554086
v -7.471464 0.989429 5.554086
v -7.471464 0.987543 5.575637
v -7.443985 0.987543 5.575637
v -7.443985 0.989429 5.554086
v -7.503736 0.989429 5.554086
v -7.503736 0.987543 5.575637
v -7.476258 0.987543 5.575637
v -7.476258 0.989429 5.554086
v -7.438702 0.991773 5.527294
v -7.438702 0.989887 5.548845
v -7.411223 0.989887 5.548845
v -7.411223 0.991773 5.527294
v -7.471464 0.991773 5.527294
v -7.471464 0.989887 5.548845
v -7.443985 0.989887 5.548845
v -7.443985 0.991773 5.527294
v -7.503736 0.991773 5.527294
v -7.503736 0.989887 5.548845
v -7.476258 0.989887 5.548845
v -7.476258 0.991773 5.527294
v -7.438702 0.994129 5.500356
v -7.438702 0.992244 5.521907
v -7.411223 0.992244 5.521907
v -7.411223 0.994129 5.500356
v -7.471464 0.994129 5.500356
v -7.471464 0.992244 5.521907
v -7.443985 0.992244 5.521907
v -7.443985 0.994129 5.500356
v -7.503736 0.994129 5.500356
v -7.503736 0.992244 5.521907
v -7.476258 0.992244 5.521907
v -7.476258 0.994129 5.500356
v -7.438702 0.974257 5.578970
v -7.438702 0.972371 5.600522
v -7.411223 0.972371 5.600522
v -7.411223 0.974257 5.578970
v -7.471464 0.972371 5.600522
v -7.471464 0.974257 5.578970
v -7.443985 0.972371 5.600522
v -7.443985 0.974257 5.578970
v -7.503736 0.972371 5.600522
v -7.503736 0.974257 5.578970
v -7.476258 0.972371 5.600522
v -7.476258 0.974257 5.578970
v -7.438702 0.974647 5.574509
v -7.438702 0.976532 5.552958
v -7.411223 0.974647 5.574509
v -7.411223 0.976532 5.552958
v -7.471464 0.974647 5.574509
v -7.471464 0.976532 5.552958
v -7.443985 0.974647 5.574509
v -7.443985 0.976532 5.552958
v -7.503736 0.974647 5.574509
v -7.503736 0.976532 5.552958
v -7.476258 0.974647 5.574509
v -7.476258 0.976532 5.552958
v -7.438702 0.976991 5.547717
v -7.438702 0.978876 5.526165
v -7.411223 0.976991 5.547717
v -7.411223 0.978876 5.526165
v -7.471464 0.976991 5.547717
v -7.471464 0.978876 5.526165
v -7.443985 0.976991 5.547717
v -7.443985 0.978876 5.526165
v -7.503736 0.976991 5.547717
v -7.503736 0.978876 5.526165
v -7.476258 0.976991 5.547717
v -7.476258 0.978876 5.526165
v -7.438702 0.979348 5.520779
v -7.438702 0.981233 5.499228
v -7.411223 0.979348 5.520779
v -7.411223 0.981233 5.499228
v -7.471464 0.979348 5.520779
v -7.471464 0.981233 5.499228
v -7.443985 0.979348 5.520779
v -7.443985 0.981233 5.499228
v -7.503736 0.979348 5.520779
v -7.503736 0.981233 5.499228
v -7.476258 0.979348 5.520779
v -7.476258 0.981233 5.499228
v -7.504437 0.981386 5.432176
v -7.504437 0.983271 5.410625
v -7.411011 0.981386 5.432176
v -7.411011 0.983271 5.410625
v -7.499053 1.002573 5.390867
v -7.416395 1.002573 5.390867
v -7.504437 0.985565 5.384412
v -7.411011 0.985565 5.384412
v -7.416395 0.994605 5.444864
v -7.499053 0.994605 5.444864
v -7.411011 0.978432 5.465943
v -7.504437 0.978432 5.465943
v -7.504437 1.003359 5.385540
v -7.411011 1.003359 5.385540
v -7.504437 0.991328 5.467072
v -7.411011 0.991328 5.467072
v -7.583085 1.000392 5.403136
v -7.583085 0.997393 5.430336
v -7.519554 0.997393 5.430336
v -7.519554 1.000392 5.403136
v -7.583085 0.976882 5.428542
v -7.583085 0.979881 5.401341
v -7.519554 0.976882 5.428542
v -7.519554 0.979881 5.401341
vt 0.107123 0.948961
vt 0.107123 0.981150
vt 0.139312 0.981150
vt 0.139312 0.948961
vt 0.113561 0.945743
vt 0.145749 0.945743
vt 0.145749 0.977931
vt 0.113561 0.977931
vt 0.145749 0.977931
vt 0.113561 0.977931
vt 0.113561 0.945743
vt 0.145749 0.945743
vt 0.034699 0.937695
vt 0.066887 0.937695
vt 0.066887 0.969884
vt 0.034699 0.969884
vt 0.034699 0.937695
vt 0.066887 0.937695
vt 0.066887 0.969884
vt 0.034699 0.969884
vt 0.034699 0.937695
vt 0.066887 0.937695
vt 0.066887 0.969884
vt 0.034699 0.969884
vt 0.034699 0.937695
vt 0.066887 0.937695
vt 0.066887 0.969884
vt 0.034699 0.969884
vt 0.034699 0.937695
vt 0.066887 0.937695
vt 0.066887 0.969884
vt 0.034699 0.969884
vt 0.034699 0.937695
vt 0.066887 0.937695
vt 0.066887 0.969884
vt 0.034699 0.969884
vt 0.034699 0.937695
vt 0.066887 0.937695
vt 0.066887 0.969884
vt 0.034699 0.969884
vt 0.034699 0.937695
vt 0.066887 0.937695
vt 0.066887 0.969884
vt 0.034699 0.969884
vt 0.034699 0.937695
vt 0.066887 0.937695
vt 0.066887 0.969884
vt 0.034699 0.969884
vt 0.034699 0.937695
vt 0.066887 0.937695
vt 0.066887 0.969884
vt 0.034699 0.969884
vt 0.034699 0.937695
vt 0.066887 0.937695
vt 0.066887 0.969884
vt 0.034699 0.969884
vt 0.034699 0.937695
vt 0.066887 0.937695
vt 0.066887 0.969884
vt 0.034699 0.969884
vt 0.142530 0.947352
vt 0.142530 0.947352
vt 0.142530 0.979541
vt 0.142530 0.979541
vt 0.110342 0.947352
vt 0.110342 0.947352
vt 0.142530 0.947352
vt 0.142530 0.947352
vt 0.110342 0.979541
vt 0.110342 0.979541
vt 0.110342 0.947352
vt 0.110342 0.947352
vt 0.110342 0.979541
vt 0.110342 0.979541
vt 0.110342 0.947352
vt 0.110342 0.947352
vt 0.110342 0.979541
vt 0.110342 0.979541
vt 0.142530 0.979541
vt 0.142530 0.979541
vt 0.142530 0.947352
vt 0.142530 0.947352
vt 0.142530 0.947352
vt 0.142530 0.947352
vt 0.110342 0.979541
vt 0.110342 0.979541
vt 0.110342 0.947352
vt 0.110342 0.947352
vt 0.110342 0.979541
vt 0.110342 0.979541
vt 0.142530 0.979541
vt 0.142530 0.979541
vt 0.142530 0.979541
vt 0.142530 0.979541
vt 0.142530 0.947352
vt 0.142530 0.947352
vt 0.110342 0.979541
vt 0.110342 0.979541
vt 0.110342 0.947352
vt 0.110342 0.947352
vt 0.142530 0.979541
vt 0.142530 0.979541
vt 0.142530 0.947352
vt 0.142530 0.947352
vt 0.110342 0.979541
vt 0.110342 0.979541
vt 0.110342 0.947352
vt 0.110342 0.947352
vt 0.142530 0.979541
vt 0.142530 0.979541
vt 0.142530 0.947352
vt 0.142530 0.947352
vt 0.110342 0.979541
vt 0.110342 0.979541
vt 0.110342 0.947352
vt 0.110342 0.947352
vt 0.142530 0.979541
vt 0.142530 0.979541
vt 0.142530 0.947352
vt 0.142530 0.947352
vt 0.110342 0.979541
vt 0.110342 0.979541
vt 0.110342 0.947352
vt 0.110342 0.947352
vt 0.142530 0.979541
vt 0.142530 0.979541
vt 0.142530 0.947352
vt 0.142530 0.947352
vt 0.110342 0.979541
vt 0.110342 0.979541
vt 0.110342 0.947352
vt 0.110342 0.947352
vt 0.142530 0.979541
vt 0.142530 0.979541
vt 0.142530 0.947352
vt 0.142530 0.947352
vt 0.110342 0.979541
vt 0.110342 0.979541
vt 0.110342 0.947352
vt 0.110342 0.947352
vt 0.110342 0.979541
vt 0.110342 0.979541
vt 0.110342 0.947352
vt 0.110342 0.947352
vt 0.142530 0.979541
vt 0.142530 0.979541
vt 0.142530 0.947352
vt 0.142530 0.947352
vt 0.142530 0.947352
vt 0.142530 0.947352
vt 0.110342 0.947352
vt 0.110342 0.947352
vt 0.142530 0.979541
vt 0.142530 0.979541
vt 0.142530 0.979541
vt 0.142530 0.979541
vt 0.197158 0.859112
vt 0.227305 0.859112
vt 0.227305 0.881679
vt 0.197158 0.881680
vt 0.110342 0.942524
vt 0.110342 0.942524
vt 0.110342 0.942524
vt 0.110342 0.974712
vt 0.110342 0.974712
vt 0.110342 0.974712
vt 0.142530 0.974712
vt 0.142530 0.942524
vt 0.142530 0.942524
vt 0.142530 0.942524
vt 0.142530 0.974712
vt 0.142530 0.974712
vt 0.300602 0.000572
vt 0.300602 0.000572
vt 0.300602 0.000572
vt 0.300602 0.000572
vt 0.300602 0.000572
vt 0.300602 0.000572
vt 0.300602 0.000572
vt 0.300602 0.000572
vt 0.107369 0.974219
vt 0.135847 0.974219
vt 0.137702 0.976322
vt 0.105514 0.976322
vt 0.107369 0.952901
vt 0.105514 0.944133
vt 0.135847 0.952901
vt 0.137702 0.944133
vt 0.107123 0.947352
vt 0.139312 0.947352
vt 0.139312 0.979541
vt 0.107123 0.979541
vt 0.110342 0.979541
vt 0.110342 0.979541
vt 0.110342 0.947352
vt 0.110342 0.947352
vt 0.142530 0.947352
vt 0.142530 0.947352
vt 0.142530 0.979541
vt 0.142530 0.979541
vn 0.0000 -1.0000 0.0000
vn 0.0000 0.9974 0.0722
vn 0.0000 0.2632 -0.9647
vn 0.0000 0.6935 0.7205
vn 1.0000 0.0000 0.0000
vn -1.0000 0.0000 0.0000
vn 0.0000 0.9962 0.0872
vn 0.0000 -0.0871 0.9962
vn 0.0000 0.0871 -0.9962
vn 0.0000 -0.0872 0.9962
vn 0.0000 0.0872 -0.9962
vn 0.0000 0.9893 0.1460
vn 0.0000 0.0633 -0.9980
vn 0.0000 -0.9962 -0.0872
vn 0.0000 0.9940 0.1096
usemtl Palette
s off
f 1/1/1 3/2/1 4/3/1 2/4/1
f 6/5/2 7/6/2 8/7/2 5/8/2
f 4/9/3 3/10/3 5/8/3 8/7/3
f 1/11/4 2/12/4 7/6/4 6/5/4
f 2/12/5 4/9/5 8/7/5 7/6/5
f 3/10/6 1/11/6 6/5/6 5/8/6
f 10/13/7 11/14/7 12/15/7 9/16/7
f 14/17/7 15/18/7 16/19/7 13/20/7
f 18/21/7 19/22/7 20/23/7 17/24/7
f 22/25/7 23/26/7 24/27/7 21/28/7
f 26/29/7 27/30/7 28/31/7 25/32/7
f 30/33/7 31/34/7 32/35/7 29/36/7
f 34/37/7 35/38/7 36/39/7 33/40/7
f 38/41/7 39/42/7 40/43/7 37/44/7
f 42/45/7 43/46/7 44/47/7 41/48/7
f 46/49/7 47/50/7 48/51/7 45/52/7
f 50/53/7 51/54/7 52/55/7 49/56/7
f 54/57/7 55/58/7 56/59/7 53/60/7
f 39/61/5 87/62/5 88/63/5 40/64/5
f 26/65/8 73/66/8 75/67/8 27/68/8
f 53/69/6 102/70/6 101/71/6 54/72/6
f 13/73/6 62/74/6 61/75/6 14/76/6
f 40/64/9 88/63/9 86/77/9 37/78/9
f 27/68/5 75/67/5 76/79/5 28/80/5
f 54/72/10 101/71/10 103/81/10 55/82/10
f 14/76/10 61/75/10 63/83/10 15/84/10
f 41/85/6 90/86/6 89/87/6 42/88/6
f 28/80/9 76/79/9 74/89/9 25/90/9
f 55/82/5 103/81/5 104/91/5 56/92/5
f 15/84/5 63/83/5 64/93/5 16/94/5
f 42/88/10 89/87/10 91/95/10 43/96/10
f 29/97/6 78/98/6 77/99/6 30/100/6
f 56/92/9 104/91/9 102/70/9 53/69/9
f 16/94/11 64/93/11 62/74/11 13/73/11
f 43/96/5 91/95/5 92/101/5 44/102/5
f 30/100/8 77/99/8 79/103/8 31/104/8
f 17/105/6 66/106/6 65/107/6 18/108/6
f 44/102/9 92/101/9 90/86/9 41/85/9
f 31/104/5 79/103/5 80/109/5 32/110/5
f 18/108/10 65/107/10 67/111/10 19/112/10
f 45/113/6 94/114/6 93/115/6 46/116/6
f 32/110/9 80/109/9 78/98/9 29/97/9
f 19/112/5 67/111/5 68/117/5 20/118/5
f 46/116/10 93/115/10 95/119/10 47/120/10
f 33/121/6 82/122/6 81/123/6 34/124/6
f 20/118/11 68/117/11 66/106/11 17/105/11
f 47/120/5 95/119/5 96/125/5 48/126/5
f 34/124/10 81/123/10 83/127/10 35/128/10
f 21/129/6 70/130/6 69/131/6 22/132/6
f 48/126/9 96/125/9 94/114/9 45/113/9
f 35/128/5 83/127/5 84/133/5 36/134/5
f 22/132/8 69/131/8 71/135/8 23/136/8
f 49/137/6 98/138/6 97/139/6 50/140/6
f 9/141/6 57/142/6 58/143/6 10/144/6
f 36/134/9 84/133/9 82/122/9 33/121/9
f 23/136/5 71/135/5 72/145/5 24/146/5
f 50/140/10 97/139/10 99/147/10 51/148/10
f 10/144/10 58/143/10 59/149/10 11/150/10
f 37/78/6 86/77/6 85/151/6 38/152/6
f 24/146/9 72/145/9 70/130/9 21/129/9
f 51/148/5 99/147/5 100/153/5 52/154/5
f 11/150/5 59/149/5 60/155/5 12/156/5
f 38/152/10 85/151/10 87/62/10 39/61/10
f 25/90/6 74/89/6 73/66/6 26/65/6
f 52/154/9 100/153/9 98/138/9 49/137/9
f 12/156/11 60/155/11 57/142/11 9/141/11
f 114/157/12 113/158/12 110/159/12 109/160/12
f 105/161/6 116/162/6 119/163/6 117/164/6 111/165/6 106/166/6
f 118/167/5 120/168/5 115/169/5 107/170/5 108/171/5 112/172/5
f 118/167/13 112/172/13 111/165/13 117/164/13
f 108/173/14 106/174/14 111/175/14 112/176/14
f 119/163/10 116/162/10 115/169/10 120/168/10
f 105/177/14 107/178/14 115/179/14 116/180/14
f 109/181/12 110/182/12 118/183/12 117/184/12
f 114/185/12 109/181/12 117/184/12 119/186/12
f 113/187/12 114/185/12 119/186/12 120/188/12
f 110/182/12 113/187/12 120/188/12 118/183/12
f 122/189/15 123/190/15 124/191/15 121/192/15
f 121/193/6 126/194/6 125/195/6 122/196/6
f 122/196/8 125/195/8 127/197/8 123/198/8
f 123/198/5 127/197/5 128/199/5 124/200/5
f 124/200/11 128/199/11 126/194/11 121/193/11
