# Blender v3.3.1 OBJ File: 'Office Set.blend'
# www.blender.org
mtllib Phone_B.mtl
o Phone_B_Cube.114
v -7.590128 0.979772 5.629617
v -7.512163 0.979772 5.629617
v -7.590128 1.001258 5.373477
v -7.512163 1.001258 5.373477
v -7.590128 1.048375 5.377599
v -7.512163 1.048375 5.377599
v -7.590128 1.029187 5.607469
v -7.590128 1.000618 5.631441
v -7.590128 1.026308 5.617347
v -7.590128 1.019867 5.625371
v -7.590128 1.010847 5.630320
v -7.512163 1.000618 5.631441
v -7.512163 1.029187 5.607469
v -7.512163 1.010846 5.630320
v -7.512163 1.019867 5.625371
v -7.512163 1.026308 5.617347
v -7.532265 1.024190 5.330962
v -7.523008 1.024190 5.330962
v -7.532265 1.033174 5.331748
v -7.523008 1.033174 5.331748
v -7.520063 1.016734 5.383265
v -7.535209 1.016734 5.383265
v -7.520063 1.031435 5.384551
v -7.535209 1.031435 5.384551
v -7.578421 0.991976 5.437966
v -7.523870 0.991976 5.437966
v -7.578421 0.994102 5.387700
v -7.523870 0.994102 5.387700
v -7.578421 1.004766 5.388151
v -7.578421 1.002640 5.438417
v -7.523870 1.002640 5.438417
v -7.523870 1.004766 5.388151
v -7.578421 0.976508 5.603016
v -7.523870 0.976508 5.603016
v -7.578421 0.982503 5.553063
v -7.523870 0.982503 5.553063
v -7.578421 0.993101 5.554336
v -7.578421 0.987106 5.604288
v -7.523870 0.987106 5.604288
v -7.523870 0.993101 5.554336
v -7.590128 0.994619 5.496679
v -7.512163 0.994619 5.496679
v -7.512163 1.041736 5.500802
v -7.590128 1.041736 5.500802
vt 0.118389 0.953790
vt 0.118389 0.969476
vt 0.150578 0.969476
vt 0.150578 0.953790
vt 0.150578 0.953790
vt 0.118389 0.953790
vt 0.118389 0.957207
vt 0.150578 0.957207
vt 0.150578 0.969541
vt 0.118389 0.969541
vt 0.118389 0.985978
vt 0.118389 0.985978
vt 0.150578 0.985978
vt 0.150578 0.985978
vt 0.118389 0.955899
vt 0.150578 0.955899
vt 0.118389 0.954123
vt 0.150578 0.954123
vt 0.118389 0.953876
vt 0.150578 0.953876
vt 0.118389 0.985978
vt 0.118389 0.985978
vt 0.150578 0.985978
vt 0.150578 0.985978
vt 0.118389 0.985978
vt 0.118389 0.985978
vt 0.150578 0.985978
vt 0.150578 0.985978
vt 0.036308 0.955399
vt 0.036308 0.987588
vt 0.068497 0.987588
vt 0.068497 0.955399
vt 0.036308 0.987588
vt 0.068497 0.987588
vt 0.068497 0.955399
vt 0.036308 0.955399
vt 0.036308 0.955399
vt 0.036308 0.987588
vt 0.068497 0.987588
vt 0.068497 0.955399
vt 0.036308 0.987588
vt 0.068497 0.987588
vt 0.068497 0.955399
vt 0.036308 0.955399
vn 0.0000 -0.9938 -0.1110
vn 0.0000 -0.0872 0.9962
vn 0.0000 0.9932 0.1168
vn 0.0000 0.0872 -0.9962
vn 1.0000 -0.0000 0.0000
vn 0.0000 0.9600 0.2798
vn 0.0000 0.7799 0.6259
vn 0.0000 0.4810 0.8767
vn 0.0000 0.1089 0.9941
vn -1.0000 0.0000 0.0000
vn -0.9984 0.0049 -0.0555
vn 0.0000 0.9995 0.0329
vn 0.9984 0.0049 -0.0555
vn 0.0000 -0.9900 -0.1411
vn -0.0000 -0.9991 -0.0422
vn 0.0000 0.0423 -0.9991
vn -0.0000 -0.0423 0.9991
vn 0.0000 -0.9929 -0.1192
vn -0.0000 0.1192 -0.9929
vn 0.0000 -0.1191 0.9929
vn -1.0000 -0.0001 0.0000
vn 0.0000 0.9986 0.0538
vn -0.0000 -0.9986 -0.0538
usemtl Palette
s off
f 1/1/1 41/2/1 42/3/1 2/4/1
f 2/4/2 12/5/2 8/6/2 1/1/2
f 7/7/3 13/8/3 43/9/3 44/10/3
f 3/11/4 5/12/4 6/13/4 4/14/4
f 4/14/5 6/13/5 43/9/5 42/3/5
f 7/7/6 9/15/6 16/16/6 13/8/6
f 9/15/7 10/17/7 15/18/7 16/16/7
f 10/17/8 11/19/8 14/20/8 15/18/8
f 11/19/9 8/6/9 12/5/9 14/20/9
f 1/1/10 8/6/10 11/19/10 10/17/10 9/15/10 7/7/10 44/10/10 41/2/10
f 17/21/4 19/22/4 20/23/4 18/24/4
f 19/22/11 17/21/11 22/25/11 24/26/11
f 20/23/12 19/22/12 24/26/12 23/27/12
f 18/24/13 20/23/13 23/27/13 21/28/13
f 17/21/14 18/24/14 21/28/14 22/25/14
f 25/29/15 27/30/15 28/31/15 26/32/15
f 28/31/16 27/30/16 29/33/16 32/34/16
f 25/29/17 26/32/17 31/35/17 30/36/17
f 26/32/5 28/31/5 32/34/5 31/35/5
f 27/30/10 25/29/10 30/36/10 29/33/10
f 33/37/18 35/38/18 36/39/18 34/40/18
f 36/39/19 35/38/19 37/41/19 40/42/19
f 33/37/20 34/40/20 39/43/20 38/44/20
f 34/40/5 36/39/5 40/42/5 39/43/5
f 35/38/21 33/37/21 38/44/21 37/41/21
f 43/9/22 6/13/22 5/12/22 44/10/22
f 44/10/10 5/12/10 3/11/10 41/2/10
f 41/2/23 3/11/23 4/14/23 42/3/23
f 43/9/5 13/8/5 16/16/5 15/18/5 14/20/5 12/5/5 2/4/5 42/3/5
