# Blender v3.3.1 OBJ File: 'Office Set.blend'
# www.blender.org
mtllib RFan_B.mtl
o RFan_B_Cube.206
v -15.423430 2.922621 5.706869
v -15.423430 2.912832 5.706869
v -15.179664 2.912832 5.562558
v -15.179664 2.922558 5.562558
v -15.494288 2.912832 5.706869
v -15.494288 2.922621 5.706869
v -15.392719 2.928332 5.700618
v -15.392719 2.907120 5.700618
v -15.182832 2.928269 5.593269
v -15.182832 2.907120 5.593269
v -15.494288 2.912832 5.562559
v -15.179664 2.912832 5.505711
v -15.179664 2.922558 5.505711
v -15.494288 2.922621 5.562559
v -15.423430 2.912832 5.505711
v -15.423430 2.922558 5.505711
v -15.423430 2.922621 5.562559
v -15.423430 2.912832 5.562559
v -15.494289 2.922558 5.505711
v -15.494289 2.912832 5.505711
v -14.663222 2.928269 5.593269
v -14.619976 2.928269 5.550023
v -14.632643 2.928269 5.580603
v -14.619976 2.907120 5.550023
v -14.663222 2.907120 5.593269
v -14.632643 2.907120 5.580603
v -15.392719 2.907120 6.319560
v -15.435966 2.907120 6.362806
v -15.405386 2.907120 6.350140
v -15.435966 2.928227 6.362806
v -15.392719 2.928234 6.319560
v -15.405386 2.928229 6.350140
v -15.576570 2.922621 5.706869
v -15.576570 2.912832 5.706869
v -15.820336 2.912832 5.562558
v -15.820336 2.922558 5.562558
v -15.505712 2.912832 5.706869
v -15.505712 2.922621 5.706869
v -15.607281 2.928332 5.700618
v -15.607281 2.907120 5.700618
v -15.817168 2.928269 5.593269
v -15.817168 2.907120 5.593269
v -15.505712 2.912832 5.562559
v -15.820336 2.912832 5.505711
v -15.820336 2.922558 5.505711
v -15.505712 2.922621 5.562559
v -15.576570 2.912832 5.505711
v -15.576570 2.922558 5.505711
v -15.576570 2.922621 5.562559
v -15.576570 2.912832 5.562559
v -15.505711 2.922558 5.505711
v -15.505711 2.912832 5.505711
v -16.336779 2.928269 5.593269
v -16.380024 2.928269 5.550023
v -16.367357 2.928269 5.580603
v -16.380024 2.907120 5.550023
v -16.336779 2.907120 5.593269
v -16.367357 2.907120 5.580603
v -15.607281 2.907120 6.319560
v -15.564034 2.907120 6.362806
v -15.594614 2.907120 6.350140
v -15.564034 2.928227 6.362806
v -15.607281 2.928234 6.319560
v -15.594614 2.928229 6.350140
v -15.423430 2.922621 5.293131
v -15.423430 2.912832 5.293131
v -15.179664 2.912832 5.437442
v -15.179664 2.922558 5.437442
v -15.494288 2.912832 5.293131
v -15.494288 2.922621 5.293131
v -15.392719 2.928332 5.299382
v -15.392719 2.907120 5.299382
v -15.182832 2.928269 5.406731
v -15.182832 2.907120 5.406731
v -15.494288 2.912832 5.437441
v -15.179664 2.912832 5.494289
v -15.179664 2.922558 5.494289
v -15.494288 2.922621 5.437441
v -15.423430 2.912832 5.494289
v -15.423430 2.922558 5.494289
v -15.423430 2.922621 5.437441
v -15.423430 2.912832 5.437441
v -15.494289 2.922558 5.494289
v -15.494289 2.912832 5.494289
v -14.663222 2.928269 5.406731
v -14.619976 2.928269 5.449977
v -14.632643 2.928269 5.419397
v -14.619976 2.907120 5.449977
v -14.663222 2.907120 5.406731
v -14.632643 2.907120 5.419397
v -15.392719 2.907120 4.680440
v -15.435966 2.907120 4.637194
v -15.405386 2.907120 4.649860
v -15.435966 2.928227 4.637194
v -15.392719 2.928234 4.680440
v -15.405386 2.928229 4.649860
v -15.576570 2.922621 5.293131
v -15.576570 2.912832 5.293131
v -15.820336 2.912832 5.437442
v -15.820336 2.922558 5.437442
v -15.505712 2.912832 5.293131
v -15.505712 2.922621 5.293131
v -15.607281 2.928332 5.299382
v -15.607281 2.907120 5.299382
v -15.817168 2.928269 5.406731
v -15.817168 2.907120 5.406731
v -15.505712 2.912832 5.437441
v -15.820336 2.912832 5.494289
v -15.820336 2.922558 5.494289
v -15.505712 2.922621 5.437441
v -15.576570 2.912832 5.494289
v -15.576570 2.922558 5.494289
v -15.576570 2.922621 5.437441
v -15.576570 2.912832 5.437441
v -15.505711 2.922558 5.494289
v -15.505711 2.912832 5.494289
v -16.336779 2.928269 5.406731
v -16.380024 2.928269 5.449977
v -16.367357 2.928269 5.419397
v -16.380024 2.907120 5.449977
v -16.336779 2.907120 5.406731
v -16.367357 2.907120 5.419397
v -15.607281 2.907120 4.680440
v -15.564034 2.907120 4.637194
v -15.594614 2.907120 4.649860
v -15.564034 2.928227 4.637194
v -15.607281 2.928234 4.680440
v -15.594614 2.928229 4.649860
vt 0.223078 0.886003
vt 0.223078 0.886003
vt 0.223078 0.886003
vt 0.223078 0.885535
vt 0.223078 0.881211
vt 0.223078 0.881211
vt 0.223078 0.885535
vt 0.223078 0.886003
vt 0.212743 0.886003
vt 0.212743 0.886003
vt 0.212743 0.886003
vt 0.212743 0.885535
vt 0.212743 0.881211
vt 0.212743 0.881211
vt 0.212743 0.885535
vt 0.212743 0.886003
vt 0.223078 0.875667
vt 0.223078 0.875667
vt 0.223078 0.875667
vt 0.223078 0.876074
vt 0.223078 0.879834
vt 0.223078 0.879834
vt 0.223078 0.876074
vt 0.223078 0.875667
vt 0.215534 0.876300
vt 0.215534 0.885370
vt 0.215534 0.885370
vt 0.215534 0.876300
vt 0.215526 0.885453
vt 0.220296 0.885453
vt 0.220296 0.885453
vt 0.215526 0.885453
vt 0.220287 0.885370
vt 0.220287 0.876300
vt 0.215534 0.876300
vt 0.215534 0.885370
vt 0.220287 0.885370
vt 0.220287 0.876300
vt 0.220287 0.876300
vt 0.220296 0.876218
vt 0.220296 0.876218
vt 0.220287 0.885370
vt 0.215526 0.876218
vt 0.215526 0.876218
vt 0.212743 0.875667
vt 0.212743 0.875667
vt 0.212743 0.875667
vt 0.212743 0.876074
vt 0.212743 0.879834
vt 0.212743 0.879834
vt 0.212743 0.876074
vt 0.212743 0.875667
vt 0.212743 0.881211
vt 0.212743 0.881211
vt 0.212743 0.885535
vt 0.212743 0.886003
vt 0.212743 0.886003
vt 0.212743 0.886003
vt 0.212743 0.886003
vt 0.212743 0.885535
vt 0.223078 0.886003
vt 0.223078 0.886003
vt 0.223078 0.885535
vt 0.223078 0.881211
vt 0.223078 0.881211
vt 0.223078 0.885535
vt 0.223078 0.886003
vt 0.223078 0.886003
vt 0.215534 0.876300
vt 0.215534 0.876300
vt 0.215534 0.885370
vt 0.215534 0.885370
vt 0.215526 0.885453
vt 0.215526 0.885453
vt 0.220296 0.885453
vt 0.220296 0.885453
vt 0.220287 0.885370
vt 0.215534 0.885370
vt 0.215534 0.876300
vt 0.220287 0.876300
vt 0.220287 0.885370
vt 0.220287 0.876300
vt 0.220287 0.876300
vt 0.220296 0.876218
vt 0.220296 0.876218
vt 0.220287 0.885370
vt 0.215526 0.876218
vt 0.215526 0.876218
vt 0.212743 0.875667
vt 0.212743 0.875667
vt 0.212743 0.876074
vt 0.212743 0.879834
vt 0.212743 0.879834
vt 0.212743 0.876074
vt 0.212743 0.875667
vt 0.212743 0.875667
vt 0.223078 0.879834
vt 0.223078 0.879834
vt 0.223078 0.876074
vt 0.223078 0.875667
vt 0.223078 0.875667
vt 0.223078 0.875667
vt 0.223078 0.875667
vt 0.223078 0.876074
vt 0.215534 0.876300
vt 0.215534 0.876300
vt 0.215534 0.885370
vt 0.215534 0.885370
vt 0.215526 0.885453
vt 0.215526 0.885453
vt 0.220296 0.885453
vt 0.220296 0.885453
vt 0.220287 0.885370
vt 0.215534 0.885370
vt 0.215534 0.876300
vt 0.220287 0.876300
vt 0.220287 0.885370
vt 0.220287 0.876300
vt 0.220287 0.876300
vt 0.220296 0.876218
vt 0.220296 0.876218
vt 0.220287 0.885370
vt 0.215526 0.876218
vt 0.215526 0.876218
vt 0.215534 0.876300
vt 0.215534 0.885370
vt 0.215534 0.885370
vt 0.215534 0.876300
vt 0.215526 0.885453
vt 0.220296 0.885453
vt 0.220296 0.885453
vt 0.215526 0.885453
vt 0.220287 0.885370
vt 0.220287 0.876300
vt 0.215534 0.876300
vt 0.215534 0.885370
vt 0.220287 0.885370
vt 0.220287 0.876300
vt 0.220287 0.876300
vt 0.220296 0.876218
vt 0.220296 0.876218
vt 0.220287 0.885370
vt 0.215526 0.876218
vt 0.215526 0.876218
vn 0.0000 1.0000 0.0000
vn 0.0000 -1.0000 0.0000
vn 0.0000 1.0000 0.0002
vn -1.0000 0.0000 0.0000
vn 0.0000 1.0000 -0.0011
vn 0.0000 0.0000 -1.0000
vn 0.0001 1.0000 -0.0006
vn 1.0000 0.0000 0.0000
vn -0.0001 1.0000 -0.0006
vn 0.0000 1.0000 -0.0002
vn 0.0000 1.0000 0.0011
vn 0.0000 0.0000 1.0000
vn 0.0001 1.0000 0.0006
vn -0.0001 1.0000 0.0006
vn -0.1456 -0.6657 0.7319
vn 0.1456 -0.6657 0.7319
vn 0.1456 0.6657 0.7319
vn -0.1456 0.6657 0.7319
vn -0.7319 0.6657 0.1456
vn -0.7319 0.6657 -0.1456
vn -0.7319 -0.6657 -0.1456
vn -0.7319 -0.6657 0.1456
vn -0.5774 -0.5774 0.5774
vn -0.5774 0.5774 0.5774
vn 0.5773 0.5774 -0.5773
vn 0.7319 0.6657 0.1457
vn 0.7319 -0.6657 0.1456
vn 0.5774 -0.5774 -0.5774
vn 0.7071 0.7071 0.0000
vn 0.7071 -0.7071 0.0000
vn 0.3015 -0.9045 0.3015
vn 0.3016 0.9047 0.3010
vn 0.0000 -0.7071 0.7071
vn 0.0001 0.7072 0.7070
vn 0.7319 0.6657 0.1456
vn 0.5490 0.6303 0.5490
vn 0.5490 -0.6303 0.5490
vn 0.5490 0.6302 0.5490
vn 0.5774 -0.5774 0.5774
vn 0.5774 0.5774 0.5774
vn -0.5773 0.5774 -0.5773
vn -0.5774 -0.5774 -0.5774
vn -0.7319 0.6657 0.1457
vn -0.7071 0.7071 0.0000
vn -0.3016 0.9047 0.3010
vn -0.3015 -0.9045 0.3015
vn -0.7071 -0.7071 0.0000
vn -0.0001 0.7072 0.7070
vn -0.5490 -0.6303 0.5490
vn -0.5490 0.6303 0.5490
vn -0.5490 0.6302 0.5490
vn -0.1456 -0.6657 -0.7319
vn -0.1456 0.6657 -0.7319
vn 0.1456 0.6657 -0.7319
vn 0.1456 -0.6657 -0.7319
vn -0.5774 0.5774 -0.5774
vn 0.5773 0.5774 0.5773
vn 0.7319 -0.6657 -0.1456
vn 0.7319 0.6657 -0.1457
vn 0.3016 0.9047 -0.3010
vn 0.3015 -0.9045 -0.3015
vn 0.0000 -0.7071 -0.7071
vn 0.0001 0.7072 -0.7070
vn 0.5490 -0.6303 -0.5490
vn 0.5490 0.6303 -0.5490
vn 0.7319 0.6657 -0.1456
vn 0.5490 0.6302 -0.5490
vn 0.5774 0.5774 -0.5774
vn -0.5773 0.5774 0.5773
vn -0.7319 0.6657 -0.1457
vn -0.3015 -0.9045 -0.3015
vn -0.3016 0.9047 -0.3010
vn -0.0001 0.7072 -0.7070
vn -0.5490 0.6303 -0.5490
vn -0.5490 -0.6303 -0.5490
vn -0.5490 0.6302 -0.5490
usemtl Palette
s off
f 73/1/1 9/2/1 21/3/1 23/4/1 22/5/1 86/6/1 87/7/1 85/8/1
f 10/9/2 74/10/2 89/11/2 90/12/2 88/13/2 24/14/2 26/15/2 25/16/2
f 7/17/3 39/18/3 63/19/3 64/20/3 62/21/3 30/22/3 32/23/3 31/24/3
f 12/25/2 3/26/2 18/27/2 15/28/2
f 5/29/4 6/30/4 14/31/4 11/32/4
f 14/33/4 19/34/4 20/35/4 11/36/4
f 17/37/5 16/38/5 19/34/5 14/33/5
f 13/39/6 12/25/6 15/28/6 16/38/6
f 6/30/1 1/40/1 17/41/1 14/31/1
f 4/42/7 13/39/7 16/38/7 17/37/7
f 2/43/2 5/29/2 11/32/2 18/44/2
f 15/28/2 18/27/2 11/36/2 20/35/2
f 16/38/6 15/28/6 20/35/6 19/34/6
f 40/45/2 8/46/2 27/47/2 29/48/2 28/49/2 60/50/2 61/51/2 59/52/2
f 56/53/2 120/54/2 122/55/2 121/56/2 106/57/2 42/58/2 57/59/2 58/60/2
f 105/61/1 117/62/1 119/63/1 118/64/1 54/65/1 55/66/1 53/67/1 41/68/1
f 44/69/2 47/70/2 50/71/2 35/72/2
f 37/73/8 43/74/8 46/75/8 38/76/8
f 46/77/8 43/78/8 52/79/8 51/80/8
f 49/81/5 46/77/5 51/80/5 48/82/5
f 45/83/6 48/82/6 47/70/6 44/69/6
f 38/76/1 46/75/1 49/84/1 33/85/1
f 36/86/9 49/81/9 48/82/9 45/83/9
f 34/87/2 50/88/2 43/74/2 37/73/2
f 47/70/2 52/79/2 43/78/2 50/71/2
f 48/82/6 51/80/6 52/79/6 47/70/6
f 8/46/6 40/45/6 39/18/6 7/17/6
f 104/89/2 123/90/2 125/91/2 124/92/2 92/93/2 93/94/2 91/95/2 72/96/2
f 94/97/10 126/98/10 128/99/10 127/100/10 103/101/10 71/102/10 95/103/10 96/104/10
f 76/105/2 79/106/2 82/107/2 67/108/2
f 69/109/4 75/110/4 78/111/4 70/112/4
f 78/113/4 75/114/4 84/115/4 83/116/4
f 81/117/11 78/113/11 83/116/11 80/118/11
f 77/119/12 80/118/12 79/106/12 76/105/12
f 70/112/1 78/111/1 81/120/1 65/121/1
f 68/122/13 81/117/13 80/118/13 77/119/13
f 66/123/2 82/124/2 75/110/2 69/109/2
f 79/106/2 84/115/2 75/114/2 82/107/2
f 80/118/12 83/116/12 84/115/12 79/106/12
f 10/9/4 9/2/4 73/1/4 74/10/4
f 72/96/12 71/102/12 103/101/12 104/89/12
f 42/58/8 106/57/8 105/61/8 41/68/8
f 108/125/2 99/126/2 114/127/2 111/128/2
f 101/129/8 102/130/8 110/131/8 107/132/8
f 110/133/8 115/134/8 116/135/8 107/136/8
f 113/137/11 112/138/11 115/134/11 110/133/11
f 109/139/12 108/125/12 111/128/12 112/138/12
f 102/130/1 97/140/1 113/141/1 110/131/1
f 100/142/14 109/139/14 112/138/14 113/137/14
f 98/143/2 101/129/2 107/132/2 114/144/2
f 111/128/2 114/127/2 107/136/2 116/135/2
f 112/138/12 111/128/12 116/135/12 115/134/12
s 1
f 60/50/15 28/49/16 30/22/17 62/21/18
f 54/65/19 118/64/20 120/54/21 56/53/22
f 10/9/23 25/16/16 21/3/17 9/2/24
f 7/17/25 31/24/26 27/47/27 8/46/28
f 1/40/29 2/43/30 18/44/31 17/41/32
f 3/26/33 4/42/34 17/37/32 18/27/31
f 24/14/27 22/5/35 23/4/36 26/15/37
f 26/15/37 23/4/36 21/3/17 25/16/16
f 30/22/17 28/49/16 29/48/37 32/23/38
f 32/23/38 29/48/37 27/47/27 31/24/26
f 42/58/39 41/68/40 53/67/18 57/59/15
f 39/18/41 40/45/42 59/52/22 63/19/43
f 33/85/44 49/84/45 50/88/46 34/87/47
f 35/72/33 50/71/46 49/81/45 36/86/48
f 56/53/22 58/60/49 55/66/50 54/65/19
f 58/60/49 57/59/15 53/67/18 55/66/50
f 62/21/18 64/20/51 61/51/49 60/50/15
f 64/20/51 63/19/43 59/52/22 61/51/49
f 124/92/52 126/98/53 94/97/54 92/93/55
f 74/10/42 73/1/56 85/8/54 89/11/55
f 71/102/57 72/96/39 91/95/58 95/103/59
f 65/121/29 81/120/60 82/124/61 66/123/30
f 67/108/62 82/107/61 81/117/60 68/122/63
f 88/13/58 90/12/64 87/7/65 86/6/66
f 90/12/64 89/11/55 85/8/54 87/7/65
f 94/97/54 96/104/67 93/94/64 92/93/55
f 96/104/67 95/103/59 91/95/58 93/94/64
f 106/57/28 121/56/52 117/62/53 105/61/68
f 103/101/69 127/100/70 123/90/21 104/89/23
f 24/14/27 88/13/58 86/6/66 22/5/35
f 97/140/44 98/143/47 114/144/71 113/141/72
f 99/126/62 100/142/73 113/137/72 114/127/71
f 120/54/21 118/64/20 119/63/74 122/55/75
f 122/55/75 119/63/74 117/62/53 121/56/52
f 126/98/53 124/92/52 125/91/75 128/99/76
f 128/99/76 125/91/75 123/90/21 127/100/70
