# Blender v3.3.1 OBJ File: 'Office Set.blend'
# www.blender.org
mtllib RFan_Base.mtl
o RFan_Base_Cube.027
v -13.392893 3.051411 5.611677
v -13.392893 2.975114 5.611677
v -13.479177 2.998982 5.593631
v -13.410200 2.998982 5.524654
v -13.430404 2.998982 5.573428
v -13.429876 2.916934 5.520741
v -13.483090 2.916934 5.573955
v -13.445463 2.916934 5.558369
v -13.479177 2.916934 5.593631
v -13.430404 2.916934 5.573428
v -13.410200 2.916934 5.524654
v -13.483954 2.868903 5.549675
v -13.462052 2.868903 5.540521
v -13.452898 2.868903 5.516513
v -13.607107 3.051411 5.611677
v -13.607107 2.975114 5.611677
v -13.500000 2.975114 5.611677
v -13.500000 3.051411 5.611677
v -13.500000 2.998982 5.593631
v -13.500000 2.916934 5.593631
v -13.520823 2.998982 5.593631
v -13.589800 2.998982 5.524654
v -13.569596 2.998982 5.573428
v -13.570124 2.916934 5.520741
v -13.516910 2.916934 5.573955
v -13.554537 2.916934 5.558369
v -13.520823 2.916934 5.593631
v -13.569596 2.916934 5.573428
v -13.589800 2.916934 5.524654
v -13.500000 2.916934 5.573955
v -13.500000 2.868903 5.549675
v -13.516046 2.868903 5.549675
v -13.537948 2.868903 5.540521
v -13.547102 2.868903 5.516513
v -13.392893 3.051411 5.388323
v -13.392893 2.975114 5.388323
v -13.392893 3.051411 5.500000
v -13.392893 2.975114 5.500000
v -13.410200 2.916934 5.500000
v -13.410200 2.998982 5.500000
v -13.479177 2.998982 5.406369
v -13.410200 2.998982 5.475346
v -13.430404 2.998982 5.426572
v -13.429876 2.916934 5.479259
v -13.483090 2.916934 5.426045
v -13.445463 2.916934 5.441631
v -13.479177 2.916934 5.406369
v -13.430404 2.916934 5.426572
v -13.410200 2.916934 5.475346
v -13.429876 2.916934 5.500000
v -13.452898 2.868903 5.500000
v -13.483954 2.868903 5.450325
v -13.462052 2.868903 5.459479
v -13.452898 2.868903 5.483487
v -13.607107 3.051411 5.388323
v -13.607107 2.975114 5.388323
v -13.500000 2.975114 5.388323
v -13.500000 3.051411 5.388323
v -13.607107 3.051411 5.500000
v -13.607107 2.975114 5.500000
v -13.500000 2.975114 5.500000
v -13.589800 2.916934 5.500000
v -13.589800 2.998982 5.500000
v -13.500000 2.998982 5.406369
v -13.500000 2.916934 5.406369
v -13.520823 2.998982 5.406369
v -13.589800 2.998982 5.475346
v -13.569596 2.998982 5.426572
v -13.570124 2.916934 5.479259
v -13.516910 2.916934 5.426045
v -13.554537 2.916934 5.441631
v -13.520823 2.916934 5.406369
v -13.569596 2.916934 5.426572
v -13.589800 2.916934 5.475346
v -13.570124 2.916934 5.500000
v -13.500000 2.916934 5.426045
v -13.547102 2.868903 5.500000
v -13.500000 2.868903 5.500000
v -13.500000 2.868903 5.450325
v -13.516046 2.868903 5.450325
v -13.537948 2.868903 5.459479
v -13.547102 2.868903 5.483487
vt 0.019018 0.969808
vt 0.023900 0.969808
vt 0.023900 0.974690
vt 0.019018 0.974690
vt 0.033664 0.969808
vt 0.033664 0.974690
vt 0.033664 0.979571
vt 0.023900 0.979571
vt 0.206435 0.872469
vt 0.208601 0.871608
vt 0.209468 0.872440
vt 0.206661 0.873555
vt 0.209498 0.869532
vt 0.210630 0.869748
vt 0.209498 0.868387
vt 0.210630 0.868387
vt 0.205462 0.872469
vt 0.205462 0.873555
vt 0.205462 0.868387
vt 0.209498 0.868387
vt 0.209498 0.868989
vt 0.208601 0.871608
vt 0.206004 0.872469
vt 0.205462 0.872469
vt 0.023900 0.974690
vt 0.023900 0.969808
vt 0.033664 0.974690
vt 0.033664 0.969808
vt 0.206435 0.872469
vt 0.206661 0.873555
vt 0.209468 0.872440
vt 0.208601 0.871608
vt 0.210630 0.869748
vt 0.209498 0.869532
vt 0.210630 0.868387
vt 0.209498 0.868387
vt 0.206004 0.872469
vt 0.208601 0.871608
vt 0.209498 0.868989
vt 0.209498 0.868387
vt 0.019018 0.974690
vt 0.023900 0.974690
vt 0.033664 0.974690
vt 0.023900 0.979571
vt 0.033664 0.979571
vt 0.206435 0.872469
vt 0.206661 0.873555
vt 0.209468 0.872440
vt 0.208601 0.871608
vt 0.210630 0.869748
vt 0.209498 0.869532
vt 0.205462 0.872469
vt 0.205462 0.873555
vt 0.205462 0.872469
vt 0.206004 0.872469
vt 0.208601 0.871608
vt 0.209498 0.868989
vt 0.023900 0.974690
vt 0.033664 0.974690
vt 0.206435 0.872469
vt 0.208601 0.871608
vt 0.209468 0.872440
vt 0.206661 0.873555
vt 0.209498 0.869532
vt 0.210630 0.869748
vt 0.209498 0.868989
vt 0.208601 0.871608
vt 0.206004 0.872469
vt 0.210630 0.877524
vt 0.220965 0.877524
vt 0.220965 0.878722
vt 0.210630 0.878722
vt 0.210630 0.873555
vt 0.220965 0.873555
vt 0.220965 0.869748
vt 0.220965 0.868387
vt 0.210630 0.877524
vt 0.220965 0.877524
vt 0.220965 0.873555
vt 0.210630 0.873555
vt 0.220965 0.869748
vt 0.220965 0.868387
vt 0.210630 0.877524
vt 0.210630 0.878722
vt 0.220965 0.878722
vt 0.220965 0.877524
vt 0.220965 0.873555
vt 0.210630 0.873555
vt 0.220965 0.869748
vt 0.210630 0.877524
vt 0.220965 0.877524
vt 0.210630 0.873555
vt 0.220965 0.873555
vt 0.220965 0.869748
vn 0.0000 -1.0000 0.0000
vn 1.0000 0.0000 0.0000
vn 0.0000 0.0000 1.0000
vn -1.0000 0.0000 0.0000
vn 0.0000 0.0000 -1.0000
vn 0.4721 -0.8768 0.0910
vn 0.2935 -0.9101 0.2924
vn 0.4342 -0.7949 0.4239
vn 0.5624 -0.8197 0.1089
vn 0.1456 -0.6657 0.7319
vn 0.1951 0.0000 0.9808
vn 0.0000 -0.7071 0.7071
vn 0.5490 -0.6303 0.5490
vn 0.7071 0.0000 0.7071
vn 0.7319 -0.6657 0.1456
vn 0.9808 0.0000 0.1951
vn 0.7071 -0.7071 0.0000
vn 0.5328 -0.8462 0.0000
vn 0.0890 -0.8801 0.4664
vn 0.1172 -0.8211 0.5586
vn 0.0000 -0.8518 0.5239
vn -0.4721 -0.8768 0.0910
vn -0.5624 -0.8197 0.1089
vn -0.4342 -0.7949 0.4239
vn -0.2935 -0.9101 0.2924
vn -0.1456 -0.6657 0.7319
vn -0.1951 0.0000 0.9808
vn -0.7071 0.0000 0.7071
vn -0.5490 -0.6303 0.5490
vn -0.9808 0.0000 0.1951
vn -0.7319 -0.6657 0.1456
vn -0.7071 -0.7071 0.0000
vn -0.5328 -0.8462 0.0000
vn -0.1172 -0.8211 0.5586
vn -0.0890 -0.8801 0.4664
vn 0.4721 -0.8768 -0.0910
vn 0.5624 -0.8197 -0.1089
vn 0.4342 -0.7949 -0.4239
vn 0.2935 -0.9101 -0.2924
vn 0.1456 -0.6657 -0.7319
vn 0.0000 -0.7071 -0.7071
vn 0.1951 0.0000 -0.9808
vn 0.7071 0.0000 -0.7071
vn 0.5490 -0.6303 -0.5490
vn 0.9808 0.0000 -0.1951
vn 0.7319 -0.6657 -0.1456
vn 0.1172 -0.8211 -0.5586
vn 0.0890 -0.8801 -0.4664
vn 0.0000 -0.8518 -0.5239
vn -0.4721 -0.8768 -0.0910
vn -0.2935 -0.9101 -0.2924
vn -0.4342 -0.7949 -0.4239
vn -0.5624 -0.8197 -0.1089
vn -0.1456 -0.6657 -0.7319
vn -0.1951 0.0000 -0.9808
vn -0.5490 -0.6303 -0.5490
vn -0.7071 0.0000 -0.7071
vn -0.7319 -0.6657 -0.1456
vn -0.9808 0.0000 -0.1951
vn -0.0890 -0.8801 -0.4664
vn -0.1172 -0.8211 -0.5586
usemtl Palette
s off
f 61/1/1 38/2/1 2/3/1 17/4/1
f 38/2/2 37/5/2 1/6/2 2/3/2
f 2/3/3 1/6/3 18/7/3 17/8/3
f 7/9/1 8/10/1 10/11/1 9/12/1
f 8/10/1 6/13/1 11/14/1 10/11/1
f 6/13/1 50/15/1 39/16/1 11/14/1
f 30/17/1 7/9/1 9/12/1 20/18/1
f 78/19/1 51/20/1 14/21/1 13/22/1 12/23/1 31/24/1
f 61/1/1 17/4/1 16/25/1 60/26/1
f 60/26/4 16/25/4 15/27/4 59/28/4
f 16/25/3 17/8/3 18/7/3 15/27/3
f 25/29/1 27/30/1 28/31/1 26/32/1
f 26/32/1 28/31/1 29/33/1 24/34/1
f 24/34/1 29/33/1 62/35/1 75/36/1
f 30/17/1 20/18/1 27/30/1 25/29/1
f 78/19/1 31/24/1 32/37/1 33/38/1 34/39/1 77/40/1
f 61/1/1 57/41/1 36/42/1 38/2/1
f 38/2/2 36/42/2 35/43/2 37/5/2
f 36/42/5 57/44/5 58/45/5 35/43/5
f 45/46/1 47/47/1 48/48/1 46/49/1
f 46/49/1 48/48/1 49/50/1 44/51/1
f 44/51/1 49/50/1 39/16/1 50/15/1
f 76/52/1 65/53/1 47/47/1 45/46/1
f 78/19/1 79/54/1 52/55/1 53/56/1 54/57/1 51/20/1
f 61/1/1 60/26/1 56/58/1 57/41/1
f 60/26/4 59/28/4 55/59/4 56/58/4
f 56/58/5 55/59/5 58/45/5 57/44/5
f 70/60/1 71/61/1 73/62/1 72/63/1
f 71/61/1 69/64/1 74/65/1 73/62/1
f 69/64/1 75/36/1 62/35/1 74/65/1
f 76/52/1 70/60/1 72/63/1 65/53/1
f 78/19/1 77/40/1 82/66/1 81/67/1 80/68/1 79/54/1
s 1
f 6/13/6 8/10/7 13/22/8 14/21/9
f 9/69/10 3/70/11 19/71/3 20/72/12
f 3/70/11 9/69/10 10/73/13 5/74/14
f 5/74/14 10/73/13 11/14/15 4/75/16
f 39/16/17 40/76/2 4/75/16 11/14/15
f 50/15/18 6/13/6 14/21/9 51/20/18
f 8/10/7 7/9/19 12/23/20 13/22/8
f 7/9/19 30/17/21 31/24/21 12/23/20
f 24/34/22 34/39/23 33/38/24 26/32/25
f 27/77/26 20/72/12 19/71/3 21/78/27
f 21/78/27 23/79/28 28/80/29 27/77/26
f 23/79/28 22/81/30 29/33/31 28/80/29
f 62/35/32 29/33/31 22/81/30 63/82/4
f 75/36/33 77/40/33 34/39/23 24/34/22
f 26/32/25 33/38/24 32/37/34 25/29/35
f 25/29/35 32/37/34 31/24/21 30/17/21
f 44/51/36 54/57/37 53/56/38 46/49/39
f 47/83/40 65/84/41 64/85/5 41/86/42
f 41/86/42 43/87/43 48/88/44 47/83/40
f 43/87/43 42/89/45 49/50/46 48/88/44
f 39/16/17 49/50/46 42/89/45 40/76/2
f 50/15/18 51/20/18 54/57/37 44/51/36
f 46/49/39 53/56/38 52/55/47 45/46/48
f 45/46/48 52/55/47 79/54/49 76/52/49
f 69/64/50 71/61/51 81/67/52 82/66/53
f 72/90/54 66/91/55 64/85/5 65/84/41
f 66/91/55 72/90/54 73/92/56 68/93/57
f 68/93/57 73/92/56 74/65/58 67/94/59
f 62/35/32 63/82/4 67/94/59 74/65/58
f 75/36/33 69/64/50 82/66/53 77/40/33
f 71/61/51 70/60/60 80/68/61 81/67/52
f 70/60/60 76/52/49 79/54/49 80/68/61
