# Blender v3.3.1 OBJ File: 'Office Set.blend'
# www.blender.org
mtllib RFan_A.mtl
o RFan_A_Cube.028
v -12.619976 2.928280 5.593269
v -12.619976 2.903101 5.593269
v -13.392719 2.908125 6.362806
v -13.392719 2.928227 6.362806
v -13.392719 2.928332 5.600618
v -13.392719 2.903101 5.600618
v -13.382832 2.903101 5.593269
v -13.382832 2.928280 5.593269
v -14.380024 2.928280 5.593269
v -14.380024 2.903101 5.593269
v -13.607281 2.908125 6.362806
v -13.607281 2.928227 6.362806
v -13.607281 2.928332 5.600618
v -13.607281 2.903101 5.600618
v -13.617168 2.903101 5.593269
v -13.617168 2.928280 5.593269
v -12.619976 2.928280 5.406731
v -12.619976 2.903101 5.406731
v -13.392719 2.908125 4.637194
v -13.392719 2.928227 4.637194
v -13.392719 2.928332 5.399382
v -13.392719 2.903101 5.399382
v -13.382832 2.903101 5.406731
v -13.382832 2.928280 5.406731
v -14.380024 2.928280 5.406731
v -14.380024 2.903101 5.406731
v -13.607281 2.908125 4.637194
v -13.607281 2.928227 4.637194
v -13.607281 2.928332 5.399382
v -13.607281 2.903101 5.399382
v -13.617168 2.903101 5.406731
v -13.617168 2.928280 5.406731
vt 0.223078 0.886003
vt 0.223078 0.886003
vt 0.212743 0.886003
vt 0.212743 0.886003
vt 0.212743 0.886003
vt 0.212743 0.886003
vt 0.223078 0.886003
vt 0.223078 0.886003
vt 0.212743 0.875667
vt 0.212743 0.875667
vt 0.223078 0.875667
vt 0.223078 0.875667
vt 0.212743 0.886003
vt 0.212743 0.886003
vt 0.212743 0.875667
vt 0.223078 0.875667
vt 0.223078 0.886003
vt 0.223078 0.886003
vt 0.223078 0.875667
vt 0.212743 0.875667
vt 0.212743 0.886003
vt 0.223078 0.886003
vt 0.212743 0.886003
vt 0.204292 0.879893
vt 0.204292 0.890229
vt 0.204292 0.890229
vt 0.204292 0.879893
vt 0.204292 0.879893
vt 0.204292 0.890229
vt 0.204292 0.890229
vt 0.204292 0.879893
vt 0.223078 0.886003
vt 0.212743 0.875667
vt 0.212743 0.875667
vt 0.212743 0.875667
vt 0.212743 0.875667
vt 0.223078 0.875667
vt 0.223078 0.875667
vt 0.223078 0.875667
vt 0.223078 0.875667
vt 0.216740 0.881777
vt 0.216740 0.871442
vt 0.216740 0.871442
vt 0.216740 0.881777
vt 0.216740 0.881777
vt 0.216740 0.871442
vt 0.216740 0.871442
vt 0.216740 0.881777
vn -1.0000 0.0000 0.0000
vn 0.0000 0.0000 1.0000
vn 0.0000 -1.0000 0.0000
vn 0.5965 0.0000 0.8026
vn 0.0000 1.0000 0.0000
vn 0.0000 1.0000 0.0001
vn 1.0000 0.0000 0.0000
vn 0.0000 -1.0000 0.0066
vn -0.5965 0.0000 0.8026
vn 0.0000 0.0000 -1.0000
vn 0.0000 -1.0000 -0.0066
vn 0.5965 0.0000 -0.8026
vn 0.0000 1.0000 -0.0001
vn -0.5965 0.0000 -0.8026
usemtl Palette
s off
f 9/1/1 25/2/1 26/3/1 10/4/1
f 7/5/2 2/6/2 1/7/2 8/8/2
f 11/9/2 3/10/2 4/11/2 12/12/2
f 7/5/3 23/13/3 18/14/3 2/6/3
f 6/15/4 7/5/4 8/8/4 5/16/4
f 24/17/5 8/8/5 1/7/5 17/18/5
f 5/16/6 13/19/6 12/12/6 4/11/6
f 5/16/7 4/11/7 3/10/7 6/15/7
f 14/20/8 6/15/8 3/10/8 11/9/8
f 15/21/2 16/22/2 9/1/2 10/4/2
f 10/4/3 26/3/3 31/23/3 15/21/3
f 14/24/3 15/25/3 31/26/3 30/27/3 22/28/3 23/29/3 7/30/3 6/31/3
f 14/20/9 13/19/9 16/22/9 15/21/9
f 32/32/5 25/2/5 9/1/5 16/22/5
f 13/19/1 14/20/1 11/9/1 12/12/1
f 23/13/10 24/17/10 17/18/10 18/14/10
f 30/33/11 27/34/11 19/35/11 22/36/11
f 22/36/12 21/37/12 24/17/12 23/13/12
f 20/38/13 28/39/13 29/40/13 21/37/13
f 21/37/7 22/36/7 19/35/7 20/38/7
f 27/34/10 28/39/10 20/38/10 19/35/10
f 31/23/10 26/3/10 25/2/10 32/32/10
f 30/33/14 31/23/14 32/32/14 29/40/14
f 16/41/5 13/42/5 5/43/5 8/44/5 24/45/5 21/46/5 29/47/5 32/48/5
f 29/40/1 28/39/1 27/34/1 30/33/1
f 2/6/7 18/14/7 17/18/7 1/7/7
