# Blender v3.3.1 OBJ File: 'Office Set.blend'
# www.blender.org
mtllib Rug_B.mtl
o Rug_B_Plane.002
v -13.972880 0.002466 2.751426
v -13.027120 0.002466 2.751426
v -13.972880 0.002466 2.248574
v -13.027120 0.002466 2.248574
v -13.179377 0.005661 2.751426
v -13.179377 0.005661 2.248574
v -13.163801 0.013378 2.751426
v -13.148226 0.021233 2.751426
v -13.132650 0.024830 2.751426
v -13.122037 0.021233 2.751426
v -13.117050 0.013378 2.751426
v -13.107293 0.005661 2.751426
v -13.107293 0.005661 2.248574
v -13.117050 0.013378 2.248574
v -13.122037 0.021233 2.248574
v -13.132650 0.024830 2.248574
v -13.148226 0.021233 2.248574
v -13.163801 0.013378 2.248574
vt 0.000000 0.079398
vt -0.000000 0.000001
vt 0.497587 0.000000
vt 0.497587 0.079397
vt 0.000000 0.947483
vt 0.000000 0.162283
vt 0.497587 0.162284
vt 0.497587 0.947483
vt 0.000000 0.145083
vt 0.497587 0.145082
vt 0.000000 0.127821
vt 0.497587 0.127820
vt 0.000000 0.112004
vt 0.497587 0.112003
vt 0.000000 0.100915
vt 0.497587 0.100913
vt 0.000000 0.091707
vt 0.497587 0.091706
vn 0.0398 0.9992 0.0000
vn -0.0040 1.0000 0.0000
vn -0.2299 0.9732 0.0000
vn -0.4471 0.8945 0.0000
vn -0.3401 0.9404 0.0000
vn 0.0499 0.9988 0.0000
vn 0.6178 0.7863 0.0000
vn 0.7428 0.6696 0.0000
vn 0.3471 0.9378 0.0000
usemtl Rug
s off
f 12/1/1 2/2/1 4/3/1 13/4/1
f 1/5/2 5/6/2 6/7/2 3/8/2
s 1
f 5/6/3 7/9/4 18/10/4 6/7/3
f 7/9/4 8/11/5 17/12/5 18/10/4
f 8/11/5 9/13/6 16/14/6 17/12/5
f 9/13/6 10/15/7 15/16/7 16/14/6
f 10/15/7 11/17/8 14/18/8 15/16/7
f 11/17/8 12/1/9 13/4/9 14/18/8
