# Blender v3.3.1 OBJ File: 'Office Set.blend'
# www.blender.org
mtllib Shelf_Base.mtl
o Shelf_Base_Cube.117
v 8.496325 0.000000 -1.222873
v 8.496325 0.000000 -1.777126
v 8.496325 1.938888 -1.222873
v 8.434949 0.000000 -1.222873
v 8.434949 1.938888 -1.222873
v 8.434949 0.114647 -1.222873
v 8.496325 0.114647 -1.222873
v 8.496325 0.114647 -1.777126
v 8.434949 0.114647 -1.740616
v 8.496325 1.938888 -1.777126
v 8.434949 1.938888 -1.740616
v 8.452893 1.047567 -1.759535
v 8.434949 2.003114 -1.222873
v 8.452893 1.089933 -1.233950
v 8.496325 2.003114 -1.222873
v 8.452893 1.089933 -1.759535
v 8.496325 2.003114 -1.777126
v 8.452893 1.047567 -1.233950
v 8.452893 1.478817 -1.759535
v 8.452893 1.521183 -1.233950
v 8.452893 1.521183 -1.759535
v 8.452893 1.478817 -1.233950
v 8.434949 2.003114 -1.777126
v 8.434949 0.114647 -1.777126
v 8.434949 1.938888 -1.777126
v 8.434949 0.000000 -1.777126
v 7.503675 0.000000 -1.222873
v 7.503675 0.000000 -1.777126
v 7.503675 1.938888 -1.222873
v 7.565051 0.000000 -1.222873
v 7.565051 1.938888 -1.222873
v 7.565051 0.114647 -1.222873
v 7.503675 0.114647 -1.222873
v 7.503675 0.114647 -1.777126
v 8.026612 0.114647 -1.740616
v 8.033586 0.114647 -1.222873
v 7.565051 0.114647 -1.740616
v 7.503675 1.938888 -1.777126
v 7.565051 1.938888 -1.740616
v 7.547107 1.047567 -1.759535
v 7.565051 2.003114 -1.222873
v 7.547107 1.089933 -1.233950
v 7.503675 2.003114 -1.222873
v 7.547107 1.089933 -1.759535
v 7.503675 2.003114 -1.777126
v 7.547107 1.047567 -1.233950
v 7.565051 0.208943 -1.222873
v 7.547107 1.478817 -1.759535
v 7.565051 0.208943 -1.740616
v 8.033586 0.208943 -1.740616
v 7.547107 1.521183 -1.233950
v 7.547107 1.521183 -1.759535
v 8.033586 0.208943 -1.222873
v 7.547107 1.478817 -1.233950
v 7.565051 2.003114 -1.777126
v 7.565051 0.114647 -1.777126
v 7.565051 1.938888 -1.777126
v 7.565051 0.000000 -1.777126
v 8.054179 0.114647 -1.740616
v 8.054179 0.114647 -1.222873
v 8.054179 1.089933 -1.740616
v 8.054179 1.089933 -1.222873
v 8.026612 0.114647 -1.222873
v 8.026612 1.089933 -1.222873
v 8.026612 1.089933 -1.740616
vt 0.792184 0.703079
vt 0.792184 0.703079
vt 0.792184 0.734908
vt 0.792184 0.734908
vt 0.792184 0.703079
vt 0.792184 0.703079
vt 0.792184 0.703079
vt 0.792184 0.703079
vt 0.891016 0.698096
vt 0.891016 0.730285
vt 0.891016 0.730285
vt 0.891016 0.698096
vt 0.888715 0.730285
vt 0.888724 0.730285
vt 0.889026 0.698096
vt 0.889026 0.698096
vt 0.889026 0.698096
vt 0.889026 0.698096
vt 0.889026 0.698096
vt 0.891016 0.698096
vt 0.777254 0.703079
vt 0.792184 0.703079
vt 0.792184 0.734908
vt 0.777254 0.734908
vt 0.891016 0.730285
vt 0.888428 0.730285
vt 0.888445 0.730285
vt 0.891016 0.730285
vt 0.891016 0.698096
vt 0.889026 0.698096
vt 0.888715 0.730285
vt 0.888445 0.730285
vt 0.889026 0.728164
vt 0.889026 0.728164
vt 0.888724 0.730285
vt 0.889026 0.728164
vt 0.777254 0.703079
vt 0.777254 0.734908
vt 0.792184 0.734908
vt 0.792184 0.703079
vt 0.792184 0.734908
vt 0.792184 0.734908
vt 0.792184 0.734908
vt 0.792184 0.734908
vt 0.792184 0.703079
vt 0.792184 0.703079
vt 0.792184 0.734908
vt 0.792184 0.734908
vt 0.889026 0.698096
vt 0.888428 0.730285
vt 0.874922 0.698096
vt 0.889026 0.698096
vt 0.887417 0.708851
vt 0.887417 0.708851
vt 0.887417 0.708851
vt 0.873313 0.708851
vt 0.887417 0.708851
vt 0.891016 0.698096
vt 0.891016 0.698096
vt 0.891016 0.730285
vt 0.891016 0.730285
vt 0.891016 0.698096
vt 0.891016 0.730285
vt 0.891016 0.730285
vt 0.891016 0.698096
vt 0.889026 0.728164
vt 0.874922 0.698096
vt 0.889026 0.698096
vt 0.871703 0.694877
vt 0.871703 0.724946
vt 0.871703 0.724946
vt 0.871703 0.694877
vt 0.876151 0.706143
vt 0.876151 0.706143
vt 0.876151 0.706143
vt 0.876151 0.706143
vt 0.873313 0.702924
vt 0.873313 0.732993
vt 0.873313 0.732993
vt 0.873313 0.702924
vt 0.777254 0.703079
vt 0.777254 0.703079
vt 0.777254 0.734908
vt 0.777254 0.734908
vt 0.777254 0.734908
vt 0.878141 0.704534
vt 0.878141 0.704534
vt 0.878141 0.704534
vt 0.878141 0.704534
vt 0.785772 0.728094
vt 0.785772 0.728094
vt 0.785772 0.696264
vt 0.819847 0.699671
vn 0.0000 -1.0000 0.0000
vn 0.0000 0.0000 1.0000
vn 1.0000 0.0000 0.0000
vn 0.0000 0.0000 -1.0000
vn 0.0000 1.0000 0.0000
vn -1.0000 0.0000 0.0000
vn 0.9993 -0.0370 -0.0067
usemtl Palette
s off
f 18/1/1 46/2/1 40/3/1 12/4/1
f 20/5/2 51/6/2 54/7/2 22/8/2
f 3/9/3 10/10/3 17/11/3 15/12/3
f 10/10/4 25/13/4 23/14/4 17/11/4
f 13/15/2 41/16/2 31/17/2 5/18/2
f 6/19/2 7/20/2 3/9/2 5/18/2
f 36/21/5 6/22/5 9/23/5 35/24/5
f 2/25/4 26/26/4 24/27/4 8/28/4
f 1/29/3 2/25/3 8/28/3 7/20/3
f 4/30/2 1/29/2 7/20/2 6/19/2
f 57/31/4 25/13/4 24/27/4 56/32/4
f 8/28/4 24/27/4 25/13/4 10/10/4
f 9/33/6 6/19/6 5/18/6 11/34/6
f 7/20/3 8/28/3 10/10/3 3/9/3
f 41/16/5 13/15/5 23/14/5 55/35/5
f 5/18/1 31/17/1 39/36/1 11/34/1
f 53/37/5 50/38/5 49/39/5 47/40/5
f 22/8/1 54/7/1 48/41/1 19/42/1
f 16/43/5 44/44/5 42/45/5 14/46/5
f 5/18/2 3/9/2 15/12/2 13/15/2
f 21/47/5 52/48/5 51/6/5 20/5/5
f 30/49/1 58/50/1 26/26/1 4/30/1
f 23/14/5 13/15/5 15/12/5 17/11/5
f 36/51/2 32/52/2 30/49/2 4/30/2 6/19/2
f 55/35/4 23/14/4 25/13/4 57/31/4
f 11/53/2 39/54/2 37/55/2 35/56/2 9/57/2
f 26/26/1 2/25/1 1/29/1 4/30/1
f 29/58/6 43/59/6 45/60/6 38/61/6
f 38/61/4 45/60/4 55/35/4 57/31/4
f 32/52/2 31/17/2 29/58/2 33/62/2
f 28/63/4 34/64/4 56/32/4 58/50/4
f 27/65/6 33/62/6 34/64/6 28/63/6
f 30/49/2 32/52/2 33/62/2 27/65/2
f 34/64/4 38/61/4 57/31/4 56/32/4
f 37/66/3 39/36/3 31/17/3 32/52/3
f 33/62/6 29/58/6 38/61/6 34/64/6
f 32/52/2 36/51/2 53/67/2 47/68/2
f 36/69/7 35/70/7 50/71/7 53/72/7
f 31/17/2 41/16/2 43/59/2 29/58/2
f 55/35/5 45/60/5 43/59/5 41/16/5
f 58/50/1 30/49/1 27/65/1 28/63/1
f 14/73/2 42/74/2 46/75/2 18/76/2
f 60/77/3 59/78/3 61/79/3 62/80/3
f 63/81/6 64/82/6 65/83/6 35/24/6
f 59/84/4 35/24/4 65/83/4 61/85/4
f 62/86/2 64/87/2 63/88/2 60/89/2
f 61/90/5 65/91/5 64/92/5 62/93/5
f 56/32/4 24/27/4 26/26/4 58/50/4
