# Blender v3.3.1 OBJ File: 'Office Set.blend'
# www.blender.org
mtllib Stapler.mtl
o Stapler_Cube.232
v -7.164185 0.950000 5.854447
v -7.164185 0.950000 5.820333
v -7.175279 0.959694 5.820333
v -7.175279 0.959694 5.854447
v -7.283813 0.959694 5.854447
v -7.147337 0.959694 5.854447
v -7.283813 0.959694 5.820333
v -7.147337 0.959694 5.820333
v -7.147337 0.967433 5.820333
v -7.164185 0.967433 5.820333
v -7.164185 0.967433 5.854447
v -7.147337 0.967433 5.854447
v -7.286489 0.962715 5.855144
v -7.286489 0.962715 5.819636
v -7.144662 0.962715 5.818171
v -7.144662 0.962715 5.856608
v -7.286489 0.975079 5.855270
v -7.274104 0.988877 5.845870
v -7.285546 0.979819 5.854702
v -7.282861 0.983857 5.852900
v -7.278843 0.987024 5.849945
v -7.274104 0.988877 5.828908
v -7.286489 0.975079 5.819509
v -7.278843 0.987024 5.824833
v -7.282861 0.983857 5.821887
v -7.285546 0.979819 5.820078
v -7.157047 0.987464 5.828954
v -7.144662 0.975079 5.818171
v -7.152308 0.986521 5.824828
v -7.148289 0.983837 5.821330
v -7.145605 0.979819 5.818992
v -7.157047 0.987464 5.845826
v -7.144662 0.975079 5.856608
v -7.152308 0.986521 5.849952
v -7.148289 0.983837 5.853450
v -7.145605 0.979819 5.855788
v -7.147337 0.952811 5.820333
v -7.150149 0.950000 5.820333
v -7.148161 0.950823 5.820333
v -7.281002 0.950000 5.820333
v -7.283813 0.952811 5.820333
v -7.282990 0.950823 5.820333
v -7.150149 0.950000 5.854447
v -7.147337 0.952811 5.854447
v -7.148161 0.950823 5.854447
v -7.283813 0.952811 5.854447
v -7.281002 0.950000 5.854447
v -7.282990 0.950823 5.854447
v -7.217339 0.962736 5.817799
v -7.264971 0.962715 5.818004
v -7.264971 0.962715 5.856776
v -7.217339 0.962736 5.856981
v -7.217339 0.975934 5.816883
v -7.264971 0.975716 5.817109
v -7.264401 0.981328 5.817756
v -7.217391 0.981591 5.817613
v -7.262778 0.986355 5.820143
v -7.217539 0.986549 5.820125
v -7.260350 0.989925 5.823885
v -7.217762 0.989961 5.823885
v -7.257485 0.991254 5.828321
v -7.218024 0.991194 5.828321
v -7.264971 0.975716 5.857671
v -7.217339 0.975934 5.857897
v -7.217391 0.981591 5.857167
v -7.264401 0.981328 5.857023
v -7.217539 0.986549 5.854654
v -7.262778 0.986355 5.854637
v -7.217762 0.989961 5.850894
v -7.260350 0.989925 5.850894
v -7.218024 0.991194 5.846458
v -7.257485 0.991254 5.846458
vt 0.200159 0.859056
vt 0.200159 0.893131
vt 0.229325 0.893131
vt 0.229325 0.859056
vt 0.232830 0.893131
vt 0.232830 0.859056
vt 0.225268 0.863113
vt 0.228773 0.863113
vt 0.229351 0.863113
vt 0.229475 0.863113
vt 0.229475 0.863113
vt 0.225268 0.863113
vt 0.195400 0.897187
vt 0.195400 0.863113
vt 0.195400 0.863113
vt 0.195400 0.897187
vt 0.195524 0.863113
vt 0.196102 0.863113
vt 0.225268 0.897187
vt 0.196102 0.897187
vt 0.195524 0.897187
vt 0.225268 0.897187
vt 0.229475 0.897187
vt 0.229475 0.897187
vt 0.736680 0.817937
vt 0.736680 0.783863
vt 0.736680 0.783863
vt 0.736680 0.817937
vt 0.474480 0.730156
vt 0.470274 0.730156
vt 0.470274 0.696082
vt 0.474480 0.696082
vt 0.740887 0.783863
vt 0.740887 0.817937
vt 0.740887 0.817937
vt 0.740887 0.783863
vt 0.444224 0.730156
vt 0.444224 0.696082
vt 0.440406 0.696082
vt 0.440406 0.730156
vt 0.233531 0.893131
vt 0.233531 0.859056
vt 0.229351 0.897187
vt 0.199457 0.859056
vt 0.199457 0.893131
vt 0.228773 0.897187
vt 0.474480 0.730156
vt 0.474480 0.696082
vt 0.458027 0.696082
vt 0.458027 0.730156
vt 0.474480 0.696082
vt 0.474480 0.730156
vt 0.458027 0.696082
vt 0.446533 0.720598
vt 0.443381 0.720598
vt 0.443381 0.705641
vt 0.446533 0.705641
vt 0.444224 0.730156
vt 0.440406 0.730156
vt 0.440406 0.696082
vt 0.440519 0.696446
vt 0.440519 0.729792
vt 0.440841 0.697482
vt 0.440841 0.728756
vt 0.442243 0.701983
vt 0.442242 0.724256
vt 0.474367 0.729792
vt 0.474367 0.696446
vt 0.474044 0.728756
vt 0.474044 0.697482
vt 0.472643 0.724256
vt 0.472643 0.701983
vt 0.471504 0.720598
vt 0.471504 0.705641
vt 0.444312 0.729792
vt 0.444562 0.728756
vt 0.445650 0.724256
vt 0.458024 0.696446
vt 0.458013 0.697482
vt 0.457964 0.701983
vt 0.457925 0.705641
vt 0.445650 0.701983
vt 0.444563 0.697482
vt 0.444312 0.696446
vt 0.444224 0.696082
vt 0.457964 0.724256
vt 0.457925 0.720598
vt 0.458012 0.728756
vt 0.458024 0.729792
vt 0.458027 0.730156
vn 0.0000 -1.0000 0.0000
vn 0.0000 0.0000 1.0000
vn -1.0000 0.0000 0.0000
vn 0.0000 0.0000 -1.0000
vn 1.0000 0.0000 0.0000
vn 0.0000 1.0000 0.0000
vn -0.5722 0.8201 0.0000
vn 0.3827 -0.9239 0.0000
vn 0.9239 -0.3826 0.0000
vn -0.3827 -0.9239 0.0000
vn -0.9238 -0.3828 0.0000
vn -0.0003 -1.0000 -0.0000
vn 0.0004 -1.0000 -0.0000
vn 0.7104 0.1001 0.6966
vn 0.5742 -0.5902 0.5675
vn 0.5742 -0.5902 -0.5675
vn 0.7104 0.1001 -0.6966
vn 0.0059 0.0422 0.9991
vn 0.0024 -0.7243 0.6895
vn -0.0601 0.9894 -0.1320
vn -0.2291 0.9696 -0.0862
vn -0.2291 0.9696 0.0862
vn -0.0601 0.9894 0.1320
vn -0.0563 0.0372 -0.9977
vn -0.0337 -0.7185 -0.6947
vn -0.5977 -0.5918 -0.5408
vn -0.7436 0.0902 -0.6625
vn -0.7436 0.0902 0.6625
vn -0.6877 0.3916 0.6114
vn -0.6876 0.3916 -0.6114
vn -0.5287 0.7001 0.4799
vn -0.5289 0.7003 -0.4795
vn -0.3682 0.8829 0.2912
vn -0.3682 0.8829 -0.2915
vn 0.6480 0.4138 -0.6394
vn 0.6480 0.4137 0.6394
vn 0.4743 0.7335 -0.4869
vn 0.4743 0.7335 0.4868
vn 0.2717 0.9190 -0.2856
vn 0.2717 0.9190 0.2856
vn 0.1094 0.9905 -0.0830
vn 0.1094 0.9905 0.0830
vn -0.0687 0.2983 -0.9520
vn -0.0779 0.6180 -0.7823
vn -0.0817 0.8821 -0.4640
vn 0.0113 0.3046 0.9524
vn 0.0183 0.6212 0.7834
vn 0.0263 0.8866 0.4618
vn 0.0299 0.9918 0.1246
vn -0.5977 -0.5918 0.5408
vn -0.0817 0.8821 0.4639
vn -0.0779 0.6180 0.7823
vn -0.0687 0.2981 0.9521
vn -0.0563 0.0372 0.9977
vn 0.0263 0.8866 -0.4618
vn 0.0299 0.9918 -0.1246
vn 0.0183 0.6212 -0.7834
vn 0.0113 0.3045 -0.9524
vn 0.0059 0.0422 -0.9991
vn 0.0024 -0.7243 -0.6895
vn -0.0337 -0.7185 0.6947
usemtl Palette
s off
f 47/1/1 40/2/1 2/3/1 1/4/1
f 1/4/1 2/3/1 38/5/1 43/6/1
f 1/7/2 43/8/2 45/9/2 44/10/2 6/11/2 4/12/2
f 41/13/3 46/14/3 5/15/3 7/16/3
f 46/14/2 48/17/2 47/18/2 1/7/2 4/12/2 5/15/2
f 2/19/4 40/20/4 42/21/4 41/13/4 7/16/4 3/22/4
f 44/10/5 37/23/5 8/24/5 6/11/5
f 5/15/6 4/12/6 3/22/6 7/16/6
f 3/25/7 4/26/7 11/27/7 10/28/7
f 9/29/6 10/30/6 11/31/6 12/32/6
f 6/33/5 8/34/5 9/35/5 12/36/5
f 8/34/4 3/25/4 10/28/4 9/35/4
f 4/26/2 6/33/2 12/36/2 11/27/2
f 50/37/1 51/38/1 13/39/1 14/40/1
f 43/6/8 38/5/8 39/41/8 45/42/8
f 45/9/9 39/43/9 37/23/9 44/10/9
f 40/2/10 47/1/10 48/44/10 42/45/10
f 42/21/11 48/17/11 46/14/11 41/13/11
f 37/23/4 39/43/4 38/46/4 2/19/4 3/22/4 8/24/4
f 15/47/12 16/48/12 52/49/12 49/50/12
f 49/50/13 52/49/13 51/38/13 50/37/13
s 1
f 33/51/14 16/48/15 15/47/16 28/52/17
f 64/53/18 52/49/19 16/48/15 33/51/14
f 61/54/20 22/55/21 18/56/22 72/57/23
f 54/58/24 50/37/25 14/40/26 23/59/27
f 23/59/27 17/60/28 19/61/29 26/62/30
f 26/62/30 19/61/29 20/63/31 25/64/32
f 25/64/32 20/63/31 21/65/33 24/66/34
f 24/66/34 21/65/33 18/56/22 22/55/21
f 33/51/14 28/52/17 31/67/35 36/68/36
f 36/68/36 31/67/35 30/69/37 35/70/38
f 35/70/38 30/69/37 29/71/39 34/72/40
f 34/72/40 29/71/39 27/73/41 32/74/42
f 54/58/24 23/59/27 26/62/30 55/75/43
f 55/75/43 26/62/30 25/64/32 57/76/44
f 57/76/44 25/64/32 24/66/34 59/77/45
f 59/77/45 24/66/34 22/55/21 61/54/20
f 64/53/18 33/51/14 36/68/36 65/78/46
f 65/78/46 36/68/36 35/70/38 67/79/47
f 67/79/47 35/70/38 34/72/40 69/80/48
f 69/80/48 34/72/40 32/74/42 71/81/49
f 23/59/27 14/40/26 13/39/50 17/60/28
f 21/65/33 70/82/51 72/57/23 18/56/22
f 70/82/51 69/80/48 71/81/49 72/57/23
f 20/63/31 68/83/52 70/82/51 21/65/33
f 68/83/52 67/79/47 69/80/48 70/82/51
f 19/61/29 66/84/53 68/83/52 20/63/31
f 66/84/53 65/78/46 67/79/47 68/83/52
f 17/60/28 63/85/54 66/84/53 19/61/29
f 63/85/54 64/53/18 65/78/46 66/84/53
f 29/71/39 60/86/55 62/87/56 27/73/41
f 60/86/55 59/77/45 61/54/20 62/87/56
f 30/69/37 58/88/57 60/86/55 29/71/39
f 58/88/57 57/76/44 59/77/45 60/86/55
f 31/67/35 56/89/58 58/88/57 30/69/37
f 56/89/58 55/75/43 57/76/44 58/88/57
f 28/52/17 53/90/59 56/89/58 31/67/35
f 53/90/59 54/58/24 55/75/43 56/89/58
f 28/52/17 15/47/16 49/50/60 53/90/59
f 53/90/59 49/50/60 50/37/25 54/58/24
f 27/73/41 62/87/56 71/81/49 32/74/42
f 62/87/56 61/54/20 72/57/23 71/81/49
f 17/60/28 13/39/50 51/38/61 63/85/54
f 63/85/54 51/38/61 52/49/19 64/53/18
