# Blender v3.3.1 OBJ File: 'Office Set.blend'
# www.blender.org
mtllib StickNote_1.mtl
o StickNote_1_Cube.125
v -6.941196 0.962139 5.434385
v -6.941196 0.976555 5.578531
v -7.058804 0.976555 5.578531
v -7.058804 0.962139 5.434385
v -7.058804 0.967551 5.578531
v -6.941196 0.967551 5.578531
v -7.058804 0.953136 5.434385
v -6.941196 0.953136 5.434385
v -6.941196 0.966567 5.556695
v -6.941196 0.957564 5.556695
v -7.058804 0.957564 5.556695
v -7.058804 0.966567 5.556695
v -7.058804 0.959003 5.457679
v -7.058804 0.950000 5.457679
v -6.941196 0.950000 5.457679
v -6.941196 0.959003 5.457679
v -6.941196 0.950000 5.506458
v -7.058804 0.950000 5.506458
v -7.058804 0.959003 5.506458
v -6.941196 0.959003 5.506458
vt 0.612521 0.807199
vt 0.612521 0.807199
vt 0.646595 0.807199
vt 0.646595 0.807199
vt 0.612521 0.801693
vt 0.646595 0.801693
vt 0.646595 0.778287
vt 0.646595 0.778287
vt 0.646595 0.773125
vt 0.646595 0.773125
vt 0.612521 0.801693
vt 0.612521 0.773125
vt 0.612521 0.773125
vt 0.646595 0.801693
vt 0.612521 0.778287
vt 0.646595 0.790162
vt 0.646595 0.790162
vt 0.612521 0.778287
vt 0.612521 0.790162
vt 0.612521 0.790162
vn 0.0000 0.0000 -1.0000
vn 0.0000 0.9911 0.1334
vn 1.0000 0.0000 0.0000
vn -1.0000 0.0000 0.0000
vn 0.0000 0.0000 1.0000
vn 0.0000 -0.9911 -0.1334
vn 0.0000 0.9094 -0.4159
vn 0.0000 1.0000 0.0000
vn 0.0000 -0.9094 0.4159
vn 0.0000 -1.0000 0.0000
vn 0.0000 0.9889 -0.1489
vn 0.0000 -0.9889 0.1489
usemtl Palette
s off
f 7/1/1 4/2/1 1/3/1 8/4/1
f 13/5/2 16/6/2 1/3/2 4/2/2
f 10/7/3 9/8/3 2/9/3 6/10/3
f 14/11/4 13/5/4 4/2/4 7/1/4
f 6/10/5 2/9/5 3/12/5 5/13/5
f 14/11/6 7/1/6 8/4/6 15/14/6
f 3/12/7 2/9/7 9/8/7 12/15/7
f 17/16/3 20/17/3 9/8/3 10/7/3
f 5/13/4 3/12/4 12/15/4 11/18/4
f 19/19/8 20/17/8 16/6/8 13/5/8
f 5/13/9 11/18/9 10/7/9 6/10/9
f 18/20/4 19/19/4 13/5/4 14/11/4
f 8/4/3 1/3/3 16/6/3 15/14/3
f 18/20/10 14/11/10 15/14/10 17/16/10
f 12/15/11 9/8/11 20/17/11 19/19/11
f 11/18/4 12/15/4 19/19/4 18/20/4
f 15/14/3 16/6/3 20/17/3 17/16/3
f 11/18/12 18/20/12 17/16/12 10/7/12
