# Blender v3.3.1 OBJ File: 'Office Set.blend'
# www.blender.org
mtllib Stool_B.mtl
o Stool_B_Cube.149
v -7.265929 0.651882 0.743678
v -7.265929 0.601521 0.743678
v -7.324397 -0.001885 0.707352
v -7.341224 0.608537 0.724180
v -7.324397 -0.001885 0.681611
v -7.341224 0.608537 0.664784
v -7.298656 -0.001885 0.707352
v -7.281829 0.608537 0.724180
v -7.298656 -0.001885 0.681611
v -7.281829 0.608537 0.664784
v -7.261551 0.696784 0.725130
v -7.287240 0.722473 0.725130
v -7.269075 0.714949 0.725130
v -7.272408 0.711616 0.739962
v -7.287240 0.714949 0.743295
v -7.287240 0.678797 0.750819
v -7.287240 0.653108 0.725130
v -7.272408 0.663965 0.739962
v -7.287240 0.660632 0.743295
v -7.269075 0.660632 0.725130
v -7.287240 0.696784 0.750819
v -7.269075 0.696784 0.743295
v -7.261551 0.678797 0.725130
v -7.269075 0.678797 0.743295
v -7.734071 0.651882 0.743678
v -7.734071 0.601521 0.743678
v -7.675603 -0.001885 0.707352
v -7.658776 0.608537 0.724180
v -7.675603 -0.001885 0.681611
v -7.658776 0.608537 0.664784
v -7.701344 -0.001885 0.707352
v -7.718171 0.608537 0.724180
v -7.701344 -0.001885 0.681611
v -7.718171 0.608537 0.664784
v -7.738449 0.696784 0.725130
v -7.712760 0.722473 0.725130
v -7.730925 0.714949 0.725130
v -7.727592 0.711616 0.739962
v -7.712760 0.714949 0.743295
v -7.712760 0.678797 0.750819
v -7.712760 0.653108 0.725130
v -7.727592 0.663965 0.739962
v -7.712760 0.660632 0.743295
v -7.730925 0.660632 0.725130
v -7.712760 0.696784 0.750819
v -7.730925 0.696784 0.743295
v -7.738449 0.678797 0.725130
v -7.730925 0.678797 0.743295
v -7.265929 0.651882 0.256322
v -7.265929 0.601521 0.256322
v -7.324397 -0.001885 0.292648
v -7.341224 0.608537 0.275820
v -7.324397 -0.001885 0.318389
v -7.341224 0.608537 0.335216
v -7.298656 -0.001885 0.292648
v -7.281829 0.608537 0.275820
v -7.298656 -0.001885 0.318389
v -7.281829 0.608537 0.335216
v -7.261551 0.696784 0.274870
v -7.287240 0.722473 0.274870
v -7.269075 0.714949 0.274870
v -7.272408 0.711616 0.260038
v -7.287240 0.714949 0.256705
v -7.287240 0.678797 0.249181
v -7.287240 0.653108 0.274870
v -7.272408 0.663965 0.260038
v -7.287240 0.660632 0.256705
v -7.269075 0.660632 0.274870
v -7.287240 0.696784 0.249181
v -7.269075 0.696784 0.256705
v -7.261551 0.678797 0.274870
v -7.269075 0.678797 0.256705
v -7.734071 0.651882 0.256322
v -7.734071 0.601521 0.256322
v -7.675603 -0.001885 0.292648
v -7.658776 0.608537 0.275820
v -7.675603 -0.001885 0.318389
v -7.658776 0.608537 0.335216
v -7.701344 -0.001885 0.292648
v -7.718171 0.608537 0.275820
v -7.701344 -0.001885 0.318389
v -7.718171 0.608537 0.335216
v -7.738449 0.696784 0.274870
v -7.712760 0.722473 0.274870
v -7.730925 0.714949 0.274870
v -7.727592 0.711616 0.260038
v -7.712760 0.714949 0.256705
v -7.712760 0.678797 0.249181
v -7.712760 0.653108 0.274870
v -7.727592 0.663965 0.260038
v -7.712760 0.660632 0.256705
v -7.730925 0.660632 0.274870
v -7.712760 0.696784 0.249181
v -7.730925 0.696784 0.256705
v -7.738449 0.678797 0.274870
v -7.730925 0.678797 0.256705
vt 0.529156 0.887365
vt 0.529156 0.887365
vt 0.538336 0.887365
vt 0.538336 0.887365
vt 0.529156 0.859823
vt 0.538336 0.859823
vt 0.538336 0.869004
vt 0.529156 0.869004
vt 0.538336 0.878184
vt 0.529156 0.878184
vt 0.538336 0.887365
vt 0.529156 0.887365
vt 0.538336 0.896545
vt 0.529156 0.896545
vt 0.519975 0.878184
vt 0.519975 0.887365
vt 0.538336 0.887365
vt 0.538336 0.887365
vt 0.529156 0.887365
vt 0.529156 0.887365
vt 0.529156 0.859823
vt 0.529156 0.869004
vt 0.538336 0.869004
vt 0.538336 0.859823
vt 0.529156 0.878184
vt 0.538336 0.878184
vt 0.529156 0.887365
vt 0.538336 0.887365
vt 0.529156 0.896545
vt 0.538336 0.896545
vt 0.519975 0.878184
vt 0.519975 0.887365
vt 0.640268 0.964414
vt 0.640268 0.964414
vt 0.640268 0.964414
vt 0.640268 0.964414
vt 0.529156 0.859823
vt 0.529156 0.869004
vt 0.538336 0.869004
vt 0.538336 0.859823
vt 0.529156 0.878184
vt 0.538336 0.878184
vt 0.529156 0.887365
vt 0.538336 0.887365
vt 0.529156 0.896545
vt 0.538336 0.896545
vt 0.519975 0.878184
vt 0.519975 0.887365
vt 0.529156 0.859823
vt 0.538336 0.859823
vt 0.538336 0.869004
vt 0.529156 0.869004
vt 0.538336 0.878184
vt 0.529156 0.878184
vt 0.538336 0.887365
vt 0.529156 0.887365
vt 0.538336 0.896545
vt 0.529156 0.896545
vt 0.519975 0.878184
vt 0.519975 0.887365
vt 0.628819 0.964414
vt 0.628819 0.964414
vt 0.628819 0.964414
vt 0.628819 0.964414
vt 0.632820 0.965500
vt 0.632820 0.965500
vt 0.629375 0.965500
vt 0.629375 0.965500
vt 0.639711 0.964414
vt 0.639711 0.964414
vt 0.636266 0.964414
vt 0.639304 0.964869
vt 0.636266 0.964944
vt 0.640268 0.964944
vt 0.636266 0.965500
vt 0.639711 0.965500
vt 0.632821 0.964414
vt 0.632820 0.964944
vt 0.629861 0.964948
vt 0.629375 0.964414
vt 0.628819 0.964944
vt 0.636266 0.964414
vt 0.628819 0.964944
vt 0.640268 0.964944
vt 0.639711 0.965500
vt 0.636266 0.965500
vt 0.629375 0.964414
vt 0.632821 0.964414
vt 0.636266 0.964414
vt 0.636266 0.964944
vt 0.639304 0.964869
vt 0.639711 0.964414
vt 0.632821 0.964414
vt 0.629375 0.964414
vt 0.629861 0.964948
vt 0.632820 0.964944
vt 0.639711 0.964414
vt 0.636266 0.964414
vt 0.629375 0.964414
vt 0.632821 0.964414
vt 0.632820 0.965500
vt 0.636266 0.965500
vt 0.636266 0.965500
vt 0.632820 0.965500
vt 0.628819 0.964944
vt 0.628819 0.964944
vt 0.636266 0.964944
vt 0.639304 0.964869
vt 0.640268 0.964944
vt 0.639711 0.965500
vt 0.629861 0.964948
vt 0.632820 0.964944
vt 0.629375 0.965500
vt 0.640268 0.964944
vt 0.639711 0.965500
vt 0.629375 0.965500
vt 0.639304 0.964869
vt 0.636266 0.964944
vt 0.632820 0.964944
vt 0.629861 0.964948
vn 1.0000 0.0000 0.0000
vn -0.9996 -0.0276 0.0000
vn 0.0000 -0.0276 -0.9996
vn 0.9996 -0.0276 0.0000
vn 0.0000 -0.0276 0.9996
vn 0.0000 -1.0000 0.0000
vn -1.0000 0.0000 0.0000
vn 0.0000 0.0000 -1.0000
vn 0.0000 1.0000 0.0000
vn 0.0000 0.0000 1.0000
vn 0.1794 -0.1794 0.9673
vn -0.1794 -0.1794 0.9673
vn -0.1726 -0.6965 0.6965
vn 0.1726 -0.6965 0.6965
vn 0.6965 0.6965 0.1726
vn 0.6965 0.6965 -0.1726
vn 0.1794 0.9673 -0.1794
vn 0.1794 0.9673 0.1794
vn 0.9673 0.1794 0.1794
vn 0.5773 0.5774 0.5774
vn 0.6965 0.1726 0.6965
vn 0.1726 0.6965 0.6965
vn 0.1794 0.1794 0.9673
vn 0.9673 -0.1794 0.1794
vn 0.6965 -0.1726 0.6965
vn 0.5773 -0.5774 0.5774
vn 0.6965 -0.6965 0.1726
vn 0.1794 -0.9673 0.1794
vn 0.9673 0.1794 -0.1794
vn -0.1794 -0.9673 0.1794
vn -0.1794 0.9673 0.1794
vn -0.1726 0.6965 0.6965
vn -0.1794 0.1794 0.9673
vn 0.1794 -0.9673 -0.1794
vn 0.6965 -0.6965 -0.1726
vn 0.9673 -0.1794 -0.1794
vn -0.9673 0.1794 0.1794
vn -0.6965 0.1726 0.6965
vn -0.5773 0.5774 0.5774
vn -0.6965 0.6965 0.1726
vn -0.9673 -0.1794 0.1794
vn -0.6965 -0.6965 0.1726
vn -0.5773 -0.5773 0.5774
vn -0.6965 -0.1726 0.6965
vn -0.6965 0.6965 -0.1726
vn -0.9673 0.1794 -0.1794
vn -0.1794 -0.9673 -0.1794
vn -0.6965 -0.6965 -0.1726
vn -0.9673 -0.1794 -0.1794
vn -0.1794 -0.1794 -0.9673
vn -0.1794 0.1794 -0.9673
vn 0.1794 0.1794 -0.9673
vn 0.1794 -0.1794 -0.9673
vn -0.1726 -0.6965 -0.6965
vn 0.1726 -0.6965 -0.6965
vn 0.6965 0.1726 -0.6965
vn 0.5773 0.5773 -0.5774
vn 0.1726 0.6965 -0.6965
vn 0.5773 -0.5774 -0.5774
vn 0.6965 -0.1726 -0.6965
vn -0.1794 0.9673 -0.1794
vn -0.1726 0.6965 -0.6965
vn -0.5773 0.5774 -0.5774
vn -0.6965 0.1726 -0.6965
vn -0.6965 -0.1726 -0.6965
vn -0.5773 -0.5773 -0.5774
usemtl Palette
s off
f 2/1/1 50/2/1 49/3/1 1/4/1
f 3/5/2 4/6/2 6/7/2 5/8/2
f 5/8/3 6/7/3 10/9/3 9/10/3
f 9/10/4 10/9/4 8/11/4 7/12/4
f 7/12/5 8/11/5 4/13/5 3/14/5
f 5/15/6 9/10/6 7/12/6 3/16/6
f 25/17/7 73/18/7 74/19/7 26/20/7
f 2/1/6 26/20/6 74/19/6 50/2/6
f 27/21/4 29/22/4 30/23/4 28/24/4
f 29/22/3 33/25/3 34/26/3 30/23/3
f 33/25/2 31/27/2 32/28/2 34/26/2
f 31/27/5 27/29/5 28/30/5 32/28/5
f 29/31/6 27/32/6 31/27/6 33/25/6
f 74/19/8 73/18/8 49/3/8 50/2/8
f 12/33/9 60/34/9 84/35/9 36/36/9
f 51/37/2 53/38/2 54/39/2 52/40/2
f 53/38/5 57/41/5 58/42/5 54/39/5
f 57/41/4 55/43/4 56/44/4 58/42/4
f 55/43/3 51/45/3 52/46/3 56/44/3
f 53/47/6 51/48/6 55/43/6 57/41/6
f 49/3/9 73/18/9 25/17/9 1/4/9
f 75/49/4 76/50/4 78/51/4 77/52/4
f 77/52/5 78/51/5 82/53/5 81/54/5
f 81/54/2 82/53/2 80/55/2 79/56/2
f 79/56/3 80/55/3 76/57/3 75/58/3
f 77/59/6 81/54/6 79/56/6 75/60/6
f 17/61/6 41/62/6 89/63/6 65/64/6
f 26/20/10 2/1/10 1/4/10 25/17/10
s 1
f 16/65/11 40/66/12 43/67/13 19/68/14
f 13/69/15 61/70/16 60/34/17 12/33/18
f 11/71/19 13/69/15 14/72/20 22/73/21
f 12/33/18 15/74/22 14/72/20 13/69/15
f 21/75/23 22/73/21 14/72/20 15/76/22
f 23/77/24 24/78/25 18/79/26 20/80/27
f 16/65/11 19/68/14 18/79/26 24/78/25
f 17/61/28 20/80/27 18/79/26 19/81/14
f 11/71/19 59/82/29 61/70/16 13/69/15
f 19/81/14 43/83/13 41/62/30 17/61/28
f 36/36/31 39/84/32 15/74/22 12/33/18
f 39/85/32 45/86/33 21/75/23 15/76/22
f 65/64/34 68/87/35 20/80/27 17/61/28
f 68/87/35 71/88/36 23/77/24 20/80/27
f 21/75/23 16/65/11 24/78/25 22/73/21
f 22/73/21 24/78/25 23/77/24 11/71/19
f 40/66/12 16/65/11 21/75/23 45/86/33
f 35/89/37 46/90/38 38/91/39 37/92/40
f 36/36/31 37/92/40 38/91/39 39/84/32
f 45/86/33 39/85/32 38/91/39 46/90/38
f 47/93/41 44/94/42 42/95/43 48/96/44
f 40/66/12 48/96/44 42/95/43 43/67/13
f 41/62/30 43/83/13 42/95/43 44/94/42
f 37/92/40 85/97/45 83/98/46 35/89/37
f 89/63/47 41/62/30 44/94/42 92/99/48
f 92/99/48 44/94/42 47/93/41 95/100/49
f 45/86/33 46/90/38 48/96/44 40/66/12
f 46/90/38 35/89/37 47/93/41 48/96/44
f 88/101/50 93/102/51 69/103/52 64/104/53
f 23/77/24 71/88/36 59/82/29 11/71/19
f 65/64/34 89/63/47 91/105/54 67/106/55
f 59/82/29 70/107/56 62/108/57 61/70/16
f 60/34/17 61/70/16 62/108/57 63/109/58
f 69/103/52 63/110/58 62/108/57 70/107/56
f 71/88/36 68/87/35 66/111/59 72/112/60
f 64/104/53 72/112/60 66/111/59 67/113/55
f 65/64/34 67/106/55 66/111/59 68/87/35
f 84/35/61 60/34/17 63/109/58 87/114/62
f 87/115/62 63/110/58 69/103/52 93/102/51
f 67/113/55 91/116/54 88/101/50 64/104/53
f 69/103/52 70/107/56 72/112/60 64/104/53
f 70/107/56 59/82/29 71/88/36 72/112/60
f 36/36/31 84/35/61 85/97/45 37/92/40
f 35/89/37 83/98/46 95/100/49 47/93/41
f 83/98/46 85/97/45 86/117/63 94/118/64
f 84/35/61 87/114/62 86/117/63 85/97/45
f 93/102/51 94/118/64 86/117/63 87/115/62
f 95/100/49 96/119/65 90/120/66 92/99/48
f 88/101/50 91/116/54 90/120/66 96/119/65
f 89/63/47 92/99/48 90/120/66 91/105/54
f 93/102/51 88/101/50 96/119/65 94/118/64
f 94/118/64 96/119/65 95/100/49 83/98/46
