# Blender v3.3.1 OBJ File: 'Office Set.blend'
# www.blender.org
mtllib Table_Circular.mtl
o Table_Circular_Cube.015
v 5.547132 -0.001885 0.815451
v 5.547132 0.051806 0.815451
v 5.547132 0.081609 0.549548
v 5.547132 -0.001885 0.549548
v 5.824968 -0.001885 0.545937
v 5.824968 0.051806 0.545937
v 5.824968 -0.001885 0.498806
v 5.824968 0.051806 0.498806
v 5.554562 -0.001885 0.545937
v 5.554562 0.081609 0.545937
v 5.554562 0.081609 0.498806
v 5.554562 -0.001885 0.498806
v 5.582240 -0.001885 0.534688
v 5.542773 -0.001885 0.574154
v 5.553819 0.912121 0.661652
v 5.680110 0.912121 0.535362
v 5.545938 0.817742 0.554111
v 5.539263 0.708405 0.555754
v 5.541810 0.599069 0.545068
v 5.539263 0.489733 0.555754
v 5.541810 0.380396 0.545068
v 5.539263 0.271060 0.555754
v 5.543137 0.161723 0.549764
v 5.555686 0.161723 0.537215
v 5.561863 0.271060 0.533153
v 5.550454 0.380396 0.536424
v 5.561863 0.489733 0.533153
v 5.550454 0.599069 0.536424
v 5.561863 0.708405 0.533153
v 5.560403 0.817742 0.539646
v 5.587796 0.949037 0.875000
v 5.699990 0.949037 0.828528
v 5.813182 0.949037 0.715336
v 5.859654 0.949037 0.603141
v 5.859654 0.891902 0.603141
v 5.813182 0.891902 0.715336
v 5.699990 0.891902 0.828528
v 5.587796 0.891902 0.875000
v 5.500000 0.891902 0.875000
v 5.500000 0.949037 0.875000
v 5.500000 -0.001885 0.574154
v 5.500000 0.912121 0.661652
v 5.500000 -0.001885 0.815451
v 5.500000 0.051806 0.815451
v 5.452868 -0.001885 0.815451
v 5.452868 0.051806 0.815451
v 5.500000 -0.001885 0.549548
v 5.500000 0.081609 0.549548
v 5.452868 0.081609 0.549548
v 5.452868 -0.001885 0.549548
v 5.175032 -0.001885 0.545937
v 5.175032 0.051806 0.545937
v 5.175032 -0.001885 0.498806
v 5.175032 0.051806 0.498806
v 5.445438 -0.001885 0.545937
v 5.445438 0.081609 0.545937
v 5.445438 0.081609 0.498806
v 5.445438 -0.001885 0.498806
v 5.417760 -0.001885 0.534688
v 5.457227 -0.001885 0.574154
v 5.446181 0.912121 0.661652
v 5.319890 0.912121 0.535362
v 5.500000 0.161723 0.549764
v 5.500000 0.271060 0.555754
v 5.500000 0.380396 0.545068
v 5.500000 0.489733 0.555754
v 5.500000 0.599069 0.545068
v 5.500000 0.708405 0.555754
v 5.500000 0.817742 0.554111
v 5.454062 0.817742 0.554111
v 5.460737 0.708405 0.555754
v 5.458190 0.599069 0.545068
v 5.460737 0.489733 0.555754
v 5.458190 0.380396 0.545068
v 5.460737 0.271060 0.555754
v 5.456863 0.161723 0.549764
v 5.444314 0.161723 0.537215
v 5.438137 0.271060 0.533153
v 5.449546 0.380396 0.536424
v 5.438137 0.489733 0.533153
v 5.449546 0.599069 0.536424
v 5.438137 0.708405 0.533153
v 5.439597 0.817742 0.539646
v 5.412204 0.949037 0.875000
v 5.300010 0.949037 0.828528
v 5.186818 0.949037 0.715336
v 5.140346 0.949037 0.603141
v 5.140346 0.891902 0.603141
v 5.186818 0.891902 0.715336
v 5.300010 0.891902 0.828528
v 5.412204 0.891902 0.875000
v 5.582240 -0.001885 0.500000
v 5.680110 0.912121 0.500000
v 5.859654 0.949037 0.500000
v 5.859654 0.891902 0.500000
v 5.547132 -0.001885 0.184549
v 5.547132 0.051806 0.184549
v 5.547132 0.081609 0.450452
v 5.547132 -0.001885 0.450452
v 5.824968 -0.001885 0.454063
v 5.824968 0.051806 0.454063
v 5.824968 -0.001885 0.501194
v 5.824968 0.051806 0.501194
v 5.554562 -0.001885 0.454063
v 5.554562 0.081609 0.454063
v 5.554562 0.081609 0.501194
v 5.554562 -0.001885 0.501194
v 5.582240 -0.001885 0.465312
v 5.542773 -0.001885 0.425846
v 5.553819 0.912121 0.338348
v 5.680110 0.912121 0.464638
v 5.560403 0.817742 0.500000
v 5.561863 0.708405 0.500000
v 5.550454 0.599069 0.500000
v 5.561863 0.489733 0.500000
v 5.550454 0.380396 0.500000
v 5.561863 0.271060 0.500000
v 5.555686 0.161723 0.500000
v 5.545938 0.817742 0.445889
v 5.539263 0.708405 0.444246
v 5.541810 0.599069 0.454932
v 5.539263 0.489733 0.444246
v 5.541810 0.380396 0.454932
v 5.539263 0.271060 0.444246
v 5.543137 0.161723 0.450236
v 5.555686 0.161723 0.462785
v 5.561863 0.271060 0.466847
v 5.550454 0.380396 0.463576
v 5.561863 0.489733 0.466847
v 5.550454 0.599069 0.463576
v 5.561863 0.708405 0.466847
v 5.560403 0.817742 0.460354
v 5.587796 0.949037 0.125000
v 5.699990 0.949037 0.171472
v 5.813182 0.949037 0.284664
v 5.859654 0.949037 0.396859
v 5.859654 0.891902 0.396859
v 5.813182 0.891902 0.284664
v 5.699990 0.891902 0.171472
v 5.587796 0.891902 0.125000
v 5.500000 0.891902 0.125000
v 5.500000 0.949037 0.125000
v 5.500000 -0.001885 0.425846
v 5.500000 0.912121 0.338348
v 5.500000 -0.001885 0.500000
v 5.417760 -0.001885 0.500000
v 5.319890 0.912121 0.500000
v 5.140346 0.949037 0.500000
v 5.140346 0.891902 0.500000
v 5.500000 0.949037 0.500000
v 5.500000 0.891902 0.500000
v 5.500000 -0.001885 0.184549
v 5.500000 0.051806 0.184549
v 5.452868 -0.001885 0.184549
v 5.452868 0.051806 0.184549
v 5.500000 -0.001885 0.450452
v 5.500000 0.081609 0.450452
v 5.452868 0.081609 0.450452
v 5.452868 -0.001885 0.450452
v 5.175032 -0.001885 0.454063
v 5.175032 0.051806 0.454063
v 5.175032 -0.001885 0.501194
v 5.175032 0.051806 0.501194
v 5.445438 -0.001885 0.454063
v 5.445438 0.081609 0.454063
v 5.445438 0.081609 0.501194
v 5.445438 -0.001885 0.501194
v 5.417760 -0.001885 0.465312
v 5.457227 -0.001885 0.425846
v 5.446181 0.912121 0.338348
v 5.319890 0.912121 0.464638
v 5.500000 0.161723 0.450236
v 5.500000 0.271060 0.444246
v 5.500000 0.380396 0.454932
v 5.500000 0.489733 0.444246
v 5.500000 0.599069 0.454932
v 5.500000 0.708405 0.444246
v 5.500000 0.817742 0.445889
v 5.439597 0.817742 0.500000
v 5.438137 0.708405 0.500000
v 5.449546 0.599069 0.500000
v 5.438137 0.489733 0.500000
v 5.449546 0.380396 0.500000
v 5.438137 0.271060 0.500000
v 5.444314 0.161723 0.500000
v 5.454062 0.817742 0.445889
v 5.460737 0.708405 0.444246
v 5.458190 0.599069 0.454932
v 5.460737 0.489733 0.444246
v 5.458190 0.380396 0.454932
v 5.460737 0.271060 0.444246
v 5.456863 0.161723 0.450236
v 5.444314 0.161723 0.462785
v 5.438137 0.271060 0.466847
v 5.449546 0.380396 0.463576
v 5.438137 0.489733 0.466847
v 5.449546 0.599069 0.463576
v 5.438137 0.708405 0.466847
v 5.439597 0.817742 0.460354
v 5.412204 0.949037 0.125000
v 5.300010 0.949037 0.171472
v 5.186818 0.949037 0.284664
v 5.140346 0.949037 0.396859
v 5.140346 0.891902 0.396859
v 5.186818 0.891902 0.284664
v 5.300010 0.891902 0.171472
v 5.412204 0.891902 0.125000
vt 0.524565 0.882775
vt 0.529156 0.882775
vt 0.529156 0.884037
vt 0.528562 0.885411
vt 0.527118 0.886796
vt 0.525686 0.887365
vt 0.524565 0.887365
vt 0.529156 0.887365
vt 0.538336 0.887365
vt 0.538336 0.896545
vt 0.529156 0.896545
vt 0.538336 0.887365
vt 0.538336 0.896545
vt 0.529156 0.887365
vt 0.529156 0.896545
vt 0.529156 0.887365
vt 0.538336 0.887365
vt 0.538336 0.896545
vt 0.529156 0.896545
vt 0.538336 0.887365
vt 0.538336 0.896545
vt 0.529156 0.896545
vt 0.529156 0.887365
vt 0.538336 0.882775
vt 0.542926 0.882775
vt 0.542926 0.887365
vt 0.541806 0.887365
vt 0.540374 0.886796
vt 0.538929 0.885411
vt 0.538336 0.884037
vt 0.956843 0.794705
vt 0.955551 0.794705
vt 0.955551 0.786550
vt 0.956843 0.786550
vt 0.945216 0.780512
vt 0.955551 0.780512
vt 0.951694 0.790848
vt 0.945216 0.790848
vt 0.964594 0.794705
vt 0.963303 0.794705
vt 0.963303 0.786550
vt 0.964594 0.786550
vt 0.962011 0.794705
vt 0.962011 0.786550
vt 0.960719 0.794705
vt 0.960719 0.786550
vt 0.959427 0.794705
vt 0.959427 0.786550
vt 0.958135 0.794705
vt 0.958135 0.786550
vt 0.956843 0.780512
vt 0.958135 0.780512
vt 0.959427 0.780512
vt 0.960719 0.780512
vt 0.962011 0.780512
vt 0.963303 0.780512
vt 0.964594 0.780512
vt 0.956843 0.801183
vt 0.955551 0.801183
vt 0.958135 0.801183
vt 0.959427 0.801183
vt 0.960719 0.801183
vt 0.962011 0.801183
vt 0.963303 0.801183
vt 0.964594 0.801183
vt 0.525686 0.887365
vt 0.527118 0.886796
vt 0.528562 0.885411
vt 0.529156 0.884037
vt 0.529156 0.882775
vt 0.529156 0.887365
vt 0.538336 0.887365
vt 0.538336 0.887365
vt 0.529156 0.887365
vt 0.529156 0.887365
vt 0.529156 0.896545
vt 0.538336 0.896545
vt 0.538336 0.887365
vt 0.538336 0.896545
vt 0.538336 0.887365
vt 0.529156 0.896545
vt 0.529156 0.887365
vt 0.538336 0.882775
vt 0.538336 0.884037
vt 0.538929 0.885411
vt 0.540374 0.886796
vt 0.541806 0.887365
vt 0.956843 0.794705
vt 0.956843 0.786550
vt 0.955551 0.786550
vt 0.955551 0.794705
vt 0.951694 0.790848
vt 0.955551 0.780512
vt 0.964594 0.794705
vt 0.964594 0.786550
vt 0.963303 0.786550
vt 0.963303 0.794705
vt 0.962011 0.786550
vt 0.962011 0.794705
vt 0.960719 0.786550
vt 0.960719 0.794705
vt 0.959427 0.786550
vt 0.959427 0.794705
vt 0.958135 0.786550
vt 0.958135 0.794705
vt 0.956843 0.780512
vt 0.958135 0.780512
vt 0.959427 0.780512
vt 0.960719 0.780512
vt 0.962011 0.780512
vt 0.963303 0.780512
vt 0.964594 0.780512
vt 0.524565 0.887365
vt 0.525686 0.887365
vt 0.527118 0.886796
vt 0.528562 0.885411
vt 0.529156 0.884037
vt 0.529156 0.887365
vt 0.529156 0.896545
vt 0.538336 0.896545
vt 0.538336 0.887365
vt 0.538336 0.896545
vt 0.538336 0.887365
vt 0.529156 0.887365
vt 0.529156 0.896545
vt 0.529156 0.887365
vt 0.529156 0.896545
vt 0.538336 0.896545
vt 0.538336 0.887365
vt 0.538336 0.896545
vt 0.538336 0.887365
vt 0.529156 0.896545
vt 0.529156 0.887365
vt 0.538336 0.884037
vt 0.538929 0.885411
vt 0.540374 0.886796
vt 0.541806 0.887365
vt 0.542926 0.887365
vt 0.956843 0.794705
vt 0.956843 0.786550
vt 0.955551 0.786550
vt 0.955551 0.794705
vt 0.945216 0.790848
vt 0.951694 0.790848
vt 0.964594 0.794705
vt 0.964594 0.786550
vt 0.963303 0.786550
vt 0.963303 0.794705
vt 0.962011 0.786550
vt 0.962011 0.794705
vt 0.960719 0.786550
vt 0.960719 0.794705
vt 0.959427 0.786550
vt 0.959427 0.794705
vt 0.958135 0.786550
vt 0.958135 0.794705
vt 0.955551 0.801183
vt 0.956843 0.801183
vt 0.958135 0.801183
vt 0.959427 0.801183
vt 0.960719 0.801183
vt 0.962011 0.801183
vt 0.963303 0.801183
vt 0.964594 0.801183
vt 0.529156 0.884037
vt 0.528562 0.885411
vt 0.527118 0.886796
vt 0.525686 0.887365
vt 0.529156 0.887365
vt 0.538336 0.887365
vt 0.538336 0.887365
vt 0.529156 0.887365
vt 0.529156 0.887365
vt 0.538336 0.887365
vt 0.538336 0.896545
vt 0.529156 0.896545
vt 0.538336 0.887365
vt 0.538336 0.896545
vt 0.529156 0.896545
vt 0.529156 0.887365
vt 0.541806 0.887365
vt 0.540374 0.886796
vt 0.538929 0.885411
vt 0.538336 0.884037
vt 0.956843 0.794705
vt 0.955551 0.794705
vt 0.955551 0.786550
vt 0.956843 0.786550
vt 0.951694 0.790848
vt 0.964594 0.794705
vt 0.963303 0.794705
vt 0.963303 0.786550
vt 0.964594 0.786550
vt 0.962011 0.794705
vt 0.962011 0.786550
vt 0.960719 0.794705
vt 0.960719 0.786550
vt 0.959427 0.794705
vt 0.959427 0.786550
vt 0.958135 0.794705
vt 0.958135 0.786550
vt 0.965886 0.794705
vt 0.965886 0.801183
vt 0.965886 0.780512
vt 0.965886 0.786550
vt 0.529156 0.890835
vt 0.538336 0.890835
vt 0.538336 0.891955
vt 0.529156 0.891955
vt 0.529156 0.888834
vt 0.538336 0.888834
vt 0.538336 0.886004
vt 0.529156 0.886004
vt 0.965886 0.794705
vt 0.965886 0.786550
vt 0.965886 0.780512
vt 0.529156 0.890835
vt 0.538336 0.890835
vt 0.538336 0.888834
vt 0.529156 0.888834
vt 0.529156 0.886004
vt 0.538336 0.886004
vt 0.965886 0.801183
vt 0.965886 0.794705
vt 0.965886 0.786550
vt 0.529156 0.890835
vt 0.529156 0.891955
vt 0.538336 0.891955
vt 0.538336 0.890835
vt 0.538336 0.888834
vt 0.529156 0.888834
vt 0.529156 0.886004
vt 0.538336 0.886004
vt 0.965886 0.794705
vt 0.965886 0.786550
vt 0.529156 0.890835
vt 0.538336 0.890835
vt 0.529156 0.888834
vt 0.538336 0.888834
vt 0.538336 0.886004
vt 0.529156 0.886004
vn 0.0000 -1.0000 0.0000
vn 0.0000 0.0000 1.0000
vn 0.0000 0.9938 0.1114
vn 1.0000 0.0000 0.0000
vn 0.1096 0.9940 0.0000
vn 0.0000 1.0000 -0.0000
vn 0.7033 0.1033 0.7033
vn 0.7067 -0.0325 0.7067
vn 0.7061 -0.0526 0.7061
vn 0.7061 0.0526 0.7061
vn 0.7070 -0.0137 0.7070
vn 0.9871 0.1602 -0.0000
vn 0.9984 -0.0564 0.0000
vn 0.9946 0.1038 0.0000
vn 0.9946 -0.1038 0.0000
vn 0.9999 0.0134 0.0000
vn 0.0000 0.1474 0.9891
vn 0.0000 -0.0547 0.9985
vn 0.0000 0.0973 0.9953
vn 0.0000 -0.0973 0.9953
vn 0.0000 0.0150 0.9999
vn -1.0000 0.0000 0.0000
vn -0.1096 0.9940 0.0000
vn -0.7033 0.1033 0.7033
vn -0.7067 -0.0325 0.7067
vn -0.7061 -0.0526 0.7061
vn -0.7061 0.0526 0.7061
vn -0.7070 -0.0137 0.7070
vn -0.9871 0.1602 -0.0000
vn -0.9984 -0.0564 0.0000
vn -0.9946 0.1038 0.0000
vn -0.9946 -0.1038 0.0000
vn -0.9999 0.0134 0.0000
vn 0.0000 0.0000 -1.0000
vn 0.0000 0.9938 -0.1114
vn 0.7033 0.1033 -0.7033
vn 0.7067 -0.0325 -0.7067
vn 0.7061 -0.0526 -0.7061
vn 0.7061 0.0526 -0.7061
vn 0.7070 -0.0137 -0.7070
vn 0.0000 0.1474 -0.9891
vn -0.0000 -0.0547 -0.9985
vn -0.0000 0.0973 -0.9953
vn 0.0000 -0.0973 -0.9953
vn 0.0000 0.0150 -0.9999
vn -0.7033 0.1033 -0.7033
vn -0.7067 -0.0325 -0.7067
vn -0.7061 -0.0526 -0.7061
vn -0.7061 0.0526 -0.7061
vn -0.7070 -0.0137 -0.7070
vn 0.7071 -0.7071 -0.0000
vn 0.7071 0.7071 0.0000
vn 0.7319 0.6657 0.1456
vn 0.7319 -0.6657 0.1456
vn 0.3802 -0.4394 0.8139
vn 0.2285 -0.7400 0.6327
vn 0.0000 -0.7516 0.6596
vn 0.0000 -0.4057 0.9140
vn 0.9027 -0.4304 0.0000
vn 0.6191 -0.7853 0.0000
vn 0.6102 -0.7644 0.2081
vn 0.8041 -0.4494 0.3892
vn 0.1456 -0.6657 0.7319
vn 0.1456 0.6657 0.7319
vn 0.0000 0.7071 0.7071
vn 0.0000 -0.7071 0.7071
vn 0.4146 -0.6657 0.6204
vn 0.4146 0.6657 0.6204
vn 0.6204 0.6657 0.4146
vn 0.6204 -0.6657 0.4146
vn -0.7071 -0.7071 0.0000
vn -0.7319 -0.6657 0.1456
vn -0.7319 0.6657 0.1456
vn -0.7071 0.7071 -0.0000
vn -0.3802 -0.4394 0.8139
vn -0.2285 -0.7400 0.6327
vn -0.9027 -0.4304 0.0000
vn -0.8041 -0.4494 0.3892
vn -0.6102 -0.7644 0.2081
vn -0.6191 -0.7853 0.0000
vn -0.1456 -0.6657 0.7319
vn -0.1456 0.6657 0.7319
vn -0.4146 0.6657 0.6204
vn -0.4146 -0.6657 0.6204
vn -0.6204 -0.6657 0.4146
vn -0.6204 0.6657 0.4146
vn 0.7319 -0.6657 -0.1456
vn 0.7319 0.6657 -0.1456
vn 0.3802 -0.4394 -0.8139
vn 0.0000 -0.4057 -0.9140
vn 0.0000 -0.7516 -0.6596
vn 0.2285 -0.7400 -0.6327
vn 0.8041 -0.4494 -0.3892
vn 0.6102 -0.7644 -0.2081
vn 0.1456 -0.6657 -0.7319
vn 0.0000 -0.7071 -0.7071
vn 0.0000 0.7071 -0.7071
vn 0.1456 0.6657 -0.7319
vn 0.4146 0.6657 -0.6204
vn 0.4146 -0.6657 -0.6204
vn 0.6204 -0.6657 -0.4146
vn 0.6204 0.6657 -0.4146
vn -0.7319 0.6657 -0.1456
vn -0.7319 -0.6657 -0.1456
vn -0.3802 -0.4394 -0.8139
vn -0.2285 -0.7400 -0.6327
vn -0.6102 -0.7644 -0.2081
vn -0.8041 -0.4494 -0.3892
vn -0.1456 -0.6657 -0.7319
vn -0.1456 0.6657 -0.7319
vn -0.4146 -0.6657 -0.6204
vn -0.4146 0.6657 -0.6204
vn -0.6204 0.6657 -0.4146
vn -0.6204 -0.6657 -0.4146
usemtl Palette
s off
f 151/1/1 95/2/1 35/3/1 36/4/1 37/5/1 38/6/1 39/7/1
f 1/8/2 2/9/2 44/10/2 43/11/2
f 2/9/3 3/12/3 48/13/3 44/10/3
f 1/8/4 4/14/4 3/12/4 2/9/4
f 43/11/1 47/15/1 4/14/1 1/8/1
f 7/16/4 8/17/4 6/18/4 5/19/4
f 8/17/5 11/20/5 10/21/5 6/18/5
f 5/19/2 6/18/2 10/21/2 9/22/2
f 5/19/1 9/22/1 12/23/1 7/16/1
f 94/24/6 150/25/6 40/26/6 31/27/6 32/28/6 33/29/6 34/30/6
f 23/31/7 14/32/7 13/33/7 24/34/7
f 145/35/1 92/36/1 13/33/1 14/37/1 41/38/1
f 17/39/8 18/40/8 29/41/8 30/42/8
f 18/40/9 19/43/9 28/44/9 29/41/9
f 19/43/10 20/45/10 27/46/10 28/44/10
f 20/45/9 21/47/9 26/48/9 27/46/9
f 21/47/10 22/49/10 25/50/10 26/48/10
f 22/49/11 23/31/11 24/34/11 25/50/11
f 92/36/12 118/51/12 24/34/12 13/33/12
f 118/51/13 117/52/13 25/50/13 24/34/13
f 117/52/14 116/53/14 26/48/14 25/50/14
f 116/53/15 115/54/15 27/46/15 26/48/15
f 115/54/14 114/55/14 28/44/14 27/46/14
f 114/55/15 113/56/15 29/41/15 28/44/15
f 113/56/16 112/57/16 30/42/16 29/41/16
f 14/32/17 23/31/17 63/58/17 41/59/17
f 23/31/18 22/49/18 64/60/18 63/58/18
f 22/49/19 21/47/19 65/61/19 64/60/19
f 21/47/20 20/45/20 66/62/20 65/61/20
f 20/45/19 19/43/19 67/63/19 66/62/19
f 19/43/20 18/40/20 68/64/20 67/63/20
f 18/40/21 17/39/21 69/65/21 68/64/21
f 151/1/1 39/7/1 91/66/1 90/67/1 89/68/1 88/69/1 149/70/1
f 45/71/2 43/11/2 44/10/2 46/72/2
f 46/72/3 44/10/3 48/13/3 49/73/3
f 45/71/22 46/72/22 49/73/22 50/74/22
f 43/11/1 45/71/1 50/74/1 47/15/1
f 53/75/22 51/76/22 52/77/22 54/78/22
f 54/78/23 52/77/23 56/79/23 57/80/23
f 51/76/2 55/81/2 56/79/2 52/77/2
f 51/76/1 53/75/1 58/82/1 55/81/1
f 148/83/6 87/84/6 86/85/6 85/86/6 84/87/6 40/26/6 150/25/6
f 76/88/24 77/89/24 59/90/24 60/91/24
f 145/35/1 41/38/1 60/92/1 59/90/1 146/93/1
f 70/94/25 83/95/25 82/96/25 71/97/25
f 71/97/26 82/96/26 81/98/26 72/99/26
f 72/99/27 81/98/27 80/100/27 73/101/27
f 73/101/26 80/100/26 79/102/26 74/103/26
f 74/103/27 79/102/27 78/104/27 75/105/27
f 75/105/28 78/104/28 77/89/28 76/88/28
f 146/93/29 59/90/29 77/89/29 185/106/29
f 185/106/30 77/89/30 78/104/30 184/107/30
f 184/107/31 78/104/31 79/102/31 183/108/31
f 183/108/32 79/102/32 80/100/32 182/109/32
f 182/109/31 80/100/31 81/98/31 181/110/31
f 181/110/32 81/98/32 82/96/32 180/111/32
f 180/111/33 82/96/33 83/95/33 179/112/33
f 60/91/17 41/59/17 63/58/17 76/88/17
f 76/88/18 63/58/18 64/60/18 75/105/18
f 75/105/19 64/60/19 65/61/19 74/103/19
f 74/103/20 65/61/20 66/62/20 73/101/20
f 73/101/19 66/62/19 67/63/19 72/99/19
f 72/99/20 67/63/20 68/64/20 71/97/20
f 71/97/21 68/64/21 69/65/21 70/94/21
f 151/1/1 141/113/1 140/114/1 139/115/1 138/116/1 137/117/1 95/2/1
f 96/118/34 152/119/34 153/120/34 97/121/34
f 97/121/35 153/120/35 157/122/35 98/123/35
f 96/118/4 97/121/4 98/123/4 99/124/4
f 152/119/1 96/118/1 99/124/1 156/125/1
f 102/126/4 100/127/4 101/128/4 103/129/4
f 103/129/5 101/128/5 105/130/5 106/131/5
f 100/127/34 104/132/34 105/130/34 101/128/34
f 100/127/1 102/126/1 107/133/1 104/132/1
f 94/24/6 136/134/6 135/135/6 134/136/6 133/137/6 142/138/6 150/25/6
f 125/139/36 126/140/36 108/141/36 109/142/36
f 145/35/1 143/143/1 109/144/1 108/141/1 92/36/1
f 119/145/37 132/146/37 131/147/37 120/148/37
f 120/148/38 131/147/38 130/149/38 121/150/38
f 121/150/39 130/149/39 129/151/39 122/152/39
f 122/152/38 129/151/38 128/153/38 123/154/38
f 123/154/39 128/153/39 127/155/39 124/156/39
f 124/156/40 127/155/40 126/140/40 125/139/40
f 92/36/12 108/141/12 126/140/12 118/51/12
f 118/51/13 126/140/13 127/155/13 117/52/13
f 117/52/14 127/155/14 128/153/14 116/53/14
f 116/53/15 128/153/15 129/151/15 115/54/15
f 115/54/14 129/151/14 130/149/14 114/55/14
f 114/55/15 130/149/15 131/147/15 113/56/15
f 113/56/16 131/147/16 132/146/16 112/57/16
f 109/142/41 143/157/41 172/158/41 125/139/41
f 125/139/42 172/158/42 173/159/42 124/156/42
f 124/156/43 173/159/43 174/160/43 123/154/43
f 123/154/44 174/160/44 175/161/44 122/152/44
f 122/152/43 175/161/43 176/162/43 121/150/43
f 121/150/44 176/162/44 177/163/44 120/148/44
f 120/148/45 177/163/45 178/164/45 119/145/45
f 151/1/1 149/70/1 204/165/1 205/166/1 206/167/1 207/168/1 141/113/1
f 154/169/34 155/170/34 153/120/34 152/119/34
f 155/170/35 158/171/35 157/122/35 153/120/35
f 154/169/22 159/172/22 158/171/22 155/170/22
f 152/119/1 156/125/1 159/172/1 154/169/1
f 162/173/22 163/174/22 161/175/22 160/176/22
f 163/174/23 166/177/23 165/178/23 161/175/23
f 160/176/34 161/175/34 165/178/34 164/179/34
f 160/176/1 164/179/1 167/180/1 162/173/1
f 148/83/6 150/25/6 142/138/6 200/181/6 201/182/6 202/183/6 203/184/6
f 192/185/46 169/186/46 168/187/46 193/188/46
f 145/35/1 146/93/1 168/187/1 169/189/1 143/143/1
f 186/190/47 187/191/47 198/192/47 199/193/47
f 187/191/48 188/194/48 197/195/48 198/192/48
f 188/194/49 189/196/49 196/197/49 197/195/49
f 189/196/48 190/198/48 195/199/48 196/197/48
f 190/198/49 191/200/49 194/201/49 195/199/49
f 191/200/50 192/185/50 193/188/50 194/201/50
f 146/93/29 185/106/29 193/188/29 168/187/29
f 185/106/30 184/107/30 194/201/30 193/188/30
f 184/107/31 183/108/31 195/199/31 194/201/31
f 183/108/32 182/109/32 196/197/32 195/199/32
f 182/109/31 181/110/31 197/195/31 196/197/31
f 181/110/32 180/111/32 198/192/32 197/195/32
f 180/111/33 179/112/33 199/193/33 198/192/33
f 169/186/41 192/185/41 172/158/41 143/157/41
f 192/185/42 191/200/42 173/159/42 172/158/42
f 191/200/43 190/198/43 174/160/43 173/159/43
f 190/198/44 189/196/44 175/161/44 174/160/44
f 189/196/43 188/194/43 176/162/43 175/161/43
f 188/194/44 187/191/44 177/163/44 176/162/44
f 187/191/45 186/190/45 178/164/45 177/163/45
s 1
f 95/2/51 94/24/52 34/30/53 35/3/54
f 17/39/55 15/202/56 42/203/57 69/65/58
f 112/57/59 93/204/60 16/205/61 30/42/62
f 38/206/63 31/207/64 40/208/65 39/209/66
f 15/202/56 17/39/55 30/42/62 16/205/61
f 31/207/64 38/206/63 37/210/67 32/211/68
f 35/3/54 34/30/53 33/212/69 36/213/70
f 32/211/68 37/210/67 36/213/70 33/212/69
f 149/70/71 88/69/72 87/84/73 148/83/74
f 70/94/75 69/65/58 42/203/57 61/214/76
f 179/112/77 83/95/78 62/215/79 147/216/80
f 91/217/81 39/209/66 40/208/65 84/218/82
f 61/214/76 62/215/79 83/95/78 70/94/75
f 84/218/82 85/219/83 90/220/84 91/217/81
f 88/69/72 89/221/85 86/222/86 87/84/73
f 85/219/83 86/222/86 89/221/85 90/220/84
f 95/2/51 137/117/87 136/134/88 94/24/52
f 119/145/89 178/164/90 144/223/91 110/224/92
f 112/57/59 132/146/93 111/225/94 93/204/60
f 140/226/95 141/227/96 142/228/97 133/229/98
f 110/224/92 111/225/94 132/146/93 119/145/89
f 133/229/98 134/230/99 139/231/100 140/226/95
f 137/117/87 138/232/101 135/233/102 136/134/88
f 134/230/99 135/233/102 138/232/101 139/231/100
f 149/70/71 148/83/74 203/184/103 204/165/104
f 186/190/105 170/234/106 144/223/91 178/164/90
f 179/112/77 147/216/80 171/235/107 199/193/108
f 207/236/109 200/237/110 142/228/97 141/227/96
f 170/234/106 186/190/105 199/193/108 171/235/107
f 200/237/110 207/236/109 206/238/111 201/239/112
f 204/165/104 203/184/103 202/240/113 205/241/114
f 201/239/112 206/238/111 205/241/114 202/240/113
