# Blender v3.3.1 OBJ File: 'Office Set.blend'
# www.blender.org
mtllib TrashBin.mtl
o TrashBin_Cube.003
v -12.582384 -0.006297 -0.899089
v -12.614472 0.545634 -0.865997
v -12.613265 -0.006297 -1.101718
v -12.657688 0.617040 -1.138298
v -12.417616 -0.006297 -0.899089
v -12.385528 0.545634 -0.865997
v -12.386735 -0.006297 -1.101718
v -12.342312 0.617040 -1.138298
v -12.632475 0.540314 -0.845706
v -12.682132 0.622361 -1.158589
v -12.317868 0.622361 -1.158589
v -12.367525 0.540314 -0.845706
v -12.577522 0.030251 -0.904232
v -12.606789 0.030251 -1.094872
v -12.393211 0.030251 -1.094872
v -12.422478 0.030251 -0.904232
vt 0.705224 0.767675
vt 0.719439 0.767675
vt 0.719439 0.781891
vt 0.705224 0.781891
vt 0.719439 0.796106
vt 0.705224 0.796106
vt 0.719439 0.810321
vt 0.705224 0.810321
vt 0.719439 0.824536
vt 0.705224 0.824536
vt 0.691009 0.796106
vt 0.691009 0.810321
vt 0.787445 0.718076
vt 0.787257 0.705704
vt 0.787257 0.705704
vt 0.787445 0.718076
vt 0.732594 0.809399
vt 0.732782 0.797028
vt 0.733655 0.796106
vt 0.733655 0.810321
vt 0.720312 0.797028
vt 0.720500 0.809399
vt 0.858922 0.712748
vt 0.870703 0.712748
vt 0.870525 0.724435
vt 0.859100 0.724435
vt 0.799728 0.705704
vt 0.799539 0.718076
vt 0.799539 0.718076
vt 0.799728 0.705704
vn -0.9854 -0.0993 0.1381
vn 0.0000 -0.0901 -0.9959
vn 0.9854 -0.0993 0.1381
vn 0.0000 -0.0972 0.9953
vn 0.0000 -1.0000 0.0000
vn -0.9867 0.0780 -0.1425
vn 0.0000 0.9673 0.2536
vn 0.0000 0.9673 0.2537
vn 0.0000 1.0000 0.0000
vn 0.9867 0.0780 -0.1425
vn 0.0000 0.0740 -0.9973
vn 0.0000 0.0738 0.9973
usemtl Palette
s off
f 1/1/1 9/2/1 10/3/1 3/4/1
f 3/4/2 10/3/2 11/5/2 7/6/2
f 7/6/3 11/5/3 12/7/3 5/8/3
f 5/8/4 12/7/4 9/9/4 1/10/4
f 3/11/5 7/6/5 5/8/5 1/12/5
f 6/13/6 8/14/6 15/15/6 16/16/6
f 2/17/7 4/18/7 10/19/7 9/20/7
f 4/18/8 8/21/8 11/5/8 10/19/8
f 8/21/7 6/22/7 12/7/7 11/5/7
f 6/22/8 2/17/8 9/20/8 12/7/8
f 15/23/9 14/24/9 13/25/9 16/26/9
f 4/27/10 2/28/10 13/29/10 14/30/10
f 2/28/11 6/13/11 16/16/11 13/29/11
f 8/14/12 4/27/12 14/30/12 15/15/12
