# Blender v3.3.1 OBJ File: 'Office Set.blend'
# www.blender.org
mtllib Wall_TV.mtl
o Wall_TV_Cube.050
v -13.991440 1.775024 -0.980357
v -13.991440 2.274958 -0.980357
v -13.991440 2.274958 -0.989624
v -13.991440 1.775024 -0.989624
v -14.284482 2.077684 -1.024899
v -14.284482 1.924189 -1.024899
v -14.284482 2.077684 -1.003737
v -14.284482 1.924189 -1.003737
v -13.975690 1.778827 -1.010177
v -13.995243 1.759274 -1.010177
v -13.981417 1.765001 -1.010177
v -13.995243 2.290708 -1.010177
v -13.975690 2.271155 -1.010177
v -13.981417 2.284981 -1.010177
v -13.975690 2.271155 -0.980357
v -13.995243 2.290708 -0.980357
v -13.989516 2.276882 -0.980357
v -13.981417 2.284981 -0.980357
v -13.995243 1.759274 -0.980357
v -13.975690 1.778827 -0.980357
v -13.989516 1.773100 -0.980357
v -13.981417 1.765001 -0.980357
v -15.008560 1.775024 -0.980357
v -15.008560 2.274958 -0.980357
v -15.008560 2.274958 -0.989624
v -15.008560 1.775024 -0.989624
v -14.715518 2.077684 -1.024899
v -14.715518 1.924189 -1.024899
v -14.715518 2.077684 -1.003737
v -14.715518 1.924189 -1.003737
v -15.024310 1.778827 -1.010177
v -15.004757 1.759274 -1.010177
v -15.018583 1.765001 -1.010177
v -15.004757 2.290708 -1.010177
v -15.024310 2.271155 -1.010177
v -15.018583 2.284981 -1.010177
v -15.024310 2.271155 -0.980357
v -15.004757 2.290708 -0.980357
v -15.010484 2.276882 -0.980357
v -15.018583 2.284981 -0.980357
v -15.004757 1.759274 -0.980357
v -15.024310 1.778827 -0.980357
v -15.010484 1.773100 -0.980357
v -15.018583 1.765001 -0.980357
vt 0.125919 0.966918
vt 0.125919 0.966918
vt 0.125919 0.966918
vt 0.125919 0.966918
vt 0.125498 0.956228
vt 0.125498 0.956228
vt 0.125536 0.956228
vt 0.125891 0.956228
vt 0.135794 0.956228
vt 0.136149 0.956228
vt 0.136188 0.956228
vt 0.136188 0.956228
vt 0.136149 0.956228
vt 0.135794 0.956228
vt 0.125891 0.956228
vt 0.125536 0.956228
vt 0.135767 0.966918
vt 0.125867 0.966918
vt 0.125891 0.966918
vt 0.135794 0.966918
vt 0.135818 0.966918
vt 0.132854 0.976228
vt 0.132854 0.976228
vt 0.132854 0.976228
vt 0.132854 0.976228
vt 0.125867 0.966918
vt 0.125498 0.966918
vt 0.125498 0.966918
vt 0.136188 0.966918
vt 0.136188 0.966918
vt 0.135818 0.966918
vt 0.135767 0.966918
vt 0.135767 0.966918
vt 0.122164 0.976228
vt 0.122164 0.976228
vt 0.122164 0.976228
vt 0.136073 0.966918
vt 0.125498 0.966918
vt 0.125498 0.966918
vt 0.122164 0.976228
vt 0.135794 0.966918
vt 0.125891 0.966918
vt 0.135767 0.966918
vt 0.136073 0.966918
vt 0.125498 0.966918
vt 0.125498 0.966918
vt 0.136188 0.966918
vt 0.136188 0.966918
vt 0.000000 1.000000
vt 0.000000 0.000000
vt 0.531519 0.000000
vt 0.531519 1.000000
vn 0.0000 1.0000 0.0000
vn 0.0000 0.0000 -1.0000
vn -0.0000 0.0000 1.0000
vn -1.0000 0.0000 0.0000
vn 1.0000 0.0000 0.0000
vn 0.0000 -1.0000 0.0000
vn 0.7319 -0.1456 -0.6657
vn 0.7319 0.1456 -0.6657
vn 0.7319 0.1456 0.6657
vn 0.7319 -0.1456 0.6657
vn 0.1456 0.7319 -0.6657
vn -0.1456 0.7319 -0.6657
vn -0.1456 0.7319 0.6657
vn 0.1456 0.7319 0.6657
vn -0.1456 -0.7319 0.6657
vn -0.1456 -0.7319 -0.6657
vn 0.1456 -0.7319 -0.6657
vn 0.1456 -0.7319 0.6657
vn 0.5490 -0.5490 -0.6303
vn 0.5490 -0.5490 0.6303
vn 0.5490 0.5490 0.6303
vn 0.5490 0.5490 -0.6303
vn -0.7319 -0.1456 -0.6657
vn -0.7319 -0.1456 0.6657
vn -0.7319 0.1456 0.6657
vn -0.7319 0.1456 -0.6657
vn -0.5490 -0.5490 0.6303
vn -0.5490 -0.5490 -0.6303
vn -0.5490 0.5490 -0.6303
vn -0.5490 0.5490 0.6303
vn -0.5774 -0.5774 0.5774
vn 0.5774 -0.5774 0.5774
vn 0.5774 0.5774 0.5774
vn -0.5774 0.5774 0.5774
usemtl Palette
s off
f 4/1/1 26/2/1 23/3/1 1/4/1
f 10/5/2 32/6/2 33/7/2 31/8/2 35/9/2 36/10/2 34/11/2 12/12/2 14/13/2 13/14/2 9/15/2 11/16/2
f 2/17/3 1/4/3 21/18/3 20/19/3 15/20/3 17/21/3
f 5/22/1 27/23/1 29/24/1 7/25/1
f 23/3/3 43/26/3 41/27/3 19/28/3 21/18/3 1/4/3
f 16/29/3 38/30/3 39/31/3 24/32/3 2/17/3 17/21/3
f 1/4/4 2/17/4 3/33/4 4/1/4
f 6/34/2 28/35/2 27/23/2 5/22/2
f 7/25/5 8/36/5 6/34/5 5/22/5
f 15/20/3 18/37/3 17/21/3
f 18/37/3 16/29/3 17/21/3
f 19/28/3 22/38/3 21/18/3
f 22/38/3 20/39/3 21/18/3
f 30/40/6 28/35/6 6/34/6 8/36/6
f 24/32/3 39/31/3 37/41/3 42/42/3 43/26/3 23/3/3
f 23/3/5 26/2/5 25/43/5 24/32/5
f 29/24/4 27/23/4 28/35/4 30/40/4
f 37/41/3 39/31/3 40/44/3
f 40/44/3 39/31/3 38/30/3
f 41/27/3 43/26/3 44/45/3
f 44/45/3 43/26/3 42/46/3
f 24/32/6 25/43/6 3/33/6 2/17/6
s 1
f 9/15/7 13/14/8 15/20/9 20/19/10
f 12/12/11 34/11/12 38/30/13 16/29/14
f 41/27/15 32/6/16 10/5/17 19/28/18
f 19/28/18 10/5/17 11/16/19 22/38/20
f 22/38/20 11/16/19 9/15/7 20/19/10
f 12/12/11 16/29/14 18/47/21 14/13/22
f 14/13/22 18/47/21 15/20/9 13/14/8
f 31/8/23 42/42/24 37/41/25 35/9/26
f 41/27/15 44/45/27 33/7/28 32/6/16
f 44/45/27 42/42/24 31/8/23 33/7/28
f 34/11/12 36/10/29 40/48/30 38/30/13
f 36/10/29 35/9/26 37/41/25 40/48/30
usemtl TV
f 3/49/31 25/50/32 26/51/33 4/52/34
