# Blender v3.3.1 OBJ File: 'Office Set.blend'
# www.blender.org
mtllib Wall_Medium_Door.mtl
o Wall_Medium_Door_Cube.138
v 17.000000 0.000000 1.920003
v 15.000000 0.000000 1.920003
v 17.000000 0.000000 2.000003
v 15.000000 0.000000 2.000003
v 15.000000 2.500000 2.000003
v 17.000000 2.500000 2.000003
v 17.000000 2.500000 1.920003
v 15.000000 2.500000 1.920003
v 16.531345 0.000000 1.920003
v 15.468656 0.000000 1.920003
v 15.468656 0.000000 2.000003
v 16.531345 0.000000 2.000003
v 16.531345 2.062690 2.000003
v 15.468656 2.062690 2.000003
v 15.468656 2.062690 1.920003
v 16.531345 2.062690 1.920003
vt 0.724390 0.803880
vt 0.723845 0.803880
vt 0.723845 0.800686
vt 0.724390 0.800686
vt 0.724390 0.793444
vt 0.724935 0.793444
vt 0.724935 0.796638
vt 0.724390 0.796638
vt 0.726025 0.803666
vt 0.726025 0.790036
vt 0.726571 0.790036
vt 0.726571 0.803666
vt 0.709670 0.793444
vt 0.709670 0.810481
vt 0.696040 0.810481
vt 0.696040 0.793444
vt 0.699234 0.793444
vt 0.699234 0.807501
vt 0.706476 0.807501
vt 0.706476 0.793444
vt 0.706476 0.776407
vt 0.709670 0.776407
vt 0.709670 0.793444
vt 0.696040 0.793444
vt 0.696040 0.776407
vt 0.699234 0.776407
vt 0.699234 0.790464
vt 0.706476 0.790464
vt 0.723299 0.776407
vt 0.723845 0.776407
vt 0.723845 0.793444
vt 0.723299 0.793444
vt 0.723845 0.776407
vt 0.724390 0.776407
vt 0.724390 0.793444
vt 0.723845 0.793444
vt 0.723845 0.800686
vt 0.723845 0.793444
vt 0.724390 0.793444
vt 0.724390 0.800686
vt 0.725480 0.776407
vt 0.726025 0.776407
vt 0.726025 0.790464
vt 0.725480 0.790464
vt 0.726025 0.804520
vt 0.725480 0.804520
vt 0.725480 0.790464
vt 0.726025 0.790464
vn 0.0000 -1.0000 0.0000
vn 0.0000 1.0000 0.0000
vn 0.0000 0.0000 1.0000
vn 0.0000 0.0000 -1.0000
vn 1.0000 0.0000 0.0000
vn -1.0000 0.0000 0.0000
usemtl Palette
s off
f 1/1/1 3/2/1 12/3/1 9/4/1
f 4/5/1 2/6/1 10/7/1 11/8/1
f 5/9/2 6/10/2 7/11/2 8/12/2
f 3/13/3 6/14/3 5/15/3 4/16/3 11/17/3 14/18/3 13/19/3 12/20/3
f 10/21/4 2/22/4 8/23/4 7/24/4 1/25/4 9/26/4 16/27/4 15/28/4
f 3/29/5 1/30/5 7/31/5 6/32/5
f 2/33/6 4/34/6 5/35/6 8/36/6
f 13/37/1 14/38/1 15/39/1 16/40/1
f 9/41/6 12/42/6 13/43/6 16/44/6
f 15/45/5 14/46/5 11/47/5 10/48/5
