# Blender v3.3.1 OBJ File: 'Office Set.blend'
# www.blender.org
mtllib WallShelf_Rect.mtl
o WallShelf_Rect_Cube.215
v -6.721941 0.472728 -1.728062
v -6.721941 -0.001885 -1.728062
v -6.753696 0.440973 -1.287246
v -6.753696 0.029870 -1.287246
v -6.721941 0.472728 -1.287246
v -6.721941 -0.001885 -1.287246
v -6.753696 0.440973 -1.728062
v -6.753696 0.029870 -1.728062
v -8.278058 0.472728 -1.728062
v -8.278058 -0.001885 -1.728062
v -8.246304 0.440973 -1.287246
v -8.246304 0.029870 -1.287246
v -8.278058 0.472728 -1.287246
v -8.278058 -0.001885 -1.287246
v -8.246304 0.440973 -1.728062
v -8.246304 0.029870 -1.728062
vt 0.946539 0.718904
vt 0.946450 0.718904
vt 0.946450 0.718904
vt 0.946539 0.718904
vt 0.946450 0.709140
vt 0.956214 0.709140
vt 0.956214 0.718904
vt 0.946450 0.709140
vt 0.956125 0.718904
vt 0.956125 0.718904
vt 0.956214 0.709140
vt 0.946539 0.718904
vt 0.946539 0.718904
vt 0.956125 0.718904
vt 0.956214 0.718904
vt 0.956125 0.718904
vn 0.0000 0.0000 1.0000
vn 1.0000 0.0000 0.0000
vn 0.0000 -1.0000 0.0000
vn 0.0000 0.0000 -1.0000
vn 0.0000 1.0000 0.0000
vn -1.0000 0.0000 0.0000
usemtl Palette
s off
f 12/1/1 14/2/1 6/3/1 4/4/1
f 2/5/2 1/6/2 5/7/2 6/3/2
f 6/3/3 14/2/3 10/8/3 2/5/3
f 7/9/4 15/10/4 9/11/4 1/6/4
f 8/12/5 16/13/5 12/1/5 4/4/5
f 3/14/1 4/4/1 6/3/1 5/7/1
f 5/7/1 13/15/1 11/16/1 3/14/1
f 11/16/3 15/10/3 7/9/3 3/14/3
f 2/5/4 8/12/4 7/9/4 1/6/4
f 4/4/6 3/14/6 7/9/6 8/12/6
f 10/8/4 16/13/4 8/12/4 2/5/4
f 10/8/6 14/2/6 13/15/6 9/11/6
f 11/16/1 13/15/1 14/2/1 12/1/1
f 10/8/4 9/11/4 15/10/4 16/13/4
f 12/1/2 16/13/2 15/10/2 11/16/2
f 9/11/5 13/15/5 5/7/5 1/6/5
