# Blender v3.3.1 OBJ File: 'Office Set.blend'
# www.blender.org
mtllib Wall_Small.mtl
o Wall_Small_Cube.153
v 14.000000 0.000000 1.920001
v 12.000000 0.000000 1.920001
v 14.000000 0.000000 2.000001
v 12.000000 0.000000 2.000001
v 12.000000 1.750000 2.000001
v 14.000000 1.750000 2.000001
v 14.000000 1.750000 1.920001
v 12.000000 1.750000 1.920001
vt 0.728656 0.776407
vt 0.729385 0.776407
vt 0.729385 0.794628
vt 0.728656 0.794628
vt 0.727928 0.794628
vt 0.727928 0.776407
vt 0.728656 0.776407
vt 0.728656 0.794628
vt 0.711984 0.776407
vt 0.711984 0.794628
vt 0.696040 0.794628
vt 0.696040 0.776407
vt 0.727928 0.776407
vt 0.727928 0.794628
vt 0.711984 0.794628
vt 0.711984 0.776407
vt 0.729385 0.792351
vt 0.730114 0.792351
vt 0.730114 0.808294
vt 0.729385 0.808294
vt 0.730114 0.776407
vt 0.730114 0.792351
vt 0.729385 0.792351
vn 0.0000 -1.0000 0.0000
vn 0.0000 1.0000 0.0000
vn 0.0000 0.0000 1.0000
vn 0.0000 0.0000 -1.0000
vn 1.0000 0.0000 0.0000
vn -1.0000 0.0000 0.0000
usemtl Palette
s off
f 4/1/1 2/2/1 1/3/1 3/4/1
f 5/5/2 6/6/2 7/7/2 8/8/2
f 4/9/3 3/10/3 6/11/3 5/12/3
f 1/13/4 2/14/4 8/15/4 7/16/4
f 3/17/5 1/18/5 7/19/5 6/20/5
f 2/2/6 4/21/6 5/22/6 8/23/6
