# Blender v3.3.1 OBJ File: 'Office Set.blend'
# www.blender.org
mtllib WallShelf_Simple.mtl
o WallShelf_Simple_Cube.201
v -8.973604 1.029870 -1.355744
v -8.973604 0.998115 -1.355744
v -8.973604 1.029870 -1.644256
v -8.973604 0.998115 -1.644256
v -8.990527 1.199157 -1.396026
v -8.990527 1.203345 -1.400213
v -8.986340 1.207612 -1.391922
v -8.990527 1.020878 -1.396026
v -8.986340 1.020878 -1.391919
v -8.986340 1.020878 -1.373271
v -8.990527 1.020878 -1.369164
v -8.990527 1.227090 -1.369164
v -8.986340 1.227010 -1.373268
v -8.990527 1.231278 -1.373351
v -9.013926 1.020878 -1.391919
v -9.009738 1.020878 -1.396026
v -9.009738 1.020878 -1.369164
v -9.013926 1.020878 -1.373271
v -9.009738 1.227090 -1.369164
v -9.009738 1.231278 -1.373351
v -9.013926 1.227010 -1.373268
v -9.009738 1.199157 -1.396026
v -9.013926 1.207612 -1.391922
v -9.009738 1.203345 -1.400213
v -8.986340 1.207609 -1.644256
v -8.990527 1.203345 -1.644256
v -8.990527 1.231278 -1.644256
v -8.986340 1.227013 -1.644256
v -9.009738 1.203345 -1.644256
v -9.013926 1.207609 -1.644256
v -9.013926 1.227013 -1.644256
v -9.009738 1.231278 -1.644256
v -10.026396 1.029870 -1.355744
v -10.026396 0.998115 -1.355744
v -10.026396 1.029870 -1.644256
v -10.026396 0.998115 -1.644256
v -10.009473 1.199157 -1.396026
v -10.009473 1.203345 -1.400213
v -10.013660 1.207612 -1.391922
v -10.009473 1.020878 -1.396026
v -10.013660 1.020878 -1.391919
v -10.013660 1.020878 -1.373271
v -10.009473 1.020878 -1.369164
v -10.009473 1.227090 -1.369164
v -10.013660 1.227010 -1.373268
v -10.009473 1.231278 -1.373351
v -9.986074 1.020878 -1.391919
v -9.990262 1.020878 -1.396026
v -9.990262 1.020878 -1.369164
v -9.986074 1.020878 -1.373271
v -9.990262 1.227090 -1.369164
v -9.990262 1.231278 -1.373351
v -9.986074 1.227010 -1.373268
v -9.990262 1.199157 -1.396026
v -9.986074 1.207612 -1.391922
v -9.990262 1.203345 -1.400213
v -10.013660 1.207609 -1.644256
v -10.009473 1.203345 -1.644256
v -10.009473 1.231278 -1.644256
v -10.013660 1.227013 -1.644256
v -9.990262 1.203345 -1.644256
v -9.986074 1.207609 -1.644256
v -9.986074 1.227013 -1.644256
v -9.990262 1.231278 -1.644256
vt 0.962011 0.969932
vt 0.962011 0.969932
vt 0.962011 0.969932
vt 0.962011 0.969932
vt 0.962011 0.968401
vt 0.962011 0.968401
vt 0.962011 0.970457
vt 0.962011 0.970457
vt 0.962011 0.969932
vt 0.962011 0.969932
vt 0.962011 0.969932
vt 0.962011 0.969932
vt 0.954858 0.968401
vt 0.954858 0.970457
vt 0.954858 0.970457
vt 0.954858 0.968401
vt 0.954858 0.968401
vt 0.954858 0.968401
vt 0.954858 0.970457
vt 0.954858 0.970457
vt 0.962011 0.970457
vt 0.962011 0.970457
vt 0.962011 0.968401
vt 0.962011 0.968401
vt 0.222634 0.866163
vt 0.222026 0.866163
vt 0.222026 0.866163
vt 0.222634 0.866163
vt 0.222634 0.866094
vt 0.222634 0.864107
vt 0.222026 0.864107
vt 0.222026 0.866094
vt 0.216475 0.866163
vt 0.215769 0.866163
vt 0.215769 0.866163
vt 0.216475 0.866163
vt 0.215769 0.864107
vt 0.216475 0.864107
vt 0.216475 0.866163
vt 0.215769 0.866163
vt 0.222026 0.866163
vt 0.222634 0.866163
vt 0.222634 0.866163
vt 0.222026 0.866163
vt 0.215769 0.864107
vt 0.216475 0.864107
vt 0.222634 0.864107
vt 0.222634 0.866107
vt 0.222026 0.866107
vt 0.222026 0.864107
vt 0.222766 0.866163
vt 0.215613 0.866107
vt 0.215689 0.866163
vt 0.221894 0.866106
vt 0.221894 0.866163
vt 0.221894 0.864107
vt 0.215613 0.864107
vt 0.215613 0.866107
vt 0.215613 0.864107
vt 0.222766 0.864107
vt 0.221894 0.866163
vt 0.215613 0.866163
vt 0.215613 0.866163
vt 0.222766 0.866163
vt 0.215613 0.866163
vt 0.215613 0.866163
vt 0.215769 0.866163
vt 0.216475 0.866163
vt 0.222634 0.866163
vt 0.222634 0.866163
vt 0.222026 0.866163
vt 0.222026 0.866163
vt 0.222634 0.866094
vt 0.222026 0.866094
vt 0.222026 0.864107
vt 0.222634 0.864107
vt 0.216475 0.866163
vt 0.216475 0.866163
vt 0.215769 0.866163
vt 0.215769 0.866163
vt 0.215769 0.864107
vt 0.215769 0.866163
vt 0.216475 0.866163
vt 0.216475 0.864107
vt 0.222026 0.866163
vt 0.222026 0.866163
vt 0.222634 0.866163
vt 0.222634 0.866163
vt 0.215769 0.864107
vt 0.216475 0.864107
vt 0.222634 0.864107
vt 0.222026 0.864107
vt 0.222026 0.866107
vt 0.222634 0.866107
vt 0.222766 0.866163
vt 0.215613 0.866107
vt 0.215689 0.866163
vt 0.221894 0.866106
vt 0.221894 0.866163
vt 0.221894 0.864107
vt 0.215613 0.866107
vt 0.215613 0.864107
vt 0.215613 0.864107
vt 0.222766 0.864107
vt 0.221894 0.866163
vt 0.215613 0.866163
vt 0.215613 0.866163
vt 0.222766 0.866163
vt 0.215613 0.866163
vt 0.215769 0.866163
vt 0.215613 0.866163
vt 0.216475 0.866163
vn 0.0000 1.0000 0.0000
vn 0.0000 0.0000 -1.0000
vn 0.0000 -1.0000 0.0000
vn 1.0000 0.0000 0.0000
vn -1.0000 0.0000 0.0000
vn 0.0000 0.0000 1.0000
vn 0.5051 -0.8243 -0.2557
vn -0.5051 -0.8243 -0.2557
vn -0.3869 -0.9221 0.0000
vn 0.3870 -0.9221 0.0000
vn 0.4972 -0.2541 -0.8296
vn 0.3781 -0.0000 -0.9258
vn -0.3781 -0.0000 -0.9258
vn -0.4972 -0.2541 -0.8296
vn -0.9901 -0.0995 -0.0988
vn -0.8754 0.3377 0.3458
vn -0.9256 0.3784 0.0000
vn -0.9256 -0.3784 0.0000
vn 0.9220 -0.0000 0.3872
vn 0.9220 -0.0000 -0.3873
vn 0.9901 -0.0995 -0.0987
vn 0.8754 0.3376 0.3458
vn -0.3442 0.8751 0.3403
vn 0.3442 0.8751 0.3403
vn 0.3870 0.9221 0.0000
vn -0.3870 0.9221 0.0000
vn -0.9220 -0.0000 0.3872
vn -0.9220 -0.0000 -0.3873
vn 0.3781 -0.0000 0.9258
vn 0.3387 0.3429 0.8762
vn -0.3387 0.3429 0.8762
vn -0.3781 -0.0000 0.9258
vn 0.9256 -0.3784 0.0000
vn 0.9256 0.3784 0.0000
vn -0.8754 0.3376 0.3458
vn -0.9901 -0.0995 -0.0987
usemtl Palette
s off
f 35/1/1 33/2/1 1/3/1 3/4/1
f 4/5/2 36/6/2 35/7/2 3/8/2
f 2/9/3 34/10/3 36/11/3 4/12/3
f 4/13/4 3/14/4 1/15/4 2/16/4
f 36/17/5 34/18/5 33/19/5 35/20/5
f 1/21/6 33/22/6 34/23/6 2/24/6
s 1
f 6/25/7 24/26/8 29/27/9 26/28/10
f 5/29/11 8/30/12 16/31/13 22/32/14
f 23/33/15 21/34/16 31/35/17 30/36/18
f 10/37/19 9/38/20 7/39/21 13/40/22
f 20/41/23 14/42/24 27/43/25 32/44/26
f 18/45/27 21/34/16 23/33/15 15/46/28
f 11/47/29 12/48/30 19/49/31 17/50/32
f 5/29/11 6/25/7 7/51/21
f 12/52/30 13/40/22 14/53/24
f 19/49/31 20/41/23 21/54/16
f 22/32/14 23/55/15 24/26/8
f 22/32/14 16/31/13 15/56/28 23/55/15
f 21/34/16 18/45/27 17/57/32 19/58/31
f 12/52/30 11/59/29 10/37/19 13/40/22
f 7/51/21 9/60/20 8/30/12 5/29/11
f 24/26/8 6/25/7 5/29/11 22/32/14
f 19/49/31 12/48/30 14/42/24 20/41/23
f 23/55/15 30/61/18 29/27/9 24/26/8
f 20/62/23 32/63/26 31/35/17 21/34/16
f 6/25/7 26/28/10 25/64/33 7/51/21
f 27/65/25 14/66/24 13/40/22 28/67/34
f 13/40/22 7/39/21 25/68/33 28/67/34
f 38/69/8 58/70/9 61/71/10 56/72/7
f 37/73/14 54/74/11 48/75/12 40/76/13
f 55/77/21 62/78/33 63/79/34 53/80/22
f 42/81/27 45/82/35 39/83/36 41/84/28
f 52/85/24 64/86/25 59/87/26 46/88/23
f 50/89/19 47/90/20 55/77/21 53/80/22
f 43/91/32 49/92/29 51/93/30 44/94/31
f 37/73/14 39/95/36 38/69/8
f 44/96/31 46/97/23 45/82/35
f 51/93/30 53/98/22 52/85/24
f 54/74/11 56/72/7 55/99/21
f 54/74/11 55/99/21 47/100/20 48/75/12
f 53/80/22 51/101/30 49/102/29 50/89/19
f 44/96/31 45/82/35 42/81/27 43/103/32
f 39/95/36 37/73/14 40/76/13 41/104/28
f 56/72/7 54/74/11 37/73/14 38/69/8
f 51/93/30 52/85/24 46/88/23 44/94/31
f 55/99/21 56/72/7 61/71/10 62/105/33
f 52/106/24 53/80/22 63/79/34 64/107/25
f 38/69/8 39/95/36 57/108/18 58/70/9
f 59/109/26 60/110/17 45/82/35 46/111/23
f 45/82/35 60/110/17 57/112/18 39/83/36
