# Blender v3.3.1 OBJ File: 'Office Set.blend'
# www.blender.org
mtllib WhiteBoard_Stand.mtl
o WhiteBoard_Stand_Cube.173
v 13.900001 1.633539 -0.612376
v 13.900001 0.657187 -0.440218
v 13.900001 1.642813 -0.559782
v 13.900001 0.666461 -0.387624
v 13.913950 1.622276 -0.616609
v 13.913950 1.637986 -0.527513
v 13.913950 1.655701 -0.622502
v 13.907814 0.629954 -0.441635
v 13.907814 0.653608 -0.307485
v 13.907814 0.663379 -0.447529
v 13.907814 0.687033 -0.313379
v 13.907814 0.683678 -0.332407
v 13.907814 0.710538 -0.317523
v 13.907814 0.708171 -0.330947
v 13.913950 1.668934 -0.547454
v 13.913950 1.657364 -0.530930
v 13.913950 1.666572 -0.536796
v 13.099999 1.633539 -0.612376
v 13.099999 0.657187 -0.440218
v 13.099999 1.642813 -0.559782
v 13.099999 0.666461 -0.387624
v 13.086050 1.622276 -0.616609
v 13.086050 1.637986 -0.527513
v 13.086050 1.655701 -0.622502
v 13.092186 0.629954 -0.441635
v 13.092186 0.653608 -0.307485
v 13.092186 0.663379 -0.447529
v 13.092186 0.687033 -0.313379
v 13.092186 0.683678 -0.332407
v 13.092186 0.710538 -0.317523
v 13.092186 0.708171 -0.330947
v 13.086050 1.668934 -0.547454
v 13.086050 1.657364 -0.530930
v 13.086050 1.666572 -0.536796
vt 0.130519 0.970104
vt 0.130519 0.970104
vt 0.130519 0.970104
vt 0.130519 0.970104
vt 0.130519 0.970104
vt 0.130519 0.970104
vt 0.130519 0.970104
vt 0.130519 0.970104
vt 0.130519 0.970104
vt 0.130519 0.970104
vt 0.130519 0.970104
vt 0.130519 0.970104
vt 0.130519 0.970104
vt 0.130519 0.970104
vt 0.130519 0.970104
vt 0.130519 0.970104
vt 0.130519 0.970104
vt 0.130519 0.970104
vt 0.130519 0.970104
vt 0.130519 0.970104
vt 0.130519 0.970104
vt 0.130519 0.970104
vt 0.130519 0.970104
vt 0.130519 0.970104
vt 0.130519 0.970104
vt 0.130519 0.970104
vt 0.054876 0.957229
vt 0.054876 0.957229
vt 0.054876 0.957229
vt 0.054876 0.957229
vt 0.054876 0.957229
vt 0.054876 0.957229
vt 0.054876 0.957229
vt 0.054876 0.957229
vt 0.043610 0.968495
vt 0.043610 0.968495
vt 0.043610 0.968495
vt 0.043610 0.968495
vt 0.994826 0.988387
vt 0.555174 0.988387
vt 0.555174 0.443542
vt 0.994826 0.443542
vn 0.0000 -0.9848 0.1736
vn 1.0000 -0.0000 0.0000
vn 0.0000 -0.1736 -0.9848
vn 0.0000 0.1736 0.9848
vn 0.0000 0.9848 -0.1736
vn 0.0000 0.0595 -0.9982
vn 0.0000 0.5373 0.8434
vn 0.0000 0.9763 0.2164
vn -1.0000 -0.0000 0.0000
vn 0.7071 -0.1228 -0.6964
vn 0.7071 0.1228 0.6964
vn -0.7071 -0.1228 -0.6964
vn -0.7071 0.1228 0.6964
usemtl Palette
s off
f 22/1/1 5/2/1 6/3/1 23/4/1
f 6/3/2 5/2/2 7/5/2 15/6/2 17/7/2 16/8/2
f 22/1/3 24/9/3 7/5/3 5/2/3
f 25/10/1 8/11/1 9/12/1 26/13/1
f 11/14/4 28/15/4 26/13/4 9/12/4
f 27/16/5 29/17/5 12/18/5 10/19/5
f 9/12/2 12/18/2 11/14/2
f 25/10/3 27/16/3 10/19/3 8/11/3
f 31/20/5 30/21/5 13/22/5 14/23/5
f 13/22/4 30/21/4 28/15/4 11/14/4
f 29/17/6 31/20/6 14/23/6 12/18/6
f 12/18/2 9/12/2 8/11/2 10/19/2
f 17/7/7 34/24/7 33/25/7 16/8/7
f 11/14/2 12/18/2 14/23/2 13/22/2
f 15/6/8 32/26/8 34/24/8 17/7/8
f 16/8/4 33/25/4 23/4/4 6/3/4
f 24/9/5 32/26/5 15/6/5 7/5/5
f 23/4/9 33/25/9 34/24/9 32/26/9 24/9/9 22/1/9
f 26/13/9 28/15/9 29/17/9
f 29/17/9 27/16/9 25/10/9 26/13/9
f 28/15/9 30/21/9 31/20/9 29/17/9
s 1
f 2/27/10 1/28/10 3/29/11 4/30/11
f 19/31/12 21/32/13 20/33/13 18/34/12
f 2/35/10 19/36/12 18/37/12 1/38/10
usemtl BoardDocs
f 3/39/11 20/40/13 21/41/13 4/42/11
