# Blender v3.3.1 OBJ File: 'Office Set.blend'
# www.blender.org
mtllib WhiteBoard_Stand_Base.mtl
o WhiteBoard_Stand_Base_Cube.176
v 13.549754 0.958206 -0.471960
v 13.539958 0.958206 -0.471960
v 13.516310 0.958206 -0.471960
v 13.549754 0.958206 -0.536893
v 13.516309 1.058206 -0.491560
v 13.549754 1.025410 -0.485005
v 13.539958 1.048600 -0.489640
v 13.549754 1.024761 -0.523444
v 13.516309 1.058206 -0.516686
v 13.539958 1.048410 -0.518666
v 13.516310 0.958206 -0.536893
v 13.539958 0.958206 -0.536893
v 13.450246 0.958206 -0.471960
v 13.460042 0.958206 -0.471960
v 13.483690 0.958206 -0.471960
v 13.450246 0.958206 -0.536893
v 13.483691 1.058206 -0.491560
v 13.450246 1.025410 -0.485005
v 13.460042 1.048600 -0.489640
v 13.450246 1.024761 -0.523444
v 13.483691 1.058206 -0.516686
v 13.460042 1.048410 -0.518666
v 13.483690 0.958206 -0.536893
v 13.460042 0.958206 -0.536893
v 13.500000 0.958206 -0.536893
v 13.500000 0.958206 -0.471960
v 13.500000 1.058206 -0.491560
v 13.500000 1.058206 -0.516686
vt 0.975265 0.730843
vt 0.976316 0.721129
vt 0.976316 0.699706
vt 0.969878 0.699706
vt 0.960222 0.731894
vt 0.965551 0.731894
vt 0.963441 0.699706
vt 0.960222 0.699706
vt 0.975265 0.730843
vt 0.969878 0.699706
vt 0.976316 0.699706
vt 0.976316 0.721129
vt 0.963441 0.699706
vt 0.965551 0.731894
vt 0.976316 0.699706
vt 0.976316 0.721129
vt 0.969878 0.699706
vt 0.975265 0.730843
vt 0.965551 0.731894
vt 0.960222 0.699706
vt 0.963441 0.699706
vt 0.960222 0.731894
vt 0.976316 0.699706
vt 0.976316 0.721129
vt 0.969878 0.699706
vt 0.975265 0.730843
vt 0.965551 0.731894
vt 0.963441 0.699706
vn 0.0000 0.1980 -0.9802
vn 0.0000 0.1981 -0.9802
vn 0.6598 -0.7515 0.0000
vn 0.5676 -0.5213 -0.6372
vn 0.7233 0.2547 -0.6418
vn 0.9845 0.1754 -0.0022
vn 0.0000 -1.0000 0.0000
vn 0.0000 -0.6332 -0.7740
vn 0.5381 0.6204 -0.5706
vn 0.7268 0.6868 -0.0044
vn 0.1369 0.7962 -0.5893
vn 0.1979 0.9802 -0.0017
vn 0.0000 0.7740 -0.6332
vn 0.0000 1.0000 0.0000
vn -0.6598 -0.7515 0.0000
vn -0.9845 0.1754 -0.0022
vn -0.7233 0.2547 -0.6418
vn -0.5676 -0.5213 -0.6372
vn -0.7268 0.6868 -0.0044
vn -0.5381 0.6204 -0.5706
vn -0.1979 0.9802 -0.0017
vn -0.1369 0.7963 -0.5893
usemtl Palette
s off
f 10/1/1 8/2/1 4/3/1 12/4/1
f 28/5/2 9/6/2 11/7/2 25/8/2
f 9/6/2 10/1/2 12/4/2 11/7/2
f 22/9/1 24/10/1 16/11/1 20/12/1
f 28/5/2 25/8/2 23/13/2 21/14/2
f 21/14/2 23/13/2 24/10/2 22/9/2
s 1
f 1/15/3 4/3/4 8/2/5 6/16/6
f 2/17/7 12/4/8 4/3/4 1/15/3
f 8/2/5 10/1/9 7/18/10 6/16/6
f 10/1/9 9/6/11 5/19/12 7/18/10
f 26/20/7 25/8/8 11/7/8 3/21/7
f 3/21/7 11/7/8 12/4/8 2/17/7
f 5/19/12 9/6/11 28/5/13 27/22/14
f 13/23/15 18/24/16 20/12/17 16/11/18
f 14/25/7 13/23/15 16/11/18 24/10/8
f 20/12/17 18/24/16 19/26/19 22/9/20
f 22/9/20 19/26/19 17/27/21 21/14/22
f 26/20/7 15/28/7 23/13/8 25/8/8
f 15/28/7 14/25/7 24/10/8 23/13/8
f 17/27/21 27/22/14 28/5/13 21/14/22
