# Blender v3.3.1 OBJ File: 'Office Set.blend'
# www.blender.org
mtllib WhiteBoard_Stand_2.mtl
o WhiteBoard_Stand_2_Cube.175
v 13.508368 0.991255 -0.488299
v 13.517779 0.995108 -0.494972
v 13.517779 1.002941 -0.508540
v 13.508368 1.006794 -0.515213
v 13.508368 0.032556 -1.077689
v 13.517779 0.028704 -1.071016
v 13.517779 0.020870 -1.057448
v 13.508368 0.017018 -1.050775
v 13.508217 0.038815 -1.081843
v 13.521701 0.033294 -1.072282
v 13.521701 0.022070 -1.052841
v 13.508217 0.016550 -1.043279
v 13.521701 0.006152 -1.087952
v 13.508217 0.011673 -1.097514
v 13.508217 -0.010592 -1.058950
v 13.521701 -0.005072 -1.068511
v 13.500000 0.991255 -0.488299
v 13.500000 1.006794 -0.515213
v 13.500000 0.032556 -1.077689
v 13.500000 0.017018 -1.050775
v 13.491632 0.991255 -0.488299
v 13.482221 0.995108 -0.494972
v 13.482221 1.002941 -0.508540
v 13.491632 1.006794 -0.515213
v 13.491632 0.032556 -1.077689
v 13.482221 0.028704 -1.071016
v 13.482221 0.020870 -1.057448
v 13.491632 0.017018 -1.050775
v 13.500000 0.038815 -1.081843
v 13.500000 0.016550 -1.043279
v 13.491783 0.038815 -1.081843
v 13.478299 0.033294 -1.072282
v 13.478299 0.022070 -1.052841
v 13.491783 0.016550 -1.043279
v 13.500000 0.011673 -1.097514
v 13.500000 -0.010592 -1.058950
v 13.478299 0.006152 -1.087952
v 13.491783 0.011673 -1.097514
v 13.491783 -0.010592 -1.058950
v 13.478299 -0.005072 -1.068511
vt 0.215896 0.885699
vt 0.215896 0.886901
vt 0.215896 0.886901
vt 0.215896 0.885699
vt 0.215896 0.886901
vt 0.215896 0.885699
vt 0.215896 0.885699
vt 0.215896 0.886901
vt 0.215896 0.888254
vt 0.215896 0.888254
vt 0.215896 0.888254
vt 0.215896 0.888254
vt 0.125691 0.965608
vt 0.125691 0.964472
vt 0.125691 0.964472
vt 0.125691 0.965608
vt 0.125691 0.966885
vt 0.125691 0.966885
vt 0.125691 0.965608
vt 0.125691 0.966885
vt 0.125691 0.966885
vt 0.125691 0.965608
vt 0.125691 0.964472
vt 0.125691 0.964472
vt 0.215896 0.886901
vt 0.215896 0.886901
vt 0.215896 0.886901
vt 0.215896 0.886901
vt 0.215896 0.888254
vt 0.215896 0.888254
vt 0.215896 0.888254
vt 0.215896 0.888254
vt 0.125691 0.965608
vt 0.125691 0.966885
vt 0.125691 0.966885
vt 0.125691 0.965608
vt 0.125691 0.965608
vt 0.125691 0.965608
vt 0.125691 0.966885
vt 0.125691 0.966885
vn 0.0000 -0.5000 0.8660
vn 0.3364 -0.4709 0.8156
vn 0.2588 0.1908 0.9469
vn -0.0000 0.2588 0.9659
vn 0.3364 0.4709 -0.8156
vn 0.0000 0.5000 -0.8660
vn -0.0000 0.9659 -0.2588
vn 0.2588 0.9154 -0.3082
vn 0.9037 -0.2140 0.3707
vn 0.9037 0.2140 -0.3707
vn 0.7075 0.7064 0.0209
vn 0.7075 0.3713 0.6013
vn 0.2588 0.9154 -0.3083
vn 0.7075 0.3714 0.6013
vn 0.2588 -0.1908 -0.9469
vn 0.7075 -0.3714 -0.6013
vn 0.7075 -0.7064 -0.0209
vn 0.2588 -0.9154 0.3083
vn 0.0000 -0.9659 0.2588
vn 0.0000 -0.2588 -0.9659
vn -0.2588 0.1908 0.9469
vn -0.3364 -0.4709 0.8156
vn -0.3364 0.4709 -0.8156
vn -0.2588 0.9154 -0.3083
vn -0.9037 -0.2140 0.3707
vn -0.7075 0.3713 0.6013
vn -0.7075 0.7064 0.0209
vn -0.9037 0.2140 -0.3707
vn -0.7075 0.3714 0.6013
vn -0.2588 -0.1908 -0.9469
vn -0.2588 -0.9154 0.3083
vn -0.7075 -0.7064 -0.0209
vn -0.7075 -0.3714 -0.6013
usemtl Palette
s 1
f 20/1/1 8/2/2 1/3/3 17/4/4
f 5/5/5 19/6/6 18/7/7 4/8/8
f 7/9/9 6/10/10 3/11/11 2/12/12
f 5/5/5 4/8/8 3/11/11 6/10/10
f 7/9/9 2/12/12 1/3/3 8/2/2
f 3/11/11 4/8/8 18/7/7 17/4/4 1/3/3 2/12/12
f 9/13/13 29/14/7 30/15/4 12/16/3 11/17/14 10/18/11
f 14/19/15 13/20/16 16/21/17 15/22/18 36/23/19 35/24/20
f 29/14/7 9/13/13 14/19/15 35/24/20
f 10/18/11 11/17/14 16/21/17 13/20/16
f 9/13/13 10/18/11 13/20/16 14/19/15
f 12/16/3 30/15/4 36/23/19 15/22/18
f 11/17/14 12/16/3 15/22/18 16/21/17
f 20/1/1 17/4/4 21/25/21 28/26/22
f 25/27/23 24/28/24 18/7/7 19/6/6
f 27/29/25 22/30/26 23/31/27 26/32/28
f 25/27/23 26/32/28 23/31/27 24/28/24
f 27/29/25 28/26/22 21/25/21 22/30/26
f 23/31/27 22/30/26 21/25/21 17/4/4 18/7/7 24/28/24
f 31/33/24 32/34/27 33/35/29 34/36/21 30/15/4 29/14/7
f 38/37/30 35/24/20 36/23/19 39/38/31 40/39/32 37/40/33
f 29/14/7 35/24/20 38/37/30 31/33/24
f 32/34/27 37/40/33 40/39/32 33/35/29
f 31/33/24 38/37/30 37/40/33 32/34/27
f 34/36/21 39/38/31 36/23/19 30/15/4
f 33/35/29 40/39/32 39/38/31 34/36/21
