# Blender 4.0.2
# www.blender.org
mtllib elev_base.mtl
o Cube
v -1.000000 -0.030395 1.000000
v -1.000000 0.161859 1.000000
v -1.000000 -0.030395 -1.000000
v -1.000000 0.161859 -1.000000
v 1.000000 -0.030395 1.000000
v 1.000000 0.161859 1.000000
v 1.000000 -0.030395 -1.000000
v 1.000000 0.161859 -1.000000
v -0.813312 0.161859 0.813312
v -0.813312 0.161859 -0.813312
v 0.813312 0.161859 -0.813312
v 0.813312 0.161859 0.813312
v 0.814206 0.161859 -1.000000
v 1.000000 0.161859 -0.812981
v -0.813382 0.161859 -1.000000
v -1.000000 0.161859 -0.812981
v -0.813382 0.161859 1.000000
v -1.000000 0.161859 0.814606
v 0.814206 0.161859 1.000000
v 1.000000 0.161859 0.814606
v -1.000000 3.161859 -0.812981
v -1.000000 3.161859 -1.000000
v 0.814206 3.161859 -1.000000
v 1.000000 3.161859 -1.000000
v 1.000000 3.161859 0.814606
v 1.000000 3.161859 1.000000
v -0.813382 3.161859 1.000000
v -1.000000 3.161859 1.000000
v 0.813312 3.161859 -0.813312
v 0.813312 3.161859 0.813312
v -0.813312 3.161859 0.813312
v -0.813312 3.161859 -0.813312
v 1.000000 3.161859 -0.812981
v -0.813382 3.161859 -1.000000
v -1.000000 3.161859 0.814606
v 0.814206 3.161859 1.000000
v -1.000000 3.161859 -0.812981
v -1.000000 3.161859 -1.000000
v 0.814206 3.161859 -1.000000
v 1.000000 3.161859 -1.000000
v 1.000000 3.161859 0.814606
v 1.000000 3.161859 1.000000
v -0.813382 3.161859 1.000000
v -1.000000 3.161859 1.000000
v 0.813312 3.161859 -0.813312
v 0.813312 3.161859 0.813312
v -0.813312 3.161859 0.813312
v -0.813312 3.161859 -0.813312
v 1.000000 3.161859 -0.812981
v -0.813382 3.161859 -1.000000
v -1.000000 3.161859 0.814606
v 0.814206 3.161859 1.000000
v -1.000000 3.433737 -0.812981
v -1.000000 3.433737 -1.000000
v 0.814206 3.433737 -1.000000
v 1.000000 3.433737 -1.000000
v 1.000000 3.433737 0.814606
v 1.000000 3.433737 1.000000
v -0.813382 3.433737 1.000000
v -1.000000 3.433737 1.000000
v 0.813312 3.433737 -0.813312
v 0.813312 3.433737 0.813312
v -0.813312 3.433737 0.813312
v -0.813312 3.433737 -0.813312
v 1.000000 3.433737 -0.812981
v -0.813382 3.433737 -1.000000
v -1.000000 3.433737 0.814606
v 0.814206 3.433737 1.000000
v 0.906656 3.161859 -0.813147
v 0.906656 3.161859 0.813959
v 0.813312 3.161859 0.000000
v 1.000000 3.161859 0.000812
v 0.906656 3.161859 0.000406
v 0.813312 0.161859 0.000000
v 0.906656 0.161859 -0.813147
v 1.000000 0.161859 0.000812
v 0.906656 0.161859 0.813959
v 0.906656 0.161859 0.000406
v 1.514891 -0.097538 -1.000000
v 1.514891 -0.289792 -1.000000
v 1.514891 -0.289792 1.000000
v 1.514891 -0.097538 0.814606
v 1.514891 -0.097538 1.000000
v 1.514891 -0.097538 -0.812981
v 1.514891 -0.097538 0.000812
vn -1.0000 -0.0000 -0.0000
vn -0.0000 -0.0000 -1.0000
vn -0.4499 -0.8931 -0.0000
vn -0.0000 -0.0000 1.0000
vn -0.0000 -1.0000 -0.0000
vn -0.0011 0.9863 -0.1648
vn -0.0000 1.0000 -0.0000
vn -0.1648 0.9863 0.0008
vn 0.0069 -0.0000 -1.0000
vn 1.0000 -0.0000 -0.0000
vn -0.0018 -0.0000 1.0000
vn -0.1649 0.9863 0.0001
vn -0.1649 0.9863 -0.0001
vn -0.0003 0.9863 -0.1649
vn -0.1648 0.9863 -0.0008
vn 0.4499 0.8931 -0.0000
vt 0.375000 0.000000
vt 0.625000 0.000000
vt 0.625000 0.023174
vt 0.625000 0.226623
vt 0.625000 0.250000
vt 0.375000 0.250000
vt 0.625000 0.273327
vt 0.625000 0.476776
vt 0.625000 0.500000
vt 0.375000 0.500000
vt 0.375000 0.750000
vt 0.625000 0.750000
vt 0.625000 0.773224
vt 0.625000 0.976673
vt 0.625000 1.000000
vt 0.375000 1.000000
vt 0.125000 0.500000
vt 0.125000 0.750000
vt 0.875000 0.500000
vt 0.875000 0.750000
vt 0.625000 0.625000
vt 0.625000 0.625051
vt 0.625000 0.625102
vt 0.625000 0.523377
vt 0.625000 0.511689
vt 0.625000 0.726826
vt 0.625000 0.738413
vt 0.000000 0.000000
s 0
f 1/1/1 2/2/1 18/3/1 16/4/1 4/5/1 3/6/1
f 3/6/2 4/5/2 15/7/2 13/8/2 8/9/2 7/10/2
f 5/11/3 7/10/3 80/10/3 81/11/3
f 5/11/4 6/12/4 19/13/4 17/14/4 2/15/4 1/16/4
f 3/17/5 7/10/5 5/11/5 1/18/5
f 63/2/6 21/4/6 67/3/6
f 11/9/7 10/19/7 9/20/7 12/12/7 74/21/7
f 2/15/4 17/14/4 27/14/4 28/15/4
f 62/12/8 27/14/8 68/13/8
f 39/8/7 23/8/7 13/8/7
f 27/14/7 31/15/7 47/15/7 43/14/7
f 39/8/2 15/7/2 55/8/2
f 19/13/4 6/12/4 26/12/4 36/13/4
f 4/5/1 16/4/1 21/4/1 22/5/1
f 67/3/1 21/4/1 16/4/1
f 68/13/4 27/14/4 17/14/4
f 15/7/2 4/5/2 22/5/2 34/7/2
f 51/3/1 16/4/1 18/3/1
f 78/22/7 76/23/7 14/24/7 75/25/7
f 21/4/7 32/5/7 48/5/7 37/4/7
f 32/5/7 34/7/7 50/7/7 48/5/7
f 25/26/7 30/12/7 46/12/7 70/27/7 41/26/7
f 34/7/7 22/5/7 38/5/7 50/7/7
f 30/12/7 52/13/7 46/12/7
f 28/15/7 27/14/7 43/14/7 44/15/7
f 29/9/5 33/24/5 49/24/5 69/25/5 45/9/5
f 8/9/2 13/8/2 23/8/2 24/9/2
f 20/26/9 77/27/9 12/12/9 30/12/9 25/26/9
f 55/8/2 15/7/2 34/7/2
f 52/13/4 17/14/4 19/13/4
f 14/24/10 8/9/10 24/9/10 33/24/10
f 18/3/1 2/2/1 28/2/1 35/3/1
f 6/12/10 20/26/10 25/26/10 26/12/10
f 11/9/11 75/25/11 14/24/11 33/24/11 29/9/11
f 52/13/4 42/12/4 58/12/4 68/13/4
f 42/12/10 41/26/10 57/26/10 58/12/10
f 49/24/10 40/9/10 56/9/10 65/24/10
f 51/3/7 18/3/7 35/3/7
f 40/9/2 39/8/2 55/8/2 56/9/2
f 61/9/12 34/7/12 32/5/12
f 51/3/1 44/2/1 60/2/1 67/3/1
f 38/5/1 37/4/1 53/4/1 54/5/1
f 22/5/7 21/4/7 37/4/7 38/5/7
f 35/3/7 28/2/7 44/2/7 51/3/7
f 23/8/7 45/9/7 39/8/7
f 24/9/7 23/8/7 39/8/7 40/9/7
f 31/2/7 51/3/7 47/2/7
f 33/24/7 24/9/7 40/9/7 49/24/7
f 26/12/7 25/26/7 41/26/7 42/12/7
f 36/13/7 26/12/7 42/12/7 52/13/7
f 58/12/7 57/26/7 62/12/7
f 54/5/7 53/4/7 64/5/7
f 60/15/7 59/14/7 63/15/7
f 56/9/7 55/8/7 61/9/7
f 61/9/7 65/24/7 56/9/7
f 64/5/7 66/7/7 54/5/7
f 63/2/7 67/3/7 60/2/7
f 62/12/7 68/13/7 58/12/7
f 62/12/7 57/26/7 65/24/7 61/9/7
f 44/15/4 43/14/4 59/14/4 60/15/4
f 52/13/7 19/13/7 36/13/7
f 50/7/2 38/5/2 54/5/2 66/7/2
f 46/12/1 62/12/1 61/9/1 45/9/1 71/21/1
f 61/9/4 32/5/4 10/5/4
f 47/15/7 31/2/7 9/2/7
f 46/12/7 30/12/7 12/12/7
f 57/26/10 41/26/10 72/23/10 49/24/10 65/24/10
f 73/22/5 71/21/5 45/9/5 69/25/5
f 62/12/2 9/2/2 31/2/2
f 46/12/2 9/20/2 62/12/2
f 62/12/13 31/15/13 27/14/13
f 30/12/7 36/13/7 52/13/7
f 52/13/4 68/13/4 17/14/4
f 46/12/2 12/12/2 9/20/2
f 47/2/2 63/2/2 62/12/2 46/12/2
f 63/15/7 59/14/7 68/13/7 62/12/7
f 59/14/4 43/14/4 52/13/4 68/13/4
f 43/14/5 47/15/5 46/12/5 52/13/5
f 63/2/10 10/5/10 32/5/10
f 47/2/10 10/19/10 63/2/10
f 63/2/14 32/5/14 21/4/14
f 51/3/1 67/3/1 16/4/1
f 31/2/7 35/3/7 51/3/7
f 47/2/10 9/20/10 10/19/10
f 37/4/5 48/5/5 47/2/5 51/3/5
f 48/5/1 47/2/1 63/2/1 64/5/1
f 64/5/7 53/4/7 67/3/7 63/2/7
f 53/4/1 37/4/1 51/3/1 67/3/1
f 45/9/7 11/9/7 29/9/7
f 45/9/4 10/19/4 11/9/4
f 39/8/2 13/8/2 15/7/2
f 61/9/15 55/8/15 34/7/15
f 23/8/7 29/9/7 45/9/7
f 45/9/4 61/9/4 10/19/4
f 50/7/2 66/7/2 55/8/2 39/8/2
f 66/7/7 64/5/7 61/9/7 55/8/7
f 64/5/2 61/9/2 45/9/2 48/5/2
f 48/5/5 50/7/5 39/8/5 45/9/5
f 63/28/7 62/28/7 61/28/7 64/28/7
f 72/23/5 73/22/5 69/25/5 49/24/5
f 41/26/5 70/27/5 73/22/5 72/23/5
f 70/27/5 46/12/5 71/21/5 73/22/5
f 74/21/7 78/22/7 75/25/7 11/9/7
f 12/12/7 77/27/7 78/22/7 74/21/7
f 77/27/7 20/26/7 76/23/7 78/22/7
f 45/28/5 71/28/5 46/28/5 47/28/5 48/28/5
f 80/10/10 79/9/10 84/24/10 85/23/10 82/26/10 83/12/10 81/11/10
f 76/23/16 20/26/16 82/26/16 85/23/16
f 20/26/16 6/12/16 83/12/16 82/26/16
f 14/24/16 76/23/16 85/23/16 84/24/16
f 7/10/2 8/9/2 79/9/2 80/10/2
f 8/9/16 14/24/16 84/24/16 79/9/16
f 6/12/4 5/11/4 81/11/4 83/12/4
